<svg xmlns="http://www.w3.org/2000/svg" width="15.614" height="15.616" viewBox="0 0 15.614 15.616">
  <g id="djjr" transform="translate(-1724.765 -1065.621)">
    <path id="路径_40218" data-name="路径 40218" d="M6.972,4.749A4.79,4.79,0,0,1,4.754,6.966a1.913,1.913,0,0,0-1.035,2.5,4.79,4.79,0,0,1,0,3.137,1.92,1.92,0,0,0,1.034,2.5,4.785,4.785,0,0,1,2.218,2.218,1.914,1.914,0,0,0,2.5,1.036,4.785,4.785,0,0,1,3.137,0,1.913,1.913,0,0,0,2.5-1.034A4.8,4.8,0,0,1,17.32,15.1a1.915,1.915,0,0,0,1.035-2.5h0a4.789,4.789,0,0,1,0-3.137,1.913,1.913,0,0,0-1.034-2.5,4.782,4.782,0,0,1-2.216-2.219,1.918,1.918,0,0,0-2.5-1.035,4.787,4.787,0,0,1-3.137,0,1.914,1.914,0,0,0-2.5,1.034M8.119,18.071a1.6,1.6,0,0,1-.871-.869,5.064,5.064,0,0,0-2.381-2.383,1.613,1.613,0,0,1-.87-2.1A5.066,5.066,0,0,0,4,9.348a1.611,1.611,0,0,1,.871-2.1,5.056,5.056,0,0,0,2.383-2.38,1.61,1.61,0,0,1,2.1-.87,5.066,5.066,0,0,0,3.369,0,1.613,1.613,0,0,1,2.1.872,5.054,5.054,0,0,0,2.381,2.382,1.612,1.612,0,0,1,.87,2.1,5.06,5.06,0,0,0,0,3.369,1.613,1.613,0,0,1-.871,2.1A5.065,5.065,0,0,0,14.822,17.2a1.614,1.614,0,0,1-2.1.87,5.062,5.062,0,0,0-3.369,0,1.6,1.6,0,0,1-1.231,0" transform="translate(1721.498 1062.432)" fill="#004098" stroke="#004098" stroke-width="0.6"/>
    <path id="路径_48863" data-name="路径 48863" d="M6767.56,1070.186v4h4" transform="translate(5760.211 6618.129) rotate(-135)" fill="none" stroke="#004098" stroke-linecap="round" stroke-linejoin="round" stroke-width="1"/>
  </g>
</svg>
