<svg xmlns="http://www.w3.org/2000/svg" width="63.107" height="63.106" viewBox="0 0 63.107 63.106">
  <g id="组_9078" data-name="组 9078" transform="translate(4762.585 -2904.798)">
    <g id="组_9075" data-name="组 9075" transform="translate(-4761.085 2906.298)">
      <path id="路径_62863" data-name="路径 62863" d="M-4581.383,2924.46v-13.889a4.274,4.274,0,0,0-4.274-4.273h-14.7" transform="translate(4641.49 -2906.298)" fill="none" stroke="#004098" stroke-linecap="round" stroke-miterlimit="10" stroke-width="3"/>
      <path id="路径_62864" data-name="路径 62864" d="M-4761.085,3053.536v13.889a4.273,4.273,0,0,0,4.273,4.273h13.889" transform="translate(4761.085 -3011.592)" fill="none" stroke="#004098" stroke-linecap="round" stroke-miterlimit="10" stroke-width="3"/>
    </g>
    <path id="路径_62865" data-name="路径 62865" d="M-4743.795,2940.15a16.3,16.3,0,0,1-16.3-16.3,16.3,16.3,0,0,1,16.3-16.3,16.3,16.3,0,0,1,16.3,16.3" transform="translate(-0.705 -0.892)" fill="none" stroke="#004098" stroke-linecap="round" stroke-linejoin="round" stroke-width="3"/>
    <path id="路径_62866" data-name="路径 62866" d="M-4727.138,2931.85a8.654,8.654,0,0,1,8.653,8.653,8.654,8.654,0,0,1-8.653,8.653,8.654,8.654,0,0,1-8.654-8.653" transform="translate(-17.362 -17.548)" fill="none" stroke="#004098" stroke-linecap="round" stroke-linejoin="round" stroke-width="3"/>
    <path id="路径_62867" data-name="路径 62867" d="M-4625.955,3023.155l-14.82-8.581-14.849,8.581Z" transform="translate(-75.418 -77.43)" fill="none" stroke="#004098" stroke-linecap="round" stroke-linejoin="round" stroke-width="3"/>
    <line id="直线_1628" data-name="直线 1628" y2="20.251" transform="translate(-4704.006 2945.877)" fill="none" stroke="#004098" stroke-linecap="round" stroke-linejoin="round" stroke-width="3"/>
    <line id="直线_1629" data-name="直线 1629" y2="20.251" transform="translate(-4728.196 2945.93)" fill="none" stroke="#004098" stroke-linecap="round" stroke-linejoin="round" stroke-width="3"/>
    <line id="直线_1630" data-name="直线 1630" x1="30.231" transform="translate(-4731.29 2966.405)" fill="none" stroke="#004098" stroke-linecap="round" stroke-linejoin="round" stroke-width="3"/>
    <line id="直线_1631" data-name="直线 1631" y2="18.451" transform="translate(-4716.208 2947.411)" fill="none" stroke="#004098" stroke-linecap="round" stroke-linejoin="round" stroke-width="3"/>
  </g>
</svg>
