<svg xmlns="http://www.w3.org/2000/svg" width="62.938" height="63.171" viewBox="0 0 62.938 63.171">
  <g id="组_9073" data-name="组 9073" transform="translate(1.5 1.5)">
    <g id="组_9072" data-name="组 9072" transform="translate(0 0.233)">
      <path id="路径_62857" data-name="路径 62857" d="M-2594.9,4437.443v-13.707a4.218,4.218,0,0,0-4.217-4.217h-8.084" transform="translate(2654.213 -4419.52)" fill="none" stroke="#004098" stroke-linecap="round" stroke-miterlimit="10" stroke-width="3"/>
      <path id="路径_62858" data-name="路径 62858" d="M-2774.435,4586.758v8.084a4.217,4.217,0,0,0,4.217,4.217h13.707" transform="translate(2774.435 -4539.742)" fill="none" stroke="#004098" stroke-linecap="round" stroke-miterlimit="10" stroke-width="3"/>
      <g id="组_9071" data-name="组 9071" transform="translate(31.612 30.318)">
        <ellipse id="椭圆_713" data-name="椭圆 713" cx="12.592" cy="12.592" rx="12.592" ry="12.592" fill="none" stroke="#004098" stroke-linecap="round" stroke-linejoin="round" stroke-width="3"/>
        <line id="直线_1627" data-name="直线 1627" x1="6.712" y1="7.002" transform="translate(20.993 21.997)" fill="none" stroke="#004098" stroke-linecap="round" stroke-linejoin="round" stroke-width="3"/>
      </g>
    </g>
    <path id="路径_62859" data-name="路径 62859" d="M-2748.758,4428.85l-.241-.241a4.315,4.315,0,0,1,0-6.1l2.553-2.553a4.315,4.315,0,0,1,6.1,0l1.915,1.916a4.305,4.305,0,0,1,1.052,4.388c-1.129,3.429-3.969,9.782-10.786,16.6-6.863,6.864-13.372,9.7-16.857,10.821a4.313,4.313,0,0,1-4.368-1.059l-1.814-1.814a4.315,4.315,0,0,1,0-6.1l1.828-1.827a4.315,4.315,0,0,1,6.1,0h0a4.311,4.311,0,0,0,5.34.607c2.977-1.872,7.43-5.184,9.9-9.491A4.283,4.283,0,0,0-2748.758,4428.85Z" transform="translate(2773.02 -4418.69)" fill="none" stroke="#004098" stroke-linecap="round" stroke-linejoin="round" stroke-width="3"/>
    <path id="路径_62860" data-name="路径 62860" d="M-2737.324,4449.1a6.7,6.7,0,0,0-6.7,6.7" transform="translate(2752.573 -4440.554)" fill="none" stroke="#004098" stroke-linecap="round" stroke-linejoin="round" stroke-width="3"/>
    <path id="路径_62861" data-name="路径 62861" d="M-2754.719,4425.943a11.652,11.652,0,0,0-11.652,11.652" transform="translate(2768.638 -4423.904)" fill="none" stroke="#004098" stroke-linecap="round" stroke-linejoin="round" stroke-width="3"/>
  </g>
</svg>
