<?xml version="1.0" standalone="no"?><!DOCTYPE svg PUBLIC "-//W3C//DTD SVG 1.1//EN" "http://www.w3.org/Graphics/SVG/1.1/DTD/svg11.dtd"><svg t="1756273038531" class="icon" viewBox="0 0 1024 1024" version="1.1" xmlns="http://www.w3.org/2000/svg" p-id="38687" width="50" height="50" xmlns:xlink="http://www.w3.org/1999/xlink"><path d="M518.144 807.424c-12.8 0-23.552-10.24-23.552-23.552v-194.048H353.28c-12.8 0-23.552-10.24-23.552-23.552s10.752-23.552 23.552-23.552h140.8v-97.28H353.28c-12.8 0-23.552-10.24-23.552-23.552 0-12.8 10.752-23.552 23.552-23.552h86.528l-54.272-95.744c-3.072-5.12-3.584-11.776-2.048-17.408 1.536-6.144 5.632-11.264 11.264-14.336 3.584-2.048 7.68-3.072 11.776-3.072 8.704 0 16.384 4.608 20.48 11.776l60.928 107.008c0 0.512 0.512 1.536 1.024 2.048l5.12 9.216h43.008l70.656-118.784c4.096-7.168 12.288-11.776 20.48-11.776 4.096 0 8.192 1.024 11.776 3.072 5.632 3.072 9.216 8.192 10.752 14.336 1.536 6.144 0.512 12.288-2.56 17.408l-56.32 95.232h91.136c12.8 0 23.552 10.24 23.552 23.552 0 12.8-10.752 23.552-23.552 23.552h-140.8v97.28h140.8c12.8 0 23.552 10.24 23.552 23.552s-10.752 23.552-23.552 23.552h-140.8v194.048c-0.512 13.824-11.264 24.576-24.064 24.576z" p-id="38688" fill="#004098"></path><path d="M962.56 46.08c8.192 0 15.36 7.168 15.36 15.36v901.12c0 8.192-7.168 15.36-15.36 15.36h-901.12c-8.192 0-15.36-7.168-15.36-15.36V61.44c0-8.192 7.168-15.36 15.36-15.36h901.12m0-46.08h-901.12c-33.792 0-61.44 27.648-61.44 61.44v901.12c0 33.792 27.648 61.44 61.44 61.44h901.12c33.792 0 61.44-27.648 61.44-61.44V61.44c0-33.792-27.648-61.44-61.44-61.44z" p-id="38689" fill="#004098"></path></svg>