<svg xmlns="http://www.w3.org/2000/svg" width="34.294" height="34.296" viewBox="0 0 34.294 34.296">
  <g id="组_9062" data-name="组 9062" transform="translate(0.514 0.514)">
    <path id="路径_62785" data-name="路径 62785" d="M32.943,13.147a4.274,4.274,0,0,0-2.308-5.573A10.656,10.656,0,0,1,25.7,2.636,4.273,4.273,0,0,0,20.129.326a10.653,10.653,0,0,1-6.98,0A4.272,4.272,0,0,0,7.573,2.632,10.657,10.657,0,0,1,2.637,7.566,4.27,4.27,0,0,0,.328,13.138a10.661,10.661,0,0,1,0,6.979,4.273,4.273,0,0,0,2.309,5.576,10.642,10.642,0,0,1,4.931,4.938,4.271,4.271,0,0,0,5.573,2.31,10.661,10.661,0,0,1,6.982,0,4.269,4.269,0,0,0,5.573-2.308A10.657,10.657,0,0,1,30.631,25.7a4.274,4.274,0,0,0,2.309-5.577,10.653,10.653,0,0,1,0-6.978" transform="translate(0 0)" fill="#fff" stroke="#bcc7d6" stroke-width="1"/>
    <path id="路径_62784" data-name="路径 62784" d="M19.608,7.825a2.544,2.544,0,0,0-1.374-3.317A6.343,6.343,0,0,1,15.3,1.569,2.543,2.543,0,0,0,11.981.194a6.341,6.341,0,0,1-4.155,0A2.543,2.543,0,0,0,4.508,1.567,6.343,6.343,0,0,1,1.569,4.5,2.541,2.541,0,0,0,.2,7.82a6.345,6.345,0,0,1,0,4.154,2.543,2.543,0,0,0,1.375,3.319A6.334,6.334,0,0,1,4.5,18.232,2.542,2.542,0,0,0,7.82,19.606a6.346,6.346,0,0,1,4.156,0,2.541,2.541,0,0,0,3.317-1.374A6.343,6.343,0,0,1,18.232,15.3a2.544,2.544,0,0,0,1.374-3.319,6.341,6.341,0,0,1,0-4.154" transform="translate(6.733 6.734)" fill="#004098"/>
  </g>
</svg>
