<svg xmlns="http://www.w3.org/2000/svg" xmlns:xlink="http://www.w3.org/1999/xlink" width="11.767" height="11.768" viewBox="0 0 11.767 11.768">
  <defs>
    <clipPath id="clip-path">
      <rect id="矩形_11366" data-name="矩形 11366" width="11.767" height="11.768" transform="translate(0 0)" fill="#004098"/>
    </clipPath>
  </defs>
  <g id="xyp21dot" transform="translate(0 0)" clip-path="url(#clip-path)">
    <path id="路径_62781" data-name="路径 62781" d="M11.652,4.65a1.512,1.512,0,0,0-.816-1.971A3.769,3.769,0,0,1,9.091.932,1.511,1.511,0,0,0,7.12.115a3.768,3.768,0,0,1-2.469,0A1.511,1.511,0,0,0,2.679.931,3.769,3.769,0,0,1,.933,2.676,1.51,1.51,0,0,0,.116,4.647a3.771,3.771,0,0,1,0,2.469A1.511,1.511,0,0,0,.932,9.088a3.764,3.764,0,0,1,1.744,1.747,1.511,1.511,0,0,0,1.971.817,3.771,3.771,0,0,1,2.47,0,1.51,1.51,0,0,0,1.971-.816,3.77,3.77,0,0,1,1.746-1.745,1.512,1.512,0,0,0,.817-1.973,3.768,3.768,0,0,1,0-2.468" transform="translate(0 0)" fill="#004098"/>
  </g>
</svg>
