<svg xmlns="http://www.w3.org/2000/svg" width="12.597" height="15.742" viewBox="0 0 12.597 15.742">
  <path id="addr" d="M176.8,101.011a.789.789,0,0,1-.6-.275c-.127-.149-3.141-3.66-3.966-4.766a7.529,7.529,0,0,1-1.734-4.4,6.309,6.309,0,0,1,2.665-5.145,6.379,6.379,0,0,1,5.892-.754,5.255,5.255,0,0,1,2.145,1.47c2.477,2.78,2.527,5.84.142,8.852-.943,1.192-3.824,4.6-3.947,4.742a.787.787,0,0,1-.6.279A0,0,0,0,1,176.8,101.011Zm0-14.165a4.713,4.713,0,0,0-4.724,4.718,6.056,6.056,0,0,0,1.422,3.466c.574.771,2.352,2.87,3.3,3.977.92-1.092,2.649-3.151,3.317-4,1.9-2.4,1.874-4.635-.081-6.829a3.679,3.679,0,0,0-1.5-1.033A5.222,5.222,0,0,0,176.8,86.847Zm0,7.474a2.754,2.754,0,1,1,2.754-2.754A2.758,2.758,0,0,1,176.8,94.321Zm0-3.934a1.181,1.181,0,1,0,1.181,1.181A1.182,1.182,0,0,0,176.8,90.386Z" transform="translate(-170.5 -85.269)" fill="#2a63a5"/>
</svg>
