<svg xmlns="http://www.w3.org/2000/svg" width="20.903" height="24.391" viewBox="0 0 20.903 24.391">
  <g id="组_571" data-name="组 571" transform="translate(-280.447 -3027.21)">
    <path id="路径_304" data-name="路径 304" d="M149.535,707.108a.871.871,0,0,1,1.128-.494c2.083.813,3.36,1.993,3.36,3.456,0,2.771-4.715,4.613-10.451,4.613s-10.451-1.841-10.451-4.613c0-1.464,1.277-2.643,3.36-3.456a.871.871,0,1,1,.634,1.622c-1.486.58-2.252,1.287-2.252,1.835,0,1.362,3.864,2.87,8.71,2.87s8.71-1.509,8.71-2.871c0-.547-.765-1.254-2.252-1.834a.871.871,0,0,1-.495-1.128Z" transform="translate(147.327 2336.918)" fill="#0168b7"/>
    <path id="路径_305" data-name="路径 305" d="M190.235,135.5l-.1.1-.1.1a8.583,8.583,0,0,0,.2,12.137l4.56,4.413a2.491,2.491,0,0,0,3.464,0l4.56-4.413c.067-.065.134-.132.2-.2a8.583,8.583,0,0,0-.2-12.137,9.047,9.047,0,0,0-12.583,0Zm1.211,1.252a7.306,7.306,0,0,1,10.161,0,6.841,6.841,0,0,1,.159,9.674l-.078.08-4.639,4.491a.749.749,0,0,1-1.042,0l-4.56-4.413a6.841,6.841,0,0,1-.159-9.674l.159-.159Z" transform="translate(94.373 2894.26)" fill="#0168b7"/>
    <path id="路径_306" data-name="路径 306" d="M362.464,307.2a4.064,4.064,0,1,0,4.064,4.064A4.064,4.064,0,0,0,362.464,307.2Zm0,1.742a2.323,2.323,0,1,1-2.323,2.323A2.323,2.323,0,0,1,362.464,308.942Z" transform="translate(-71.566 2724.95)" fill="#0168b7"/>
  </g>
</svg>
