<svg xmlns="http://www.w3.org/2000/svg" width="623.701" height="112.905" viewBox="0 0 623.701 112.905">
  <g id="build" transform="translate(-13661.743 507.196)" opacity="0.458">
    <path id="路径_62342" data-name="路径 62342" d="M213.671,33.931H143.962v5.5h2.5V98.638H211.17V39.429h2.5Z" transform="translate(13518.001 -493.15)" fill="none" stroke="#fff" stroke-linecap="round" stroke-linejoin="round" stroke-width="0.44"/>
    <path id="路径_62343" data-name="路径 62343" d="M206.087,22.379H169.98v5.5h2.5V134.843h31.1V27.877h2.5Z" transform="translate(13599.544 -529.355)" fill="none" stroke="#fff" stroke-linecap="round" stroke-linejoin="round" stroke-width="0.44"/>
    <rect id="矩形_7933" data-name="矩形 7933" width="12.373" height="37.426" transform="translate(13671.36 -431.937)" fill="none" stroke="#fff" stroke-linecap="round" stroke-linejoin="round" stroke-width="0.44"/>
    <rect id="矩形_7934" data-name="矩形 7934" width="12.373" height="37.426" transform="translate(13690.63 -431.937)" fill="none" stroke="#fff" stroke-linecap="round" stroke-linejoin="round" stroke-width="0.44"/>
    <rect id="矩形_7935" data-name="矩形 7935" width="12.373" height="37.426" transform="translate(13709.9 -431.937)" fill="none" stroke="#fff" stroke-linecap="round" stroke-linejoin="round" stroke-width="0.44"/>
    <rect id="矩形_7936" data-name="矩形 7936" width="12.373" height="64.707" transform="translate(13781.39 -459.218)" fill="none" stroke="#fff" stroke-linecap="round" stroke-linejoin="round" stroke-width="0.44"/>
    <rect id="矩形_7937" data-name="矩形 7937" width="15.842" height="37.645" transform="translate(13845.949 -432.185)" fill="none" stroke="#fff" stroke-linecap="round" stroke-linejoin="round" stroke-width="0.44"/>
    <rect id="矩形_7938" data-name="矩形 7938" width="7.326" height="37.645" transform="translate(13912.212 -432.185)" fill="none" stroke="#fff" stroke-linecap="round" stroke-linejoin="round" stroke-width="0.44"/>
    <rect id="矩形_7939" data-name="矩形 7939" width="7.326" height="37.645" transform="translate(13969.955 -432.185)" fill="none" stroke="#fff" stroke-linecap="round" stroke-linejoin="round" stroke-width="0.44"/>
    <rect id="矩形_7940" data-name="矩形 7940" width="7.495" height="37.645" transform="translate(14027.53 -432.185)" fill="none" stroke="#fff" stroke-linecap="round" stroke-linejoin="round" stroke-width="0.44"/>
    <rect id="矩形_7941" data-name="矩形 7941" width="15.842" height="37.645" transform="translate(14085.282 -432.189)" fill="none" stroke="#fff" stroke-linecap="round" stroke-linejoin="round" stroke-width="0.44"/>
    <rect id="矩形_7942" data-name="矩形 7942" width="50.419" height="47.865" transform="translate(13861.791 -442.409)" fill="none" stroke="#fff" stroke-linecap="round" stroke-linejoin="round" stroke-width="0.44"/>
    <rect id="矩形_7943" data-name="矩形 7943" width="50.419" height="47.865" transform="translate(13919.534 -442.409)" fill="none" stroke="#fff" stroke-linecap="round" stroke-linejoin="round" stroke-width="0.44"/>
    <rect id="矩形_7944" data-name="矩形 7944" width="4.762" height="31.254" transform="translate(13729.169 -425.765)" fill="none" stroke="#fff" stroke-linecap="round" stroke-linejoin="round" stroke-width="0.44"/>
    <rect id="矩形_7945" data-name="矩形 7945" width="4.762" height="31.254" transform="translate(13733.934 -425.765)" fill="none" stroke="#fff" stroke-linecap="round" stroke-linejoin="round" stroke-width="0.44"/>
    <rect id="矩形_7946" data-name="矩形 7946" width="4.762" height="31.254" transform="translate(13738.697 -425.765)" fill="none" stroke="#fff" stroke-linecap="round" stroke-linejoin="round" stroke-width="0.44"/>
    <rect id="矩形_7947" data-name="矩形 7947" width="4.762" height="31.254" transform="translate(13743.452 -425.765)" fill="none" stroke="#fff" stroke-linecap="round" stroke-linejoin="round" stroke-width="0.44"/>
    <rect id="矩形_7948" data-name="矩形 7948" width="4.762" height="31.254" transform="translate(13748.216 -425.765)" fill="none" stroke="#fff" stroke-linecap="round" stroke-linejoin="round" stroke-width="0.44"/>
    <rect id="矩形_7949" data-name="矩形 7949" width="4.762" height="31.254" transform="translate(13752.977 -425.765)" fill="none" stroke="#fff" stroke-linecap="round" stroke-linejoin="round" stroke-width="0.44"/>
    <rect id="矩形_7950" data-name="矩形 7950" width="4.762" height="31.254" transform="translate(13757.74 -425.765)" fill="none" stroke="#fff" stroke-linecap="round" stroke-linejoin="round" stroke-width="0.44"/>
    <rect id="矩形_7951" data-name="矩形 7951" width="4.762" height="31.254" transform="translate(13762.505 -425.765)" fill="none" stroke="#fff" stroke-linecap="round" stroke-linejoin="round" stroke-width="0.44"/>
    <rect id="矩形_7952" data-name="矩形 7952" width="4.762" height="31.254" transform="translate(13767.261 -425.765)" fill="none" stroke="#fff" stroke-linecap="round" stroke-linejoin="round" stroke-width="0.44"/>
    <rect id="矩形_7953" data-name="矩形 7953" width="4.762" height="31.254" transform="translate(13803.132 -425.765)" fill="none" stroke="#fff" stroke-linecap="round" stroke-linejoin="round" stroke-width="0.44"/>
    <rect id="矩形_7954" data-name="矩形 7954" width="4.762" height="31.254" transform="translate(13807.89 -425.765)" fill="none" stroke="#fff" stroke-linecap="round" stroke-linejoin="round" stroke-width="0.44"/>
    <rect id="矩形_7955" data-name="矩形 7955" width="4.762" height="31.254" transform="translate(13812.649 -425.765)" fill="none" stroke="#fff" stroke-linecap="round" stroke-linejoin="round" stroke-width="0.44"/>
    <rect id="矩形_7956" data-name="矩形 7956" width="4.762" height="31.254" transform="translate(13817.414 -425.765)" fill="none" stroke="#fff" stroke-linecap="round" stroke-linejoin="round" stroke-width="0.44"/>
    <rect id="矩形_7957" data-name="矩形 7957" width="4.762" height="31.254" transform="translate(13822.174 -425.765)" fill="none" stroke="#fff" stroke-linecap="round" stroke-linejoin="round" stroke-width="0.44"/>
    <rect id="矩形_7958" data-name="矩形 7958" width="4.762" height="31.254" transform="translate(13826.938 -425.765)" fill="none" stroke="#fff" stroke-linecap="round" stroke-linejoin="round" stroke-width="0.44"/>
    <rect id="矩形_7959" data-name="矩形 7959" width="4.762" height="31.254" transform="translate(13831.698 -425.765)" fill="none" stroke="#fff" stroke-linecap="round" stroke-linejoin="round" stroke-width="0.44"/>
    <rect id="矩形_7960" data-name="矩形 7960" width="4.762" height="31.254" transform="translate(13836.462 -425.765)" fill="none" stroke="#fff" stroke-linecap="round" stroke-linejoin="round" stroke-width="0.44"/>
    <rect id="矩形_7961" data-name="矩形 7961" width="4.762" height="31.254" transform="translate(13841.223 -425.765)" fill="none" stroke="#fff" stroke-linecap="round" stroke-linejoin="round" stroke-width="0.44"/>
    <path id="路径_62344" data-name="路径 62344" d="M277.861,33.931H347.57v5.5h-2.5V98.638H280.362V39.429h-2.5Z" transform="translate(13937.653 -493.15)" fill="none" stroke="#fff" stroke-linecap="round" stroke-linejoin="round" stroke-width="0.44"/>
    <path id="路径_62345" data-name="路径 62345" d="M259.971,22.379h36.107v5.5h-2.5V134.843h-31.1V27.877h-2.5Z" transform="translate(13881.584 -529.355)" fill="none" stroke="#fff" stroke-linecap="round" stroke-linejoin="round" stroke-width="0.44"/>
    <rect id="矩形_7962" data-name="矩形 7962" width="12.373" height="37.426" transform="translate(14263.452 -431.937)" fill="none" stroke="#fff" stroke-linecap="round" stroke-linejoin="round" stroke-width="0.44"/>
    <rect id="矩形_7963" data-name="矩形 7963" width="12.373" height="37.426" transform="translate(14244.184 -431.937)" fill="none" stroke="#fff" stroke-linecap="round" stroke-linejoin="round" stroke-width="0.44"/>
    <rect id="矩形_7964" data-name="矩形 7964" width="12.373" height="37.426" transform="translate(14224.913 -431.937)" fill="none" stroke="#fff" stroke-linecap="round" stroke-linejoin="round" stroke-width="0.44"/>
    <rect id="矩形_7965" data-name="矩形 7965" width="12.373" height="64.707" transform="translate(14153.423 -459.218)" fill="none" stroke="#fff" stroke-linecap="round" stroke-linejoin="round" stroke-width="0.44"/>
    <rect id="矩形_7966" data-name="矩形 7966" width="50.25" height="47.865" transform="translate(14035.03 -442.409)" fill="none" stroke="#fff" stroke-linecap="round" stroke-linejoin="round" stroke-width="0.44"/>
    <rect id="矩形_7967" data-name="矩形 7967" width="50.25" height="47.865" transform="translate(13977.283 -442.409)" fill="none" stroke="#fff" stroke-linecap="round" stroke-linejoin="round" stroke-width="0.44"/>
    <rect id="矩形_7968" data-name="矩形 7968" width="4.763" height="31.254" transform="translate(14213.258 -425.765)" fill="none" stroke="#fff" stroke-linecap="round" stroke-linejoin="round" stroke-width="0.44"/>
    <rect id="矩形_7969" data-name="矩形 7969" width="4.763" height="31.254" transform="translate(14208.494 -425.765)" fill="none" stroke="#fff" stroke-linecap="round" stroke-linejoin="round" stroke-width="0.44"/>
    <rect id="矩形_7970" data-name="矩形 7970" width="4.763" height="31.254" transform="translate(14203.729 -425.765)" fill="none" stroke="#fff" stroke-linecap="round" stroke-linejoin="round" stroke-width="0.44"/>
    <rect id="矩形_7971" data-name="矩形 7971" width="4.763" height="31.254" transform="translate(14198.971 -425.765)" fill="none" stroke="#fff" stroke-linecap="round" stroke-linejoin="round" stroke-width="0.44"/>
    <rect id="矩形_7972" data-name="矩形 7972" width="4.763" height="31.254" transform="translate(14194.205 -425.765)" fill="none" stroke="#fff" stroke-linecap="round" stroke-linejoin="round" stroke-width="0.44"/>
    <rect id="矩形_7973" data-name="矩形 7973" width="4.763" height="31.254" transform="translate(14189.446 -425.765)" fill="none" stroke="#fff" stroke-linecap="round" stroke-linejoin="round" stroke-width="0.44"/>
    <rect id="矩形_7974" data-name="矩形 7974" width="4.763" height="31.254" transform="translate(14184.688 -425.765)" fill="none" stroke="#fff" stroke-linecap="round" stroke-linejoin="round" stroke-width="0.44"/>
    <rect id="矩形_7975" data-name="矩形 7975" width="4.763" height="31.254" transform="translate(14179.923 -425.765)" fill="none" stroke="#fff" stroke-linecap="round" stroke-linejoin="round" stroke-width="0.44"/>
    <rect id="矩形_7976" data-name="矩形 7976" width="4.763" height="31.254" transform="translate(14175.158 -425.765)" fill="none" stroke="#fff" stroke-linecap="round" stroke-linejoin="round" stroke-width="0.44"/>
    <rect id="矩形_7977" data-name="矩形 7977" width="4.763" height="31.254" transform="translate(14139.296 -425.765)" fill="none" stroke="#fff" stroke-linecap="round" stroke-linejoin="round" stroke-width="0.44"/>
    <rect id="矩形_7978" data-name="矩形 7978" width="4.763" height="31.254" transform="translate(14134.537 -425.765)" fill="none" stroke="#fff" stroke-linecap="round" stroke-linejoin="round" stroke-width="0.44"/>
    <rect id="矩形_7979" data-name="矩形 7979" width="4.763" height="31.254" transform="translate(14129.772 -425.765)" fill="none" stroke="#fff" stroke-linecap="round" stroke-linejoin="round" stroke-width="0.44"/>
    <rect id="矩形_7980" data-name="矩形 7980" width="4.763" height="31.254" transform="translate(14125.009 -425.765)" fill="none" stroke="#fff" stroke-linecap="round" stroke-linejoin="round" stroke-width="0.44"/>
    <rect id="矩形_7981" data-name="矩形 7981" width="4.762" height="31.254" transform="translate(14120.253 -425.765)" fill="none" stroke="#fff" stroke-linecap="round" stroke-linejoin="round" stroke-width="0.44"/>
    <rect id="矩形_7982" data-name="矩形 7982" width="4.762" height="31.254" transform="translate(14115.488 -425.765)" fill="none" stroke="#fff" stroke-linecap="round" stroke-linejoin="round" stroke-width="0.44"/>
    <rect id="矩形_7983" data-name="矩形 7983" width="4.762" height="31.254" transform="translate(14110.725 -425.765)" fill="none" stroke="#fff" stroke-linecap="round" stroke-linejoin="round" stroke-width="0.44"/>
    <rect id="矩形_7984" data-name="矩形 7984" width="4.762" height="31.254" transform="translate(14105.965 -425.765)" fill="none" stroke="#fff" stroke-linecap="round" stroke-linejoin="round" stroke-width="0.44"/>
    <rect id="矩形_7985" data-name="矩形 7985" width="4.762" height="31.254" transform="translate(14101.201 -425.765)" fill="none" stroke="#fff" stroke-linecap="round" stroke-linejoin="round" stroke-width="0.44"/>
    <path id="路径_62346" data-name="路径 62346" d="M197.313,44.215s-.343.054-.442-1.625a1.069,1.069,0,0,1,.57-.93c1.5-.074,1.914.566,1.914.566.062.2.165.356.24.542a1.756,1.756,0,0,1-.335,1.087,2.973,2.973,0,0,1-1.947.36" transform="translate(13683.822 -468.943)" fill="#fff" fill-rule="evenodd"/>
    <path id="路径_62347" data-name="路径 62347" d="M207.943,46.5c.773-.1.765,1.079.765,1.079l-.107,3.878-.112,1.439a13.054,13.054,0,0,0,.12,2.009c.029.707.029,1.554-.017,2.3a4.687,4.687,0,0,1-.149,1.575c-.529-.112-.856-.521-1.24-.707,0,.033,0,.025.045.066-.124.066-.232-.1-.347-.058a1.121,1.121,0,0,0,.265.207c-.025.045-.066.054-.058.124.157.182.384.285.471.529-.1-.017-.153-.021-.2.033.087.236.335.306.434.525-.165-.074-.289-.356-.467-.306.062.314.513.327.455.7a6.75,6.75,0,0,0,.5.67s-.083.633.653.529a1.46,1.46,0,0,0,.777-.959,19.584,19.584,0,0,0-.124-3.535,8.463,8.463,0,0,0-.074-3.225,6.777,6.777,0,0,1,.091-1.186,25.327,25.327,0,0,0,.107-4.469c.467-1.654-.161-1.955-.161-1.955a1.561,1.561,0,0,0-1.178-.021c.19-.7,2.166-2.071,2.166-2.071,2.757-1.211,1.323-1.972,1.323-1.972s-.971-.678-2.7,1.091c0,0-3.9,2.633-5.246,3.849a28.057,28.057,0,0,0-3.646,4.246,10.9,10.9,0,0,0-1.406,2.708c-.091.442-.471,1.716-.785,2.724a1.891,1.891,0,0,1-.165-.93,30.131,30.131,0,0,1,.7-4.738s1.757-1.017.972-2.447a.829.829,0,0,0-.318-.24,8.307,8.307,0,0,0-1.439-.484c-.265-.029-.38.223-.608.384,0,0-.376.566.074,2l.012.045c.062.19-.525,4.775-.525,4.775-.7,4.982,1.5,3.75,1.5,3.75a4.976,4.976,0,0,0,1.439-1.91c.074-1.1.124-2.4.174-2.609.108-1.728,3.411-6.668,7.6-8.442-1.05,1.761-2.013,3.646-2.96,5.519a2.746,2.746,0,0,0-.657,1.922.577.577,0,0,0,.657.356,1.264,1.264,0,0,0,.785-1.009c.1-1.029.418-1.124.418-1.124a1.535,1.535,0,0,0,1.054,1.364c1.211.174,1.091-1.331,1.091-1.331a6.8,6.8,0,0,1-.174-.831,2.9,2.9,0,0,1-.087-.86c-.07-.509-.161-.277-.223-.422-.074-.211.037-.463-.05-.637-.116-.037-.1.149-.174.1-.054-.178.083-.36.045-.513a7.182,7.182,0,0,1-.455,1.406.86.86,0,0,0-.591.045c.281-.575.612-1.009.905-1.666a7.9,7.9,0,0,1,.852-1.488s.083-.058-.017.2" transform="translate(13683.188 -469.179)" fill="#fff"/>
    <path id="路径_62348" data-name="路径 62348" d="M213.465,44.4c-.066.79-.5.971-.5.971a2.143,2.143,0,0,1-1.207.132c-.083-.058-.041-.19-.153-.289a1.683,1.683,0,0,1-.765-.7c.046-.037.054-.029.041-.054a4.936,4.936,0,0,1-.384-.839.769.769,0,0,1,.223-.847s.149-.161.839-.05a2.968,2.968,0,0,1,.384.074c.153.037.393.149.794.3a1.511,1.511,0,0,1,.723,1.277" transform="translate(13726.416 -465.709)" fill="#fff" stroke="#fff" stroke-width="1" fill-rule="evenodd"/>
    <path id="路径_62349" data-name="路径 62349" d="M212.7,46.194s-.628.442-.827,2.113c-.046.5-.05.649-.087.947a3.208,3.208,0,0,0,.1.922,10.753,10.753,0,0,0,2.212-4.246c.058.4-.36.91-.074,1.211.021.083-.087.194.021.207-.153.091-.062.418-.236.521-.008.058.021.07.05.091-.186.269-.1.765-.24.914a.9.9,0,0,1-.037.223,7.292,7.292,0,0,1-.6,2.439c-.872,1.6-1.364,1.683-1.364,1.683a1.917,1.917,0,0,0-.4.045s-.947-.219-.848-1.7c0,0,1.277-4.783,1.29-4.853.07-.393.273-.781.3-1.174a5.259,5.259,0,0,0-.285-1.038.921.921,0,0,1,.223-.657H212c.058-.025.029-.112.087-.136a1.393,1.393,0,0,1,1.645,1.017,4.752,4.752,0,0,1-.211.8,3.255,3.255,0,0,1-.814.67" transform="translate(13726.123 -462.595)" fill="#fff" stroke="#fff" stroke-width="1" fill-rule="evenodd"/>
    <path id="路径_62350" data-name="路径 62350" d="M218.061,48.047s.707-.289.7-.773l-.012-.033c-.339-1.335-2.956.285-2.956.285A7.29,7.29,0,0,1,213.9,48.58s-.289-.2,1.224-2.576a22.925,22.925,0,0,0,1.732-3.163c0-.422.252-.74-.194-1.191-1-.327-1.955,1.662-1.955,1.662.054-.008.074-.033.128-.037-.012.058-.128.107-.074.174.058-.07.091-.165.178-.211.178.017.227-.2.413-.136,0,0-.409,1.034-.678,1.687,0,0-2.228,3.915-1.488,5.035.438.434,1.889-.74,1.889-.74s1.683-1.451,1.935-1.2c.037.045-1.48,2.224-1.48,2.224-.67,1.158-1.732,3.642-1.732,3.642a1.757,1.757,0,0,1-1.248-.087c-1.55-.12-.608,1.038-.608,1.038.447.314,1.108.2,1.521.314-.513,2.059.951,2.336.951,2.336.732.112,1.393-.434,2.1-.4a5.271,5.271,0,0,1-.955,2.526.424.424,0,0,0-.265-.1c-.033.074.1.182.058.26a1.805,1.805,0,0,0,.05,1.55s.058.186.211.207c.265.033.757-.331.951-.728a23.629,23.629,0,0,0,.943-2.179c.252-.422.244-1.116.492-1.534a1.808,1.808,0,0,0,.566-.294,1.186,1.186,0,0,0-.69-1.249,4.541,4.541,0,0,1,.364-1.538,6.423,6.423,0,0,0,1.273-.3.8.8,0,0,1,.794.273.762.762,0,0,0,.955.153c.761-1.931-1.6-1.3-1.6-1.3s-1.12.294-1.2.124A4.192,4.192,0,0,0,218.7,50.3a.938.938,0,0,0-1.141-.327c-.827.223-.839.695-.839.695a1.149,1.149,0,0,1,.517.314,2.3,2.3,0,0,1,0,1.162,4.257,4.257,0,0,1-.537-.314s-.9-.488-.98.695c-.079.36-.091.74-.161,1.017-.12.186-.616.165-.864.107,1.319-4.754,3.365-5.606,3.365-5.606m-3.138,7.623a.625.625,0,0,1-.451-.79c.232-.074.542-.289.881-.178-.029.368-.1.695-.409.785-.021.041,0,.136-.021.182m1.377-.12a7.718,7.718,0,0,1-1.2.136c.083-.178.306-.2.405-.368,0,0,.132.161.537-.389a1.172,1.172,0,0,0,.459-.277c.447-.608.533-.418.533-.418a3.591,3.591,0,0,1-.285,1.009s.074.306-.446.306" transform="translate(13730.166 -469.066)" fill="#fff"/>
    <path id="路径_62351" data-name="路径 62351" d="M243.24,43.954a.4.4,0,0,1-.269.186,3.19,3.19,0,0,1-.145.566s.186.62.281,1.158c-.037.376-.074.856-.1,1.24a14.476,14.476,0,0,0-.112,3.535c.128.405.43.269.7.128.041-.012,0-.1.05-.107.256-.07.356-.339.628-.405.471-.368.525-1.034.612-1.732a7.846,7.846,0,0,1,.724-3.068,17.492,17.492,0,0,0-.434,3.836,4.76,4.76,0,0,1-.141.955,1.688,1.688,0,0,0-.19.852,2.863,2.863,0,0,1-1.315.475c-1.178.26-2.108.98-3.258,1.249a3.2,3.2,0,0,1-1.141.194c.108-.1.157-.26.256-.368-.021-.132.1-.248.112-.393a1.6,1.6,0,0,1-.484.26c-.223.1-.422.3-.715.289-.107.107-.107.281-.244.351a2.978,2.978,0,0,0-.2,1.182c.128.277.467.083.678.112a8.442,8.442,0,0,0,3.022-.806,6.725,6.725,0,0,1,1.881-.823,6.961,6.961,0,0,0,2.067-.653c.752-.335,1.381-.542,1.885-.736,1.786-.752,2.336-.55,2.336-.55a.489.489,0,0,1,.074.612c-.285.562-1.257.835-2.092,1.075a1.505,1.505,0,0,1-.446.112c-.074,0-.124-.012-.186-.012a2.614,2.614,0,0,0-1.335.62c-.145.087-.335.107-.475.178-.058.025-.12.1-.157.12-.058.025-.174.054-.273.087-.145.062-.43.194-.438.335-.017.178.31.285.455.331a6.165,6.165,0,0,0,.7.029,2.5,2.5,0,0,1,.529-.145,2.787,2.787,0,0,0-.409,1.563,3.026,3.026,0,0,1,.558.9,5.391,5.391,0,0,1,.434.69,2.494,2.494,0,0,1-.86.161,2.411,2.411,0,0,0-.633.207,4.389,4.389,0,0,0-1,.533c-.1.083-.19.141-.285.223a2.468,2.468,0,0,0-.327.281c-.045.058-.1.145-.141.194s-.128.12-.165.174c-.058.091-.1.161-.136.223a1.208,1.208,0,0,0-.347.794c-.012.079-.112.128-.165.182-.046.124.124.169-.017.3.107.12.07.252.17.339a3.666,3.666,0,0,0,.3.587c.781,1.228,1.472,1.013,1.472,1.013a3.362,3.362,0,0,0,2.22-.91,3.777,3.777,0,0,0,1-2.435,3.951,3.951,0,0,0,1.418-.058,1.882,1.882,0,0,0,.26-.174c.029-.025.112-.12.149-.157.074-.074.157-.1.194-.165.1-.17.041-.405.136-.624-.029-.136-.1-.244-.124-.389-.1-.012-.153-.107-.252-.149a1.431,1.431,0,0,0-.339-.045,1.488,1.488,0,0,1-.244-.112,1.519,1.519,0,0,1-.356-.1c-.169,0-.335.074-.488.025-.05-.012-.021.074-.07.062-.124-.087-.368.021-.509-.112-.079-.062-.12-.322-.169-.455a3.365,3.365,0,0,0-.484-.719c-.07-.1-.107-.223-.178-.335-.1-.165-.418-.517-.372-.707.008-.05.19-.178.24-.273a.785.785,0,0,1,.306-.331,3.379,3.379,0,0,1,.356-.575c.1-.074.36-.186.426-.3.149-.244.091-.74-.083-.81a3.144,3.144,0,0,0,.823-.054c.219-.054.446-.083.537-.1a.537.537,0,0,1,.372-.062c.19.26.372-.037.628.07a1.884,1.884,0,0,0,.31-.232c.087-.087.215-.132.294-.211.091-.107.116-.24.273-.248a1.262,1.262,0,0,0,.293-.517.636.636,0,0,0,.087-.265c0-.12.017-.463,0-.6a1.057,1.057,0,0,0-.413-.637,1.421,1.421,0,0,0-.86-.269,14.851,14.851,0,0,0-3.46.819c.074-.178.265-.525.508-.376.041.074-.062.083-.05.178.236-.1.372-.26.624-.376.058-.107.17-.112.273-.215a.629.629,0,0,1,.091-.141c.145,0,.182-.116.327-.116a1.282,1.282,0,0,1,.012-.141c.05-.025.107-.017.157-.058a4.417,4.417,0,0,1,.955-.6,1.286,1.286,0,0,0,.38-.728,1.34,1.34,0,0,0-.389-.992c-.029-.033-.108-.1-.149-.145s-.074-.116-.12-.145c-.1-.087-.227-.083-.273-.194s.128-.244.215-.335a4.121,4.121,0,0,1,.785-.761c.318-.1.74-.194.814-.8a1.076,1.076,0,0,0-.037-.3.93.93,0,0,1-.058-.182.445.445,0,0,0-.128-.26c-.157-.149-.389-.157-.517-.265-.207-.153-.174-.508-.025-.806a2.125,2.125,0,0,0,.124-.26,5.126,5.126,0,0,0,.24-.475.763.763,0,0,0-.07-.661c-.289-.281-.943.141-1.033.351-.256.322-.149.765-.24,1.186,0,0-.36,1.091-.719,2.067a3.411,3.411,0,0,0-.306.347c-.087.091-.157.2-.244.294a1.022,1.022,0,0,1-.285.236.742.742,0,0,1-.265.289.822.822,0,0,1-.054.141,4.622,4.622,0,0,0-.773,1.373c.079-.393.186-.794.244-1.228.046-.409.058-.918.145-1.315s.236-.79.289-1.145c0-.451-.161-.785-.612-.695-.281.058-.6.153-.711.38-.033-.033-.045.012-.1-.008a4.266,4.266,0,0,0-1,1.1c-.1-.058-.12-.194-.178-.285,0,0-.463-.852-1.071-.4m4.44,3.22c.087.017.05.132.083.19.091.169.364.194.492.331a1.167,1.167,0,0,1-.3.575,5.59,5.59,0,0,1-1.215,1.5c-.021-.145.1-.459.066-.641.372-2.009.872-1.951.872-1.951m-.848,12.53c-.26.781-1.1,1.893-2.071,1.707-.558-.174-.6-.426-.546-.905.087-1.277,1.608-1.72,1.608-1.72.389.033.856,0,1.042.165,0,0,.174.141-.033.752" transform="translate(13812.275 -470.451)" fill="#fff"/>
    <path id="路径_62352" data-name="路径 62352" d="M227.3,46.365a.717.717,0,0,0-.1-.186c-.252-.186-.207-.405-.467-.446-.017-.091.029-.219-.05-.281,0-.066.079-.054.087-.116.008-.083-.037-.128-.05-.194.079-.2.116-.446.347-.5a.642.642,0,0,0,.43-.021,3.437,3.437,0,0,0,.4.128,24.39,24.39,0,0,1,2.15,1.922,1.572,1.572,0,0,1,.533.843,1.05,1.05,0,0,1-1.075,1.315c-.136-.029-.252-.169-.393-.124,0,0-.657-.17-1.819-2.336" transform="translate(13777.268 -459.661)" fill="#fff"/>
    <path id="路径_62353" data-name="路径 62353" d="M227.72,56.346a4.408,4.408,0,0,1-1.885.819,1.343,1.343,0,0,1-.951-.116,1.058,1.058,0,0,1,.132-.165c-.062-.256.062-.562-.037-.852.054-.1.17-.12.248-.178.116.054.327.017.389.124.938.227,2.377-1.728,2.377-1.728a8.035,8.035,0,0,0,1.348-3.287l-.43.136s-2.505.839-2.981-.153c-.016-.012.029-.112-.033-.236-.037-.091-.186-.157-.19-.285a.635.635,0,0,1,.079-.236,1.628,1.628,0,0,1,.4-.55c.074-.045.145-.128.211-.161.021-.008.7-.277,1.067-.066a.155.155,0,0,1,.012.124s1.964.165,2.216-.773a17.673,17.673,0,0,0,.157-4.345c.012-.446.054-.525.045-.934,0,0,.012-.4.045-.872a.778.778,0,0,1,.637-.6c.033-.017.211-.045.219-.079.252.058.438.26.686.174.07.087-.017.128.029.19.021.021.079,0,.1.021s-.008.066,0,.091c.029.045.108.021.124.045.037.033.021.1.058.165s.079.012.112.112a.467.467,0,0,1,.062.215,1.215,1.215,0,0,1,.079.752l-.438,1.273a2.261,2.261,0,0,0-.1.761,11.321,11.321,0,0,1-.273,2.472,6.071,6.071,0,0,0,1.306-.6,1.22,1.22,0,0,1,1.41.273c.988.835.153,1.43.153,1.43-.116.091-.157.174-.335.174-.074.025-.087.116-.149.128-.112.021-.165-.116-.273-.1-.066.012-.1.091-.161.116,0,0-.843.128-.984-.07a.414.414,0,0,0-.132.037,1.8,1.8,0,0,0-1.178.546s-.091.769-.38,2.2a7.591,7.591,0,0,1-2.79,4" transform="translate(13771.618 -468.051)" fill="#fff"/>
  </g>
</svg>
