<svg xmlns="http://www.w3.org/2000/svg" width="45.91" height="45.91" viewBox="0 0 45.91 45.91">
  <g id="组_8034" data-name="组 8034" transform="translate(-940.21 -191.325)">
    <circle id="椭圆_684" data-name="椭圆 684" cx="22.955" cy="22.955" r="22.955" transform="translate(940.21 191.325)" fill="#004098" opacity="0.1"/>
    <g id="bilibili" transform="translate(949.167 201.354)">
      <path id="路径_50" data-name="路径 50" d="M79.8,83.723H75.1l2.13-2.13a.883.883,0,0,0-1.249-1.249l-3.6,3.6H68.859l-3.6-3.6a.9.9,0,0,0-1.175-.22c-.074,0-.074.074-.147.147a.845.845,0,0,0,0,1.249l2.2,2.2h-4.7a4.733,4.733,0,0,0-4.7,4.7V100.1a4.718,4.718,0,0,0,4.7,4.627h.735a1.551,1.551,0,0,0,1.542,1.542,1.6,1.6,0,0,0,1.542-1.542H76.13a1.583,1.583,0,0,0,3.158,0h.587a4.733,4.733,0,0,0,4.7-4.7V88.35A4.783,4.783,0,0,0,79.8,83.723Zm-.147,18.14H61.735a1.838,1.838,0,0,1-1.762-1.762L59.9,88.2a1.787,1.787,0,0,1,1.762-1.762H79.581A1.838,1.838,0,0,1,81.344,88.2l.074,11.9a1.786,1.786,0,0,1-1.762,1.762Z" transform="translate(-56.741 -80.001)" fill="#004098"/>
      <path id="路径_51" data-name="路径 51" d="M223.9,423.458l.44,2.2-5.875,1.1-.44-2.2Zm5.655,2.2.441-2.2,5.875,1.1-.441,2.2Zm1.175,4.627a.44.44,0,0,1-.074.294,2.483,2.483,0,0,1-2.13,1.4,2.067,2.067,0,0,1-1.542-.735,2.195,2.195,0,0,1-1.542.735,2.684,2.684,0,0,1-2.13-1.4c0-.074-.074-.147-.074-.294a.623.623,0,0,1,.514-.587h.074a.4.4,0,0,1,.441.294s.587.808,1.1.808c1.028,0,1.028-.881,1.616-1.542.661.734.661,1.542,1.616,1.542.661,0,1.1-.808,1.1-.808a.6.6,0,0,1,.44-.294c.294-.074.514.147.587.441v.147Z" transform="translate(-213.1 -412.979)" fill="#004098"/>
    </g>
  </g>
</svg>
