<svg xmlns="http://www.w3.org/2000/svg" width="264.133" height="264.139" viewBox="0 0 264.133 264.139">
  <path id="路径_48860" data-name="路径 48860" d="M171.361,263.138a34.341,34.341,0,0,1-13.208-2.637,57.375,57.375,0,0,0-12.572-3.415,93.144,93.144,0,0,0-29.107,0,57.564,57.564,0,0,0-12.563,3.4,34.242,34.242,0,0,1-13.188,2.635,34.694,34.694,0,0,1-32.031-21.372,57.284,57.284,0,0,0-6.462-11.3,89.741,89.741,0,0,0-9.473-11.1,89.818,89.818,0,0,0-11.1-9.482,57.4,57.4,0,0,0-11.3-6.474,34.681,34.681,0,0,1-18.73-45.246A57.5,57.5,0,0,0,5.049,145.57,90,90,0,0,0,6.2,131.02,90.011,90.011,0,0,0,5.061,116.47a57.491,57.491,0,0,0-3.4-12.564A34.6,34.6,0,0,1,20.393,58.693a57.4,57.4,0,0,0,11.3-6.469,89.944,89.944,0,0,0,11.1-9.476,90,90,0,0,0,9.482-11.095,57.487,57.487,0,0,0,6.478-11.292A34.4,34.4,0,0,1,71.742,4.683,34.816,34.816,0,0,1,90.773-1a34.364,34.364,0,0,1,13.207,2.635,57.487,57.487,0,0,0,12.581,3.417A89.982,89.982,0,0,0,131.13,6.2a89.862,89.862,0,0,0,14.538-1.143,57.331,57.331,0,0,0,12.551-3.408A34.514,34.514,0,0,1,181.38.487a34.87,34.87,0,0,1,9.081,4.224,34.345,34.345,0,0,1,12.981,15.68,57.565,57.565,0,0,0,6.474,11.3,90.059,90.059,0,0,0,9.477,11.1,89.949,89.949,0,0,0,11.094,9.485,57.36,57.36,0,0,0,11.291,6.476,34.68,34.68,0,0,1,18.717,45.216,57.384,57.384,0,0,0-3.412,12.562,93.1,93.1,0,0,0,0,29.1,57.441,57.441,0,0,0,3.406,12.562,34.688,34.688,0,0,1-18.737,45.246,57.476,57.476,0,0,0-11.3,6.469,93.026,93.026,0,0,0-20.589,20.569,57.247,57.247,0,0,0-6.471,11.291A34.4,34.4,0,0,1,190.4,257.45a34.822,34.822,0,0,1-19.038,5.688Zm-40.342-9.2a91.981,91.981,0,0,1,14.888,1.172,59.358,59.358,0,0,1,13.013,3.541,32.476,32.476,0,0,0,21.828,1.1,32.865,32.865,0,0,0,8.556-3.98,32.4,32.4,0,0,0,12.234-14.767,59.228,59.228,0,0,1,6.694-11.692,95.022,95.022,0,0,1,21.049-21.028,59.459,59.459,0,0,1,11.7-6.691,32.686,32.686,0,0,0,17.653-42.633,59.422,59.422,0,0,1-3.531-13,95.1,95.1,0,0,1,0-29.75,59.368,59.368,0,0,1,3.538-13,32.68,32.68,0,0,0-17.635-42.6,59.341,59.341,0,0,1-11.692-6.7,91.944,91.944,0,0,1-11.342-9.7,92.063,92.063,0,0,1-9.688-11.353,59.549,59.549,0,0,1-6.7-11.7A32.354,32.354,0,0,0,189.366,6.385,32.84,32.84,0,0,0,171.412,1.02,32.4,32.4,0,0,0,158.983,3.5a59.313,59.313,0,0,1-12.991,3.533A91.863,91.863,0,0,1,131.13,8.2a91.986,91.986,0,0,1-14.893-1.174,59.474,59.474,0,0,1-13.021-3.543,32.493,32.493,0,0,0-21.825-1.1,32.851,32.851,0,0,0-8.554,3.977A32.41,32.41,0,0,0,60.6,21.127a59.471,59.471,0,0,1-6.7,11.692,92,92,0,0,1-9.693,11.343,91.946,91.946,0,0,1-11.349,9.687,59.388,59.388,0,0,1-11.7,6.692,32.6,32.6,0,0,0-17.651,42.6,59.477,59.477,0,0,1,3.527,13.005A92.021,92.021,0,0,1,8.2,131.02,92,92,0,0,1,7.022,145.9,59.478,59.478,0,0,1,3.482,158.9,32.678,32.678,0,0,0,21.13,201.536a59.385,59.385,0,0,1,11.7,6.7,91.825,91.825,0,0,1,11.345,9.694,91.74,91.74,0,0,1,9.685,11.352,59.266,59.266,0,0,1,6.685,11.705,32.417,32.417,0,0,0,12.238,14.769,32.823,32.823,0,0,0,17.945,5.367,32.253,32.253,0,0,0,12.422-2.483,59.551,59.551,0,0,1,13-3.528A92.071,92.071,0,0,1,131.019,253.94Z" transform="translate(1 1)" fill="#fff"/>
</svg>
