<svg xmlns="http://www.w3.org/2000/svg" xmlns:xlink="http://www.w3.org/1999/xlink" width="62.183" height="29.191" viewBox="0 0 62.183 29.191">
  <defs>
    <linearGradient id="linear-gradient" x1="1.118" y1="-0.426" x2="0" y2="0.937" gradientUnits="objectBoundingBox">
      <stop offset="0" stop-color="#fff"/>
      <stop offset="1" stop-color="#fff" stop-opacity="0"/>
    </linearGradient>
  </defs>
  <g id="col_avtive" transform="translate(-201.744 -358.667)">
    <g id="组_6848" data-name="组 6848" transform="translate(201.744 358.667)">
      <path id="路径_48690" data-name="路径 48690" d="M263.927,369.284l-.125.849c-.22-.03-.483-.387-.493.173a.965.965,0,0,1-.392.948c-.185.115-.257.521-.263.8-.024,1.116-.925,1.78-1.339,2.692a6.533,6.533,0,0,1-.469.736l.413-.1c-.012.059,0,.123-.033.153a8.1,8.1,0,0,0-1.094,1.158,8.88,8.88,0,0,1-2.56,2.443,28.285,28.285,0,0,1-8.33,3.96,36.882,36.882,0,0,1-10.509,1.632,1.1,1.1,0,0,0-.394.067c6.463,1.192,12.507-.408,18.428-2.833l.047.147c-.871.354-1.736.726-2.616,1.057s-1.779.639-2.677.933-1.809.562-2.715.841l.072.226c1.187-.378,2.381-.734,3.558-1.141s2.354-.872,3.53-1.311l.056.135-3.309,1.428.054.14,1.415-.56.049.1c-.67.352-1.326.734-2.012,1.051a23.989,23.989,0,0,1-5.89,1.869,34.225,34.225,0,0,1-9.2.241,65.9,65.9,0,0,1-12.64-2.889,24.891,24.891,0,0,0-16.375.9c-2.163.824-4.26,1.819-6.372,2.73a.4.4,0,0,1,.076-.108,27.168,27.168,0,0,1,12.586-6.867,25.379,25.379,0,0,1,11.384.327c2.2.52,4.4,1.045,6.636,1.362a28.754,28.754,0,0,0,5.04.172,54.263,54.263,0,0,0,10.379-1.483,20.376,20.376,0,0,0,3.976-1.557,17.084,17.084,0,0,0,4.777-3.589,13.565,13.565,0,0,1,1.7-1.822c1.025-.7,1.228-1.81,1.7-2.785a3.622,3.622,0,0,0,.425-1.524,6.483,6.483,0,0,0-.4-1.641,3.984,3.984,0,0,0-.3-.857c-.179-.323-.269-.711-.867-.621-.429.065-.9-.277-1.367-.324a4.091,4.091,0,0,0-3.3,1.111,2.048,2.048,0,0,0-.639,1.9.826.826,0,0,0,.817.768.736.736,0,0,0,.812-.679,1.41,1.41,0,0,1,1.27-1.477,2.176,2.176,0,0,1,2.245,1.016,3.11,3.11,0,0,1-.117,3.359,4.771,4.771,0,0,1-3.6,2.078,5.324,5.324,0,0,1-4-.969c-.315.095-.234.828-.641.515-.242.272-.446.477-.621.7a6.107,6.107,0,0,1-.734.984c-.808.681-1.668,1.3-2.506,1.947a1.56,1.56,0,0,0-.167.219l.8-.111a11.094,11.094,0,0,1-1.727,1.068,23.99,23.99,0,0,1-2.464,1.044,28.008,28.008,0,0,1-3.153.812c-1.736.247-3.49.393-5.242.492a16.646,16.646,0,0,1-5.087-.68c-2.317-.6-4.6-1.332-6.938-1.841a19.4,19.4,0,0,0-11.174.991c-1.833.7-3.6,1.559-5.351,2.324a20.641,20.641,0,0,1,5.409-4.449,16.225,16.225,0,0,1,10-1.845c2.7.341,5.363.939,8.035,1.465a9.26,9.26,0,0,0,3.629-.031,5.747,5.747,0,0,0,1.255-.581l-.08-.169-1.151.6.154.107c.486-.6.953-1.21,1.463-1.786a3.364,3.364,0,0,0,.171-3.373A2.442,2.442,0,0,0,232.186,371a1.762,1.762,0,0,0-1.326,1.255c-.06.2.063.452.1.68.2-.1.486-.141.589-.3a1.346,1.346,0,0,1,1.674-.671,1.237,1.237,0,0,1,.96,1.535,3.578,3.578,0,0,1-5.661,1.88c-1.967-1.5-2.014-4.311-.938-6.281a5.6,5.6,0,0,1,7.216-2.054,1.385,1.385,0,0,1,.727,1.319,6.4,6.4,0,0,0,1.779,4.243,26.161,26.161,0,0,0,2.441,1.907,8.709,8.709,0,0,1-2.684,4.062c.376-.074.756-.136,1.128-.227a9.425,9.425,0,0,0,1.112-.325,15.308,15.308,0,0,0,4.241-1.9c.689-.537,1.476-.96,2.113-1.548a25,25,0,0,0,1.792-2.051c.126-.145.3-.253.413-.4.226-.293.573-.567.258-1a.128.128,0,0,1-.025-.1,5.966,5.966,0,0,0,.344-2.425.984.984,0,0,0-.412-1.06l.184.659a4.6,4.6,0,0,0-2.351-2.281,3.71,3.71,0,0,0-3.351.233,1.945,1.945,0,0,0-.924,2.336,1.72,1.72,0,0,0,.851.762c.333.134.669-.038.706-.519.088-1.12.47-1.59,1.4-1.783a1.823,1.823,0,0,1,2,1.061,3.991,3.991,0,0,1-1.665,5.35A5.586,5.586,0,0,1,237,370.714a8.068,8.068,0,0,1,3.238-10.644,9.212,9.212,0,0,1,11.938,1.821,1.839,1.839,0,0,0,.174.157c.18-.1.376-.213.569-.326a7.832,7.832,0,0,1,8.214-.307A1.979,1.979,0,0,1,262.2,362.7c.05.2.231.36.3.557s.043.411.1.606c.093.315.234.616.331.93.193.624.37,1.253.568,1.927l.381-.092c-.02.331-.021.645-.063.954-.063.465-.17.925-.225,1.391-.013.113.108.242.167.363Zm-5.465,6.722.126.1c1.884-1.946,3.318-4.123,3.321-6.969a4.716,4.716,0,0,0-4.076-4.821,4.024,4.024,0,0,0-2.962.578c.884-.042,1.729-.151,2.567-.11a3.929,3.929,0,0,1,3.809,3.1,9.559,9.559,0,0,1,.122,2.873,7.709,7.709,0,0,1-1.684,3.648C259.3,374.955,258.871,375.474,258.462,376.007Zm-9.271-9.843a.691.691,0,0,0-.02-1.13c-.184-.171-.347-.366-.536-.53a4.876,4.876,0,0,0-4.782-.778C246.071,363.7,248.033,364.082,249.191,366.163Zm.306,5.415c-1.061,3.011-3.646,4.461-6.119,6.037a6.792,6.792,0,0,0,1.288-.535,11.618,11.618,0,0,0,4.891-4.581C249.715,372.211,249.918,371.927,249.5,371.578Zm-12.688,8.167-.018.189a10.483,10.483,0,0,0,1.526.049,7.936,7.936,0,0,0,1.392-.37.661.661,0,0,0,.211-.163c.073-.065.165-.208.205-.193a2.658,2.658,0,0,0,2.046-.66c-.2.053-.342.1-.486.126-.58.11-1.171.181-1.74.333a10.048,10.048,0,0,0-.993.461,3.062,3.062,0,0,1-.844.219C237.679,379.772,237.243,379.745,236.809,379.745Zm-3.2.382c1.066.186,2.12.562,3.322,0Zm17.632,1.213a4.129,4.129,0,0,0,2.642-1.013Zm-2.715,3.878-.046-.171-1.889.292.028.158Zm-15.549-5.04.012-.15-1.962-.278-.02.193Z" transform="translate(-201.744 -358.667)" fill="url(#linear-gradient)"/>
    </g>
  </g>
</svg>
