<svg xmlns="http://www.w3.org/2000/svg" width="18.436" height="18" viewBox="0 0 18.436 18">
  <g id="组件_16_1" data-name="组件 16 – 1" transform="translate(0.5 0.5)">
    <path id="路径_49593" data-name="路径 49593" d="M6.553,32.757C4.976,33.231,4,33.885,4,34.607c0,1.444,3.9,2.615,8.718,2.615s8.718-1.171,8.718-2.615c0-.722-.976-1.376-2.553-1.849" transform="translate(-4 -20.223)" fill="none" stroke="#fff" stroke-linecap="round" stroke-linejoin="round" stroke-width="1" opacity="0.7"/>
    <path id="路径_49594" data-name="路径 49594" d="M16.667,17.513s5.667-3.7,5.667-7.985A5.668,5.668,0,0,0,11,9.528C11,13.809,16.667,17.513,16.667,17.513Z" transform="translate(-7.949 -4)" fill="none" stroke="#fff" stroke-linejoin="round" stroke-width="1" opacity="0.7"/>
    <path id="路径_49595" data-name="路径 49595" d="M21.179,16.359A2.179,2.179,0,1,0,19,14.179,2.179,2.179,0,0,0,21.179,16.359Z" transform="translate(-12.462 -8.513)" fill="none" stroke="#fff" stroke-linejoin="round" stroke-width="1" opacity="0.7"/>
  </g>
</svg>
