<svg xmlns="http://www.w3.org/2000/svg" width="44.79" height="44.79" viewBox="0 0 44.79 44.79">
  <g id="组_8035" data-name="组 8035" transform="translate(-869.073 -191.325)">
    <circle id="椭圆_687" data-name="椭圆 687" cx="22.395" cy="22.395" r="22.395" transform="translate(869.073 191.325)" fill="#004098" opacity="0.1"/>
    <path id="抖音" d="M114.253,38.222a6.708,6.708,0,0,1-3.043-5.592h-4.8l-.006,19.225a4.032,4.032,0,1,1-4.027-4.186,3.861,3.861,0,0,1,1.192.189V42.964a8.551,8.551,0,0,0-1.192-.086,8.83,8.83,0,1,0,8.83,8.83V41.962a11.407,11.407,0,0,0,6.673,2.145v-4.8A6.657,6.657,0,0,1,114.253,38.222Z" transform="translate(785.266 167.585)" fill="#004098"/>
  </g>
</svg>
