<?xml version="1.0" standalone="no"?><!DOCTYPE svg PUBLIC "-//W3C//DTD SVG 1.1//EN" "http://www.w3.org/Graphics/SVG/1.1/DTD/svg11.dtd"><svg t="1741941751466" class="icon" viewBox="0 0 1024 1024" version="1.1" xmlns="http://www.w3.org/2000/svg" p-id="3818" xmlns:xlink="http://www.w3.org/1999/xlink" width="200" height="200"><path d="M23.954414 506.011397c0 279.519344 219.940418 506.011397 491.219034 506.011396S1006.443667 785.479556 1006.443667 506.011397c-0.051185-279.46816-219.991603-506.011397-491.270219-506.011397C243.946016 0.051185 23.954414 226.594422 23.954414 506.011397" fill="#1370B3" p-id="3819"></path><path d="M23.954414 546.805558c0 256.998101 219.940418 465.319604 491.219034 465.319604s491.270219-208.321504 491.270219-465.319604c0-256.998101-219.991603-465.319604-491.270219-465.319604-271.227432 0-491.219034 208.321504-491.219034 465.319604z m0 0" fill="#1678BC" p-id="3820"></path><path d="M755.280616 118.748375l-78.926722-28.868139 99.810057 88.293512-37.313606-2.252124-7.677697 15.76487c-18.784765-15.355393-41.510747-22.981905-68.024392-22.572428a36.023753 36.023753 0 0 0-25.182846 23.80086l5.988604 25.387583 76.316305 6.244527c5.988603 8.803759 18.016995 8.445466 18.016995 26.56483l28.561031-1.228431 19.808458-6.654004c21.907028 27.793262 38.388483 62.496451 48.26712 105.337999l-22.418875 16.174347-6.090972 19.757273-0.511847 69.559932s-14.280516 14.689993-16.53264 10.185745c-2.149755-4.504249 0.6654-57.019694-7.626512-62.240528-8.291912-5.220834-16.686194-5.630311-25.23403-1.074878-8.547836-17.658702-20.064381-30.19894-35.163851-36.187544-4.248326-9.878636-9.417975-19.347796-15.406578-28.305108-5.835049 1.43317-9.981006 4.248326-12.13076 9.059682 2.508048-8.650205 1.740278-17.914626-2.149755-26.052984l-35.163851-6.807558-24.619814-1.637908c-9.110867 2.661602-15.355393 9.469159-16.993302 22.009397l-13.76867 11.926022-8.291912 29.891832c-2.09857 7.882435 25.592322 20.422673 36.801759 17.505149 11.158253-2.917525 32.451065 28.816955 32.451065 28.816955l-5.630311 22.572428s-8.70139 15.918424-10.902329 12.540238L624.606218 423.39938c-14.638808-8.70139-29.789463-7.217035-44.940118 0-3.53174 31.376187-4.453064 69.150455 0 84.812956 4.29951 15.764871 10.902329 22.572428 17.453964 20.320304 6.602819-2.09857 32.962911-22.572428 32.962911-22.572428s24.261522 65.56753 24.261522 69.09927c0 3.275817 36.136359 30.403679 38.337298 30.403679 2.149755 0 9.827452 3.480556 10.953514-4.504249 1.074878-7.882435-4.401879-22.572428-1.126062-24.875737 3.275817-2.303309 7.677697 2.252124 8.803759 13.563931 1.586724 16.071978 3.019894 49.137259 1.074878 56.507848-4.453064 16.993302-26.360092 40.742977-26.360092 40.742977s-6.551635 24.824553-3.224633 26.052984c3.224633 1.074878 14.280516 33.935419 18.73358 42.892732 4.29951 9.059682 77.903029 238.315705 223.881635 46.885134 89.214836-116.956913 108.920924-278.03499 59.220634-410.910327-31.63211-84.659402-107.180646-129.241228-159.184244-236.370688l-70.174148-36.699391z m0 0" fill="#10549A" p-id="3821"></path><path d="M128.575827 98.991103c0.6654 35.26622 15.662501 69.969409 52.617815 104.058382 42.022593-11.516545 81.690693-12.693792 119.157853-2.815155 42.53444-46.322103 88.037589-63.161851 135.588123-60.50025-33.16765 27.127862-57.173248 60.756173-69.252824 102.829951 4.913726 15.611317 14.229331 29.379986 34.088973 38.439668 33.16765 4.964911 70.122963 1.586724 106.464061 11.362991l-2.20094 28.305108c-22.418874 42.278516-69.508747 55.535339-107.590123 89.880236 5.681496 24.875737 3.327002 46.629211-2.200939 67.154254-14.024593-11.618914-28.509847-17.249225-43.814056-15.76487l-2.712786 1.740277c-46.680396 46.936319-7.26822 86.706788 66.386484 123.86684 19.450165 3.685294 39.56573 2.09857 58.196941-4.555433 38.90033-22.009397 135.485754-44.735379 153.605118 32.706988-8.906128 11.362991-22.470059 12.949715-37.313606 11.362991-5.06728 4.248326-14.792362 6.142157-19.757273 10.185744-57.070879 45.912626-116.035589 63.673698-185.03249 52.56663 13.256823 16.430271 29.175247 30.19894 47.704089 41.254824 38.388483 2.815155 60.141957 8.138358 62.650005 16.430271h-35.163851c64.543837 28.816955 127.756873 33.116465 188.768969 1.637908 0.409477 5.835049-3.327002 13.871039-8.803758 22.674798 20.320304-17.453964 38.90033-39.6681 60.39788-55.43297l3.327002 21.497551c35.163851-7.882435 64.083175-64.646206 85.63191-177.508348l14.229332 40.640608c13.973408-61.421574 13.615115-134.820354 7.16585-214.258922 17.095671 18.580026 33.986604 40.9989 43.302209 72.938118 2.815155-112.452664-29.072878-216.459862-107.538938-277.011296 17.30041-3.582925 43.609317 7.217035 94.435669 46.373288-28.253924-56.917325-77.442367-109.791063-146.029791-159.491353 93.770269 28.049185 178.173748 85.222433 243.638909 195.627712 0.6654-23.186644-53.436769-99.861242-103.853644-143.572928l2.86634-14.843547 59.425372 54.358092 3.224633-12.386684c77.80066 92.951315 94.026192 173.311207 95.305808 250.804759-1.945016 54.76757-9.469159 106.464061-27.946816 152.581425 33.423573-23.289013 48.369489-47.806458 32.706988-126.016595l11.926022-48.983705c17.095671 76.930521 18.016995 160.156753-22.26532 259.506149-19.450165 54.358093-67.154254 108.153154-100.782566 162.255323l42.995102-30.557233 46.373288-93.719084c4.453064 28.970509 2.303309 59.83485-14.689993 94.947516a366.359212 366.359212 0 0 1-134.154954 125.248825c-0.511846 14.075777-8.547836 29.124063-28.253923 45.451964-66.437669 51.440568-156.983305 72.938119-270.050185 66.744777l16.430271 15.816055c-45.093672 0.102369-89.573128-5.886234-133.028892-21.241627l26.052984 17.351594c-253.517545-63.264221-413.930221-229.972608-416.643007-456.822953l-23.442567 42.995102c-0.921324-48.471858 16.481456-90.392082 24.517445-135.43457l3.890033-37.415975-16.839748 41.152454c7.882435-57.326802 19.859642-116.035589 63.673698-186.56803-5.476757-70.583625 12.949715-132.824153 52.617814-187.847645z m0 0" fill="#E36724" p-id="3822"></path><path d="M366.737979 242.564031c-15.816055 66.386484-10.492852 124.583425 30.710786 167.988003 8.291912-6.654004 15.560132-14.43407 25.541138-20.678596 23.596121-14.43407 52.105968-25.489953 82.048985-69.150455l2.20094-28.305108c-16.737379-6.142157-60.397881-8.803759-106.464061-11.362991-18.73358-8.343097-30.30131-21.139258-34.037788-38.490853z m-18.016995 221.117664c-94.793962-4.29951-123.406178 58.145756-109.330401 163.330201 2.20094-56.303109 89.061282-124.63461 89.214835-125.914225 1.023693-13.922223 8.035989-26.308907 20.115566-37.415976z m250.49765 163.893233c-20.217935-10.544037-49.393182-10.953514-90.903928 2.815155-92.337099 23.084275-168.141558 10.03219-231.559333-30.403679 10.492852 34.652004 38.746776 65.158053 103.188244 87.013896 34.447266 6.551635 68.843347 7.370589 102.93232-2.405678 19.962011-5.783865 38.695591-15.048286 55.484155-27.230231 20.422673-16.942117 40.589423-29.635909 60.858542-29.789463zM181.193642 202.998301L83.584525 279.928821c14.382885-38.030191 34.191343-74.371289 72.323902-104.672598l25.285215 27.742078z m0 0" fill="#D5562C" p-id="3823"></path><path d="M367.505748 360.749375c-1.43317-4.504249 23.749675-14.587624 26.308908-14.689993 2.712786-0.102369 37.057683-6.244527 40.691792-4.504249l12.079576 5.630311c24.005598-9.213236 36.187544-17.658702 46.680396-29.891832l-0.6654 23.084275c-8.291912 13.359192-58.862341 44.479456-83.63571 59.425372-1.074878 0.511846-1.842647 2.149755-2.712786 2.763971-6.090973 4.29951-8.394282 7.728881-8.803759 8.035989-1.279616 0.870139-24.107968-32.39988-29.943017-49.853844z m0 0" fill="#F0B991" p-id="3824"></path><path d="M469.056083 284.330701l19.296611 8.547835 4.913726 24.312707-0.6654 23.084274 12.693792-20.83215c2.09857-8.138358 3.122263-16.430271 0.511846-25.489953a22.981905 22.981905 0 0 0-13.717485-6.705188l-23.03309-2.917525z m0 0" fill="#7E3430" p-id="3825"></path><path d="M227.106268 194.450465c24.568629-2.252124 49.341997-0.307108 73.245227 5.783865 40.845346-45.707888 86.706788-62.240528 135.639308-60.50025-29.021693 23.647306-53.795061 54.102169-68.43387 100.321903-12.847346 41.510747-10.236929 81.178846 0 119.772069 5.579126 17.505148 15.969609 34.447266 29.943017 50.775167 4.913726 24.159152 3.736479 46.475657-2.20094 67.154254-14.894732-12.693792-30.045386-17.914626-45.247226-14.945916-94.896331-5.476757-125.248825 56.149555-110.558832 164.302709C201.513946 528.020794 233.401979 454.161352 332.853744 407.788064c-35.778067-54.614016-21.907028-133.131261-6.602819-183.241028-21.855843-16.174348-58.196941-24.46626-99.144657-30.096571z m399.854444 421.249625c-13.615115-51.082275-57.173248-64.390283-126.681996-44.479456-33.06528 18.580026-78.568429 24.159152-100.475457 7.780066-0.409477-0.307108-0.76777-0.6654-1.177247-0.818955-21.139258-11.055883-39.156253-22.418874-52.976107-38.695591-1.535539-1.893832-3.63411-3.224633-5.476757-4.811356l-6.602819 17.19804c-1.074878 39.821654 59.374188 73.859442 136.918924 59.988404 69.20164-12.437869 119.618514-8.445466 156.471459 3.838848z m0 0" fill="#FF9D00" p-id="3826"></path><path d="M759.06828 672.105568c14.178147-35.163851 23.391383-72.784565 30.352494-111.63371l14.229331 40.589424c13.103269-69.09927 14.741178-140.706588 7.16585-214.258923 18.528841 20.473858 34.60082 43.251025 43.30221 72.938119-0.6654-139.017495-41.152454-226.747976-107.487754-276.960112 22.26532-1.074878 52.259522 11.362991 94.384485 46.322103-34.396081-66.898331-87.372188-115.882035-146.029792-159.440168 77.186444 20.473858 157.955813 59.578926 243.638909 195.627712l-32.246326-86.502049-68.740978-71.863241L895.884835 160.207938l4.453064-11.414176c121.461162 149.152054 105.79866 277.881436 67.410177 403.334999l-208.679796 119.976807z m0 0" fill="#F5B044" p-id="3827"></path><path d="M875.513346 578.591223c49.751475-76.776967 63.520144-171.929221 42.892732-284.637809 76.776967 144.494252 76.981705 309.052884-30.710787 502.018994l-72.477456 45.144857 60.295511-262.526042z m0 0" fill="#FF9D00" p-id="3828"></path><path d="M715.407778 732.042787c37.313606-27.793262 59.374188-86.962711 73.501149-171.212636 20.627412 31.376187 26.360092 78.261322 17.607518 140.194742 32.143957-40.487054 40.179946-120.079176 47.192242-201.258023 52.976107 154.526442 20.320304 289.807458-68.792162 369.246026 4.913726-4.145956-47.038688-16.430271-29.687094-38.439668 38.542037-48.574228 49.956213-150.073378 39.872838-151.96721-37.211237 49.802659-60.653804 58.452864-79.694491 53.436769z m0 0" fill="#FF9D00" p-id="3829"></path><path d="M612.117165 830.573228c94.435669-24.261522 149.919824-72.784565 180.118764-136.86774-1.842647 88.549435-34.140158 155.959612-113.06688 191.123463-47.806458-13.0009-66.335299-31.888034-67.051884-54.255723z m0 0" fill="#FF9D00" p-id="3830"></path><path d="M771.762071 912.571029l-24.107967 24.312706 26.360092 0.511846c-32.143957 18.170549-66.437669 23.596121-101.038489 26.052984 24.46626-20.576227 57.838648-37.211237 98.786364-50.877536z m0 0" fill="#10549A" p-id="3831"></path></svg>