<svg xmlns="http://www.w3.org/2000/svg" width="13.963" height="15.989" viewBox="0 0 13.963 15.989">
  <path id="shouye-8" d="M134.165,81.489h-.324a.425.425,0,0,1,0-.85h.324l.239,0a1.078,1.078,0,0,0,1.011-1.035V71.942a1.428,1.428,0,0,0-.68-1.412l-4.657-3.781s-.005-.005-.009-.007a1.117,1.117,0,0,0-.687-.191,1.129,1.129,0,0,0-.687.191s-.005.005-.009.007-3.119,2.531-4.658,3.779c0,0-.005,0-.007.007a1.405,1.405,0,0,0-.673,1.421V79.6a1.044,1.044,0,0,0,.335.712,1.021,1.021,0,0,0,.676.326l5.421,0a2.167,2.167,0,0,0,1-.193,1.1,1.1,0,0,0,.54-.711,3.007,3.007,0,0,0,.06-.671V74.606c0-.274-.108-.382-.382-.382h-3.228c-.274,0-.382.108-.382.382v4.055a.419.419,0,0,1-.419.419h-.011a.419.419,0,0,1-.419-.419V74.606a1.154,1.154,0,0,1,1.232-1.232H131a1.154,1.154,0,0,1,1.232,1.232v4.457a3.412,3.412,0,0,1-.106.952,1.808,1.808,0,0,1-.4.758,1.866,1.866,0,0,1-.566.432,3.04,3.04,0,0,1-1.372.28l-5.421,0a1.857,1.857,0,0,1-1.274-.572A1.891,1.891,0,0,1,122.5,79.6V71.955a2.217,2.217,0,0,1,1-2.09l4.651-3.773a2.141,2.141,0,0,1,2.467,0l4.658,3.782s.005.005.009.007a2.24,2.24,0,0,1,.979,2.06V79.6a1.9,1.9,0,0,1-.566,1.326,1.855,1.855,0,0,1-1.294.559Z" transform="translate(-122.4 -65.6)" fill="#fff" stroke="#fff" stroke-width="0.2"/>
</svg>
