<svg xmlns="http://www.w3.org/2000/svg" xmlns:xlink="http://www.w3.org/1999/xlink" width="1670.286" height="370.409" viewBox="0 0 1670.286 370.409">
  <defs>
    <clipPath id="clip-path">
      <rect id="矩形_7988" data-name="矩形 7988" width="16.823" height="16.824" fill="#004098"/>
    </clipPath>
  </defs>
  <g id="line" transform="translate(-255.477 -5004.365)">
    <path id="路径_62582" data-name="路径 62582" d="M12514.812,5187.32s731.764-618.1,1666.768-248.768" transform="translate(-12256 184)" fill="none" stroke="#82a7e6" stroke-width="1"/>
    <g id="组_8775" data-name="组 8775" transform="translate(255.477 5357.949)">
      <g id="组_8672" data-name="组 8672" clip-path="url(#clip-path)">
        <path id="路径_62354" data-name="路径 62354" d="M16.659,6.648A2.161,2.161,0,0,0,15.492,3.83,5.389,5.389,0,0,1,13,1.333,2.161,2.161,0,0,0,10.179.165a5.387,5.387,0,0,1-3.53,0A2.16,2.16,0,0,0,3.83,1.331a5.389,5.389,0,0,1-2.5,2.5A2.159,2.159,0,0,0,.166,6.644a5.392,5.392,0,0,1,0,3.529,2.161,2.161,0,0,0,1.168,2.82,5.382,5.382,0,0,1,2.494,2.5,2.16,2.16,0,0,0,2.818,1.168,5.391,5.391,0,0,1,3.531,0,2.159,2.159,0,0,0,2.818-1.167A5.389,5.389,0,0,1,15.49,13a2.162,2.162,0,0,0,1.168-2.82,5.388,5.388,0,0,1,0-3.529" transform="translate(0 0)" fill="#004098"/>
      </g>
    </g>
  </g>
</svg>
