<svg xmlns="http://www.w3.org/2000/svg" xmlns:xlink="http://www.w3.org/1999/xlink" width="325.526" height="83.263" viewBox="0 0 325.526 83.263">
  <defs>
    <clipPath id="clip-path">
      <rect id="矩形_3606" data-name="矩形 3606" width="325.526" height="83.263" fill="#fff"/>
    </clipPath>
  </defs>
  <g id="组_8606" data-name="组 8606" transform="translate(-160 -6126.479)">
    <g id="组_8604" data-name="组 8604" transform="translate(160 6126.479)">
      <g id="组_5304" data-name="组 5304" transform="translate(0 0)" clip-path="url(#clip-path)">
        <path id="路径_40210" data-name="路径 40210" d="M107.468,22.8s-1.059.167-1.348-5.018a3.266,3.266,0,0,1,1.734-2.843c4.625-.234,5.9,1.728,5.9,1.728.191.629.5,1.1.731,1.679a5.451,5.451,0,0,1-1.026,3.349,9.167,9.167,0,0,1-5.994,1.1" transform="translate(3.694 0.519)" fill="#fff" fill-rule="evenodd"/>
        <path id="路径_40211" data-name="路径 40211" d="M138.306,29.129c2.379-.317,2.35,3.321,2.35,3.321L140.327,44.4l-.356,4.408c-.2,2.3.308,4.326.386,6.188a68.619,68.619,0,0,1-.062,7.074c-.094,1.609.2,3.324-.446,4.859-1.628-.339-2.641-1.6-3.827-2.182,0,.1-.013.09.149.219-.379.2-.707-.331-1.068-.173a3.345,3.345,0,0,0,.805.616c-.069.135-.2.18-.168.387.471.555,1.179.872,1.439,1.626-.3-.056-.456-.063-.62.106.264.721,1.034.937,1.343,1.607-.522-.232-.9-1.09-1.44-.934.187.964,1.575,1,1.39,2.156a18.821,18.821,0,0,0,1.567,2.063s-.269,1.937,1.993,1.627a4.536,4.536,0,0,0,2.4-2.948s.354-2.92-.385-10.869a25.9,25.9,0,0,0-.231-9.915,20.325,20.325,0,0,1,.288-3.66c.794-10.344.328-13.751.328-13.751,1.428-5.085-.506-6.024-.506-6.024-1.669-.782-2.588-.214-3.614-.064.585-2.158,6.653-6.359,6.653-6.359,8.493-3.727,4.081-6.061,4.081-6.061s-2.995-2.094-8.293,3.348c0,0-12.006,8.1-16.148,11.851a85.749,85.749,0,0,0-11.213,13.062s-3.8,5.5-4.334,8.319c-.274,1.354-1.445,5.283-2.4,8.366a5.57,5.57,0,0,1-.517-2.845s1.073-12.624,2.148-14.576c0,0,5.409-3.125,2.994-7.537a2.472,2.472,0,0,0-.985-.723,24.506,24.506,0,0,0-4.432-1.5c-.81-.085-1.168.69-1.868,1.183,0,0-1.144,1.752.245,6.154a.357.357,0,0,0,.03.133c.184.586-1.618,14.7-1.618,14.7-2.147,15.321,4.625,11.543,4.625,11.543,1.847-1.845,3.692-3.575,4.422-5.879.23-3.4.38-7.407.541-8.033.319-5.316,10.477-20.513,23.379-25.966-3.227,5.413-6.182,11.209-9.1,16.976a8.457,8.457,0,0,0-2.025,5.913,1.764,1.764,0,0,0,2.013,1.1,3.917,3.917,0,0,0,2.425-3.117c.305-3.158,1.286-3.453,1.286-3.453.574,3.619,3.245,4.2,3.245,4.2,3.724.526,3.35-4.109,3.35-4.109a19.23,19.23,0,0,1-.522-2.551,9.105,9.105,0,0,1-.284-2.655c-.213-1.544-.488-.838-.67-1.288-.231-.648.1-1.423-.164-1.953-.362-.11-.314.452-.538.288-.154-.549.261-1.106.149-1.57a22.3,22.3,0,0,1-1.405,4.32,2.706,2.706,0,0,0-1.819.135c.861-1.771,1.873-3.109,2.794-5.126.983-1.55,1.454-3.486,2.612-4.576,0,0,.245-.181-.047.6" transform="translate(3.607 0.487)" fill="#fff"/>
        <path id="路径_40212" data-name="路径 40212" d="M175.75,32.866c-.2,2.434-1.53,3.011-1.53,3.011-1.155.659-2.224.416-3.711.387-.246-.169-.133-.583-.473-.879a5.162,5.162,0,0,1-2.357-2.156c.142-.112.169-.091.129-.171a15,15,0,0,1-1.185-2.583,2.375,2.375,0,0,1,.685-2.6s.464-.5,2.592-.145a7.931,7.931,0,0,1,1.18.219c.471.125,1.2.453,2.438.926a4.659,4.659,0,0,1,2.232,3.931" transform="translate(5.796 0.96)" fill="#fff" fill-rule="evenodd"/>
        <path id="路径_40213" data-name="路径 40213" d="M172.543,47.557S170.611,48.9,170,54.046c-.145,1.552-.154,2.011-.272,2.914a9.973,9.973,0,0,0,.319,2.826c3.341-3.1,5.054-8.183,6.8-13.035.187,1.219-1.1,2.771-.216,3.715.058.247-.276.591.058.64-.471.269-.187,1.281-.724,1.6a.209.209,0,0,0,.143.271c-.564.833-.281,2.365-.73,2.82a3.056,3.056,0,0,1-.123.694s-.579,5.957-1.85,7.5c-2.676,4.936-4.2,5.178-4.2,5.178a4.8,4.8,0,0,0-1.213.137s-2.917-.679-2.618-5.223c0,0,3.943-14.717,3.991-14.933a36.223,36.223,0,0,0,.9-3.629,16.132,16.132,0,0,0-.863-3.181,2.89,2.89,0,0,1,.683-2.022h.288c.174-.067.085-.348.259-.418a4.284,4.284,0,0,1,5.062,3.132,14.237,14.237,0,0,1-.649,2.459,10.021,10.021,0,0,1-2.5,2.074" transform="translate(5.756 1.385)" fill="#fff" fill-rule="evenodd"/>
        <path id="路径_40214" data-name="路径 40214" d="M200.925,34.225s2.171-.9,2.145-2.382a.293.293,0,0,1-.035-.1c-1.052-4.1-9.1.88-9.1.88s-4.473,3.245-5.814,3.245c0,0-.883-.622,3.762-7.925a70.739,70.739,0,0,0,5.351-9.733c0-1.3.774-2.272-.612-3.669-3.089-.992-6.011,5.114-6.011,5.114.151-.016.216-.1.379-.112-.025.185-.379.334-.214.54.163-.216.267-.507.542-.645.548.036.692-.625,1.275-.424,0,0-1.259,3.188-2.09,5.2,0,0-6.855,12.035-4.576,15.493,1.339,1.317,5.806-2.3,5.806-2.3s5.174-4.455,5.961-3.683c.112.15-4.561,6.851-4.561,6.851-2.052,3.559-5.325,11.2-5.325,11.2a5.411,5.411,0,0,1-3.846-.274C179.2,51.151,182.1,54.7,182.1,54.7c1.369.965,3.408.627,4.673.965C185.189,62,189.7,62.857,189.7,62.857c2.261.34,4.286-1.343,6.464-1.233a16.26,16.26,0,0,1-2.935,7.76,1.391,1.391,0,0,0-.81-.313c-.115.227.3.56.173.8a5.524,5.524,0,0,0,.153,4.766c0-.01.177.586.648.652.809.091,2.325-1.029,2.927-2.242,2.057-4.331,2.9-6.7,2.9-6.7.765-1.308.733-3.43,1.5-4.725a5.681,5.681,0,0,0,1.754-.906c.506-2.662-2.126-3.843-2.126-3.843a14.157,14.157,0,0,1,1.12-4.737,19.453,19.453,0,0,0,3.915-.919,2.407,2.407,0,0,1,2.43.848c.8.545,1.427,1.2,2.954.464,2.343-5.94-4.917-3.988-4.917-3.988s-3.444.893-3.675.371c0,0,1.817-4.2.722-7.731,0,0-.916-1.7-3.513-1.012-2.551.689-2.59,2.137-2.59,2.137a3.606,3.606,0,0,1,1.6.956,7.3,7.3,0,0,1,0,3.578,11.914,11.914,0,0,1-1.661-.961s-2.76-1.515-3.016,2.13c-.232,1.109-.277,2.272-.489,3.138-.382.562-1.9.494-2.67.324,4.057-14.622,10.365-17.245,10.365-17.245M191.26,57.677a1.93,1.93,0,0,1-1.384-2.436c.713-.221,1.671-.888,2.716-.54-.1,1.127-.324,2.136-1.259,2.415-.073.138,0,.427-.073.561m4.245-.362c-1.215,0-2.559.619-3.71.42.254-.553.951-.619,1.254-1.125,0,0,.41.476,1.659-1.212a3.77,3.77,0,0,0,1.414-.845c1.368-1.869,1.625-1.283,1.625-1.283-.141,2.09-.867,2.558-.867,3.106,0,0,.229.939-1.374.939" transform="translate(6.308 0.502)" fill="#fff"/>
        <path id="路径_40215" data-name="路径 40215" d="M291.463,17.564a1.222,1.222,0,0,1-.821.572,9.326,9.326,0,0,1-.453,1.738s.579,1.915.871,3.563c-.117,1.162-.229,2.617-.313,3.808-.242,3.718-1,7.6-.357,10.874.415,1.255,1.338.831,2.183.4.118-.036.013-.31.145-.335.778-.212,1.1-1.049,1.928-1.246,1.458-1.131,1.632-3.175,1.9-5.324.485-3.568.639-6.988,2.22-9.442-1.62,9.138-1.334,11.81-1.334,11.81a14.287,14.287,0,0,1-.443,2.926,5.39,5.39,0,0,0-.573,2.622c-1.231,1.034-2.642,1.126-4.055,1.462-3.614.81-6.489,3.014-10.024,3.839a9.712,9.712,0,0,1-3.5.607c.32-.307.475-.819.784-1.129-.06-.423.3-.773.344-1.219a5.269,5.269,0,0,1-1.478.806c-.7.3-1.3.929-2.219.9-.328.324-.328.858-.744,1.08a8.806,8.806,0,0,0-.6,3.633c.389.853,1.429.262,2.083.329,6.854-.932,9.3-2.466,9.3-2.466a21.094,21.094,0,0,1,5.787-2.54c4.713-.964,6.362-2,6.362-2,2.315-1.031,4.236-1.679,5.8-2.262,5.479-2.317,7.174-1.706,7.174-1.706a1.535,1.535,0,0,1,.239,1.9c-.882,1.7-3.872,2.557-6.429,3.295a4.758,4.758,0,0,1-1.391.336c-.22,0-.38-.043-.556-.038-1.794.038-3.1,1.273-4.119,1.911a15.467,15.467,0,0,1-1.461.554c-.182.082-.373.31-.49.36-.177.087-.53.168-.831.274-.442.2-1.33.59-1.356,1.029-.042.553.954.883,1.406,1.022.746.186,1.574-.03,2.163.087a8.387,8.387,0,0,1,1.621-.451c-.588,1.377-1.612,3.167-1.262,4.815a9.154,9.154,0,0,1,1.725,2.752,18.609,18.609,0,0,1,1.337,2.13,7.443,7.443,0,0,1-2.663.491,7.718,7.718,0,0,0-1.928.637,13.785,13.785,0,0,0-3.064,1.64c-.289.255-.594.443-.887.684a9.005,9.005,0,0,0-1,.866c-.146.187-.3.448-.438.607-.138.2-.406.374-.518.537-.17.27-.276.495-.407.68a3.737,3.737,0,0,0-1.071,2.439c-.038.246-.346.393-.513.564-.131.384.385.521-.036.9.32.377.2.794.511,1.046a10.762,10.762,0,0,0,.924,1.811c2.4,3.774,4.512,3.117,4.512,3.117,3.55.316,6.834-2.8,6.834-2.8s2.569-2.223,3.075-7.492a12.363,12.363,0,0,0,4.36-.176,5.05,5.05,0,0,0,.805-.524c.091-.087.348-.377.464-.5.214-.23.474-.314.584-.5.3-.525.136-1.249.428-1.927-.1-.427-.309-.747-.385-1.2-.307-.03-.474-.335-.774-.455a5.3,5.3,0,0,0-1.038-.147,3.882,3.882,0,0,1-.768-.333,5.546,5.546,0,0,1-1.091-.3c-.518-.009-1.019.215-1.489.072-.167-.051-.058.23-.212.185-.393-.258-1.146.067-1.576-.338-.238-.195-.366-1-.524-1.4a11.219,11.219,0,0,0-1.477-2.213c-.212-.328-.33-.673-.549-1.03-.3-.516-1.295-1.6-1.15-2.168.026-.158.585-.547.743-.84a2.446,2.446,0,0,1,.926-1.022,12.034,12.034,0,0,1,1.1-1.77c.324-.229,1.115-.577,1.312-.928.464-.756.279-2.278-.255-2.5a9.2,9.2,0,0,0,2.54-.168c.663-.158,1.369-.249,1.645-.3a1.553,1.553,0,0,1,1.133-.2c.6.8,1.159-.114,1.948.217a5.681,5.681,0,0,0,.939-.713c.281-.251.672-.4.913-.654.287-.323.365-.725.84-.763a3.762,3.762,0,0,0,.9-1.573,2.073,2.073,0,0,0,.264-.82c0-.375.07-1.421.027-1.878a3.362,3.362,0,0,0-1.275-1.941,4.419,4.419,0,0,0-2.655-.832c-3.577-.056-7.848,1.862-10.641,2.524.229-.54.823-1.629,1.562-1.16.144.228-.185.26-.157.542.734-.3,1.149-.795,1.93-1.142.174-.338.532-.356.836-.67a2.045,2.045,0,0,1,.275-.437c.453,0,.562-.352,1.01-.352a3.345,3.345,0,0,1,.042-.447c.153-.077.334-.037.48-.159a13.374,13.374,0,0,1,2.933-1.863,3.988,3.988,0,0,0,1.176-2.25,4.071,4.071,0,0,0-1.188-3.038c-.1-.117-.328-.31-.455-.453-.155-.153-.234-.354-.381-.442-.307-.27-.7-.25-.835-.591-.174-.361.4-.753.653-1.034a13.186,13.186,0,0,1,2.435-2.349c.971-.311,2.271-.607,2.5-2.453a3.417,3.417,0,0,0-.113-.928,3.639,3.639,0,0,1-.188-.561,1.338,1.338,0,0,0-.393-.811c-.493-.435-1.189-.476-1.594-.8-.626-.485-.53-1.58-.068-2.474a7.855,7.855,0,0,0,.381-.811c.244-.5.573-1,.743-1.462a2.361,2.361,0,0,0-.22-2.029c-.893-.869-2.906.43-3.175,1.062-.793,1-.462,2.365-.74,3.662,0,0-1.105,3.368-2.223,6.356-.373.337-.611.723-.941,1.071-.256.283-.489.619-.745.9a3.353,3.353,0,0,1-.878.738,2.388,2.388,0,0,1-.812.881,3.9,3.9,0,0,1-.168.438c-1.147,1.057-1.593,2.665-2.375,4.215.23-1.21.572-2.436.742-3.765.144-1.256.182-2.832.448-4.053.277-1.173.73-2.422.894-3.512,0-1.389-.492-2.428-1.881-2.147-.857.181-1.837.473-2.188,1.17-.1-.107-.14.028-.3-.028a12.87,12.87,0,0,0-3.082,3.4c-.314-.191-.368-.6-.544-.9,0,0-1.431-2.622-3.3-1.22m13.661,9.909c.275.048.153.414.257.575.288.519,1.12.6,1.514,1.014a3.61,3.61,0,0,1-.91,1.777,17.823,17.823,0,0,1-3.748,4.614c-.062-.456.309-1.418.215-1.985,1.143-6.179,2.672-6,2.672-6m-2.6,38.536c-.8,2.412-3.387,5.841-6.383,5.261-1.7-.53-1.845-1.308-1.679-2.783.277-3.927,4.962-5.3,4.962-5.3,1.192.1,2.631,0,3.2.516,0,0,.527.423-.1,2.3" transform="translate(9.569 0.313)" fill="#fff"/>
        <path id="路径_40216" data-name="路径 40216" d="M249.656,57.961a2.041,2.041,0,0,0-.3-.569c-.764-.575-.625-1.233-1.424-1.375-.068-.286.088-.67-.151-.863.011-.194.239-.158.266-.361.011-.255-.115-.385-.153-.578.244-.626.356-1.389,1.063-1.565a2.048,2.048,0,0,0,1.321-.056,10.11,10.11,0,0,0,1.236.387s.238,0,6.605,5.919a4.786,4.786,0,0,1,1.648,2.586,3.23,3.23,0,0,1-3.306,4.04c-.411-.081-.766-.506-1.212-.371,0,0-2.012-.511-5.589-7.193" transform="translate(8.625 1.83)" fill="#fff"/>
        <path id="路径_40217" data-name="路径 40217" d="M234.347,64a13.683,13.683,0,0,1-5.8,2.519c-1.773.181-2.417-.031-2.931-.369.112-.183.277-.343.4-.514-.183-.787.208-1.715-.1-2.6.158-.3.517-.363.759-.557.353.165,1,.056,1.184.392,2.888.689,7.317-5.329,7.317-5.329s3.716-5.186,4.16-10.093l-1.327.4s-7.708,2.575-9.164-.455c-.062-.04.076-.35-.1-.739-.121-.278-.578-.484-.592-.876a1.842,1.842,0,0,1,.237-.709,4.874,4.874,0,0,1,1.23-1.7,8.1,8.1,0,0,1,.648-.507c.057-.017,2.153-.836,3.271-.2a.455.455,0,0,1,.034.38s6.053.513,6.827-2.381c1.126-6.4.483-7.442.483-13.362.033-1.368.16-1.607.146-2.868,0,0,.028-1.243.126-2.687a2.406,2.406,0,0,1,1.96-1.837c.1-.039.66-.128.674-.235.777.168,1.357.8,2.121.532.2.269-.053.4.085.591.064.061.251,0,.321.061s-.033.207.016.278c.086.149.324.064.388.149.1.091.054.3.162.5.085.145.25.04.353.349a1.71,1.71,0,0,1,.191.649,3.664,3.664,0,0,1,.229,2.32l-1.339,3.915a6.892,6.892,0,0,0-.321,2.333,35.086,35.086,0,0,1-.834,7.619,18.773,18.773,0,0,0,4.014-1.847,3.778,3.778,0,0,1,4.34.836c3.033,2.579.468,4.416.468,4.416-.35.268-.481.53-1.035.53-.231.075-.24.356-.456.4-.334.068-.51-.352-.83-.3-.216.036-.3.287-.5.366,0,0-2.587.382-3.025-.225a1.443,1.443,0,0,0-.419.115A5.562,5.562,0,0,0,244.1,44.94s-.276,2.361-1.18,6.761A23.367,23.367,0,0,1,234.347,64" transform="translate(7.854 0.684)" fill="#fff"/>
        <path id="路径_40218" data-name="路径 40218" d="M20.851,9.565A24.342,24.342,0,0,1,9.576,20.835,9.724,9.724,0,0,0,4.315,33.523a24.343,24.343,0,0,1-.006,15.941,9.758,9.758,0,0,0,5.255,12.7,24.319,24.319,0,0,1,11.27,11.273A9.725,9.725,0,0,0,33.526,78.7a24.317,24.317,0,0,1,15.941,0A9.723,9.723,0,0,0,62.16,73.452,24.374,24.374,0,0,1,73.438,62.179a9.732,9.732,0,0,0,5.261-12.7v.005a24.336,24.336,0,0,1,0-15.943,9.719,9.719,0,0,0-5.257-12.692A24.3,24.3,0,0,1,62.184,9.574,9.745,9.745,0,0,0,49.49,4.313a24.329,24.329,0,0,1-15.943,0,9.725,9.725,0,0,0-12.7,5.255m5.829,67.7a8.138,8.138,0,0,1-4.427-4.418,25.737,25.737,0,0,0-12.1-12.111A8.2,8.2,0,0,1,5.734,50.053a25.743,25.743,0,0,0,0-17.116A8.189,8.189,0,0,1,10.164,22.25a25.7,25.7,0,0,0,12.108-12.1A8.184,8.184,0,0,1,32.955,5.731a25.745,25.745,0,0,0,17.121,0,8.2,8.2,0,0,1,10.682,4.429,25.685,25.685,0,0,0,12.1,12.1,8.191,8.191,0,0,1,4.423,10.686,25.713,25.713,0,0,0-.005,17.119A8.2,8.2,0,0,1,72.85,60.761a25.739,25.739,0,0,0-12.109,12.1,8.2,8.2,0,0,1-10.684,4.423,25.726,25.726,0,0,0-17.121,0,8.132,8.132,0,0,1-6.255-.011" transform="translate(0.124 0.124)" fill="#fff"/>
        <path id="路径_40219" data-name="路径 40219" d="M18.955,6.589C16.992,11.321,11.334,16.977,6.6,18.936A10.684,10.684,0,0,0,.821,32.882C2.777,37.616,2.775,45.614.812,50.351A10.7,10.7,0,0,0,6.59,64.307c4.735,1.961,10.392,7.619,12.346,12.358a10.69,10.69,0,0,0,13.948,5.779c4.737-1.958,12.74-1.958,17.472.005a10.691,10.691,0,0,0,13.952-5.776c1.958-4.732,7.621-10.387,12.357-12.346A10.7,10.7,0,0,0,82.444,50.37c-1.959-4.732-1.959-12.734,0-17.467a10.7,10.7,0,0,0-5.773-13.947C71.942,17,66.288,11.334,64.326,6.6A10.692,10.692,0,0,0,50.377.816c-4.733,1.962-12.735,1.959-17.471,0A10.69,10.69,0,0,0,18.955,6.589M20.535,76c-2.145-5.184-8.1-11.145-13.286-13.3A8.962,8.962,0,0,1,2.411,51.015c2.147-5.182,2.15-13.613.008-18.8A8.945,8.945,0,0,1,7.264,20.536c5.182-2.148,11.143-8.108,13.292-13.287A8.952,8.952,0,0,1,32.245,2.411c5.182,2.147,13.612,2.147,18.8.005A8.957,8.957,0,0,1,62.729,7.259c2.143,5.185,8.1,11.149,13.283,13.3a8.975,8.975,0,0,1,4.841,11.687C78.7,37.42,78.7,45.852,80.843,51.035A8.957,8.957,0,0,1,76,62.727c-5.18,2.147-11.145,8.107-13.287,13.285a8.966,8.966,0,0,1-11.7,4.84C45.834,78.7,37.4,78.7,32.223,80.847A8.955,8.955,0,0,1,20.535,76" transform="translate(0 0)" fill="#fff"/>
        <path id="路径_40220" data-name="路径 40220" d="M11.657,25.967s-.119.171-.9-.466a.628.628,0,0,1-.18-.616c.572-.692,1.016-.618,1.016-.618a3.44,3.44,0,0,0,.334.115,1.08,1.08,0,0,1,.345.576,1.793,1.793,0,0,1-.62,1.008" transform="translate(0.368 0.844)" fill="#fff" fill-rule="evenodd"/>
        <path id="路径_40221" data-name="路径 40221" d="M16.481,22.581c.264-.381.781.1.781.1l1.663,1.607.583.625a8.283,8.283,0,0,0,.934.75,11.92,11.92,0,0,1,1,.928,2.749,2.749,0,0,1,.636.7,3.049,3.049,0,0,1-.81.266c.017.011.01.011.057.005-.025.083-.144.061-.17.127a.652.652,0,0,0,.191-.029c.011.023,0,.049.034.075.14,0,.277-.06.421,0-.044.035-.069.053-.066.1.137.063.268-.022.406.023-.1.044-.272-.018-.322.08.161.1.346-.093.492.086.18,0,.319.062.493.046,0,0,.245.289.494-.078a.863.863,0,0,0-.109-.725,11.622,11.622,0,0,0-1.6-1.362,4.944,4.944,0,0,0-1.447-1.259,3.667,3.667,0,0,1-.481-.518,14.92,14.92,0,0,0-1.923-1.834c-.539-.869-.927-.719-.927-.719-.329.14-.368.344-.481.512a4.624,4.624,0,0,1-.04-1.774c.575-1.7-.331-1.377-.331-1.377s-.7.156-.6,1.618c0,0-.411,2.765-.411,3.846a16.386,16.386,0,0,0,.4,3.305,6.465,6.465,0,0,0,.623,1.705c.159.216.567.894.884,1.43a1,1,0,0,1-.474-.295,17.628,17.628,0,0,1-1.8-2.206s.264-1.179-.682-1.406a.454.454,0,0,0-.232.044,4.174,4.174,0,0,0-.792.438c-.121.1-.06.256-.078.42,0,0,.1.389.906.769a.12.12,0,0,1,.028.011c.108.05,1.89,2.148,1.89,2.148,1.9,2.3,2.246.838,2.246.838a2.969,2.969,0,0,0-.262-1.4c-.453-.477-1.008-1.021-1.074-1.121-.719-.738-1.564-4.171-.662-6.726.352,1.171.8,2.349,1.241,3.514a1.645,1.645,0,0,0,.577,1.066.348.348,0,0,0,.422-.151.752.752,0,0,0-.132-.751c-.412-.452-.322-.634-.322-.634a.9.9,0,0,0,1.016.087c.564-.465-.145-1.015-.145-1.015a3.7,3.7,0,0,1-.433-.258,1.759,1.759,0,0,1-.417-.307c-.248-.169-.181-.04-.272-.072-.12-.05-.192-.2-.3-.23-.065.033.026.106-.033.115-.094-.049-.12-.18-.2-.228a4.285,4.285,0,0,1,.435.767c-.137.061-.165.18-.216.273-.145-.352-.2-.672-.373-1.063a5.118,5.118,0,0,1-.314-.97s0-.062.082.083" transform="translate(0.445 0.658)" fill="#fff"/>
        <path id="路径_40222" data-name="路径 40222" d="M51.019,18.4a.677.677,0,0,0-.039-.144c-.143-.169-.073-.31-.246-.386,0-.069.057-.146.014-.2.008-.042.065-.02.073-.065a.266.266,0,0,0,0-.135c.093-.129.16-.295.33-.295a.476.476,0,0,0,.3.063c.075.059.186.1.252.155a16.57,16.57,0,0,1,1.162,1.679,1.114,1.114,0,0,1,.227.674.741.741,0,0,1-.958.721c-.089-.04-.145-.15-.259-.144,0,0-.415-.226-.853-1.92" transform="translate(1.766 0.597)" fill="#fff"/>
        <path id="路径_40223" data-name="路径 40223" d="M47.334,18.887a3.216,3.216,0,0,1-1.436.256c-.406-.059-.541-.143-.634-.251.033-.032.076-.056.116-.09,0-.189.138-.374.121-.589.044-.058.13-.057.2-.086.065.06.216.072.241.158.608.3,1.93-.8,1.93-.8a5.728,5.728,0,0,0,1.485-2.033l-.323.013s-1.866.157-2.032-.6a.34.34,0,0,0,.021-.17c-.013-.072-.1-.144-.087-.231.005-.052.066-.1.093-.149A1.174,1.174,0,0,1,47.4,14c.06-.017.116-.062.173-.076.016,0,.528-.071.743.132a.117.117,0,0,1-.01.091s1.328.442,1.656-.165a12.577,12.577,0,0,0,.838-2.969c.082-.307.122-.354.187-.634,0,0,.075-.281.178-.6a.544.544,0,0,1,.535-.306c.026,0,.15.005.164-.02.165.082.26.256.45.234.03.076-.033.09-.009.141,0,.014.051.009.058.028s-.01.044-.007.065.069.031.08.052,0,.077.008.127c.009.035.055.022.06.1a.477.477,0,0,1,.007.155c.027.408-.077.528-.077.528l-.511.81a1.6,1.6,0,0,0-.2.5,8.064,8.064,0,0,1-.6,1.657,4.031,4.031,0,0,0,1-.189.876.876,0,0,1,.933.423c.534.744-.14,1.013-.14,1.013-.1.041-.139.093-.262.063-.052.006-.075.065-.123.065-.078,0-.1-.109-.17-.115-.052,0-.087.05-.131.056,0,0-.6-.056-.667-.212a.4.4,0,0,0-.1,0,1.3,1.3,0,0,0-.9.182s-.186.515-.627,1.449a5.415,5.415,0,0,1-2.593,2.29" transform="translate(1.576 0.329)" fill="#fff"/>
        <path id="路径_40224" data-name="路径 40224" d="M68.344,22.251a.3.3,0,0,1-.2-.073c-.129.036-.258.13-.358.122a7.518,7.518,0,0,1-.526.586c-.221.119-.487.272-.711.4a9.831,9.831,0,0,0-1.964,1.242c-.167.224.012.338.189.438.021.013.06-.038.077-.019.135.116.318.066.45.194a1.61,1.61,0,0,0,1.168-.3,5.141,5.141,0,0,1,1.932-.743,11.147,11.147,0,0,0-2.238,1.185,3.34,3.34,0,0,1-.576.272,1.139,1.139,0,0,0-.531.214,1.842,1.842,0,0,1-.74-.552c-.581-.533-1.315-.775-1.879-1.3a1.94,1.94,0,0,1-.528-.548c.094.021.2-.017.295,0,.061-.06.168-.036.251-.08a1.312,1.312,0,0,1-.317-.167c-.141-.087-.323-.12-.426-.284-.1-.019-.191.047-.28,0a1.859,1.859,0,0,0-.71.333c-.11.172.125.281.191.409a5.469,5.469,0,0,0,1.544,1.341,4.566,4.566,0,0,1,1.149.717,4.775,4.775,0,0,0,1.112.887c.463.287.807.545,1.095.756,1.067.691,1.162,1.061,1.162,1.061a.331.331,0,0,1-.309.268c-.4.051-.916-.378-1.352-.738a1.092,1.092,0,0,1-.228-.2c-.026-.041-.035-.072-.056-.107a1.745,1.745,0,0,0-.832-.5c-.1-.047-.181-.143-.274-.191-.033-.019-.1-.032-.123-.043s-.083-.073-.147-.115c-.085-.053-.26-.166-.348-.118s-.039.276-.005.374a4.417,4.417,0,0,0,.243.394,2.08,2.08,0,0,1,.272.23,1.86,1.86,0,0,0-1,.355,1.98,1.98,0,0,1-.277.636,4.476,4.476,0,0,1-.22.487,1.654,1.654,0,0,1-.4-.412,2.055,2.055,0,0,0-.337-.26,2.945,2.945,0,0,0-.663-.344c-.079-.024-.151-.055-.224-.078a1.506,1.506,0,0,0-.275-.066.983.983,0,0,0-.162-.011c-.05,0-.112-.025-.158-.027-.063,0-.121.01-.166.006a.825.825,0,0,0-.56.108c-.049.022-.109-.013-.167-.023-.079.025-.042.125-.159.1-.03.1-.113.136-.125.218a2.721,2.721,0,0,0-.206.379c-.379.874-.01,1.171-.01,1.171a2.194,2.194,0,0,0,1.314.872,2.453,2.453,0,0,0,1.691-.355,2.505,2.505,0,0,0,.558.749,1.326,1.326,0,0,0,.184.082c.03.006.11.011.15.021.058.01.107.047.156.043.128-.013.232-.123.389-.156.063-.069.093-.147.162-.211-.035-.059.005-.121-.01-.19a1.4,1.4,0,0,0-.1-.2.677.677,0,0,1-.034-.177c-.019-.086-.073-.149-.078-.228-.058-.089-.157-.157-.189-.251-.01-.039-.046.018-.056-.016-.009-.1-.154-.2-.135-.32.012-.068.136-.188.19-.262a2.544,2.544,0,0,0,.212-.523c.028-.077.08-.141.111-.224.059-.117.129-.418.245-.465.033-.012.174.037.236.032a.551.551,0,0,1,.3.042,2.148,2.148,0,0,1,.441-.014c.083.025.24.125.324.119.189-.011.435-.226.41-.347a2.548,2.548,0,0,0,.329.429c.114.1.21.212.255.252a.353.353,0,0,1,.174.174c-.069.2.156.191.195.373a1.165,1.165,0,0,0,.233.081c.084.021.156.069.23.079.089.017.17-.019.239.059a.8.8,0,0,0,.382-.026.572.572,0,0,0,.178-.052c.062-.046.262-.159.331-.221a.731.731,0,0,0,.195-.458.984.984,0,0,0-.173-.57,9.752,9.752,0,0,0-1.726-1.576c.124-.028.387-.053.4.14-.024.053-.069,0-.115.035.138.093.277.11.433.206.082-.011.127.047.217.063a.431.431,0,0,1,.11,0c.057.08.133.057.186.131a.627.627,0,0,0,.083-.05c.036.031.049.065.085.072a2.71,2.71,0,0,1,.683.3.747.747,0,0,0,.93-.644,1.257,1.257,0,0,0,.024-.131c.01-.047.032-.085.036-.118.008-.088-.04-.153,0-.221s.186-.021.265-.01a2.869,2.869,0,0,1,.7.149.615.615,0,0,0,.737.152,1.033,1.033,0,0,0,.148-.131.829.829,0,0,1,.077-.106.281.281,0,0,0,.1-.165c.021-.137-.058-.272-.05-.377.009-.17.217-.285.424-.309a1.517,1.517,0,0,0,.194-.03c.115-.019.242-.019.346-.043a.512.512,0,0,0,.331-.284c.052-.261-.425-.459-.567-.432-.272-.018-.472.2-.736.306,0,0-.727.208-1.392.37a1.889,1.889,0,0,0-.295-.035c-.086-.014-.171-.017-.251-.028a.609.609,0,0,1-.237-.067.461.461,0,0,1-.248-.032c-.032.007-.071.012-.1.018a3.05,3.05,0,0,0-1.036.089c.246-.107.5-.19.756-.324s.523-.3.77-.4.515-.167.729-.266c.249-.167.367-.38.156-.591a.671.671,0,0,0-.472-.245c.009-.03-.019-.023-.029-.056a2.821,2.821,0,0,0-.971-.138c-.006-.077.063-.138.1-.2,0,0,.286-.573-.185-.734m-.109,3.6c.024.05-.061.072-.073.115-.056.111.027.263,0,.387a.787.787,0,0,1-.424.052A3.712,3.712,0,0,1,66.48,26.3c.069-.067.284-.113.375-.2,1.226-.543,1.38-.248,1.38-.248m-7.121,4.163c-.529.145-1.437.1-1.7-.5-.111-.365.01-.479.292-.626a1.466,1.466,0,0,1,1.527.241c.127.221.318.463.293.626,0,0-.009.142-.416.26" transform="translate(2.038 0.772)" fill="#fff"/>
        <path id="路径_40225" data-name="路径 40225" d="M28.688,12.744c.07.5-.168.679-.168.679a1.387,1.387,0,0,1-.736.251c-.053-.021-.053-.114-.131-.154a1.056,1.056,0,0,1-.574-.326c.021-.03.03-.027.01-.038a3.579,3.579,0,0,1-.355-.467.5.5,0,0,1,.013-.56s.075-.117.524-.149a1.843,1.843,0,0,1,.244-.011c.1,0,.262.035.534.072a.963.963,0,0,1,.632.691" transform="translate(0.928 0.416)" fill="#fff" fill-rule="evenodd"/>
        <path id="路径_40226" data-name="路径 40226" d="M28.7,15.858s-.327.364-.214,1.428c.049.322.061.411.084.6a2.218,2.218,0,0,0,.2.554,6.813,6.813,0,0,0,.765-2.947c.09.238-.094.607.129.762.026.047-.033.13.04.127-.086.075.018.268-.073.354,0,.035.023.04.042.049-.075.194.049.487-.018.6a.5.5,0,0,1,.008.144,4.686,4.686,0,0,1-.023,1.6c-.3,1.119-.6,1.24-.6,1.24a.935.935,0,0,0-.238.084s-.617,0-.774-.926c0,0,.107-3.156.107-3.2a5.5,5.5,0,0,0,.01-.771,3.521,3.521,0,0,0-.318-.605.58.58,0,0,1,.043-.438.253.253,0,0,1,.054-.012c.031-.021,0-.079.034-.1a.883.883,0,0,1,1.165.393,2.663,2.663,0,0,1-.016.53,2,2,0,0,1-.4.53" transform="translate(0.968 0.498)" fill="#fff" fill-rule="evenodd"/>
        <path id="路径_40227" data-name="路径 40227" d="M33.768,11.86s.394-.281.319-.582a.035.035,0,0,1-.011-.02c-.4-.775-1.793.6-1.793.6s-.748.864-1.019.929c0,0-.2-.089.389-1.776A14.27,14.27,0,0,0,32.27,8.8c-.059-.263.054-.5-.288-.712-.671-.056-.976,1.31-.976,1.31.031-.01.04-.03.072-.037,0,.039-.063.083-.02.117a.44.44,0,0,1,.075-.153c.117-.024.117-.164.242-.147,0,0-.108.7-.178,1.147,0,0-.823,2.746-.2,3.335.327.207,1.061-.734,1.061-.734s.829-1.138,1.029-1.016c.033.024-.6,1.591-.6,1.591-.25.809-.552,2.508-.552,2.508a1.136,1.136,0,0,1-.786.125c-.978.15-.226.732-.226.732.321.125.713-.035.988-.025-.027,1.352.927,1.309.927,1.309.471-.033.8-.47,1.238-.547a3.3,3.3,0,0,1-.224,1.7.242.242,0,0,0-.179-.026c-.014.051.091.1.07.153a1.162,1.162,0,0,0,.259.957s.059.109.155.1a.824.824,0,0,0,.485-.589c.212-.976.277-1.494.277-1.494.091-.3-.011-.719.079-1.017a1.287,1.287,0,0,0,.314-.266.763.763,0,0,0-.608-.675,2.971,2.971,0,0,1,0-1,3.9,3.9,0,0,0,.749-.37.49.49,0,0,1,.526.058.5.5,0,0,0,.623-.047c.189-1.3-1.181-.575-1.181-.575s-.651.344-.724.245a2.687,2.687,0,0,0-.213-1.589.6.6,0,0,0-.754-.039c-.484.259-.428.553-.428.553a.7.7,0,0,1,.37.119,1.444,1.444,0,0,1,.166.718,2.429,2.429,0,0,1-.378-.116s-.627-.177-.508.568c0,.239.054.472.046.66-.049.129-.356.19-.521.188.136-3.139,1.284-3.96,1.284-3.96m-.854,5.18a.4.4,0,0,1-.393-.427c.133-.077.3-.259.523-.236.033.231.033.446-.141.546-.01.031.023.083.011.117m.841-.272a4.94,4.94,0,0,1-.732.258c.025-.125.166-.17.2-.292,0,0,.106.084.275-.318a.674.674,0,0,0,.245-.233c.191-.441.272-.334.272-.334a2.306,2.306,0,0,1-.031.665s.091.178-.232.254" transform="translate(1.067 0.281)" fill="#fff"/>
        <path id="路径_40228" data-name="路径 40228" d="M16.771,50.263,11.987,52l-.217-.612,2.2-.8-.833-2.288-2.2.8L10.71,48.5l4.784-1.742.221.61-2.009.733.834,2.289,2.008-.734Z" transform="translate(0.373 1.627)" fill="#fff"/>
        <path id="路径_40229" data-name="路径 40229" d="M15,52.587q2.246-1.217,3.44.556,1.065,1.847-1.006,3.334-2.2,1.184-3.4-.584-1.066-1.85.963-3.306m.344.551q-1.588,1.1-.855,2.471.9,1.245,2.588.3c1.068-.725,1.35-1.536.848-2.443-.605-.844-1.469-.953-2.581-.328" transform="translate(0.476 1.813)" fill="#fff"/>
        <path id="路径_40230" data-name="路径 40230" d="M22.918,58.634l-3.666,3.538L18.8,61.7l1.686-1.626L18.8,58.326l-1.686,1.627-.452-.469,3.664-3.536.454.468L19.24,57.9l1.69,1.75,1.54-1.484Z" transform="translate(0.58 1.947)" fill="#fff"/>
        <path id="路径_40231" data-name="路径 40231" d="M21.31,63.841l-.532-.375,4.36-3.163.588.411L24.2,65.86l-.572-.4L24.079,64l-1.541-1.077Zm3.656-2.724-1.923,1.418,1.2.835Z" transform="translate(0.723 2.099)" fill="#fff"/>
        <path id="路径_40232" data-name="路径 40232" d="M26.024,66.831l2.286-4.555.556.283-2.282,4.555Z" transform="translate(0.906 2.167)" fill="#fff"/>
        <path id="路径_40233" data-name="路径 40233" d="M34.911,68.026A1.787,1.787,0,0,1,32.6,69.411a1.657,1.657,0,0,1-1.284-2.191l.825-3.262.6.156-.774,3.061q-.321,1.363.795,1.67,1.183.245,1.536-1.053l.783-3.087.625.161Z" transform="translate(1.088 2.226)" fill="#fff"/>
        <path id="路径_40234" data-name="路径 40234" d="M40.549,65.274l-.327,5.082-.718-.047-2.118-4.246-.265,4.092-.626-.037.329-5.085.766.05,2.068,4.292.269-4.142Z" transform="translate(1.27 2.263)" fill="#fff"/>
        <rect id="矩形_3604" data-name="矩形 3604" width="0.625" height="5.091" transform="translate(43.442 67.421) rotate(-4.22)" fill="#fff"/>
        <path id="路径_40235" data-name="路径 40235" d="M48.024,64.193l-.6,5.333-.679.143-2.714-4.626.679-.144,2.227,4,.407-4.562Z" transform="translate(1.533 2.234)" fill="#fff"/>
        <path id="路径_40236" data-name="路径 40236" d="M50.8,68.617,48.909,63.89l3.161-1.265.225.567-2.578,1.034.585,1.465,2.388-.956.228.566-2.386.958.644,1.607L53.8,66.816l.211.518Z" transform="translate(1.703 2.18)" fill="#fff"/>
        <path id="路径_40237" data-name="路径 40237" d="M55.767,66.45l-2.7-4.312,1.843-1.16q1.31-.785,2.023.352a1.3,1.3,0,0,1,.112,1.4c.374-.11.7.067.99.527l.526.749c.133.219.287.311.452.288l.055.086-.649.406a5.51,5.51,0,0,1-.746-.971c-.321-.541-.721-.661-1.208-.356l-1.316.825L56.3,66.117ZM56.092,63a.8.8,0,0,0,.333-1.26.753.753,0,0,0-1.168-.29L53.9,62.3l.933,1.489Z" transform="translate(1.847 2.111)" fill="#fff"/>
        <path id="路径_40238" data-name="路径 40238" d="M58.882,58.568c-.5.484-.564.934-.2,1.361a.6.6,0,0,0,.839.087l1.212-.667a1.265,1.265,0,0,1,1.679.25q.9,1.048-.358,2.308a2.044,2.044,0,0,1-1.352.659,1.58,1.58,0,0,1-1.188-.6l.428-.393a1.137,1.137,0,0,0,1.751-.021q.866-.834.331-1.449c-.254-.388-.7-.384-1.338.023l-.853.472a1.138,1.138,0,0,1-1.525-.185,1.466,1.466,0,0,1,.124-2.226,1.552,1.552,0,0,1,2.432-.061l-.443.411a1.023,1.023,0,0,0-1.542.036" transform="translate(2.014 2.003)" fill="#fff"/>
        <rect id="矩形_3605" data-name="矩形 3605" width="0.626" height="5.092" transform="matrix(0.639, -0.769, 0.769, 0.639, 62.872, 57.74)" fill="#fff"/>
        <path id="路径_40239" data-name="路径 40239" d="M64.03,51.2l.517.326-.839,1.336,3.8,2.377-.348.551-3.8-2.377-.837,1.331-.516-.322Z" transform="translate(2.159 1.782)" fill="#fff"/>
        <path id="路径_40240" data-name="路径 40240" d="M69.731,50.844,67.865,50.1l-3.512.5.275-.692,2.791-.331-1.8-2.164.275-.69,2.2,2.8,1.868.749Z" transform="translate(2.24 1.626)" fill="#fff"/>
        <path id="路径_40241" data-name="路径 40241" d="M38.826,30.241l-.1.9,9.342-.009s.848-.087-.012-1.046l-8.637-.01s-.528-.061-.594.168" transform="translate(1.348 1.046)" fill="#fff"/>
        <path id="路径_40242" data-name="路径 40242" d="M51.433,43.3c2.287-.23,1.317-1.219,1.317-1.219l-5.439,0-.085.569c.335.482,1.72.9,4.207.654" transform="translate(1.644 1.464)" fill="#fff"/>
        <path id="路径_40243" data-name="路径 40243" d="M35.635,43.554s1,.356,2.884-.923c.117-.1.263-.175.273-.641a.61.61,0,0,0-.519-.493c-.506-.032-2.108-.05-2.108-.05s-1.683-.1-1.718.724c-.04.91.087,1.09,1.188,1.381" transform="translate(1.199 1.442)" fill="#fff"/>
        <path id="路径_40244" data-name="路径 40244" d="M35.246,45.772c-1.172-.3-2.1,1-2.1,1a7.722,7.722,0,0,0,1.735,1.71c1.5-1.3,1.5-1.677,1.5-1.677s.19-.629-1.141-1.036" transform="translate(1.154 1.591)" fill="#fff"/>
        <path id="路径_40245" data-name="路径 40245" d="M41.564,42.523s.066-1.22-.876-1.105a.8.8,0,0,0-.92.76,2.454,2.454,0,0,1-.441,1.361l-1.559.689a.807.807,0,0,0-.407.986c.277.575,1.03.4,1.03.4a7.077,7.077,0,0,0,3.03-1.147Z" transform="translate(1.3 1.441)" fill="#fff"/>
        <path id="路径_40246" data-name="路径 40246" d="M48.022,48s-1.716-.184-2.636-.277c-1.155-.152-2.785-.021-3.4-.9,0,0-1.834-.826-2.2.277-.347,1.043.613,1.825,1.767,1.868.428,0,5.758.478,5.758.478s1.728.188,1.856-.646c-.128-.845-1.147-.8-1.147-.8" transform="translate(1.382 1.619)" fill="#fff"/>
        <path id="路径_40247" data-name="路径 40247" d="M44.08,44.664c.7.093,1.732-.327,1.968-1.882.071-1.061-1.407-1.173-1.407-1.173a1.733,1.733,0,0,0-1.854,1.282c-.3,1.547.592,1.677,1.294,1.774" transform="translate(1.487 1.448)" fill="#fff"/>
        <path id="路径_40248" data-name="路径 40248" d="M38.755,55.336a.652.652,0,0,0-.452.227,1.1,1.1,0,0,0-.219.767.461.461,0,0,0,.123.285.456.456,0,0,0,.379.154.589.589,0,0,0,.459-.234.941.941,0,0,0,.2-.627.628.628,0,0,0-.126-.419.451.451,0,0,0-.364-.152" transform="translate(1.326 1.926)" fill="#fff"/>
        <path id="路径_40249" data-name="路径 40249" d="M40.946,19.972A21.066,21.066,0,1,0,62.013,41.037,21.062,21.062,0,0,0,40.946,19.972m-5,40.049H34.741l.619-2.677a4.6,4.6,0,0,1-1.306.49l.219-.961a5.148,5.148,0,0,0,1.6-.987H36.9Zm-10.993-21.9c.527.067.488.5.488.5a13.1,13.1,0,0,0,.977,8.213,30.344,30.344,0,0,0,4.6,6.879c.053.052.085.2-.309.052-3.122-1.907-5.378-6.679-5.378-6.679a13.908,13.908,0,0,1-1.029-8.6.561.561,0,0,1,.655-.362m-.4-2.233a6.19,6.19,0,0,1,.689-2.361,21.2,21.2,0,0,1,3.759-5.5,12.521,12.521,0,0,1,5.1-3.02s.518-.208.677.088c.243.457-.15.555-.583.816,0,0-2.29.97-5.488,4.922a19,19,0,0,0-2.324,4.123c-.038.093-.083.19-.12.311C25.8,36.652,25,36.371,25,36.371v0a.534.534,0,0,1-.439-.489M30.778,50.54s-7.133-6.962-2.88-16.149a19.389,19.389,0,0,1,10.743-9.9s.512-.195.712.209c.1.359-.517.636-.517.636a28.38,28.38,0,0,0-4.61,3.026s-3.093,2.694-3.889,4.17a10.686,10.686,0,0,0-1.009,2c0,.337.279.794.984.523A2.3,2.3,0,0,0,31.469,34a28.77,28.77,0,0,1,6.282-6.631,4.333,4.333,0,0,1,2.544-.961c.528.166.261.739-.04.857a7.059,7.059,0,0,0-1.577.868,24.942,24.942,0,0,0-4.442,4.943s-1.589,2.5-3.071,3.028a8.2,8.2,0,0,0-2.246,1.167c-.443.47-.984.952-.884,3.207a14.917,14.917,0,0,0,2.96,8.575,23.274,23.274,0,0,0,5.228,5.283c.279.285.251.307.053.25a13.631,13.631,0,0,1-5.5-4.044M42.314,27.72c.237.14.267.491.267.719,0,0-.012.453.876.594a1.488,1.488,0,0,0,1.87-1.111s.106-.262.808-.2a7.469,7.469,0,0,1,4.851,3.006s1.588,1.848.762,2.336l-13.932.1s-1.822-.1-1.328-.953a9.525,9.525,0,0,1,3.692-3.851s1.6-.935,2.133-.633M40.778,58.743a2.206,2.206,0,0,1-.752.986,2.044,2.044,0,0,1-1.218.358,1.812,1.812,0,0,1-1-.247,1.04,1.04,0,0,1-.472-.735L38.5,59c.047.271.188.407.419.407a.53.53,0,0,0,.437-.243,2.539,2.539,0,0,0,.343-.786l-.018-.009a1.416,1.416,0,0,1-.9.313,1.208,1.208,0,0,1-.865-.341,1.127,1.127,0,0,1-.356-.856,1.531,1.531,0,0,1,.486-1.106,1.776,1.776,0,0,1,1.327-.49,1.648,1.648,0,0,1,1.209.439,1.591,1.591,0,0,1,.443,1.184,3.367,3.367,0,0,1-.25,1.235m2.616,1.278H42.18l.621-2.677a4.591,4.591,0,0,1-1.306.49l.219-.961a5.235,5.235,0,0,0,1.6-.987h1.027Zm4.928-3.2h-1.86l-.2.654q.332-.112.5-.157a1.375,1.375,0,0,1,.356-.042,1.288,1.288,0,0,1,.853.284,1.054,1.054,0,0,1,.334.85,1.57,1.57,0,0,1-.2.8,1.692,1.692,0,0,1-.653.62,2.432,2.432,0,0,1-1.232.263,1.846,1.846,0,0,1-1.108-.275,1.273,1.273,0,0,1-.449-.888l1.193-.133v.016a.6.6,0,0,0,.142.432.52.52,0,0,0,.394.152.66.66,0,0,0,.527-.265.977.977,0,0,0,.214-.628v-.012c0-.341-.155-.515-.469-.515a.776.776,0,0,0-.584.265l-1.109-.159.648-2.122h2.911Zm-4.743-5.793s-1.126-.091-1.063.572c.06.623,1.3.662,1.3.662h3.9a.544.544,0,0,1,.526.592c-.054.589-1.45.691-1.45.691a14.951,14.951,0,0,1-3.934-.027s-4.186-2.285-3.262-3.607c0,0,.022-.9-1.131-.962a2.281,2.281,0,0,0-2.169.934,7.174,7.174,0,0,0,2.2,1.957s1.794,1.177,2.34,1.477a.313.313,0,0,1,.035.574c-.172.11-.806-.128-.806-.128s-2.116-.6-5.8-3.5c0,0-5.419-4.894-5.175-11.069,0,0,.086-1.052.986-1.093s1.109,1.093,1.109,1.093c.194,5.327,1.541,6.836,1.69,7a2.494,2.494,0,0,0,1.324-.647s.649-.684.017-1.2c-1.332-1.075-1.2-3.506-1.2-3.506s.887-.3,1.275-.421a.363.363,0,0,1,.036-.017,8.082,8.082,0,0,1,1.551-.061l3.644.03s.238-.038.526.421h1.841a.953.953,0,0,0,.536-1.072,1.171,1.171,0,0,0-.819-.825l-7.133.005-.051,0a3.408,3.408,0,0,1-1.865-.45c-.455-.35-.954-.849-.835-1.256a1.3,1.3,0,0,1,1.956-.83l.675.471s.409.463,1.8.463l5.712.009a.627.627,0,0,0,.556-.719.682.682,0,0,0-.706-.671l-7.973-.006s-.717-.007-.511-.519l.469-.782c.081-.126.439-.527,1.633-.527H54.594s-.3-1.944-2.851-4.216a16.939,16.939,0,0,0-4.932-3.144,19.692,19.692,0,0,0-2.949-.822c-1.6-.413-1.482-1.3-1.482-1.3s.042-.741,1.306-.583A16.591,16.591,0,0,1,49.112,25.6s5.952,2.859,7.695,8.414c0,0,.236.741.463,1.644H45.656s-.928-.008-.942.824a.741.741,0,0,0,.707.814l10.049.038a2.4,2.4,0,0,0,1.5-.541.5.5,0,0,1,.8.292,3.055,3.055,0,0,1,.072,1.9l-12.139.09a.906.906,0,0,0-.826.978.856.856,0,0,0,.93.867l10.023-.037-.009.007a2.053,2.053,0,0,1,1.777.871,1.853,1.853,0,0,1,.035.633c-.056.553-1.563,1.122-1.563,1.122s-1.753.746-1.566,1.573c.093.475.934,1.013.934,1.013a.962.962,0,0,1-.044,1.358c-.816.726-1.855-.194-1.855-.194a2.9,2.9,0,0,0-2.192-1.493,2.023,2.023,0,0,0-1.519.529,2.023,2.023,0,0,1-1.871.46s-1.3-.365-1.335.361c-.024.371.424.609.835.677a32.919,32.919,0,0,1,3.57.157c.888.213,1.547.356,2,1.181.46,1.033.036,1.405-.341,1.64a4.515,4.515,0,0,1-3.1.568Zm7.185,7.434-.671-1.213a18.579,18.579,0,1,0-18.051-.084l-.682,1.209a19.967,19.967,0,1,1,19.4.088" transform="translate(0.692 0.695)" fill="#fff"/>
      </g>
    </g>
  </g>
</svg>
