<svg xmlns="http://www.w3.org/2000/svg" xmlns:xlink="http://www.w3.org/1999/xlink" width="273.674" height="70" viewBox="0 0 273.674 70">
  <defs>
    <clipPath id="clip-path">
      <rect id="矩形_3606" data-name="矩形 3606" width="273.674" height="70" fill="#fff"/>
    </clipPath>
  </defs>
  <g id="logo" clip-path="url(#clip-path)">
    <path id="路径_40210" data-name="路径 40210" d="M107.254,21.543s-.89.14-1.134-4.219a2.746,2.746,0,0,1,1.458-2.39c3.888-.2,4.962,1.453,4.962,1.453.161.529.419.927.614,1.412a4.583,4.583,0,0,1-.862,2.815,7.707,7.707,0,0,1-5.039.928" transform="translate(-13.798 -1.94)" fill="#fff" fill-rule="evenodd"/>
    <path id="路径_40211" data-name="路径 40211" d="M132.78,26.719c2-.266,1.976,2.792,1.976,2.792l-.277,10.046-.3,3.706a35.254,35.254,0,0,0,.324,5.2,57.684,57.684,0,0,1-.052,5.947c-.079,1.353.167,2.794-.375,4.085-1.368-.285-2.22-1.344-3.217-1.835,0,.086-.011.076.125.184-.318.164-.594-.278-.9-.145a2.812,2.812,0,0,0,.677.518c-.058.113-.167.151-.141.325.4.466.991.733,1.21,1.367-.255-.047-.384-.053-.521.089.222.606.869.787,1.129,1.351-.438-.195-.755-.916-1.211-.786.157.811,1.324.845,1.168,1.812a15.828,15.828,0,0,0,1.317,1.735s-.226,1.629,1.676,1.368A3.814,3.814,0,0,0,137.411,62a50.748,50.748,0,0,0-.324-9.137,21.774,21.774,0,0,0-.194-8.335,17.088,17.088,0,0,1,.242-3.077c.667-8.7.276-11.56.276-11.56,1.2-4.275-.425-5.064-.425-5.064-1.4-.658-2.176-.18-3.038-.054.492-1.814,5.593-5.346,5.593-5.346,7.14-3.134,3.431-5.1,3.431-5.1s-2.518-1.761-6.972,2.814c0,0-10.093,6.806-13.576,9.963A72.09,72.09,0,0,0,113,38.091s-3.2,4.623-3.643,6.994c-.231,1.138-1.214,4.441-2.017,7.034a4.683,4.683,0,0,1-.435-2.392s.9-10.613,1.806-12.254c0,0,4.547-2.627,2.517-6.336a2.078,2.078,0,0,0-.828-.608,20.6,20.6,0,0,0-3.726-1.264c-.681-.071-.982.58-1.57.994,0,0-.962,1.473.206,5.174a.3.3,0,0,0,.025.112c.155.492-1.361,12.355-1.361,12.355-1.805,12.881,3.888,9.7,3.888,9.7,1.553-1.551,3.1-3.006,3.717-4.942.193-2.857.319-6.227.455-6.754.268-4.469,8.809-17.246,19.655-21.83-2.713,4.551-5.2,9.424-7.651,14.272a7.11,7.11,0,0,0-1.7,4.971,1.483,1.483,0,0,0,1.692.927,3.293,3.293,0,0,0,2.038-2.62c.257-2.655,1.081-2.9,1.081-2.9a3.981,3.981,0,0,0,2.728,3.535C133,42.7,132.69,38.8,132.69,38.8a16.165,16.165,0,0,1-.438-2.144,7.655,7.655,0,0,1-.238-2.232c-.179-1.3-.411-.7-.563-1.083-.194-.545.084-1.2-.137-1.642-.3-.092-.264.38-.452.242-.13-.462.219-.93.125-1.32a18.754,18.754,0,0,1-1.181,3.632,2.275,2.275,0,0,0-1.529.113c.724-1.489,1.575-2.613,2.349-4.31.826-1.3,1.222-2.931,2.2-3.847,0,0,.206-.152-.039.505" transform="translate(-13.473 -1.821)" fill="#fff"/>
    <path id="路径_40212" data-name="路径 40212" d="M174.277,32.027c-.165,2.046-1.287,2.532-1.287,2.532-.971.554-1.87.35-3.12.325-.207-.142-.112-.49-.4-.739a4.34,4.34,0,0,1-1.982-1.812c.119-.094.142-.077.109-.144a12.611,12.611,0,0,1-1-2.171,2,2,0,0,1,.576-2.189s.39-.424,2.179-.122a6.668,6.668,0,0,1,.992.184c.4.105,1.012.381,2.05.779a3.916,3.916,0,0,1,1.877,3.305" transform="translate(-21.649 -3.589)" fill="#fff" fill-rule="evenodd"/>
    <path id="路径_40213" data-name="路径 40213" d="M171.4,46.324s-1.624,1.127-2.136,5.455c-.122,1.3-.13,1.69-.229,2.45A8.384,8.384,0,0,0,169.3,56.6c2.809-2.607,4.249-6.88,5.717-10.959.157,1.025-.927,2.33-.182,3.123.049.208-.232.5.049.538-.4.226-.157,1.077-.609,1.342a.175.175,0,0,0,.12.228c-.474.7-.237,1.988-.613,2.371a2.569,2.569,0,0,1-.1.584s-.487,5.008-1.556,6.3c-2.25,4.15-3.531,4.353-3.531,4.353a4.039,4.039,0,0,0-1.02.115s-2.452-.571-2.2-4.391c0,0,3.315-12.373,3.355-12.555a30.452,30.452,0,0,0,.758-3.051,13.561,13.561,0,0,0-.726-2.674,2.43,2.43,0,0,1,.574-1.7h.242c.146-.057.071-.292.217-.351a3.6,3.6,0,0,1,4.256,2.633,11.97,11.97,0,0,1-.545,2.067,8.425,8.425,0,0,1-2.105,1.743" transform="translate(-21.5 -5.177)" fill="#fff" fill-rule="evenodd"/>
    <path id="路径_40214" data-name="路径 40214" d="M197.787,31.072s1.825-.757,1.8-2a.247.247,0,0,1-.03-.084c-.885-3.445-7.651.739-7.651.739s-3.761,2.728-4.888,2.728c0,0-.742-.523,3.162-6.662a59.473,59.473,0,0,0,4.5-8.183c0-1.094.651-1.91-.514-3.085-2.6-.834-5.054,4.3-5.054,4.3.127-.013.182-.08.318-.094-.021.156-.318.281-.18.454.137-.182.224-.426.456-.542.461.03.582-.525,1.072-.357,0,0-1.059,2.68-1.757,4.372,0,0-5.763,10.118-3.847,13.025,1.126,1.107,4.881-1.93,4.881-1.93s4.35-3.745,5.011-3.1c.094.126-3.835,5.76-3.835,5.76-1.725,2.992-4.477,9.416-4.477,9.416a4.549,4.549,0,0,1-3.234-.231c-4-.3-1.565,2.685-1.565,2.685,1.151.812,2.865.527,3.929.812-1.33,5.329,2.462,6.045,2.462,6.045,1.9.286,3.6-1.129,5.435-1.037a13.67,13.67,0,0,1-2.467,6.524,1.169,1.169,0,0,0-.681-.263c-.1.191.254.471.145.676a4.644,4.644,0,0,0,.129,4.007c0-.009.149.492.545.548.68.077,1.955-.865,2.461-1.885,1.73-3.641,2.438-5.635,2.438-5.635.643-1.1.616-2.884,1.261-3.972a4.776,4.776,0,0,0,1.475-.762,3.071,3.071,0,0,0-1.787-3.231,11.9,11.9,0,0,1,.941-3.983,16.354,16.354,0,0,0,3.291-.773,2.024,2.024,0,0,1,2.043.713,2.006,2.006,0,0,0,2.484.39c1.97-4.994-4.134-3.353-4.134-3.353s-2.9.751-3.089.312c0,0,1.528-3.535.607-6.5,0,0-.77-1.431-2.954-.851-2.144.579-2.178,1.8-2.178,1.8a3.032,3.032,0,0,1,1.347.8,6.134,6.134,0,0,1,0,3.008,10.017,10.017,0,0,1-1.4-.808s-2.32-1.274-2.536,1.79c-.195.933-.233,1.91-.411,2.638-.321.472-1.595.415-2.245.272,3.411-12.293,8.714-14.5,8.714-14.5m-8.126,19.716A1.623,1.623,0,0,1,188.5,48.74c.6-.186,1.4-.746,2.284-.454-.085.947-.272,1.8-1.059,2.031-.062.116,0,.359-.062.472m3.569-.3c-1.021,0-2.151.52-3.119.353.213-.465.8-.52,1.054-.946,0,0,.345.4,1.395-1.019a3.17,3.17,0,0,0,1.188-.711c1.15-1.571,1.366-1.079,1.366-1.079-.118,1.757-.729,2.151-.729,2.612,0,0,.192.789-1.155.789" transform="translate(-23.563 -1.877)" fill="#fff"/>
    <path id="路径_40215" data-name="路径 40215" d="M288.825,16.2a1.028,1.028,0,0,1-.69.481,7.841,7.841,0,0,1-.381,1.462s.487,1.61.733,3c-.1.977-.192,2.2-.263,3.2-.2,3.126-.842,6.393-.3,9.142.349,1.055,1.125.7,1.836.338.1-.03.011-.261.122-.282.654-.178.925-.882,1.621-1.047,1.226-.951,1.372-2.669,1.6-4.476.408-3,.538-5.875,1.866-7.938-1.362,7.683-1.121,9.929-1.121,9.929a12.012,12.012,0,0,1-.372,2.46,4.532,4.532,0,0,0-.482,2.2,7.367,7.367,0,0,1-3.409,1.229c-3.038.681-5.456,2.534-8.427,3.228a8.165,8.165,0,0,1-2.943.511c.269-.258.4-.688.659-.949-.05-.356.256-.65.289-1.025a4.429,4.429,0,0,1-1.242.678c-.585.249-1.094.781-1.865.755-.276.272-.276.721-.625.908a7.4,7.4,0,0,0-.507,3.054c.327.717,1.2.22,1.751.277,5.762-.784,7.816-2.073,7.816-2.073a17.734,17.734,0,0,1,4.865-2.136,18.133,18.133,0,0,0,5.349-1.68c1.946-.866,3.561-1.412,4.879-1.9,4.607-1.948,6.032-1.435,6.032-1.435a1.291,1.291,0,0,1,.2,1.6c-.741,1.431-3.255,2.15-5.405,2.77a4,4,0,0,1-1.169.283c-.185,0-.319-.037-.467-.032-1.509.032-2.606,1.07-3.463,1.607a13.007,13.007,0,0,1-1.228.465c-.153.069-.313.261-.411.3-.149.073-.445.141-.7.231-.371.165-1.118.5-1.14.865-.036.465.8.742,1.182.86.627.157,1.323-.025,1.818.073a7.052,7.052,0,0,1,1.362-.379c-.494,1.158-1.355,2.662-1.061,4.048a7.7,7.7,0,0,1,1.45,2.313,15.636,15.636,0,0,1,1.124,1.79,6.257,6.257,0,0,1-2.238.412,6.489,6.489,0,0,0-1.621.536,11.589,11.589,0,0,0-2.576,1.379c-.243.214-.5.372-.746.575a7.575,7.575,0,0,0-.841.728c-.123.157-.256.377-.368.511-.116.17-.341.314-.436.452-.143.227-.232.416-.342.572a3.142,3.142,0,0,0-.9,2.051c-.032.207-.291.331-.432.474-.111.323.324.438-.03.759.269.317.171.667.43.88a9.047,9.047,0,0,0,.777,1.522c2.015,3.173,3.793,2.62,3.793,2.62,2.985.265,5.745-2.352,5.745-2.352s2.16-1.869,2.586-6.3a10.393,10.393,0,0,0,3.665-.148,4.247,4.247,0,0,0,.677-.44c.077-.073.292-.317.39-.417.18-.193.4-.264.491-.42.254-.441.114-1.05.36-1.62-.083-.359-.26-.628-.324-1.007-.258-.025-.4-.282-.651-.383a4.46,4.46,0,0,0-.873-.124,3.263,3.263,0,0,1-.646-.28,4.663,4.663,0,0,1-.917-.254c-.436-.008-.857.181-1.252.061-.14-.043-.049.193-.178.156-.331-.217-.963.057-1.325-.284-.2-.164-.308-.842-.44-1.177a9.431,9.431,0,0,0-1.241-1.861c-.178-.276-.278-.565-.462-.866-.254-.434-1.088-1.344-.967-1.823.022-.133.492-.46.625-.706a2.056,2.056,0,0,1,.779-.86,10.117,10.117,0,0,1,.927-1.488c.272-.192.937-.485,1.1-.78.39-.636.235-1.915-.214-2.1a7.739,7.739,0,0,0,2.136-.141c.558-.133,1.151-.21,1.383-.255a1.306,1.306,0,0,1,.953-.165c.5.67.974-.1,1.637.183a4.777,4.777,0,0,0,.789-.6c.237-.211.565-.336.767-.55.241-.271.307-.61.706-.641a3.163,3.163,0,0,0,.758-1.322,1.743,1.743,0,0,0,.222-.689c0-.315.059-1.194.023-1.579a2.827,2.827,0,0,0-1.072-1.632,3.715,3.715,0,0,0-2.232-.7c-3.008-.047-6.6,1.565-8.946,2.122.192-.454.692-1.369,1.313-.975.121.191-.156.218-.132.456.617-.253.966-.668,1.623-.96.146-.284.447-.3.7-.563a1.719,1.719,0,0,1,.231-.367c.381,0,.472-.3.849-.3a2.814,2.814,0,0,1,.036-.376c.129-.064.281-.031.4-.134a11.243,11.243,0,0,1,2.466-1.566,3.353,3.353,0,0,0,.988-1.891,3.423,3.423,0,0,0-1-2.554c-.088-.1-.276-.261-.383-.381-.13-.129-.2-.3-.32-.371-.258-.227-.585-.211-.7-.5-.146-.3.335-.633.549-.869a11.086,11.086,0,0,1,2.047-1.975c.816-.262,1.91-.511,2.1-2.062a2.873,2.873,0,0,0-.095-.78,3.059,3.059,0,0,1-.158-.472,1.125,1.125,0,0,0-.331-.682c-.414-.365-1-.4-1.34-.672-.526-.408-.445-1.328-.057-2.08a6.611,6.611,0,0,0,.32-.682c.205-.422.482-.84.625-1.229a1.985,1.985,0,0,0-.185-1.706c-.751-.731-2.443.362-2.669.893-.666.845-.388,1.988-.622,3.079,0,0-.929,2.832-1.869,5.343-.313.284-.513.608-.791.9-.215.238-.411.52-.626.758a2.82,2.82,0,0,1-.738.62,2.007,2.007,0,0,1-.683.74,3.28,3.28,0,0,1-.141.368c-.964.888-1.339,2.24-2,3.543.193-1.017.481-2.048.624-3.165.121-1.056.153-2.381.377-3.408.233-.987.613-2.037.752-2.953,0-1.168-.413-2.041-1.582-1.805-.72.152-1.544.4-1.839.984-.084-.09-.117.023-.255-.023a10.821,10.821,0,0,0-2.591,2.854c-.264-.161-.31-.507-.458-.753,0,0-1.2-2.2-2.774-1.026m11.485,8.331c.231.04.129.348.216.484.242.437.941.505,1.273.853a3.035,3.035,0,0,1-.765,1.494,14.983,14.983,0,0,1-3.151,3.879c-.052-.384.26-1.192.181-1.669.961-5.195,2.246-5.041,2.246-5.041m-2.187,32.4c-.672,2.028-2.847,4.911-5.366,4.423-1.433-.445-1.551-1.1-1.412-2.339.233-3.3,4.172-4.452,4.172-4.452,1,.088,2.211,0,2.693.434,0,0,.443.356-.087,1.934" transform="translate(-35.744 -1.171)" fill="#fff"/>
    <path id="路径_40216" data-name="路径 40216" d="M249.357,57.106a1.716,1.716,0,0,0-.256-.478c-.642-.484-.525-1.037-1.2-1.156-.057-.24.074-.563-.127-.726.01-.163.2-.133.224-.3.01-.214-.1-.324-.129-.486.205-.526.3-1.168.893-1.315a1.722,1.722,0,0,0,1.111-.047,8.5,8.5,0,0,0,1.039.325s.2,0,5.553,4.976a4.023,4.023,0,0,1,1.386,2.174,2.716,2.716,0,0,1-2.78,3.4c-.345-.068-.644-.425-1.019-.312,0,0-1.691-.43-4.7-6.047" transform="translate(-32.217 -6.839)" fill="#fff"/>
    <path id="路径_40217" data-name="路径 40217" d="M232.956,56.942a11.5,11.5,0,0,1-4.875,2.118,3.431,3.431,0,0,1-2.464-.311c.094-.154.233-.288.334-.432-.154-.662.175-1.442-.081-2.186.133-.254.435-.305.638-.468.3.138.841.047,1,.33,2.428.579,6.152-4.48,6.152-4.48s3.124-4.36,3.5-8.485l-1.115.337s-6.48,2.165-7.7-.383c-.052-.034.064-.294-.088-.621-.1-.234-.486-.407-.5-.737a1.549,1.549,0,0,1,.2-.6A4.1,4.1,0,0,1,228.98,39.6a6.813,6.813,0,0,1,.545-.426c.048-.014,1.81-.7,2.75-.171a.382.382,0,0,1,.029.319s5.088.432,5.739-2c.947-5.382.406-6.257.406-11.234.028-1.15.135-1.351.123-2.412,0,0,.023-1.045.106-2.259a2.023,2.023,0,0,1,1.648-1.544c.087-.033.555-.108.566-.2.653.141,1.141.673,1.783.447.172.226-.044.337.071.5.054.051.211,0,.27.051s-.028.174.013.234c.072.125.272.054.326.125.081.077.045.252.137.425.071.122.211.034.3.293a1.438,1.438,0,0,1,.161.545,3.081,3.081,0,0,1,.192,1.95l-1.126,3.291a5.794,5.794,0,0,0-.27,1.962,29.5,29.5,0,0,1-.7,6.406,15.782,15.782,0,0,0,3.375-1.553,3.176,3.176,0,0,1,3.649.7c2.55,2.168.393,3.712.393,3.712-.294.225-.4.445-.87.445-.194.063-.2.3-.384.334-.281.057-.429-.3-.7-.251-.182.03-.253.241-.421.308,0,0-2.175.321-2.543-.189a1.213,1.213,0,0,0-.352.1,4.676,4.676,0,0,0-3.038,1.408s-.232,1.985-.992,5.684a19.645,19.645,0,0,1-7.209,10.342" transform="translate(-29.336 -2.558)" fill="#fff"/>
    <path id="路径_40218" data-name="路径 40218" d="M18.1,8.61A20.465,20.465,0,0,1,8.62,18.085,8.175,8.175,0,0,0,4.2,28.751a20.466,20.466,0,0,1-.005,13.4A8.2,8.2,0,0,0,8.609,52.831a20.445,20.445,0,0,1,9.475,9.478,8.176,8.176,0,0,0,10.67,4.425,20.443,20.443,0,0,1,13.4,0A8.174,8.174,0,0,0,52.827,62.32a20.492,20.492,0,0,1,9.482-9.478,8.182,8.182,0,0,0,4.423-10.674v0a20.459,20.459,0,0,1,0-13.4A8.171,8.171,0,0,0,62.316,18.1a20.43,20.43,0,0,1-9.469-9.482A8.193,8.193,0,0,0,42.175,4.194a20.454,20.454,0,0,1-13.4,0A8.176,8.176,0,0,0,18.1,8.61M23,65.53a6.841,6.841,0,0,1-3.722-3.714A21.637,21.637,0,0,0,9.107,51.633a6.891,6.891,0,0,1-3.717-8.985,21.642,21.642,0,0,0,0-14.389,6.885,6.885,0,0,1,3.723-8.984A21.6,21.6,0,0,0,19.293,9.1a6.88,6.88,0,0,1,8.982-3.718,21.644,21.644,0,0,0,14.394,0A6.892,6.892,0,0,1,51.65,9.113,21.593,21.593,0,0,0,61.824,19.289a6.886,6.886,0,0,1,3.718,8.984,21.617,21.617,0,0,0,0,14.392,6.89,6.89,0,0,1-3.723,8.985,21.639,21.639,0,0,0-10.18,10.173,6.895,6.895,0,0,1-8.983,3.718,21.628,21.628,0,0,0-14.394,0A6.837,6.837,0,0,1,23,65.53" transform="translate(-0.464 -0.464)" fill="#fff"/>
    <path id="路径_40219" data-name="路径 40219" d="M15.935,5.539A22.424,22.424,0,0,1,5.548,15.92,8.982,8.982,0,0,0,.69,27.644,22.434,22.434,0,0,1,.683,42.33,8.993,8.993,0,0,0,5.54,54.064,22.378,22.378,0,0,1,15.92,64.453a8.988,8.988,0,0,0,11.726,4.859,22.436,22.436,0,0,1,14.689,0,8.988,8.988,0,0,0,11.73-4.856A22.4,22.4,0,0,1,64.453,54.08a8.995,8.995,0,0,0,4.859-11.733,22.423,22.423,0,0,1,0-14.684,8.994,8.994,0,0,0-4.854-11.726A22.431,22.431,0,0,1,54.079,5.547,8.989,8.989,0,0,0,42.352.686a22.411,22.411,0,0,1-14.688,0A8.987,8.987,0,0,0,15.935,5.539M17.264,63.9A23.734,23.734,0,0,0,6.094,52.719a7.534,7.534,0,0,1-4.067-9.83,23.756,23.756,0,0,0,.007-15.8,7.52,7.52,0,0,1,4.073-9.823A23.761,23.761,0,0,0,17.282,6.094a7.526,7.526,0,0,1,9.826-4.067,23.759,23.759,0,0,0,15.8,0A7.53,7.53,0,0,1,52.737,6.1,23.713,23.713,0,0,0,63.9,17.28a7.546,7.546,0,0,1,4.07,9.826,23.735,23.735,0,0,0-.008,15.8,7.531,7.531,0,0,1-4.071,9.83A23.729,23.729,0,0,0,52.724,63.9a7.538,7.538,0,0,1-9.832,4.069,23.74,23.74,0,0,0-15.8,0A7.529,7.529,0,0,1,17.264,63.9" transform="translate(0 0)" fill="#fff"/>
    <path id="路径_40220" data-name="路径 40220" d="M11.482,25.7s-.1.144-.753-.391a.528.528,0,0,1-.151-.518c.481-.582.854-.519.854-.519a2.893,2.893,0,0,0,.281.1.908.908,0,0,1,.29.485,1.508,1.508,0,0,1-.521.847" transform="translate(-1.373 -3.155)" fill="#fff" fill-rule="evenodd"/>
    <path id="路径_40221" data-name="路径 40221" d="M15.894,22c.222-.32.657.082.657.082l1.4,1.351.49.525a6.964,6.964,0,0,0,.786.631,10.021,10.021,0,0,1,.842.78,2.311,2.311,0,0,1,.535.585,2.563,2.563,0,0,1-.681.224c.014.01.009.01.048,0-.021.07-.121.051-.143.107a.548.548,0,0,0,.161-.024c.01.019,0,.041.029.063.117,0,.233-.05.354,0-.037.03-.058.044-.056.086.115.053.225-.018.341.019-.088.037-.229-.015-.271.067.136.083.291-.078.413.072.151,0,.268.052.414.038,0,0,.206.243.415-.065a.726.726,0,0,0-.091-.61,9.771,9.771,0,0,0-1.347-1.145,4.156,4.156,0,0,0-1.216-1.059,3.083,3.083,0,0,1-.4-.436,12.543,12.543,0,0,0-1.616-1.542c-.453-.731-.779-.6-.779-.6-.277.117-.31.289-.4.431a3.888,3.888,0,0,1-.034-1.491c.484-1.432-.278-1.158-.278-1.158s-.585.131-.505,1.361c0,0-.345,2.325-.345,3.234a13.776,13.776,0,0,0,.338,2.779,5.435,5.435,0,0,0,.524,1.434c.134.182.477.752.743,1.2a.842.842,0,0,1-.4-.248,14.82,14.82,0,0,1-1.517-1.855s.222-.991-.573-1.182a.382.382,0,0,0-.195.037,3.509,3.509,0,0,0-.666.368c-.1.086-.05.215-.065.353,0,0,.084.327.762.646a.1.1,0,0,1,.023.01c.09.042,1.589,1.806,1.589,1.806,1.6,1.931,1.888.7,1.888.7a2.5,2.5,0,0,0-.22-1.175c-.381-.4-.847-.859-.9-.942-.6-.62-1.315-3.507-.557-5.655.3.985.669,1.975,1.043,2.954a1.383,1.383,0,0,0,.485.9.293.293,0,0,0,.355-.127.632.632,0,0,0-.111-.632c-.346-.38-.271-.533-.271-.533a.757.757,0,0,0,.854.073c.474-.391-.122-.853-.122-.853a3.113,3.113,0,0,1-.364-.217,1.479,1.479,0,0,1-.351-.258c-.209-.142-.152-.034-.229-.061-.1-.042-.162-.169-.251-.193-.055.028.022.089-.028.1-.079-.041-.1-.151-.169-.191a3.6,3.6,0,0,1,.365.645c-.115.051-.138.151-.182.23-.122-.3-.171-.565-.313-.893a4.3,4.3,0,0,1-.264-.815s0-.052.069.07" transform="translate(-1.663 -2.459)" fill="#fff"/>
    <path id="路径_40222" data-name="路径 40222" d="M50.973,18.2a.569.569,0,0,0-.033-.121c-.12-.142-.062-.261-.207-.325,0-.058.048-.123.012-.172.007-.036.055-.017.062-.055a.224.224,0,0,0,0-.113c.078-.109.135-.248.278-.248a.4.4,0,0,0,.251.053c.063.05.157.086.212.13a13.931,13.931,0,0,1,.977,1.412.937.937,0,0,1,.191.566.623.623,0,0,1-.806.606c-.075-.034-.122-.126-.217-.121,0,0-.349-.19-.717-1.614" transform="translate(-6.596 -2.233)" fill="#fff"/>
    <path id="路径_40223" data-name="路径 40223" d="M47,17.386A2.7,2.7,0,0,1,45.8,17.6c-.341-.05-.455-.12-.533-.211.028-.027.064-.047.1-.076,0-.159.116-.314.1-.5.037-.049.11-.048.17-.072.055.05.182.061.2.133.512.256,1.623-.671,1.623-.671a4.816,4.816,0,0,0,1.248-1.71l-.271.011s-1.569.132-1.709-.5a.286.286,0,0,0,.017-.143c-.011-.061-.085-.121-.073-.194,0-.043.056-.088.078-.125a.987.987,0,0,1,.31-.264c.05-.014.1-.052.145-.064.013,0,.444-.06.625.111a.1.1,0,0,1-.009.077s1.116.371,1.392-.138a10.573,10.573,0,0,0,.7-2.5c.069-.258.1-.3.157-.533,0,0,.063-.237.15-.5a.458.458,0,0,1,.45-.258c.022,0,.126,0,.137-.017.138.069.218.215.378.2.025.064-.028.076-.008.118,0,.012.043.008.049.023s-.009.037-.006.055.058.026.067.043,0,.064.007.107.046.018.05.083a.4.4,0,0,1,.006.13c.023.343-.064.444-.064.444l-.43.681a1.349,1.349,0,0,0-.165.423,6.779,6.779,0,0,1-.507,1.393,3.389,3.389,0,0,0,.84-.159.736.736,0,0,1,.785.356c.449.626-.117.852-.117.852-.08.035-.117.078-.22.053-.043.005-.063.055-.1.055-.065,0-.084-.091-.143-.1-.043,0-.073.042-.11.047,0,0-.508-.047-.561-.178a.338.338,0,0,0-.084,0,1.1,1.1,0,0,0-.76.153s-.157.433-.527,1.218A4.553,4.553,0,0,1,47,17.386" transform="translate(-5.885 -1.231)" fill="#fff"/>
    <path id="路径_40224" data-name="路径 40224" d="M66.782,22.24a.25.25,0,0,1-.168-.062c-.109.03-.217.11-.3.1a6.32,6.32,0,0,1-.442.492c-.186.1-.41.229-.6.336a8.266,8.266,0,0,0-1.651,1.044c-.14.188.01.284.159.368.017.011.05-.032.064-.016.113.1.267.056.378.163a1.354,1.354,0,0,0,.982-.255,4.322,4.322,0,0,1,1.624-.625,9.371,9.371,0,0,0-1.882,1,2.807,2.807,0,0,1-.485.229.957.957,0,0,0-.446.18,1.548,1.548,0,0,1-.622-.464c-.488-.448-1.106-.652-1.58-1.093a1.631,1.631,0,0,1-.444-.461c.079.017.168-.014.248,0,.051-.05.141-.03.211-.067a1.1,1.1,0,0,1-.266-.14c-.118-.073-.271-.1-.358-.238-.082-.016-.161.039-.236,0a1.563,1.563,0,0,0-.6.28c-.092.144.105.237.161.344a4.6,4.6,0,0,0,1.3,1.127,3.839,3.839,0,0,1,.966.6,4.014,4.014,0,0,0,.935.746c.389.241.679.458.92.636.9.581.977.892.977.892a.278.278,0,0,1-.26.225c-.339.043-.77-.318-1.137-.62a.918.918,0,0,1-.191-.172c-.022-.035-.03-.061-.047-.09a1.467,1.467,0,0,0-.7-.417c-.084-.039-.152-.12-.231-.161-.028-.016-.084-.027-.1-.037s-.07-.062-.124-.1c-.071-.044-.218-.139-.292-.1s-.033.232,0,.314a3.713,3.713,0,0,0,.2.331,1.749,1.749,0,0,1,.229.193,1.564,1.564,0,0,0-.842.3,1.665,1.665,0,0,1-.233.535,3.764,3.764,0,0,1-.185.41,1.39,1.39,0,0,1-.338-.346,1.728,1.728,0,0,0-.284-.218,2.476,2.476,0,0,0-.558-.289c-.066-.02-.127-.046-.188-.065A1.266,1.266,0,0,0,60.116,27a.827.827,0,0,0-.137-.01c-.042,0-.094-.021-.133-.023s-.1.009-.139.005a.694.694,0,0,0-.471.09c-.041.018-.091-.011-.14-.019-.066.021-.036.105-.134.082-.025.087-.095.114-.105.184a2.288,2.288,0,0,0-.173.318c-.318.735-.009.985-.009.985a1.844,1.844,0,0,0,1.1.733,2.062,2.062,0,0,0,1.422-.3,2.106,2.106,0,0,0,.469.63,1.115,1.115,0,0,0,.155.069c.025.005.092.01.126.017s.09.039.131.037c.108-.011.195-.1.327-.131.053-.058.078-.124.137-.177-.03-.05,0-.1-.009-.16a1.18,1.18,0,0,0-.084-.171.569.569,0,0,1-.029-.149c-.016-.072-.062-.125-.065-.191-.049-.075-.132-.132-.159-.211-.009-.033-.038.015-.047-.013-.008-.088-.13-.164-.113-.269.01-.057.114-.158.16-.22a2.138,2.138,0,0,0,.178-.439c.023-.064.067-.118.093-.188.05-.1.109-.351.206-.391.028-.01.146.031.2.027a.463.463,0,0,1,.251.036,1.806,1.806,0,0,1,.371-.012c.07.021.2.105.272.1.159-.01.365-.19.345-.291a2.142,2.142,0,0,0,.277.361c.1.084.177.178.214.212a.3.3,0,0,1,.146.146c-.058.171.131.161.164.313a.979.979,0,0,0,.2.068c.07.017.131.058.193.066s.143-.016.2.05a.675.675,0,0,0,.321-.022.481.481,0,0,0,.15-.043c.052-.038.22-.134.278-.186a.615.615,0,0,0,.164-.385.828.828,0,0,0-.145-.479,8.2,8.2,0,0,0-1.451-1.325c.1-.023.325-.044.333.117-.02.044-.058,0-.1.03.116.078.233.092.364.173.069-.01.107.039.183.053a.363.363,0,0,1,.092,0c.048.067.112.048.157.11a.527.527,0,0,0,.07-.042c.03.026.041.055.071.061a2.278,2.278,0,0,1,.574.251.628.628,0,0,0,.782-.541,1.057,1.057,0,0,0,.02-.11c.009-.039.027-.071.03-.1.007-.074-.034-.129,0-.186s.157-.017.223-.009a2.412,2.412,0,0,1,.592.125.517.517,0,0,0,.619.128.867.867,0,0,0,.124-.11.7.7,0,0,1,.064-.089.236.236,0,0,0,.082-.138c.017-.115-.049-.229-.042-.317.008-.143.183-.239.357-.26a1.276,1.276,0,0,0,.163-.025c.1-.016.2-.016.291-.037a.43.43,0,0,0,.278-.238c.044-.219-.358-.386-.477-.363-.229-.015-.4.165-.619.258,0,0-.612.175-1.17.311a1.588,1.588,0,0,0-.248-.03c-.072-.012-.144-.014-.211-.023a.512.512,0,0,1-.2-.057.388.388,0,0,1-.209-.027c-.027.006-.06.01-.083.015a2.564,2.564,0,0,0-.871.075c.207-.09.423-.16.636-.272s.439-.256.647-.338.433-.14.612-.224c.21-.14.309-.319.131-.5a.564.564,0,0,0-.4-.206c.008-.025-.016-.019-.024-.047a2.372,2.372,0,0,0-.816-.116c-.005-.064.053-.116.081-.168,0,0,.24-.482-.156-.617m-.091,3.029c.02.042-.051.061-.062.1-.047.093.023.221,0,.325a.662.662,0,0,1-.357.043,3.12,3.12,0,0,1-1.059-.091c.058-.057.238-.095.315-.165,1.031-.457,1.161-.209,1.161-.209m-5.986,3.5c-.445.122-1.208.086-1.426-.421-.093-.307.009-.4.245-.526a1.233,1.233,0,0,1,1.284.2c.107.186.267.389.246.526,0,0-.008.119-.35.218" transform="translate(-7.612 -2.884)" fill="#fff"/>
    <path id="路径_40225" data-name="路径 40225" d="M28.365,12.621c.059.422-.141.571-.141.571a1.166,1.166,0,0,1-.619.211c-.044-.017-.044-.1-.11-.13A.888.888,0,0,1,27.012,13c.017-.025.025-.023.009-.032a3.009,3.009,0,0,1-.3-.392.422.422,0,0,1,.011-.471s.063-.1.44-.125a1.55,1.55,0,0,1,.205-.01c.081,0,.22.03.449.061a.809.809,0,0,1,.532.581" transform="translate(-3.466 -1.557)" fill="#fff" fill-rule="evenodd"/>
    <path id="路径_40226" data-name="路径 40226" d="M28.557,15.613s-.275.306-.18,1.2c.041.271.051.345.07.507a1.865,1.865,0,0,0,.165.465,5.727,5.727,0,0,0,.643-2.478c.076.2-.079.511.109.64.022.039-.028.11.034.107-.072.063.015.225-.062.3,0,.03.019.034.036.041-.063.163.041.41-.015.506a.422.422,0,0,1,.007.121,3.94,3.94,0,0,1-.019,1.345c-.254.94-.506,1.042-.506,1.042a.786.786,0,0,0-.2.07s-.519,0-.651-.779c0,0,.09-2.653.09-2.691a4.619,4.619,0,0,0,.009-.648,2.961,2.961,0,0,0-.267-.509.488.488,0,0,1,.037-.368.212.212,0,0,1,.045-.01c.026-.017,0-.066.029-.083a.742.742,0,0,1,.98.331,2.239,2.239,0,0,1-.013.445,1.685,1.685,0,0,1-.339.445" transform="translate(-3.614 -1.862)" fill="#fff" fill-rule="evenodd"/>
    <path id="路径_40227" data-name="路径 40227" d="M33.272,11.259s.331-.237.268-.489a.03.03,0,0,1-.01-.017c-.337-.652-1.508.508-1.508.508s-.629.726-.857.781c0,0-.172-.075.327-1.493a12,12,0,0,0,.52-1.86c-.05-.221.045-.418-.242-.6-.564-.047-.82,1.1-.82,1.1.026-.009.034-.025.061-.031,0,.033-.053.07-.017.1a.37.37,0,0,1,.063-.129c.1-.02.1-.137.2-.124,0,0-.09.592-.15.964,0,0-.692,2.309-.164,2.8.275.174.892-.617.892-.617s.7-.957.865-.854c.028.02-.5,1.337-.5,1.337-.211.68-.464,2.109-.464,2.109a.955.955,0,0,1-.661.105c-.822.126-.19.615-.19.615.27.105.6-.03.831-.021-.023,1.137.779,1.1.779,1.1.4-.028.673-.395,1.04-.46a2.778,2.778,0,0,1-.188,1.431A.2.2,0,0,0,33.2,17.5c-.012.043.077.083.059.129a.977.977,0,0,0,.217.8s.05.091.13.084a.693.693,0,0,0,.408-.5c.178-.82.233-1.256.233-1.256.077-.25-.01-.6.066-.855a1.082,1.082,0,0,0,.264-.224.641.641,0,0,0-.512-.567,2.5,2.5,0,0,1,0-.845,3.274,3.274,0,0,0,.63-.311.412.412,0,0,1,.442.049.422.422,0,0,0,.524-.039c.159-1.1-.993-.484-.993-.484s-.547.289-.609.206a2.259,2.259,0,0,0-.179-1.336.5.5,0,0,0-.634-.033c-.407.217-.36.465-.36.465a.589.589,0,0,1,.311.1,1.214,1.214,0,0,1,.139.6,2.042,2.042,0,0,1-.318-.1s-.527-.149-.427.478c0,.2.045.4.038.555-.041.109-.3.16-.438.158.114-2.639,1.08-3.329,1.08-3.329m-.718,4.355a.34.34,0,0,1-.331-.359c.112-.064.251-.217.439-.2.028.194.028.375-.118.459-.009.026.019.07.01.1m.707-.229a4.153,4.153,0,0,1-.615.217c.021-.105.139-.143.17-.245,0,0,.089.07.231-.267a.566.566,0,0,0,.206-.2c.161-.371.229-.281.229-.281a1.939,1.939,0,0,1-.026.559s.077.15-.195.213" transform="translate(-3.986 -1.052)" fill="#fff"/>
    <path id="路径_40228" data-name="路径 40228" d="M15.806,49.7l-4.022,1.462-.183-.514,1.846-.671-.7-1.924-1.849.673-.188-.513,4.022-1.464.186.512-1.689.616.7,1.924,1.688-.617Z" transform="translate(-1.393 -6.08)" fill="#fff"/>
    <path id="路径_40229" data-name="路径 40229" d="M14.787,52.508q1.888-1.023,2.892.467.9,1.553-.846,2.8-1.852,1-2.856-.491-.9-1.556.81-2.78m.289.463q-1.335.925-.719,2.078.757,1.047,2.176.252c.9-.61,1.135-1.291.713-2.054-.509-.71-1.235-.8-2.17-.276" transform="translate(-1.777 -6.774)" fill="#fff"/>
    <path id="路径_40230" data-name="路径 40230" d="M21.922,58.206l-3.082,2.974-.378-.394,1.417-1.367-1.42-1.473-1.417,1.368-.38-.394,3.081-2.973.382.393-1.3,1.249,1.421,1.471,1.295-1.248Z" transform="translate(-2.166 -7.275)" fill="#fff"/>
    <path id="路径_40231" data-name="路径 40231" d="M21.225,63.277l-.447-.315,3.665-2.66.494.345-1.284,4.326-.481-.335.381-1.225-1.3-.906Zm3.074-2.29L22.682,62.18l1,.7Z" transform="translate(-2.702 -7.841)" fill="#fff"/>
    <path id="路径_40232" data-name="路径 40232" d="M26.024,66.105l1.922-3.83.467.238-1.918,3.83Z" transform="translate(-3.384 -8.098)" fill="#fff"/>
    <path id="路径_40233" data-name="路径 40233" d="M34.328,67.378a1.5,1.5,0,0,1-1.944,1.165A1.393,1.393,0,0,1,31.3,66.7L32,63.959l.508.131-.651,2.573q-.27,1.146.668,1.4.994.206,1.291-.886l.659-2.6.525.136Z" transform="translate(-4.063 -8.317)" fill="#fff"/>
    <path id="路径_40234" data-name="路径 40234" d="M39.9,65.235l-.275,4.272-.6-.039L37.244,65.9l-.223,3.44-.526-.031.277-4.275.644.042,1.738,3.609L39.38,65.2Z" transform="translate(-4.745 -8.456)" fill="#fff"/>
    <rect id="矩形_3604" data-name="矩形 3604" width="0.525" height="4.28" transform="translate(36.522 56.682) rotate(-4.22)" fill="#fff"/>
    <path id="路径_40235" data-name="路径 40235" d="M47.388,64.193l-.5,4.484-.571.12-2.282-3.889.571-.121,1.872,3.364.342-3.836Z" transform="translate(-5.725 -8.347)" fill="#fff"/>
    <path id="路径_40236" data-name="路径 40236" d="M50.5,67.663l-1.592-3.974,2.658-1.063.189.477-2.167.869L50.08,65.2l2.008-.8.191.476-2.006.806.541,1.351,2.206-.884.177.436Z" transform="translate(-6.359 -8.143)" fill="#fff"/>
    <path id="路径_40237" data-name="路径 40237" d="M55.337,65.527,53.065,61.9l1.549-.975q1.1-.66,1.7.3a1.1,1.1,0,0,1,.094,1.177c.314-.092.592.057.833.443l.442.63c.112.184.241.262.38.242l.046.072-.545.341a4.632,4.632,0,0,1-.627-.816c-.27-.455-.606-.556-1.015-.3l-1.107.693.968,1.542Zm.273-2.9a.675.675,0,0,0,.28-1.06.633.633,0,0,0-.982-.244l-1.139.713.785,1.252Z" transform="translate(-6.9 -7.887)" fill="#fff"/>
    <path id="路径_40238" data-name="路径 40238" d="M58.719,58.408c-.418.407-.474.786-.166,1.144a.5.5,0,0,0,.706.073l1.019-.561a1.064,1.064,0,0,1,1.412.211q.757.881-.3,1.94a1.719,1.719,0,0,1-1.137.554,1.328,1.328,0,0,1-1-.508l.36-.331a.956.956,0,0,0,1.472-.017q.728-.7.278-1.218c-.213-.326-.586-.323-1.125.019l-.717.4a.956.956,0,0,1-1.282-.156,1.232,1.232,0,0,1,.1-1.871,1.3,1.3,0,0,1,2.044-.051l-.372.345a.86.86,0,0,0-1.3.03" transform="translate(-7.523 -7.485)" fill="#fff"/>
    <rect id="矩形_3605" data-name="矩形 3605" width="0.526" height="4.281" transform="matrix(0.639, -0.769, 0.769, 0.639, 52.857, 48.543)" fill="#fff"/>
    <path id="路径_40239" data-name="路径 40239" d="M63.708,51.2l.435.274-.706,1.123,3.195,2-.292.463-3.191-2-.7,1.119-.434-.271Z" transform="translate(-8.063 -6.657)" fill="#fff"/>
    <path id="路径_40240" data-name="路径 40240" d="M68.874,50.187l-1.569-.626-2.953.417.231-.582,2.346-.278L65.421,47.3l.231-.58L67.5,49.07l1.57.63Z" transform="translate(-8.367 -6.075)" fill="#fff"/>
    <path id="路径_40241" data-name="路径 40241" d="M38.811,30.213l-.084.755,7.854-.008s.713-.073-.01-.88l-7.261-.009s-.444-.051-.5.141" transform="translate(-5.035 -3.91)" fill="#fff"/>
    <path id="路径_40242" data-name="路径 40242" d="M50.762,43.1c1.923-.193,1.107-1.025,1.107-1.025l-4.573,0-.071.478c.282.405,1.446.76,3.536.55" transform="translate(-6.141 -5.471)" fill="#fff"/>
    <path id="路径_40243" data-name="路径 40243" d="M35.445,43.218s.843.3,2.425-.776c.1-.087.221-.147.23-.539a.513.513,0,0,0-.437-.414c-.425-.027-1.772-.042-1.772-.042s-1.415-.088-1.444.609c-.034.765.073.916,1,1.161" transform="translate(-4.478 -5.389)" fill="#fff"/>
    <path id="路径_40244" data-name="路径 40244" d="M34.913,45.764c-.986-.253-1.762.844-1.762.844a6.492,6.492,0,0,0,1.459,1.437c1.262-1.1,1.262-1.41,1.262-1.41s.16-.529-.96-.871" transform="translate(-4.31 -5.946)" fill="#fff"/>
    <path id="路径_40245" data-name="路径 40245" d="M40.89,42.346s.056-1.026-.737-.929a.673.673,0,0,0-.773.639,2.063,2.063,0,0,1-.371,1.144l-1.311.579a.679.679,0,0,0-.342.829c.233.484.866.336.866.336a5.949,5.949,0,0,0,2.547-.964Z" transform="translate(-4.854 -5.385)" fill="#fff"/>
    <path id="路径_40246" data-name="路径 40246" d="M46.7,47.763s-1.442-.155-2.216-.233c-.971-.128-2.341-.017-2.858-.753,0,0-1.542-.694-1.85.233-.291.877.515,1.535,1.486,1.57.36,0,4.841.4,4.841.4s1.453.158,1.561-.543c-.108-.711-.964-.676-.964-.676" transform="translate(-5.164 -6.05)" fill="#fff"/>
    <path id="路径_40247" data-name="路径 40247" d="M43.864,44.176c.591.078,1.456-.275,1.655-1.582.06-.892-1.183-.987-1.183-.987a1.457,1.457,0,0,0-1.559,1.078c-.253,1.3.5,1.41,1.087,1.491" transform="translate(-5.555 -5.41)" fill="#fff"/>
    <path id="路径_40248" data-name="路径 40248" d="M38.648,55.336a.548.548,0,0,0-.38.191.92.92,0,0,0-.184.645.387.387,0,0,0,.1.239.383.383,0,0,0,.318.13.5.5,0,0,0,.386-.2.791.791,0,0,0,.169-.527.528.528,0,0,0-.106-.352.379.379,0,0,0-.306-.128" transform="translate(-4.952 -7.195)" fill="#fff"/>
    <path id="路径_40249" data-name="路径 40249" d="M37.59,19.972A17.711,17.711,0,1,0,55.3,37.681,17.707,17.707,0,0,0,37.59,19.972m-4.2,33.67H32.373l.52-2.251a3.87,3.87,0,0,1-1.1.412L31.98,51a4.328,4.328,0,0,0,1.342-.83h.871ZM24.148,35.226c.443.057.411.418.411.418a11.012,11.012,0,0,0,.821,6.905,25.51,25.51,0,0,0,3.864,5.784c.044.043.071.168-.26.043-2.625-1.6-4.521-5.615-4.521-5.615a11.693,11.693,0,0,1-.865-7.23.472.472,0,0,1,.551-.3m-.333-1.877a5.2,5.2,0,0,1,.579-1.985,17.824,17.824,0,0,1,3.161-4.62A10.527,10.527,0,0,1,31.842,24.2s.436-.175.569.074c.2.385-.126.466-.49.686,0,0-1.925.815-4.613,4.138a15.973,15.973,0,0,0-1.954,3.466c-.032.078-.07.16-.1.262-.4,1.165-1.069.928-1.069.928v0a.449.449,0,0,1-.369-.411m5.227,12.322s-6-5.853-2.421-13.577a16.3,16.3,0,0,1,9.032-8.326s.431-.164.6.176c.084.3-.435.535-.435.535a23.86,23.86,0,0,0-3.876,2.544,20.532,20.532,0,0,0-3.269,3.506,8.984,8.984,0,0,0-.848,1.68c0,.284.235.667.827.439a1.933,1.933,0,0,0,.973-.885A24.188,24.188,0,0,1,34.9,26.189a3.643,3.643,0,0,1,2.138-.808c.444.139.219.621-.034.72a5.934,5.934,0,0,0-1.326.73,20.969,20.969,0,0,0-3.735,4.156s-1.336,2.1-2.582,2.546a6.9,6.9,0,0,0-1.888.981c-.372.395-.827.8-.743,2.7a12.541,12.541,0,0,0,2.488,7.209,19.567,19.567,0,0,0,4.4,4.441c.235.239.211.258.044.211a11.46,11.46,0,0,1-4.621-3.4m9.7-19.186c.2.117.224.412.224.6,0,0-.01.381.737.5a1.251,1.251,0,0,0,1.572-.934s.089-.22.679-.17a6.279,6.279,0,0,1,4.078,2.527s1.335,1.554.64,1.964l-11.712.08s-1.532-.08-1.116-.8a8.008,8.008,0,0,1,3.1-3.237s1.349-.786,1.793-.532M37.449,52.567a1.854,1.854,0,0,1-.632.829,1.719,1.719,0,0,1-1.024.3,1.523,1.523,0,0,1-.839-.208.874.874,0,0,1-.4-.618l.978-.089c.039.228.158.342.352.342a.445.445,0,0,0,.367-.2,2.135,2.135,0,0,0,.288-.661l-.015-.008a1.19,1.19,0,0,1-.754.263,1.016,1.016,0,0,1-.727-.287.948.948,0,0,1-.3-.719,1.287,1.287,0,0,1,.409-.93,1.493,1.493,0,0,1,1.115-.412,1.386,1.386,0,0,1,1.016.369,1.337,1.337,0,0,1,.372,1,2.831,2.831,0,0,1-.211,1.038m2.2,1.074h-1.02l.522-2.251a3.86,3.86,0,0,1-1.1.412L38.236,51a4.4,4.4,0,0,0,1.349-.83h.863Zm4.143-2.693H42.228l-.172.55q.279-.094.423-.132a1.156,1.156,0,0,1,.3-.036,1.083,1.083,0,0,1,.717.238.886.886,0,0,1,.281.714,1.32,1.32,0,0,1-.172.673,1.422,1.422,0,0,1-.549.521,2.045,2.045,0,0,1-1.036.221,1.552,1.552,0,0,1-.932-.231,1.07,1.07,0,0,1-.378-.746l1-.112v.013a.5.5,0,0,0,.119.363.437.437,0,0,0,.331.128.555.555,0,0,0,.443-.223.821.821,0,0,0,.18-.528v-.01c0-.287-.13-.433-.394-.433a.653.653,0,0,0-.491.223l-.933-.134.545-1.784H43.96ZM39.8,46.078s-.947-.077-.893.481c.05.524,1.089.557,1.089.557h3.275a.458.458,0,0,1,.442.5c-.045.5-1.219.581-1.219.581a12.569,12.569,0,0,1-3.308-.023s-3.519-1.921-2.742-3.033c0,0,.018-.757-.951-.809a1.918,1.918,0,0,0-1.823.786,6.032,6.032,0,0,0,1.853,1.645s1.509.989,1.967,1.241a.263.263,0,0,1,.03.483c-.144.092-.678-.108-.678-.108a16.423,16.423,0,0,1-4.878-2.943s-4.556-4.114-4.351-9.306c0,0,.072-.885.829-.919s.933.919.933.919c.163,4.479,1.3,5.747,1.421,5.882a2.1,2.1,0,0,0,1.113-.544s.545-.575.014-1c-1.12-.9-1.011-2.947-1.011-2.947s.746-.249,1.072-.354a.3.3,0,0,1,.03-.014,6.794,6.794,0,0,1,1.3-.051l3.063.025s.2-.032.442.354h1.548a.8.8,0,0,0,.451-.9.984.984,0,0,0-.688-.693l-6,0-.043,0A2.865,2.865,0,0,1,30.53,35.5c-.383-.294-.8-.713-.7-1.056a1.1,1.1,0,0,1,1.644-.7l.567.4s.344.389,1.515.389l4.8.008a.527.527,0,0,0,.467-.6.573.573,0,0,0-.593-.564l-6.7-.005s-.6-.006-.43-.437l.394-.658c.068-.106.369-.443,1.373-.443h16.2a6.785,6.785,0,0,0-2.4-3.544,14.241,14.241,0,0,0-4.146-2.643,16.555,16.555,0,0,0-2.479-.691C38.7,24.606,38.8,23.864,38.8,23.864s.036-.623,1.1-.49A13.949,13.949,0,0,1,44.456,24.7s5,2.4,6.469,7.074c0,0,.2.623.389,1.382H41.55s-.78-.007-.792.693a.623.623,0,0,0,.594.685l8.448.032a2.016,2.016,0,0,0,1.26-.455.419.419,0,0,1,.675.245,2.569,2.569,0,0,1,.061,1.6l-10.206.076a.762.762,0,0,0-.694.822.72.72,0,0,0,.782.729l8.427-.031-.008.006a1.726,1.726,0,0,1,1.494.733,1.558,1.558,0,0,1,.03.532c-.047.465-1.314.943-1.314.943s-1.474.627-1.316,1.322c.078.4.786.852.786.852a.809.809,0,0,1-.037,1.141c-.686.611-1.56-.163-1.56-.163a2.435,2.435,0,0,0-1.843-1.255,1.7,1.7,0,0,0-1.277.445,1.7,1.7,0,0,1-1.573.387s-1.1-.307-1.122.3c-.02.312.357.512.7.569a27.675,27.675,0,0,1,3,.132c.746.179,1.3.3,1.685.993.387.868.03,1.181-.287,1.379a3.8,3.8,0,0,1-2.609.478Zm6.04,6.25-.564-1.02a15.619,15.619,0,1,0-15.176-.07l-.573,1.016a16.786,16.786,0,1,1,16.313.074" transform="translate(-2.585 -2.597)" fill="#fff"/>
  </g>
</svg>
