<svg xmlns="http://www.w3.org/2000/svg" xmlns:xlink="http://www.w3.org/1999/xlink" width="104" height="71" viewBox="0 0 104 71">
  <defs>
    <filter id="矩形_11326" x="0" y="0" width="104" height="71" filterUnits="userSpaceOnUse">
      <feOffset dy="1" input="SourceAlpha"/>
      <feGaussianBlur stdDeviation="2" result="blur"/>
      <feFlood flood-color="#2a63a5" flood-opacity="0.192"/>
      <feComposite operator="in" in2="blur"/>
      <feComposite in="SourceGraphic"/>
    </filter>
  </defs>
  <g id="组_8913" data-name="组 8913" transform="translate(-154 -1802)">
    <g transform="matrix(1, 0, 0, 1, 154, 1802)" filter="url(#矩形_11326)">
      <rect id="矩形_11326-2" data-name="矩形 11326" width="92" height="59" transform="translate(6 5)" fill="#fff"/>
    </g>
    <g id="组_8912" data-name="组 8912" transform="translate(16856.996 14507.612)">
      <path id="路径_40210" data-name="路径 40210" d="M106.554,17.455s-.341.054-.434-1.615a1.052,1.052,0,0,1,.558-.915c1.489-.075,1.9.556,1.9.556.062.2.161.355.235.541a1.755,1.755,0,0,1-.33,1.078,2.951,2.951,0,0,1-1.93.355" transform="translate(-16791.281 -12694.561)" fill="#063d9b" fill-rule="evenodd"/>
      <path id="路径_40211" data-name="路径 40211" d="M114.785,18.87c.766-.1.757,1.069.757,1.069l-.106,3.847-.115,1.419a13.5,13.5,0,0,0,.124,1.992,22.09,22.09,0,0,1-.02,2.277,4.638,4.638,0,0,1-.144,1.564c-.524-.109-.85-.515-1.232-.7,0,.033,0,.029.048.071-.122.063-.228-.107-.344-.056a1.077,1.077,0,0,0,.259.2c-.022.043-.064.058-.054.125.152.179.379.281.463.523-.1-.018-.147-.02-.2.034.085.232.333.3.432.517-.168-.075-.289-.351-.464-.3.06.31.507.323.447.694a6.064,6.064,0,0,0,.5.664s-.087.624.642.524a1.46,1.46,0,0,0,.773-.949,19.433,19.433,0,0,0-.124-3.5,8.338,8.338,0,0,0-.074-3.192,6.544,6.544,0,0,1,.093-1.178,25.344,25.344,0,0,0,.106-4.427c.46-1.637-.163-1.939-.163-1.939a1.551,1.551,0,0,0-1.163-.021c.188-.695,2.142-2.047,2.142-2.047,2.734-1.2,1.314-1.951,1.314-1.951s-.964-.674-2.67,1.078c0,0-3.865,2.606-5.2,3.815a27.606,27.606,0,0,0-3.61,4.205,10.879,10.879,0,0,0-1.4,2.678c-.088.436-.465,1.7-.772,2.694a1.793,1.793,0,0,1-.167-.916,29.616,29.616,0,0,1,.692-4.693s1.741-1.006.964-2.426a.8.8,0,0,0-.317-.233,7.89,7.89,0,0,0-1.427-.484c-.261-.027-.376.222-.6.381,0,0-.368.564.079,1.981a.115.115,0,0,0,.01.043c.059.189-.521,4.731-.521,4.731-.691,4.933,1.489,3.716,1.489,3.716a5.034,5.034,0,0,0,1.424-1.893c.074-1.094.122-2.385.174-2.586.1-1.711,3.373-6.6,7.527-8.36-1.039,1.743-1.99,3.609-2.93,5.465a2.723,2.723,0,0,0-.652,1.9.568.568,0,0,0,.648.355,1.261,1.261,0,0,0,.781-1c.1-1.017.414-1.112.414-1.112a1.524,1.524,0,0,0,1.045,1.354c1.2.169,1.078-1.323,1.078-1.323a6.189,6.189,0,0,1-.168-.821,2.931,2.931,0,0,1-.091-.855c-.069-.5-.157-.27-.216-.415-.074-.209.032-.458-.053-.629-.117-.035-.1.146-.173.093-.05-.177.084-.356.048-.505a7.182,7.182,0,0,1-.452,1.391.871.871,0,0,0-.586.043c.277-.57.6-1,.9-1.65a7.844,7.844,0,0,1,.841-1.473s.079-.058-.015.194" transform="translate(-16789.613 -12693.947)" fill="#063d9b"/>
      <path id="路径_40212" data-name="路径 40212" d="M169.48,29.295c-.063.784-.493.969-.493.969a2.116,2.116,0,0,1-1.195.125c-.079-.054-.043-.188-.152-.283a1.662,1.662,0,0,1-.759-.694c.046-.036.054-.029.042-.055a4.828,4.828,0,0,1-.381-.832.765.765,0,0,1,.221-.838s.149-.162.835-.047a2.553,2.553,0,0,1,.38.071c.152.04.387.146.785.3a1.5,1.5,0,0,1,.719,1.266" transform="translate(-16831.549 -12703.018)" fill="#063d9b" fill-rule="evenodd"/>
      <path id="路径_40213" data-name="路径 40213" d="M167.668,42.307s-.622.432-.818,2.089c-.047.5-.05.647-.088.938a3.211,3.211,0,0,0,.1.91,10.545,10.545,0,0,0,2.189-4.2c.06.392-.355.892-.07,1.2.019.08-.089.19.019.206-.152.087-.06.412-.233.514a.067.067,0,0,0,.046.087c-.182.268-.091.761-.235.908a.982.982,0,0,1-.04.224,7.232,7.232,0,0,1-.6,2.414c-.862,1.589-1.352,1.667-1.352,1.667a1.547,1.547,0,0,0-.39.044s-.939-.219-.843-1.681c0,0,1.269-4.738,1.285-4.808a11.662,11.662,0,0,0,.29-1.168,5.193,5.193,0,0,0-.278-1.024.93.93,0,0,1,.22-.651h.093c.056-.022.027-.112.083-.135a1.379,1.379,0,0,1,1.63,1.008,4.584,4.584,0,0,1-.209.792,3.226,3.226,0,0,1-.806.668" transform="translate(-16830.781 -12711.162)" fill="#063d9b" fill-rule="evenodd"/>
      <path id="路径_40214" data-name="路径 40214" d="M187.566,20.8s.7-.29.691-.767a.1.1,0,0,1-.011-.032c-.339-1.319-2.93.283-2.93.283a7.2,7.2,0,0,1-1.872,1.045s-.284-.2,1.211-2.551a22.775,22.775,0,0,0,1.723-3.134c0-.419.249-.732-.2-1.181-.994-.319-1.935,1.646-1.935,1.646.049,0,.07-.031.122-.036-.008.06-.122.108-.069.174.053-.07.086-.163.175-.208.177.012.223-.2.41-.137,0,0-.405,1.026-.673,1.674,0,0-2.207,3.875-1.473,4.988.431.424,1.869-.739,1.869-.739s1.666-1.434,1.919-1.186c.036.048-1.469,2.206-1.469,2.206-.661,1.146-1.714,3.606-1.714,3.606a1.742,1.742,0,0,1-1.238-.088c-1.533-.115-.6,1.028-.6,1.028.441.311,1.1.2,1.5.311-.509,2.041.943,2.315.943,2.315.728.11,1.38-.432,2.081-.4a5.235,5.235,0,0,1-.945,2.5.448.448,0,0,0-.261-.1c-.037.073.1.18.056.259a1.778,1.778,0,0,0,.049,1.534s.057.189.209.21c.261.029.749-.331.942-.722.662-1.394.933-2.158.933-2.158.246-.421.236-1.1.483-1.521a1.829,1.829,0,0,0,.565-.292,1.176,1.176,0,0,0-.684-1.237,4.557,4.557,0,0,1,.36-1.525,6.263,6.263,0,0,0,1.26-.3.775.775,0,0,1,.782.273.768.768,0,0,0,.951.149c.754-1.912-1.583-1.284-1.583-1.284s-1.109.288-1.183.12a4.174,4.174,0,0,0,.233-2.489.932.932,0,0,0-1.131-.326c-.821.222-.834.688-.834.688a1.161,1.161,0,0,1,.516.308,2.349,2.349,0,0,1,0,1.152,3.836,3.836,0,0,1-.535-.309s-.889-.488-.971.686c-.075.357-.089.732-.158,1.01-.123.181-.611.159-.86.1,1.306-4.707,3.337-5.552,3.337-5.552m-3.112,7.55a.621.621,0,0,1-.445-.784c.23-.071.538-.286.875-.174-.033.363-.1.688-.405.778-.024.044,0,.138-.024.181m1.367-.117a7.873,7.873,0,0,1-1.194.135c.082-.178.306-.2.4-.362,0,0,.132.153.534-.39a1.214,1.214,0,0,0,.455-.272c.44-.6.523-.413.523-.413a3.521,3.521,0,0,1-.279,1s.074.3-.442.3" transform="translate(-16841.365 -12694.236)" fill="#063d9b"/>
      <path id="路径_40215" data-name="路径 40215" d="M280.234,11.761a.393.393,0,0,1-.264.184,3,3,0,0,1-.146.56s.187.617.281,1.147c-.038.374-.074.843-.1,1.226a14.612,14.612,0,0,0-.115,3.5c.134.4.431.268.7.13.038-.012,0-.1.047-.108.251-.068.354-.338.621-.4a2.424,2.424,0,0,0,.612-1.714,7.692,7.692,0,0,1,.715-3.04,17.144,17.144,0,0,0-.429,3.8,4.6,4.6,0,0,1-.143.942,1.736,1.736,0,0,0-.185.844,2.821,2.821,0,0,1-1.306.471c-1.163.261-2.089.97-3.227,1.236a3.127,3.127,0,0,1-1.127.2c.1-.1.153-.264.253-.363-.019-.136.1-.249.111-.392a1.7,1.7,0,0,1-.476.26c-.224.1-.419.3-.714.289-.106.1-.106.276-.24.348a2.835,2.835,0,0,0-.194,1.17c.125.275.46.084.671.106a8.369,8.369,0,0,0,2.993-.794,6.791,6.791,0,0,1,1.863-.818,6.943,6.943,0,0,0,2.048-.643c.745-.332,1.364-.541,1.868-.728,1.764-.746,2.31-.549,2.31-.549a.494.494,0,0,1,.077.612c-.284.548-1.247.823-2.07,1.061a1.531,1.531,0,0,1-.448.108c-.071,0-.122-.014-.179-.012a2.579,2.579,0,0,0-1.326.615,4.978,4.978,0,0,1-.47.178c-.059.026-.12.1-.158.116-.057.028-.171.054-.267.088-.142.063-.428.19-.436.331-.014.178.307.284.453.329.24.06.507-.01.7.028a2.7,2.7,0,0,1,.522-.145,2.784,2.784,0,0,0-.406,1.55,2.947,2.947,0,0,1,.555.886,5.991,5.991,0,0,1,.43.686,2.4,2.4,0,0,1-.857.158,2.485,2.485,0,0,0-.621.205,4.438,4.438,0,0,0-.986.528c-.093.082-.191.143-.286.22a2.9,2.9,0,0,0-.322.279c-.047.06-.1.144-.141.2s-.131.12-.167.173c-.055.087-.089.159-.131.219a1.2,1.2,0,0,0-.345.785c-.012.079-.111.127-.165.182-.042.124.124.168-.012.291.1.121.066.256.165.337a3.464,3.464,0,0,0,.3.583c.772,1.215,1.453,1,1.453,1a3.325,3.325,0,0,0,2.2-.9,3.724,3.724,0,0,0,.99-2.412,3.98,3.98,0,0,0,1.4-.057,1.629,1.629,0,0,0,.259-.169c.029-.028.112-.121.149-.16.069-.074.153-.1.188-.161.1-.169.044-.4.138-.62-.032-.138-.1-.241-.124-.386-.1-.01-.153-.108-.249-.147a1.708,1.708,0,0,0-.334-.047,1.249,1.249,0,0,1-.247-.107,1.785,1.785,0,0,1-.351-.1c-.167,0-.328.069-.479.023-.054-.016-.019.074-.068.06-.127-.083-.369.022-.507-.109-.077-.063-.118-.322-.169-.451a3.612,3.612,0,0,0-.475-.713c-.068-.106-.106-.217-.177-.331-.1-.166-.417-.515-.37-.7.008-.051.188-.176.239-.271a.788.788,0,0,1,.3-.329,3.874,3.874,0,0,1,.355-.57c.1-.074.359-.186.422-.3.149-.244.09-.733-.082-.8a2.964,2.964,0,0,0,.818-.054c.214-.051.441-.08.53-.1a.5.5,0,0,1,.365-.063c.192.257.373-.037.627.07a1.83,1.83,0,0,0,.3-.23c.091-.081.216-.129.294-.211.092-.1.118-.234.271-.246a1.211,1.211,0,0,0,.29-.506.667.667,0,0,0,.085-.264c0-.121.023-.457.009-.6a1.083,1.083,0,0,0-.41-.625,1.423,1.423,0,0,0-.855-.268,14.617,14.617,0,0,0-3.426.813c.074-.174.265-.524.5-.373.046.073-.06.084-.051.175.236-.1.37-.256.621-.368.056-.109.171-.115.269-.216a.658.658,0,0,1,.089-.141c.146,0,.181-.113.325-.113a1.083,1.083,0,0,1,.014-.144c.049-.025.108-.012.155-.051a4.306,4.306,0,0,1,.944-.6,1.284,1.284,0,0,0,.378-.724,1.311,1.311,0,0,0-.382-.978c-.034-.038-.106-.1-.147-.146s-.075-.114-.123-.142c-.1-.087-.224-.081-.269-.19s.128-.243.21-.333a4.246,4.246,0,0,1,.784-.756c.312-.1.731-.2.8-.79a1.1,1.1,0,0,0-.036-.3,1.168,1.168,0,0,1-.061-.181.431.431,0,0,0-.127-.261c-.159-.14-.383-.153-.513-.257-.2-.156-.171-.509-.022-.8a2.522,2.522,0,0,0,.123-.261c.079-.162.185-.322.239-.471a.76.76,0,0,0-.071-.653c-.288-.28-.935.139-1.022.342-.255.323-.149.761-.238,1.179,0,0-.356,1.084-.716,2.046-.12.109-.2.233-.3.345-.082.091-.158.2-.24.29a1.079,1.079,0,0,1-.283.238.768.768,0,0,1-.262.284,1.254,1.254,0,0,1-.054.141,4.515,4.515,0,0,0-.765,1.357c.074-.389.184-.784.239-1.212.046-.4.059-.912.144-1.3.089-.378.235-.78.288-1.131,0-.447-.158-.782-.606-.691-.276.058-.591.152-.7.377-.032-.034-.045.009-.1-.009a4.144,4.144,0,0,0-.992,1.093c-.1-.062-.119-.194-.175-.288,0,0-.461-.844-1.062-.393m4.4,3.19c.089.015.049.133.083.185.093.167.361.194.487.326a1.162,1.162,0,0,1-.293.572A5.738,5.738,0,0,1,283.7,17.52c-.02-.147.1-.456.069-.639.368-1.989.86-1.93.86-1.93m-.838,12.406c-.258.777-1.09,1.881-2.055,1.694-.549-.171-.594-.421-.541-.9.089-1.264,1.6-1.7,1.6-1.7.384.034.847,0,1.031.166,0,0,.17.136-.033.741" transform="translate(-16903.834 -12690.618)" fill="#063d9b"/>
      <path id="路径_40216" data-name="路径 40216" d="M248.382,54.321a.657.657,0,0,0-.1-.183c-.246-.185-.2-.4-.458-.443-.022-.092.028-.216-.049-.278,0-.062.077-.051.086-.116,0-.082-.037-.124-.049-.186.079-.2.115-.447.342-.5a.659.659,0,0,0,.425-.018,3.254,3.254,0,0,0,.4.125,24.466,24.466,0,0,1,2.127,1.906,1.541,1.541,0,0,1,.531.833,1.04,1.04,0,0,1-1.064,1.3c-.132-.026-.247-.163-.39-.12,0,0-.648-.165-1.8-2.316" transform="translate(-16885.746 -12719.685)" fill="#063d9b"/>
      <path id="路径_40217" data-name="路径 40217" d="M228.427,33.945a4.405,4.405,0,0,1-1.867.811,1.314,1.314,0,0,1-.943-.119c.036-.059.089-.11.128-.166-.059-.254.067-.552-.031-.837.051-.1.167-.117.244-.179.114.053.322.018.381.126.93.222,2.356-1.716,2.356-1.716a7.957,7.957,0,0,0,1.339-3.249l-.427.129s-2.482.829-2.95-.147c-.02-.013.024-.113-.034-.238-.039-.09-.186-.156-.191-.282a.593.593,0,0,1,.076-.228,1.569,1.569,0,0,1,.4-.546,2.606,2.606,0,0,1,.209-.163c.018-.005.693-.269,1.053-.065a.146.146,0,0,1,.011.122s1.949.165,2.2-.767a17.372,17.372,0,0,0,.156-4.3c.011-.44.052-.517.047-.923,0,0,.009-.4.041-.865a.774.774,0,0,1,.631-.591c.033-.013.213-.041.217-.076.25.054.437.258.683.171.066.087-.017.129.027.19.021.02.081,0,.1.02s-.011.067.005.09c.028.048.1.021.125.048s.017.1.052.163c.027.047.081.013.114.112a.55.55,0,0,1,.062.209,1.18,1.18,0,0,1,.074.747l-.431,1.26a2.218,2.218,0,0,0-.1.751,11.3,11.3,0,0,1-.269,2.453,6.044,6.044,0,0,0,1.292-.595,1.216,1.216,0,0,1,1.4.269c.976.83.151,1.422.151,1.422-.113.086-.155.171-.333.171-.074.024-.077.115-.147.128-.108.022-.164-.113-.267-.1-.07.012-.1.092-.161.118,0,0-.833.123-.974-.072a.465.465,0,0,0-.135.037,1.791,1.791,0,0,0-1.163.539s-.089.76-.38,2.177a7.523,7.523,0,0,1-2.76,3.96" transform="translate(-16870.969 -12697.732)" fill="#063d9b"/>
    </g>
  </g>
</svg>
