<svg id="组件_19_1" data-name="组件 19 – 1" xmlns="http://www.w3.org/2000/svg" width="49" height="28" viewBox="0 0 49 28">
  <path id="矩形_91" data-name="矩形 91" d="M14,0H49a0,0,0,0,1,0,0V28a0,0,0,0,1,0,0H14A14,14,0,0,1,0,14v0A14,14,0,0,1,14,0Z" fill="#fb7299"/>
  <path id="_-bilibili" data-name="-bilibili" d="M10.787,54.369c3.007-.112,17.417,0,17.417,0a3.78,3.78,0,0,1,2.89,3.674c-.037,3.088,0,9.258,0,9.258s-.156,3.014-2.853,3.493a14.023,14.023,0,0,0-1.539,0s-.077,1.268-1.213,1.286a1.244,1.244,0,0,1-1.349-1.213c-.652,0-8.083.033-8.937.037h-.081a1.313,1.313,0,0,1-1.274,1.176A1.248,1.248,0,0,1,12.578,70.9c-.733,0-1.734-.018-1.734-.018a3.858,3.858,0,0,1-2.835-3.6c.042-2.987.005-8.776,0-9.215v-.029A3.584,3.584,0,0,1,10.787,54.369Zm17.086,2.254H11.465a.894.894,0,0,0-.9.883V67.868a.893.893,0,0,0,.9.883H27.873a.892.892,0,0,0,.9-.883V57.5A.891.891,0,0,0,27.873,56.623ZM19.917,63.6c1.143,2.487,2.406.66,2.406.66l.716.467s-1.34,2.157-3.106.526c-1.493,1.633-3.064-.519-3.064-.519l.8-.511.005.011C17.762,64.383,18.784,66.032,19.917,63.6ZM17.3,58.759l.366,1.827-4.812.933-.407-1.827Zm5.393,0,4.851.933-.409,1.827-4.814-.933Zm1.961-7.74c.192-.137.222-.357.786.137.5.44.3.836.242.922l-.011.018-2.133,2.223H21.481S24.463,51.158,24.653,51.019Zm-9.316-.082c.191.137,3.172,3.3,3.172,3.3H16.453l-2.131-2.223s-.334-.442.229-.94S15.147,50.8,15.337,50.936Zm0,0" transform="translate(7.688 -48.45)" fill="#fff"/>
</svg>
