<svg id="组件_17_1" data-name="组件 17 – 1" xmlns="http://www.w3.org/2000/svg" width="49.782" height="27.878" viewBox="0 0 49.782 27.878">
  <path id="矩形_11278" data-name="矩形 11278" d="M13.939,0H49.782a0,0,0,0,1,0,0V27.878a0,0,0,0,1,0,0H13.939A13.939,13.939,0,0,1,0,13.939v0A13.939,13.939,0,0,1,13.939,0Z"/>
  <path id="抖音" d="M102.614,8.614a7.876,7.876,0,0,1-4.732-1.581v7.159a6.3,6.3,0,1,1-12.582,0,6.459,6.459,0,0,1,6.291-6.616,5.937,5.937,0,0,1,1.014.087v3.792a2.7,2.7,0,0,0-.988-.187,2.956,2.956,0,1,0,2.806,2.952V0h3.509a4.831,4.831,0,0,0,4.706,4.948V8.611l-.024,0" transform="translate(-64.501 3.535)" fill="#fff"/>
</svg>
