<svg id="组件_17_1" data-name="组件 17 – 1" xmlns="http://www.w3.org/2000/svg" width="51.656" height="28.927" viewBox="0 0 51.656 28.927">
  <path id="矩形_11278" data-name="矩形 11278" d="M14.464,0H51.656a0,0,0,0,1,0,0V28.927a0,0,0,0,1,0,0H14.464A14.464,14.464,0,0,1,0,14.464v0A14.464,14.464,0,0,1,14.464,0Z" fill="#eda150"/>
  <path id="shipinhao" d="M36.032,102.489c1.959-.588,4.31,1.687,8.045,7.787.42.685.779,1.245.8,1.246s.4-.593.84-1.318c3.715-6.094,6.067-8.334,8.065-7.678,1.269.417,1.8,1.643,1.8,4.122-.009,4.823-2.327,12.38-4.22,13.756-1.558,1.132-3.886-.293-6.057-3.71a4.239,4.239,0,0,0-.436-.62,4.024,4.024,0,0,0-.425.616,10.09,10.09,0,0,1-3.749,3.831,2.881,2.881,0,0,1-2.03.073c-1.169-.628-2.485-3.355-3.5-7.266C33.531,107.08,33.848,103.146,36.032,102.489ZM52.4,104.973c-1.24.964-2.839,3.11-5.18,6.956l-1.105,1.814.378.677a13.625,13.625,0,0,0,2.936,3.83c.6.47.8.372,1.324-.662,1.65-3.244,3.057-9.892,2.6-12.281C53.216,104.589,53,104.512,52.4,104.973Zm-15.814-.2c-.443.437-.328,3.273.247,6.1.693,3.417,2.153,7.391,2.795,7.614.624.217,2.341-1.747,3.689-4.22l.295-.542-.946-1.553c-2.536-4.16-4.189-6.382-5.406-7.266C36.891,104.635,36.755,104.607,36.591,104.769Z" transform="translate(-15.122 -96.79)" fill="#fff"/>
</svg>
