<svg id="组件_16_1" data-name="组件 16 – 1" xmlns="http://www.w3.org/2000/svg" width="51.656" height="28.927" viewBox="0 0 51.656 28.927">
  <path id="矩形_11270" data-name="矩形 11270" d="M14.464,0H51.656a0,0,0,0,1,0,0V28.927a0,0,0,0,1,0,0H14.464A14.464,14.464,0,0,1,0,14.464v0A14.464,14.464,0,0,1,14.464,0Z" fill="#d4382a"/>
  <g id="微博" transform="translate(15.497 3.97)">
    <path id="路径_27639" data-name="路径 27639" d="M872.16,186.207a.456.456,0,0,1-.447-.554c.285-1.267.168-2.167-.347-2.671-.85-.836-2.572-.433-2.589-.428a.455.455,0,1,1-.215-.884c.091-.022,2.228-.528,3.438.659.754.74.956,1.924.6,3.52A.447.447,0,0,1,872.16,186.207Z" transform="translate(-851.382 -178.025)" fill="#fff"/>
    <path id="路径_27640" data-name="路径 27640" d="M802.75,9.483a.609.609,0,0,1-.6-.7c.51-3.086.1-5.248-1.229-6.429-2.045-1.818-5.7-.784-5.738-.775a.606.606,0,1,1-.334-1.165c.174-.051,4.323-1.231,6.876,1.03,1.663,1.474,2.209,4.009,1.623,7.535a.608.608,0,0,1-.6.51Z" transform="translate(-779.008 -0.055)" fill="#fff"/>
    <path id="路径_27641" data-name="路径 27641" d="M18.326,144.179s2.515-5.986-5.872-3c.266-3.146-1.1-5.054-5.194-2.73,0,0-13.3,9.02-3.6,14.782,0,0,12.2,5.041,17.739-4.321A3.547,3.547,0,0,0,18.326,144.179Zm-7.873,9.037c-4.036.462-7.558-1.332-7.864-4.013s2.714-5.227,6.75-5.689,7.559,1.331,7.866,4.01-2.716,5.229-6.753,5.692Z" transform="translate(-0.116 -134.751)" fill="#fff"/>
    <path id="路径_27642" data-name="路径 27642" d="M284.832,552.89c-.166-1.834-2.065-3.162-4.24-2.964s-3.8,1.842-3.636,3.677,2.064,3.163,4.238,2.964S285,554.723,284.832,552.89Zm-5.159,2.327a1.139,1.139,0,1,1,1.22-1.135A1.18,1.18,0,0,1,279.673,555.217Zm2.108-1.914a.547.547,0,1,1,.517-.546A.547.547,0,0,1,281.782,553.3Z" transform="translate(-271.576 -539.244)" fill="#fff"/>
  </g>
</svg>
