<svg id="组件_18_1" data-name="组件 18 – 1" xmlns="http://www.w3.org/2000/svg" width="50" height="27" viewBox="0 0 50 27">
  <path id="矩形_11271" data-name="矩形 11271" d="M13.5,0H50a0,0,0,0,1,0,0V27a0,0,0,0,1,0,0H13.5A13.5,13.5,0,0,1,0,13.5v0A13.5,13.5,0,0,1,13.5,0Z" fill="#2ccc46"/>
  <g id="微信" transform="translate(15.152 3.27)">
    <path id="路径_27643" data-name="路径 27643" d="M425.411,378.122c0-3.484-3.487-6.322-7.4-6.322-4.146,0-7.41,2.84-7.41,6.322s3.265,6.322,7.41,6.322a11.006,11.006,0,0,0,2.616-.437l2.389,1.308-.656-2.176C424.108,381.826,425.411,380.086,425.411,378.122Zm-9.693-.967a.987.987,0,1,1,.987-.987A.987.987,0,0,1,415.718,377.155Zm4.795-.007a.987.987,0,1,1,.987-.987A.987.987,0,0,1,420.513,377.147Z" transform="translate(-400.794 -365.263)" fill="#fff"/>
    <path id="路径_27644" data-name="路径 27644" d="M21.913,106.9c-4.79,0-8.713,3.265-8.713,7.41,0,2.394,1.305,4.358,3.487,5.883l-.871,2.621,3.045-1.527a14.977,14.977,0,0,0,3.052.437c.274,0,.545-.012.814-.035a6.484,6.484,0,0,1-.269-1.826,7.138,7.138,0,0,1,7.408-6.9,7.253,7.253,0,0,1,.839.052C29.95,109.508,26.2,106.9,21.913,106.9Zm-2.927,5.979a1.184,1.184,0,1,1,1.184-1.184A1.185,1.185,0,0,1,18.987,112.879Zm6.085,0a1.184,1.184,0,1,1,1.184-1.184A1.185,1.185,0,0,1,25.072,112.879Z" transform="translate(-13.2 -106.9)" fill="#fff"/>
  </g>
</svg>
