<svg xmlns="http://www.w3.org/2000/svg" width="20.903" height="23.334" viewBox="0 0 20.903 23.334">
  <path id="路径_302" data-name="路径 302" d="M81.6,38.8a.944.944,0,1,1-1.889,0l-.008-.089a1.078,1.078,0,0,1,.011-.111,8.533,8.533,0,0,0-8.472-7.315c-.035,0-.068.005-.1.005s-.068,0-.1-.005a8.534,8.534,0,0,0-8.448,7.173.992.992,0,0,1,.037.252l.009.09a.96.96,0,1,1-1.919,0v-.009H60.7c0-.028.008-.055.011-.083a.967.967,0,0,1,.03-.23,10.292,10.292,0,0,1,6.539-8.328,7.442,7.442,0,0,1-3.353-6.287,7.218,7.218,0,1,1,14.429,0A7.44,7.44,0,0,1,75,30.15a10.293,10.293,0,0,1,6.53,8.242.954.954,0,0,1,.059.319l.008.089Zm-4.9-14.934a5.558,5.558,0,1,0-5.558,5.615,5.587,5.587,0,0,0,5.558-5.615Z" transform="translate(-60.697 -16.437)" fill="#0168b7"/>
</svg>
