<svg xmlns="http://www.w3.org/2000/svg" xmlns:xlink="http://www.w3.org/1999/xlink" fill="none" version="1.1" width="8.30633544921875" height="13.44849681854248" viewBox="0 0 8.30633544921875 13.44849681854248"><g><path d="M4.30478,0.119453C4.28499,-0.0398176,4.02312,-0.0398176,4.00333,0.119453C3.34285,5.44105,2.84217e-14,5.71715,2.84217e-14,9.34347C2.84217e-14,11.6101,1.90134,13.4485,4.15361,13.4485C6.40498,13.4485,8.30634,11.6101,8.30634,9.34347C8.30722,5.71715,4.96436,5.44105,4.30478,0.119453C4.30478,0.119453,4.30478,0.119453,4.30478,0.119453ZM5.192,11.9692C4.98775,11.9692,4.82217,11.7973,4.82217,11.5859C4.82217,11.3744,4.98775,11.2025,5.192,11.2025C5.70131,11.2025,6.11615,10.7742,6.11615,10.2469C6.11615,10.0354,6.28171,9.86357,6.48596,9.86357C6.63895,9.86357,6.77121,9.95986,6.82701,10.0975C6.8459,10.1434,6.8567,10.1947,6.8567,10.2478C6.8549,11.1962,6.10893,11.9692,5.192,11.9692C5.192,11.9692,5.192,11.9692,5.192,11.9692Z" fill="#D6E5FF" fill-opacity="1"/></g></svg>