<svg xmlns="http://www.w3.org/2000/svg" xmlns:xlink="http://www.w3.org/1999/xlink" fill="none" version="1.1" width="410.465087890625" height="410.4743347167969" viewBox="0 0 410.465087890625 410.4743347167969"><g><path d="M93.9883,33.3246C84.3581,56.5398,56.6044,84.2885,33.374,93.8985C6.70158,104.94,-6.03049,135.623,5.02631,162.316C14.6261,185.541,14.616,224.778,4.98569,248.014C-6.06095,274.706,6.64574,305.42,33.3283,316.482C56.5587,326.102,84.3073,353.86,93.897,377.106C104.949,403.773,135.667,416.521,162.324,405.459C185.565,395.854,224.822,395.854,248.037,405.484C274.725,416.541,305.428,403.824,316.485,377.147C326.09,353.932,353.874,326.188,377.104,316.578C403.777,305.531,416.494,274.823,405.457,248.11C395.847,224.895,395.847,185.638,405.472,162.422C410.803,149.543,410.803,135.313,405.432,122.353C400.071,109.392,390.04,99.3355,377.15,94C353.935,84.3799,326.196,56.6059,316.571,33.3703C305.545,6.69791,274.842,-6.02403,248.139,5.0074C224.919,14.6326,185.661,14.6174,162.431,4.9871C135.759,-6.05449,105.06,6.62176,93.9883,33.3246Z" fill="#004098" fill-opacity="1"/><path d="M140.969,2.02135Q141.952,1.992934,142.935,2.0023400000000002L142.954,0.0024290000000000145Q141.933,-0.007339999999999902,140.911,0.022189000000000014L140.969,2.02135ZM266.687,2.05206Q267.666,2.02499,268.645,2.0354099999999997L268.666,0.035525999999999947Q267.649,0.024692999999999965,266.632,0.05282699999999996L266.687,2.05206ZM144.894,2.0587Q145.877,2.10587,146.857,2.19089L147.03,0.198376Q146.011,0.11002,144.99,0.06099600000000005L144.894,2.0587ZM270.618,2.0944599999999998Q271.601,2.14285,272.582,2.22898L272.757,0.23663999999999996Q271.737,0.147158,270.716,0.09687900000000005L270.618,2.0944599999999998ZM137.042,2.28621Q138.02,2.18242,139.001,2.11623L138.866,0.12076699999999996Q137.847,0.189539,136.831,0.29737100000000005L137.042,2.28621ZM262.771,2.31144Q263.747,2.2089499999999997,264.726,2.1440799999999998L264.594,0.14845399999999997Q263.576,0.21586399999999994,262.562,0.322369L262.771,2.31144ZM148.802,2.3973500000000003Q149.776,2.51966,150.744,2.67943L151.07,0.706087Q150.063,0.540055,149.051,0.41294299999999995L148.802,2.3973500000000003ZM274.534,2.43809Q275.507,2.56101,276.474,2.72095L276.8,0.747735Q275.795,0.581588,274.785,0.453894L274.534,2.43809ZM133.163,2.84807Q134.126,2.67083,135.095,2.53044L134.808,0.551102Q133.802,0.696951,132.801,0.881064L133.163,2.84807ZM258.885,2.87125Q259.853,2.69351,260.827,2.55326L260.542,0.573681Q259.53,0.719419,258.524,0.9041393L258.885,2.87125ZM152.676,3.03639Q153.634,3.23252,154.585,3.46537L155.06,1.52281Q154.073,1.280864,153.077,1.077048L152.676,3.03639ZM278.398,3.07669Q279.362,3.27386,280.319,3.50772L280.794,1.564961Q279.8,1.322073,278.799,1.117263L278.398,3.07669ZM129.329,3.70522Q130.28,3.45422,131.24,3.23967L130.803,1.287847Q129.807,1.5106899999999999,128.81799999999998,1.771412L129.329,3.70522ZM255.063,3.7258Q256.012,3.47516,256.969,3.26128L256.533,1.309434Q255.538,1.531707,254.552,1.7921010000000002L255.063,3.7258ZM156.487,3.97035Q157.427,4.23936,158.358,4.54441L158.981,2.64386Q158.014,2.32698,157.037,2.04749L156.487,3.97035ZM282.219,4.01093Q283.164,4.28035,284.098,4.58542L284.719,2.68428Q283.749,2.36745,282.768,2.0876200000000003L282.219,4.01093ZM125.571,4.8508700000000005Q126.499,4.52898,127.438,4.24258L126.855,2.32953Q125.88,2.627,124.916,2.96131L125.571,4.8508700000000005ZM251.313,4.87064Q252.236,4.55001,253.169,4.26494L252.585,2.35222Q251.616,2.64831,250.657,2.98139L251.313,4.87064ZM162.051,5.91209L162.429,6.06754L163.189,4.21755L162.811,4.0621Q161.864,3.67022,160.903,3.31437L160.209,5.18997Q161.134,5.53262,162.051,5.91209ZM285.952,5.2303Q286.873,5.5701,287.781,5.94467L288.544,4.09593Q287.601,3.70704,286.645,3.35402L285.952,5.2303ZM121.914,6.27669Q122.814,5.88583,123.729,5.52921L123.002,3.66582Q122.052,4.03618,121.117,4.442130000000001L121.914,6.27669ZM248.521,5.93164Q248.993,5.73669,249.467,5.55143L248.74,3.6884Q248.247,3.88083,247.757,4.0831599999999995L246.904,4.42969L247.656,6.28275L248.521,5.93164ZM164.259,6.78132Q165.183,7.12689,166.141,7.45589L166.791,5.56429Q165.858,5.24405,164.959,4.90798L164.259,6.78132ZM289.581,6.72781Q290.474,7.13653,291.35,7.5787L292.251,5.79298Q291.341,5.33386,290.413,4.909269999999999L289.581,6.72781ZM243.91,7.65154Q244.875,7.3279,245.807,6.98752L245.121,5.1089Q244.215,5.44002,243.274,5.75528L243.91,7.65154ZM118.374,7.97555Q119.243,7.51742,120.128,7.09242L119.263,5.28934Q118.343,5.73075,117.441,6.20656L118.374,7.97555ZM168.077,8.09264Q169.054,8.400590000000001,170.062,8.69172L170.617,6.77023Q169.632,6.48578,168.678,6.18509L168.077,8.09264ZM239.962,8.86604Q240.976,8.58031,241.961,8.277660000000001L241.373,6.366Q240.411,6.66162,239.42,6.94091L239.962,8.86604ZM293.087,8.49643Q293.948,8.97214,294.789,9.4801L295.823,7.76787Q294.949,7.24028,294.055,6.74614L293.087,8.49643ZM114.969,9.94043Q115.802,9.41693,116.654,8.925180000000001L115.654,7.1929Q114.769,7.70364,113.905,8.24745L114.969,9.94043ZM172.053,9.24228Q172.997,9.49192,173.964,9.72709L174.436,7.78372Q173.489,7.55337,172.565,7.30882L172.053,9.24228ZM236.082,9.87006Q237.054,9.63955,238.003,9.39455L237.502,7.45811Q236.573,7.69818,235.621,7.92403L236.082,9.87006ZM175.91,10.1802Q176.888,10.39831,177.888,10.60168L178.287,8.641829999999999Q177.305,8.44219,176.345,8.22808L175.91,10.1802ZM232.149,10.72406L234.118,10.31573L233.712,8.357389999999999L231.743,8.76571L232.149,10.72406ZM296.454,10.52883Q297.272,11.0664,298.07,11.6346L299.23,10.00587Q298.402,9.41576,297.552,8.85721L296.454,10.52883ZM179.906,10.99313L181.926,11.3485L182.272,9.37874L180.252,9.02337L179.906,10.99313ZM228.102,11.4512L230.114,11.1078L229.778,9.13628L227.766,9.47969L228.102,11.4512ZM111.732,12.1524Q112.519,11.5696,113.328,11.017L112.199,9.36579Q111.359,9.93986,110.542,10.54524L111.732,12.1524ZM183.91,11.6637L185.871,11.9437L186.153,9.96375L184.193,9.68381L183.91,11.6637ZM224.159,12.0266L226.125,11.7553L225.852,9.77412L223.886,10.04541L224.159,12.0266ZM187.88,12.1994L189.878,12.4234L190.101,10.43591L188.103,10.21191L187.88,12.1994ZM220.142,12.4889L222.144,12.2736L221.931,10.28505L219.929,10.50033L220.142,12.4889ZM191.919,12.6223L193.935,12.7896L194.101,10.79642L192.085,10.62914L191.919,12.6223ZM216.093,12.8363L218.097,12.6788L217.94,10.68494L215.936,10.84245L216.093,12.8363ZM195.947,12.9284L197.94,13.0388L198.05,11.0419L196.057,10.93147L195.947,12.9284ZM212.083,13.0686L214.078,12.9666L213.976,10.96922L211.981,11.0712L212.083,13.0686ZM199.966,13.1238L201.971,13.1811L202.028,11.1819L200.023,11.1246L199.966,13.1238ZM208.049,13.1939L210.055,13.145L210.007,11.1456L208.001,11.1945L208.049,13.1939ZM205.25,13.218L206.019,13.2165L206.015,11.2165L205.246,11.218L204.012,11.2123L204.003,13.2123L205.25,13.218ZM299.644,12.8023Q300.421,13.4025,301.175,14.0315L302.457,12.4961Q301.673,11.8424,300.866,11.219L299.644,12.8023ZM108.669,14.6084Q109.411,13.965,110.179,13.3498L108.928,11.7893Q108.13,12.4285,107.359,13.097L108.669,14.6084ZM302.661,15.3214Q303.394,15.983,304.1,16.6711L305.496,15.239Q304.763,14.5235,304.001,13.8364L302.661,15.3214ZM105.797,17.2975Q106.487,16.5992,107.205,15.9275L105.838,14.4676Q105.092,15.1656,104.375,15.8913L105.797,17.2975ZM305.472,18.0599Q306.145,18.7689,306.79,19.5022L308.292,18.1813Q307.621,17.419,306.921,16.682299999999998L305.472,18.0599ZM103.158,20.1794Q103.791,19.4327,104.452,18.7105L102.977,17.3597Q102.29,18.1103,101.632,18.8863L103.158,20.1794ZM308.057,21Q308.679,21.7646,309.271,22.5523L310.87,21.3514Q310.255,20.5321,309.609,19.7379L308.057,21ZM100.7281,23.2819Q101.307,22.4809,101.916,21.7035L100.3413,20.4702Q99.7085,21.2782,99.107,22.1106L100.7281,23.2819ZM310.429,24.1585Q310.983,24.9599,311.507,25.7824L313.194,24.7084Q312.65,23.8535,312.074,23.0207L310.429,24.1585ZM98.561,26.5375Q99.0672,25.71,99.6039,24.9031L97.9387,23.7954Q97.3809,24.634,96.8549,25.4938L98.561,26.5375ZM312.52,27.4428Q313.013,28.2875,313.475,29.1518L315.239,28.2097Q314.76,27.3117,314.247,26.4339L312.52,27.4428ZM96.647,29.9526Q97.0947,29.0773,97.5747,28.2209L95.8301,27.2429Q95.3315,28.1324,94.8664,29.0419L96.647,29.9526ZM314.37,30.9087Q314.804,31.8017,315.204,32.7127L317.035,31.9086Q316.62,30.962,316.169,30.0349L314.37,30.9087ZM94.9743,33.5582Q95.3599,32.6363,95.7796,31.7319L93.9654,30.8901Q93.5296,31.8292,93.1292,32.786500000000004L94.9743,33.5582ZM315.976,34.531Q316.359,35.4236,316.778,36.3291L318.593,35.4881Q318.186,34.6095,317.813,33.7418L315.976,34.531ZM93.3665,37.1581Q93.8025,36.2499,94.2026,35.3543L92.3765,34.5386Q91.9879,35.4086,91.5635,36.2924L93.3665,37.1581ZM317.647,38.1394Q318.096,39.0442,318.58,39.9602L320.348,39.0263Q319.877,38.1328,319.439,37.2504L317.647,38.1394ZM91.5016,40.7978Q92.0003,39.8808,92.4654,38.9733L90.6855,38.0611Q90.2316,38.9469,89.7446,39.8423L91.5016,40.7978ZM319.574,41.7892Q320.065,42.6692,320.587,43.5556L322.311,42.5422Q321.801,41.6748,321.32,40.8136L319.574,41.7892ZM89.479,44.327Q89.9914,43.4757,90.4773,42.6297L88.743,41.6336Q88.2675,42.4615,87.7654,43.2957L89.479,44.327ZM321.605,45.25Q322.125,46.095,322.671,46.9465L324.354,45.8666Q323.819,45.0314,323.309,44.2025L321.605,45.25ZM87.347,47.7181Q87.9043,46.8677,88.436,46.0219L86.7429,44.9573Q86.2208,45.7877,85.6741,46.622L87.347,47.7181ZM323.782,48.6434Q324.347,49.4898,324.936,50.3392L326.579,49.1993Q326.001,48.365,325.445,47.5328L323.782,48.6434ZM85.0375,51.108Q85.6371,50.26,86.2136,49.414L84.5608,48.2879Q83.9943,49.1193,83.4046,49.9532L85.0375,51.108ZM326.126,52.0241Q326.703,52.8259,327.297,53.6248L328.902,52.4317Q328.317,51.645,327.75,50.8564L326.126,52.0241ZM82.6694,54.3444Q83.2732,53.5458,83.858,52.747L82.2442,51.5656Q81.6687,52.3519,81.0742,53.1381L82.6694,54.3444ZM328.502,55.2202Q329.112,56.0156,329.74,56.8088L331.308,55.5676Q330.689,54.7859,330.088,54.0026L328.502,55.2202ZM80.1964,57.5139L81.4423,55.9416L79.8747,54.6995L78.6289,56.2718L80.1964,57.5139ZM331.014,58.3948L332.305,59.9546L333.846,58.6794L332.555,57.1196L331.014,58.3948ZM77.5948,60.654L78.9012,59.1002L77.3704,57.8131L76.064,59.3669L77.5948,60.654ZM333.629,61.5084L334.94,63.0059L336.445,61.6881L335.133,60.1907L333.629,61.5084ZM74.9489,63.6714L76.2738,62.1811L74.7792,60.8523L73.4542,62.3425L74.9489,63.6714ZM336.295,64.5104L337.654,65.9808L339.123,64.62299999999999L337.763,63.1526L336.295,64.5104ZM72.2103,66.6298L73.5819,65.1679L72.1234,63.7995L70.7517,65.2614L72.2103,66.6298ZM339.054,67.4549L340.456,68.8928L341.888,67.4966L340.486,66.0586L339.054,67.4549ZM69.4793,69.4296L70.7992,68.0943L69.3769,66.6883L68.0569,68.0236L67.9686,68.1118L69.3816,69.5272L69.4793,69.4296ZM341.896,70.3314L343.336,71.7317L344.73,70.2981L343.291,68.8978L341.896,70.3314ZM66.4866,72.3398L67.9355,70.9507L66.5514,69.507L65.1025,70.8961L66.4866,72.3398ZM344.811,73.1295L346.283,74.4867L347.639,73.0166L346.167,71.6593L344.811,73.1295ZM63.5226,75.0702L65.0022,73.7255L63.6571,72.2454L62.1775,73.5901L63.5226,75.0702ZM347.788,75.8384L349.286,77.1471L350.602,75.6409L349.104,74.3322L347.788,75.8384ZM60.4947,77.7119L62.0094,76.4086L60.705,74.8926L59.1903,76.1958L60.4947,77.7119ZM350.848,78.4733L352.408,79.7609L353.681,78.2183L352.121,76.9307L350.848,78.4733ZM57.3509,80.3028L58.9168,79.0314L57.6561,77.4788L56.0902,78.7502L57.3509,80.3028ZM353.994,81.0317Q354.788,81.658,355.583,82.2658L356.798,80.6771Q356.015,80.0779,355.233,79.4614L353.994,81.0317ZM54.1663,82.7735Q54.9628,82.1747,55.7594,81.5568L54.5335,79.9765Q53.7491,80.5851,52.9646,81.1747L54.1663,82.7735ZM357.178,83.4665Q357.984,84.0628,358.785,84.637L359.95,83.011Q359.159,82.4449,358.369,81.8593L357.178,83.4665ZM50.9138,85.1382Q51.7398,84.558,52.5674,83.956L51.3908,82.3386Q50.5764,82.9311,49.7643,83.5015L50.9138,85.1382ZM360.478,85.8276Q361.327,86.4137,362.174,86.9761L363.28,85.3102Q362.448,84.7573,361.614,84.1818L360.478,85.8276ZM47.522,87.4327Q48.3679,86.8825,49.2188,86.3069L48.0981,84.6504Q47.2629,85.2154,46.4316,85.756L47.522,87.4327ZM363.87,88.0807Q364.721,88.6238,365.565,89.1397L366.608,87.4332Q365.779,86.9266,364.945,86.3946L363.87,88.0807ZM44.1297,89.5486Q44.9746,89.0443,45.8251,88.5138L44.7666,86.8169Q43.9328,87.337,43.1048,87.8312L44.1297,89.5486ZM367.258,90.1515Q368.157,90.6761,369.048,91.17L370.018,89.4207Q369.146,88.9376,368.267,88.4243L367.258,90.1515ZM40.5789,91.5646Q41.4899,91.0743,42.4106,90.5506L41.4218,88.8122Q40.5217,89.3241,39.6311,89.8034L40.5789,91.5646ZM370.876,92.1546Q371.789,92.6328,372.694,93.0772L373.576,91.282Q372.695,90.8494,371.803,90.3825L370.876,92.1546ZM36.9404,93.4077Q37.8418,92.9803,38.7549,92.5177L37.851,90.7336Q36.9611,91.1845,36.0836,91.6006L36.9404,93.4077ZM374.503,93.9355Q375.407,94.3495,376.298,94.7272L377.078,92.8857Q376.213,92.5191,375.335,92.1171L374.503,93.9355ZM33.7562,94.8225Q34.4429,94.5385,35.1377,94.2324L34.3314,92.4021Q33.6576,92.699,32.9917,92.9744L32.556799999999996,93.1567L33.3299,95.0012L33.7562,94.8225ZM378.113,95.5029Q379.016,95.9066,379.901,96.3436L380.786,94.5501Q379.867,94.0963,378.929,93.677L378.113,95.5029ZM29.742,96.6884Q30.6189,96.2342,31.5145,95.8129L30.6633,94.0031Q29.7329,94.4408,28.8221,94.9126L29.742,96.6884ZM381.648,97.2474Q382.51,97.7143,383.352,98.213L384.371,96.4922Q383.496,95.974,382.601,95.489L381.648,97.2474ZM26.3404,98.6183Q27.1687,98.1056,28.017,97.6242L27.0299,95.8847Q26.1485,96.3849,25.2877,96.9178L26.3404,98.6183ZM385.011,99.2392Q385.836,99.7716,386.638,100.3339L387.787,98.6964Q386.953,98.1121,386.095,97.5586L385.011,99.2392ZM23.0918,100.806Q23.8911,100.2219,24.7127,99.6691L23.5962,98.0097Q22.7422,98.5843,21.9117,99.1913L23.0918,100.806ZM388.227,101.495Q389.009,102.09,389.767,102.714L391.039,101.171Q390.252,100.522,389.438,99.9031L388.227,101.495ZM20.0049,103.251Q20.7511,102.611,21.5212,102.001L20.2794,100.4335Q19.4791,101.067,18.7036,101.732L20.0049,103.251ZM391.257,103.991Q391.989,104.644,392.695,105.324L394.083,103.884Q393.349,103.177,392.588,102.498L391.257,103.991ZM17.1387,105.904Q17.8285,105.214,18.5438,104.552L17.1851,103.085Q16.4418,103.773,15.7249,104.489L17.1387,105.904ZM394.079,106.711Q394.757,107.417,395.408,108.15L396.903,106.821Q396.227,106.06,395.522,105.325L394.079,106.711ZM14.463,108.793Q15.1042,108.045,15.7735,107.322L14.3062,105.963Q13.6108,106.714,12.9445,107.491L14.463,108.793ZM396.682,109.641Q397.306,110.4,397.9,111.183L399.493,109.974Q398.876,109.161,398.228,108.372L396.682,109.641ZM12.0242,111.868Q12.6039,111.077,13.213,110.309L11.6458,109.066Q11.0128,109.865,10.41076,110.687L12.0242,111.868ZM399.06,112.775Q399.622,113.579,400.154,114.405L401.835,113.322Q401.283,112.464,400.699,111.629L399.06,112.775ZM9.82885,115.118Q10.34767,114.283,10.89763,113.469L9.2404,112.35Q8.66915,113.195,8.130189999999999,114.063L9.82885,115.118ZM401.178,116.063Q401.676,116.905,402.143,117.767L403.902,116.814Q403.417,115.919,402.899,115.045L401.178,116.063ZM7.88251,118.533Q8.33641,117.661,8.82282,116.808L7.08523,115.818Q6.57992,116.704,6.10857,117.609L7.88251,118.533ZM403.048,119.514Q403.486,120.399,403.891,121.303L405.716,120.484Q405.295,119.547,404.841,118.628L403.048,119.514ZM6.2026,122.082Q6.58878,121.179,7.0088,120.292L5.20112,119.436Q4.76488,120.357,4.36381,121.295L6.2026,122.082ZM404.67,123.13Q405.039,124.043,405.375,124.969L407.255,124.288Q406.907,123.326,406.523,122.379L404.67,123.13ZM4.7964,125.746Q5.1131,124.817,5.46484,123.9L3.59758,123.184Q3.23223,124.136,2.90333,125.101L4.7964,125.746ZM406.008,126.823Q406.308,127.759,406.572,128.703L408.498,128.16500000000002Q408.224,127.184,407.912,126.212L406.008,126.823ZM3.67098,129.51Q3.91649,128.559,4.19815,127.617L2.2819700000000003,127.044Q1.989447,128.022,1.734418,129.011L3.67098,129.51ZM407.064,130.604Q407.292,131.556,407.483,132.516L409.444,132.125Q409.246,131.129,409.01,130.139L407.064,130.604ZM2.83513,133.348Q3.00712,132.383,3.2158,131.424L1.2616100000000001,130.999Q1.0448311,131.994,0.866161,132.997L2.83513,133.348ZM407.83,134.451Q407.984,135.418,408.101,136.393L410.087,136.154Q409.965,135.142,409.805,134.136L407.83,134.451ZM2.29472,137.231Q2.39277,136.255,2.52813,135.282L0.547234,135.006Q0.40659599999999996,136.017,0.30472999999999995,137.031L2.29472,137.231ZM408.298,138.344Q408.378,139.322,408.419,140.303L410.417,140.218Q410.374,139.199,410.291,138.182L408.298,138.344ZM2.0521599999999998,141.161Q2.0749500000000003,140.176,2.13578,139.191L0.139586,139.068Q0.07638100000000003,140.091,0.05269199999999996,141.115L2.0521599999999998,141.161ZM408.465,142.263Q408.468,143.244,408.434,144.224L410.433,144.293Q410.469,143.274,410.465,142.255L408.465,142.263ZM2.1123000000000003,145.084Q2.0595499999999998,144.105,2.04451,143.125L0.044744000000000006,143.155Q0.06037899999999996,144.174,0.11519100000000004,145.192L2.1123000000000003,145.084ZM408.328,146.183Q408.256,147.16,408.146,148.135L410.133,148.36Q410.247,147.347,410.322,146.33L408.328,146.183ZM2.4739199999999997,148.989Q2.34632,148.02,2.25605,147.046L0.264594,147.231Q0.358413,148.243,0.491028,149.25L2.4739199999999997,148.989ZM407.889,150.079Q407.741,151.05,407.556,152.015L409.52,152.391Q409.713,151.388,409.866,150.38L407.889,150.079ZM3.13588,152.858Q2.93324,151.898,2.76785,150.931L0.7964990000000001,151.269Q0.9683931,152.273,1.178974,153.271L3.13588,152.858ZM407.15,153.931Q406.928,154.887,406.67,155.834L408.6,156.36Q408.868,155.376,409.098,154.383L407.15,153.931ZM4.09387,156.667Q3.81685,155.721,3.57676,154.766L1.637118,155.253Q1.886603,156.246,2.17442,157.229L4.09387,156.667ZM406.118,157.719Q405.825,158.652,405.496,159.575L407.381,160.246Q407.722,159.288,408.026,158.318L406.118,157.719ZM5.3358,160.38Q4.9891000000000005,159.461,4.67822,158.531L2.78147,159.165Q3.10435,160.131,3.46446,161.086L5.3358,160.38ZM404.549,162.039Q404.305,162.626,404.07,163.228L405.932,163.958Q406.161,163.372,406.396,162.805L406.657,162.163L404.804,161.41L404.549,162.039ZM6.77757,164.035Q6.42931,163.106,6.06467,162.212L4.2128,162.967Q4.566549999999999,163.834,4.904669999999999,164.737L6.77757,164.035ZM403.374,165.08Q403.037,166.016,402.716,166.986L404.615,167.614Q404.927,166.67,405.256,165.757L403.374,165.08ZM8.08948,167.848Q7.77929,166.866,7.45245,165.915L5.5612,166.566Q5.87975,167.492,6.18221,168.45L8.08948,167.848ZM402.096,168.944Q401.796,169.935,401.514,170.952L403.442,171.486Q403.717,170.492,404.01,169.524L402.096,168.944ZM9.242,171.83Q8.97371,170.817,8.68881,169.832L6.76753,170.387Q7.04607,171.351,7.30865,172.342L9.242,171.83ZM400.999,172.889Q400.758,173.838,400.529,174.816L402.476,175.271Q402.7,174.315,402.937,173.383L400.999,172.889ZM10.1799,175.683Q9.9607,174.7,9.7268,173.739L7.78352,174.212Q8.01281,175.154,8.22784,176.118L10.1799,175.683ZM400.088,176.786L399.685,178.76L401.645,179.161L402.048,177.186L400.088,176.786ZM10.98957,179.659L10.60312,177.669L8.63979,178.05L9.02625,180.041L10.98957,179.659ZM399.306,180.8L398.971,182.797L400.943,183.129L401.279,181.131L399.306,180.8ZM11.6618,183.669L11.3509,181.712L9.37563,182.026L9.68658,183.983L11.6618,183.669ZM398.671,184.778L398.404,186.747L400.386,187.016L400.653,185.046L398.671,184.778ZM12.1978,187.639L11.946,185.66L9.96198,185.912L10.21381,187.891L12.1978,187.639ZM398.162,188.765L397.951,190.77L399.94,190.979L400.151,188.974L398.162,188.765ZM12.6209,191.677L12.425,189.665L10.43438,189.859L10.63028,191.871L12.6209,191.677ZM397.765,192.817L397.612,194.814L399.607,194.967L399.759,192.97L397.765,192.817ZM12.9274,195.707L12.7906,193.723L10.79531,193.861L10.93209,195.844L12.9274,195.707ZM397.486,196.83L397.388,198.826L399.386,198.924L399.484,196.928L397.486,196.83ZM13.1228,199.726L13.0391,197.726L11.0409,197.81L11.1246,199.81L13.1228,199.726ZM397.316,200.855L397.271,202.862L399.27,202.906L399.315,200.9L397.316,200.855ZM13.2115,203.765L13.1808,201.757L11.181,201.788L11.2117,203.795L13.2115,203.765ZM397.252,205.273L397.26,206.907L399.26,206.897L399.252,205.262L399.252,204.894L397.252,204.891L397.252,205.273ZM13.1933,207.809L13.2157,205.801L11.2158,205.778L11.1934,207.787L13.1933,207.809ZM397.295,208.94L397.356,210.944L399.355,210.883L399.294,208.879L397.295,208.94ZM13.0683,211.843L13.1437,209.841L11.1452,209.766L11.0697,211.768L13.0683,211.843ZM397.445,212.97L397.559,214.961L399.556,214.847L399.442,212.855L397.445,212.97ZM12.8365,215.853L12.965,213.865L10.96916,213.736L10.84068,215.723L12.8365,215.853ZM397.702,216.971L397.874,218.994L399.867,218.825L399.695,216.801L397.702,216.971ZM12.4901,219.9L12.6772,217.883L10.6857,217.698L10.49862,219.715L12.4901,219.9ZM398.077,221.033L398.305,223.028L400.292,222.801L400.064,220.806L398.077,221.033ZM12.0289,223.917L12.2719,221.932L10.28672,221.689L10.04372,223.675L12.0289,223.917ZM398.565,225.035L398.849,226.991L400.828,226.704L400.544,224.747L398.565,225.035ZM11.4549,227.861L11.7538,225.915L9.77695,225.611L9.47803,227.557L11.4549,227.861ZM399.171,228.991L399.531,231.007L401.5,230.655L401.14,228.64L399.171,228.991ZM10.73076,231.903L11.1072,229.902L9.14171,229.532L8.76525,231.533L10.73076,231.903ZM399.927,233.019Q400.133,234.015,400.354,234.992L402.304,234.552Q402.088,233.593,401.886,232.615L399.927,233.019ZM9.87488,235.857Q10.10367,234.889,10.31779,233.9L8.36306,233.477Q8.15301,234.447,7.92857,235.397L9.87488,235.857ZM400.811,236.932Q401.049,237.895,401.301,238.836L403.233,238.318Q402.986,237.396,402.753,236.453L400.811,236.932ZM8.875119999999999,239.732Q9.14549,238.768,9.4003,237.779L7.46351,237.28Q7.21405,238.249,6.94951,239.192L8.875119999999999,239.732ZM401.865,240.849Q402.159,241.853,402.47,242.826L404.375,242.217Q404.072,241.267,403.784,240.287L401.865,240.849ZM7.66375,243.685Q7.98436,242.725,8.28825,241.733L6.37598,241.147Q6.07944,242.115,5.76674,243.051L7.66375,243.685ZM403.113,244.752Q403.445,245.706,403.793,246.625L405.663,245.916Q405.324,245.022,405.001,244.094L403.113,244.752ZM6.30125,247.429Q6.65945,246.525,7.00147,245.585L5.12194,244.901Q4.7897,245.814,4.44172,246.693L6.30125,247.429ZM404.533,248.492Q404.9,249.38,405.233,250.279L407.108,249.583Q406.762,248.65,406.381,247.728L406.36,247.677Q406.323,247.586,406.268,247.504L405.436,248.059L404.512,248.441L404.533,248.492ZM4.880660000000001,251.091Q5.20574,250.163,5.56649,249.246L3.70535,248.514Q3.33072,249.466,2.99309,250.43L4.880660000000001,251.091ZM405.88,252.129Q406.185,253.059,406.454,254L408.377,253.448Q408.097,252.471,407.78,251.506L405.88,252.129ZM3.72633,254.838Q3.97991,253.887,4.26997,252.947L2.3587499999999997,252.357Q2.05738,253.335,1.793945,254.322L3.72633,254.838ZM406.961,255.902Q407.194,256.852,407.391,257.811L409.35,257.408Q409.146,256.413,408.903,255.425L406.961,255.902ZM2.86207,258.658Q3.04106,257.697,3.25679,256.743L1.3060640000000001,256.302Q1.0818733,257.293,0.895886,258.292L2.86207,258.658ZM407.749,259.742Q407.91,260.711,408.033,261.684L410.017,261.433Q409.889,260.421,409.722,259.415L407.749,259.742ZM2.29231,262.543Q2.39704,261.569,2.5390800000000002,260.6L0.560223,260.31Q0.412598,261.317,0.303774,262.329L2.29231,262.543ZM408.241,263.629Q408.327,264.608,408.375,265.592L410.372,265.494Q410.322,264.473,410.233,263.454L408.241,263.629ZM2.0232,266.458Q2.0528,265.477,2.12013,264.497L0.124838,264.36Q0.05487399999999998,265.378,0.02411300000000005,266.398L2.0232,266.458ZM408.433,267.551Q408.443,268.533,408.416,269.516L410.415,269.572Q410.443,268.549,410.433,267.53L408.433,267.551ZM2.05587,270.388Q2.00975,269.402,2.0017,268.415L0.0017660000000000453,268.431Q0.010129000000000055,269.457,0.05805400000000005,270.482L2.05587,270.388ZM408.323,271.485Q408.258,272.467,408.155,273.445L410.144,273.654Q410.251,272.636,410.318,271.618L408.323,271.485ZM2.38993,274.306Q2.26904,273.331,2.1855700000000002,272.353L0.192805,272.523Q0.27952600000000005,273.539,0.405118,274.552L2.38993,274.306ZM407.913,275.392Q407.774,276.362,407.597,277.325L409.565,277.684Q409.748,276.683,409.893,275.676L407.913,275.392ZM3.0192,278.172Q2.8253399999999997,277.212,2.6680900000000003,276.247L0.6940839999999999,276.568Q0.85742,277.571,1.0588044,278.568L3.0192,278.172ZM407.208,279.248Q406.995,280.209,406.745,281.16L408.68,281.667Q408.939,280.679,409.161,279.682L407.208,279.248ZM3.944,281.995Q3.67656,281.048,3.44541,280.093L1.501502,280.563Q1.741597,281.555,2.01936,282.538L3.944,281.995ZM406.21,283.051Q405.925,283.991,405.604,284.919L407.495,285.572Q407.828,284.608,408.124,283.631L406.21,283.051ZM5.1543,285.731Q4.81654,284.809,4.51393,283.875L2.61127,284.491Q2.92547,285.461,3.27634,286.419L5.1543,285.731ZM404.929,286.762Q404.573,287.677,404.184,288.578L406.019,289.372Q406.424,288.437,406.793,287.486L404.929,286.762ZM6.64289,289.363Q6.23658,288.469,5.86423,287.561L4.01363,288.319Q4.40041,289.263,4.822290000000001,290.191L6.64289,289.363ZM403.371,290.365Q402.947,291.251,402.49,292.121L404.26,293.051Q404.735,292.149,405.175,291.228L403.371,290.365ZM8.40268,292.874Q7.92973,292.013,7.48932,291.134L5.70138,292.031Q6.15873,292.943,6.64996,293.837L8.40268,292.874ZM401.543,293.842Q401.053,294.695,400.531,295.528L402.226,296.59Q402.768,295.725,403.277,294.839L401.543,293.842ZM10.42649,296.246Q9.88851,295.422,9.38202,294.578L7.66716,295.607Q8.19331,296.484,8.752040000000001,297.339L10.42649,296.246ZM399.457,297.172Q398.905,297.982,398.324,298.769L399.933,299.957Q400.537,299.139,401.11,298.298L399.457,297.172ZM12.6917,299.442Q12.0951,298.664,11.5283,297.865L9.89658,299.021Q10.48541,299.852,11.1052,300.659L12.6917,299.442ZM397.129,300.325Q396.515,301.094,395.873,301.837L397.387,303.144Q398.054,302.371,398.692,301.573L397.129,300.325ZM15.2024,302.466Q14.5454,301.733,13.9167,300.976L12.3779,302.253Q13.0312,303.04,13.7138,303.801L15.2024,302.466ZM394.557,303.303Q393.886,304.022,393.189,304.714L394.597,306.134Q395.323,305.414,396.019,304.668L394.557,303.303ZM17.934,305.285Q17.2279,304.61,16.548000000000002,303.908L15.112,305.3Q15.8185,306.029,16.5522,306.73L17.934,305.285ZM391.778,306.061Q391.057,306.723,390.311,307.358L391.607,308.881Q392.383,308.221,393.131,307.534L391.778,306.061ZM20.8658,307.878Q20.1071,307.257,19.3721,306.607L18.0468,308.105Q18.8106,308.781,19.5991,309.426L20.8658,307.878ZM388.79,308.602Q388.013,309.213,387.214,309.792L388.388,311.411Q389.219,310.809,390.026,310.175L388.79,308.602ZM24.0164,310.259Q23.2036,309.693,22.4142,309.096L21.2083,310.692Q22.029,311.312,22.8735,311.9L24.0164,310.259ZM385.593,310.92Q384.787,311.458,383.96,311.965L385.007,313.67Q385.866,313.142,386.703,312.583L385.593,310.92ZM27.2958,312.361Q26.4573,311.868,25.6392,311.343L24.5599,313.027Q25.4101,313.572,26.2814,314.085L27.2958,312.361ZM382.279,312.954Q381.424,313.435,380.549,313.884L381.462,315.663Q382.371,315.197,383.259,314.697L382.279,312.954ZM30.7542,314.222Q29.8685,313.788,29.001,313.322L28.0531,315.083Q28.9537,315.567,29.8743,316.018L30.7542,314.222ZM378.772,314.753Q377.868,315.173,376.948,315.56L377.722,317.404Q378.678,317.003,379.616,316.566L378.772,314.753ZM33.7113,315.558Q33.1299,315.317,32.554500000000004,315.062L31.7442,316.89Q32.3418,317.155,32.9453,317.405L33.5932,317.678L34.3686,315.834L33.7113,315.558ZM375.149,316.329Q374.253,316.727,373.345,317.16L374.207,318.965Q375.091,318.543,375.961,318.157L375.149,316.329ZM37.9807,317.5Q37.0694,317.049,36.171,316.635L35.3333,318.451Q36.2074,318.854,37.0946,319.293L37.9807,317.5ZM371.53,318.057Q370.623,318.519,369.705,319.017L370.657,320.775Q371.553,320.29,372.438,319.839L371.53,318.057ZM41.6293,319.419Q40.7096,318.907,39.8008,318.428L38.8696,320.198Q39.7576,320.666,40.6559,321.166L41.6293,319.419ZM367.872,320.037Q367.024,320.522,366.168,321.035L367.196,322.75Q368.036,322.247,368.865,321.773L367.872,320.037ZM45.0983,321.45Q44.2478,320.928,43.4043,320.434L42.3927,322.159Q43.2194,322.644,44.0523,323.155L45.0983,321.45ZM364.472,322.074Q363.626,322.604,362.775,323.16L363.868,324.835Q364.702,324.29,365.534,323.769L364.472,322.074ZM48.491,323.622Q47.641,323.056,46.7944,322.514L45.7159,324.198Q46.5471,324.73,47.3816,325.286L48.491,323.622ZM361.078,324.29Q360.232,324.864,359.383,325.463L360.535,327.097Q361.37,326.509,362.201,325.944L361.078,324.29ZM51.8765,325.967Q51.0305,325.359,50.1865,324.775L49.0477,326.419Q49.8778,326.994,50.7097,327.591L51.8765,325.967ZM357.739,326.642Q356.937,327.227,356.14,327.828L357.344,329.425Q358.13,328.832,358.917,328.257L357.739,326.642ZM55.0721,328.34Q54.2757,327.729,53.477,327.136L52.2846,328.742Q53.0693,329.324,53.8551,329.927L55.0721,328.34ZM354.547,329.047Q353.754,329.665,352.962,330.3L354.213,331.86Q354.992,331.235,355.775,330.626L354.547,329.047ZM58.235,330.841L56.6663,329.581L55.414,331.141L56.9828,332.401L58.235,330.841ZM351.38,331.587L349.825,332.891L351.109,334.424L352.665,333.12L351.38,331.587ZM61.3516,333.457L59.8168,332.15L58.5202,333.672L60.055,334.979L61.3516,333.457ZM348.294,334.211L346.802,335.534L348.129,337.031L349.621,335.708L348.294,334.211ZM64.3538,336.122L62.8694,334.786L61.5315,336.272L63.0159,337.608L64.3538,336.122ZM345.303,336.899L343.84,338.268L345.206,339.729L346.67,338.359L345.303,336.899ZM67.2984,338.88L65.8437,337.499L64.4665,338.949L65.9212,340.331L67.2984,338.88ZM341.022,341.009L340.939,341.093L342.352,342.508L342.435,342.424L343.778,341.101L342.373,339.677L341.022,341.009ZM69.5015,341.044L68.753,340.299L67.3423,341.717L68.0908,342.461L68.7574,343.134L70.1775,341.725L69.5015,341.044ZM339.513,342.537L338.122,343.984L339.564,345.37L340.955,343.923L339.513,342.537ZM72.9731,344.638L71.5937,343.182L70.1416,344.557L71.5209,346.013L72.9731,344.638ZM336.734,345.467L335.387,346.945L336.865,348.292L338.212,346.814L336.734,345.467ZM75.6821,347.616L74.3484,346.13L72.86,347.466L74.1936,348.952L75.6821,347.616ZM334.046,348.456L332.742,349.967L334.257,351.274L335.561,349.763L334.046,348.456ZM78.3149,350.673L77.0089,349.135L75.4843,350.43L76.7903,351.968L78.3149,350.673ZM331.42,351.544L330.146,353.109L331.697,354.372L332.971,352.807L331.42,351.544ZM80.8779,353.827L79.6208,352.257L78.0595,353.506L79.3166,355.077L80.8779,353.827ZM328.89,354.699Q328.27,355.496,327.671,356.291L329.268,357.495Q329.858,356.712,330.469,355.927L328.89,354.699ZM83.3177,357.019Q82.7267,356.22,82.1168,355.422L80.5278,356.637Q81.1278,357.422,81.7101,358.209L83.3177,357.019ZM326.486,357.889Q325.884,358.714,325.304,359.537L326.939,360.689Q327.509,359.879,328.101,359.068L326.486,357.889ZM85.6756,360.316Q85.0912,359.469,84.4847,358.622L82.8584,359.786Q83.4553,360.62,84.0295,361.452L85.6756,360.316ZM324.132,361.232Q323.556,362.081,323.003,362.928L324.678,364.021Q325.222,363.187,325.787,362.355L324.132,361.232ZM87.9294,363.71Q87.3893,362.863,86.8244,362.012L85.1583,363.119Q85.7126,363.953,86.2431,364.785L87.9294,363.71ZM321.919,364.625Q321.387,365.474,320.881,366.32L322.597,367.347Q323.093,366.519,323.615,365.686L321.919,364.625ZM90.0015,367.102Q89.5082,366.257,88.989,365.407L87.2823,366.45Q87.7913,367.283,88.2742,368.11L90.0015,367.102ZM319.88,368.032Q319.355,368.952,318.863,369.864L320.623,370.814Q321.103,369.924,321.617,369.023L319.88,368.032ZM92.0014,370.714Q91.5255,369.804,91.0157,368.885L89.2665,369.854Q89.7644,370.752,90.2293,371.641L92.0014,370.714ZM317.906,371.688Q317.442,372.601,317.013,373.503L318.819,374.362Q319.237,373.484,319.689,372.594L317.906,371.688ZM93.7847,374.345Q93.3726,373.445,92.9251,372.535L91.13,373.416Q91.5657,374.303,91.9665,375.178L93.7847,374.345ZM315.562,376.761L315.416,377.11L317.261,377.883L317.407,377.533Q317.7,376.826,318.014,376.115L316.185,375.306Q315.861,376.04,315.562,376.761ZM94.8195,376.72L94.5798,376.147L92.7348,376.919L92.9744,377.492Q93.2413,378.136,93.5261,378.776L95.3533,377.963Q95.0795,377.347,94.8195,376.72ZM314.606,378.928Q314.186,379.824,313.732,380.702L315.509,381.62Q315.98,380.708,316.417,379.777L314.606,378.928ZM97.0986,381.512Q96.6303,380.645,96.1953,379.761L94.4006,380.643Q94.8528,381.563,95.3391,382.462L97.0986,381.512ZM312.798,382.429Q312.318,383.278,311.806,384.107L313.508,385.158Q314.04,384.297,314.539,383.414L312.798,382.429ZM99.0818,384.869Q98.5557,384.052,98.0614,383.215L96.3394,384.232Q96.853,385.101,97.3998,385.951L99.0818,384.869ZM310.757,385.737Q310.206,386.558,309.623,387.357L311.24,388.535Q311.845,387.705,312.418,386.851L310.757,385.737ZM101.335,388.092Q100.7374,387.304,100.1704,386.492L98.531,387.638Q99.1205,388.481,99.7417,389.301L101.335,388.092ZM308.43,388.93Q307.82,389.702,307.182,390.448L308.703,391.747Q309.366,390.971,309.999,390.17L308.43,388.93ZM103.829,391.129Q103.178,390.396,102.555,389.638L101.01,390.907Q101.657,391.695,102.333,392.457L103.829,391.129ZM305.882,391.911Q305.221,392.628,304.532,393.318L305.949,394.73Q306.664,394.013,307.352,393.268L305.882,391.911ZM106.533,393.95Q105.83,393.271,105.154,392.565L103.71,393.949Q104.413,394.682,105.143,395.388L106.533,393.95ZM303.117,394.685Q302.395,395.355,301.648,395.997L302.951,397.514Q303.728,396.846,304.478,396.15L303.117,394.685ZM109.469,396.577Q108.711,395.95,107.978,395.293L106.644,396.784Q107.406,397.466,108.194,398.117L109.469,396.577ZM300.133,397.249Q299.365,397.859,298.575,398.44L299.759,400.052Q300.58,399.449,301.378,398.815L300.133,397.249ZM204.668,397.259L202.659,397.279L202.679,399.279L204.687,399.259L204.668,397.259ZM208.711,397.3L206.703,397.266L206.67,399.266L208.678,399.299L208.711,397.3ZM200.627,397.326L198.625,397.398L198.697,399.397L200.699,399.324L200.627,397.326ZM212.741,397.447L210.742,397.36L210.656,399.358L212.655,399.445L212.741,397.447ZM196.602,397.499L194.614,397.624L194.74,399.62L196.728,399.495L196.602,397.499ZM216.743,397.701L214.76,397.561L214.62,399.556L216.603,399.696L216.743,397.701ZM192.586,397.781L190.568,397.965L190.75,399.956L192.768,399.772L192.586,397.781ZM112.584,398.961Q111.784,398.395,111.005,397.799L109.789,399.388Q110.597,400.006,111.429,400.594L112.584,398.961ZM220.803,398.072L218.792,397.874L218.595,399.864L220.606,400.063L220.803,398.072ZM188.535,398.18L186.548,398.42L186.788,400.405L188.775,400.165L188.535,398.18ZM224.806,398.557L222.828,398.303L222.573,400.286L224.551,400.541L224.806,398.557ZM184.55,398.692L182.602,398.988L182.902,400.965L184.85,400.669L184.55,398.692ZM228.757,399.159L226.795,398.845L226.478,400.819L228.44,401.134L228.757,399.159ZM180.566,399.331L178.563,399.704L178.929,401.67L180.932,401.297L180.566,399.331ZM232.796,399.914L230.808,399.524L230.423,401.487L232.411,401.876L232.796,399.914ZM296.975,399.569Q296.161,400.121,295.328,400.64L296.386,402.337Q297.252,401.797,298.097,401.225L296.975,399.569ZM115.873,401.103Q115.029,400.598,114.204,400.06L113.113,401.736Q113.968,402.294,114.847,402.819L115.873,401.103ZM176.563,400.113Q175.574,400.325,174.604,400.553L175.061,402.5Q176.013,402.277,176.983,402.069L176.563,400.113ZM236.722,400.797Q235.765,400.562,234.78,400.34L234.341,402.292Q235.303,402.508,236.245,402.739L236.722,400.797ZM172.68,401.024Q171.696,401.275,170.734,401.543L171.27,403.469Q172.212,403.207,173.174,402.962L172.68,401.024ZM240.632,401.845Q239.645,401.557,238.628,401.285L238.112,403.217Q239.108,403.483,240.072,403.765L240.632,401.845ZM293.64,401.648Q292.787,402.136,291.916,402.591L292.842,404.364Q293.746,403.892,294.633,403.385L293.64,401.648ZM119.319,402.991Q118.44,402.552,117.579,402.08L116.618,403.834Q117.513,404.324,118.425,404.78L119.319,402.991ZM168.729,402.125Q167.737,402.427,166.774,402.746L167.403,404.644Q168.341,404.334,169.311,404.039L168.729,402.125ZM244.542,403.089Q243.594,402.76,242.613,402.448L242.006,404.354Q242.963,404.659,243.887,404.979L244.542,403.089ZM164.87,403.404Q163.928,403.744,163.021,404.1L163.752,405.962Q164.632,405.616,165.549,405.285L164.87,403.404ZM290.159,403.467Q289.272,403.889,288.37,404.276L289.159,406.114Q290.097,405.711,291.017,405.274L290.159,403.467ZM248.238,404.486Q247.346,404.119,246.419,403.768L245.712,405.639Q246.613,405.979,247.478,406.335L248.238,404.486ZM122.895,404.612Q121.986,404.24,121.092,403.835L120.266,405.657Q121.195,406.078,122.139,406.463L122.895,404.612ZM161.204,404.835Q160.287,405.199,159.36,405.526L160.027,407.412Q160.989,407.072,161.942,406.693L161.204,404.835ZM286.552,405.017Q285.636,405.37,284.707,405.688L285.355,407.58Q286.32,407.25,287.271,406.883L286.552,405.017ZM251.921,405.866Q250.989,405.556,250.072,405.212L249.369,407.085Q250.323,407.442,251.29,407.764L251.921,405.866ZM126.583,405.957Q125.649,405.656,124.726,405.319L124.04,407.198Q125,407.548,125.969,407.861L126.583,405.957ZM157.506,406.143Q156.568,406.435,155.618,406.691L156.139,408.622Q157.125,408.356,158.101,408.052L157.506,406.143ZM282.837,406.289Q281.895,406.573,280.945,406.819L281.448,408.755Q282.435,408.499,283.413,408.205L282.837,406.289ZM255.689,406.96Q254.734,406.722,253.788,406.447L253.229,408.367Q254.213,408.653,255.205,408.901L255.689,406.96ZM130.366,407.021Q129.41,406.791,128.464,406.525L127.923,408.45Q128.905,408.726,129.899,408.965L130.366,407.021ZM153.713,407.166Q152.761,407.384,151.801,407.565L152.172,409.531Q153.171,409.342,154.16,409.116L153.713,407.166ZM279.032,407.278Q278.073,407.488,277.109,407.662L277.463,409.63Q278.464,409.45,279.461,409.231L279.032,407.278ZM259.525,407.761Q258.557,407.598,257.597,407.397L257.188,409.355Q258.185,409.563,259.192,409.733L259.525,407.761ZM134.213,407.793Q133.246,407.637,132.287,407.444L131.894,409.405Q132.89,409.605,133.895,409.767L134.213,407.793ZM149.859,407.893Q148.89,408.037,147.917,408.144L148.135,410.132Q149.146,410.021,150.154,409.871L149.859,407.893ZM275.175,407.972Q274.203,408.109,273.227,408.209L273.43,410.198Q274.444,410.095,275.454,409.952L275.175,407.972ZM263.411,408.266Q262.437,408.177,261.468,408.051L261.21,410.035Q262.217,410.165,263.23,410.257L263.411,408.266ZM138.108,408.269Q137.13,408.187,136.154,408.068L135.911,410.053Q136.924,410.177,137.941,410.262L138.108,408.269ZM145.963,408.32Q144.983,408.39,144.002,408.421L144.066,410.42Q145.087,410.387,146.104,410.315L145.963,408.32ZM271.267,408.371Q270.282,408.434,269.297,408.458L269.347,410.458Q270.37,410.432,271.394,410.367L271.267,408.371ZM142.045,408.446Q141.06,408.44,140.073,408.396L139.983,410.394Q141.01,410.44,142.032,410.446L142.045,408.446ZM267.333,408.47Q266.352,408.456,265.373,408.406L265.27,410.403Q266.287,410.456,267.306,410.47L267.333,408.47Z" fill-rule="evenodd" fill="#0053C4" fill-opacity="0.21960784494876862"/></g></svg>