<svg xmlns="http://www.w3.org/2000/svg" width="429.43" height="429.457" viewBox="0 0 429.43 429.457">
  <g id="组_8615" data-name="组 8615" transform="translate(1.161 1.161)">
    <path id="路径_61211" data-name="路径 61211" d="M97.236,33.8C87.166,58.077,58.144,87.093,33.853,97.142A54.81,54.81,0,0,0,4.21,168.684C14.248,192.971,14.238,234,4.168,258.3a54.874,54.874,0,0,0,29.637,71.6c24.292,10.06,53.308,39.086,63.336,63.394a54.841,54.841,0,0,0,71.553,29.648c24.3-10.044,65.353-10.044,89.628.027A54.844,54.844,0,0,0,329.9,393.329c10.044-24.276,39.1-53.287,63.389-63.336a54.884,54.884,0,0,0,29.648-71.6c-10.049-24.276-10.049-65.326.016-89.6a54.88,54.88,0,0,0-29.616-71.548c-24.276-10.06-53.281-39.1-63.346-63.4A54.848,54.848,0,0,0,258.428,4.19c-24.281,10.065-65.332,10.049-89.623-.021A54.84,54.84,0,0,0,97.236,33.8" transform="translate(0 0)" fill="#f3f6fa" stroke="#0053c4" stroke-width="2" stroke-dasharray="2 2" opacity="0.191"/>
    <path id="路径_61212" data-name="路径 61212" d="M89.858,31.236C80.552,53.67,53.733,80.485,31.284,89.771A50.651,50.651,0,0,0,3.891,155.885c9.277,22.444,9.267,60.36-.039,82.813A50.711,50.711,0,0,0,31.24,304.862c22.449,9.3,49.263,36.121,58.53,58.584a50.68,50.68,0,0,0,66.124,27.4c22.458-9.282,60.394-9.282,82.828.025a50.682,50.682,0,0,0,66.144-27.384c9.282-22.434,36.131-49.244,58.579-58.53a50.72,50.72,0,0,0,27.4-66.163c-9.287-22.434-9.287-60.37.015-82.8a50.716,50.716,0,0,0-27.369-66.119c-22.434-9.3-49.239-36.135-58.54-58.589A50.686,50.686,0,0,0,238.82,3.872c-22.439,9.3-60.375,9.287-82.823-.02A50.679,50.679,0,0,0,89.858,31.236" transform="translate(15.709 16.381)" fill="#fff" stroke="rgba(0,83,196,0.22)" stroke-width="2" stroke-dasharray="2 2"/>
  </g>
</svg>
