<svg xmlns="http://www.w3.org/2000/svg" width="17.986" height="17.986" viewBox="0 0 17.986 17.986">
  <g id="组_2551" data-name="组 2551" transform="translate(-1639.858 -73.493)">
    <path id="路径_2" data-name="路径 2" d="M200.482,224.265a8.137,8.137,0,1,1,5.751-2.386A8.252,8.252,0,0,1,200.482,224.265Zm0-14.709a6.553,6.553,0,1,0,4.616,1.917,6.542,6.542,0,0,0-4.616-1.917Z" transform="translate(1447.503 -134.508)" fill="#fff"/>
    <path id="路径_3" data-name="路径 3" d="M651.806,668.233a.772.772,0,0,1-.548-.235l-3.912-3.912a.775.775,0,0,1,1.1-1.1l3.912,3.912a.756.756,0,0,1,0,1.1A.772.772,0,0,1,651.806,668.233Z" transform="translate(1005.255 -576.755)" fill="#fff"/>
  </g>
</svg>
