<svg id="组件_16_1" data-name="组件 16 – 1" xmlns="http://www.w3.org/2000/svg" width="41.273" height="41.273" viewBox="0 0 41.273 41.273">
  <g id="组_8860" data-name="组 8860">
    <circle id="椭圆_687" data-name="椭圆 687" cx="20.636" cy="20.636" r="20.636" transform="translate(0 0)" fill="#004098" opacity="0.1"/>
  </g>
  <path id="shipinhao" d="M35.963,102.486c1.888-.567,4.154,1.626,7.754,7.5.4.66.751,1.2.77,1.2s.384-.571.809-1.27c3.58-5.873,5.847-8.031,7.773-7.4,1.223.4,1.739,1.583,1.735,3.972-.009,4.648-2.243,11.931-4.067,13.257-1.5,1.091-3.745-.283-5.837-3.576a4.085,4.085,0,0,0-.42-.6,3.878,3.878,0,0,0-.41.594,9.724,9.724,0,0,1-3.613,3.692,2.777,2.777,0,0,1-1.957.07c-1.127-.605-2.4-3.234-3.378-7C33.552,106.91,33.858,103.119,35.963,102.486Zm15.779,2.394c-1.2.929-2.736,3-4.992,6.7l-1.065,1.748.365.653a13.131,13.131,0,0,0,2.829,3.692c.579.453.77.358,1.276-.638,1.59-3.127,2.946-9.533,2.5-11.836C52.524,104.509,52.315,104.436,51.742,104.88Zm-15.24-.2c-.427.422-.316,3.154.238,5.881.668,3.293,2.075,7.123,2.693,7.338.6.209,2.256-1.683,3.556-4.067l.284-.522-.912-1.5c-2.444-4.009-4.037-6.151-5.209-7C36.791,104.554,36.66,104.527,36.5,104.683Z" transform="translate(-23.831 -90.623)" fill="#004098"/>
</svg>
