<svg xmlns="http://www.w3.org/2000/svg" xmlns:xlink="http://www.w3.org/1999/xlink" fill="none" version="1.1" width="25.113540649414062" height="5.9187469482421875" viewBox="0 0 25.113540649414062 5.9187469482421875"><g><path d="M24.9008,2.64352C24.9008,2.64352,24.2202,2.1153,24.2202,2.1153C24.0765,1.98758,23.876,1.91516,23.6662,1.91516C23.4563,1.91516,23.2558,1.98758,23.1122,2.1153C23.1122,2.1153,22.9539,2.24731,22.9539,2.24731C20.3505,4.39923,16.1551,4.39923,13.5517,2.24731C11.8322,0.808563,9.49716,0,7.06198,0C4.62677,0,2.29169,0.808563,0.572235,2.24731C0.572235,2.24731,0.239838,2.52466,0.239838,2.52466C0.0868225,2.6445,0,2.8118,0,2.98688C0,3.16199,0.0868225,3.32928,0.239838,3.4491C0.239838,3.4491,0.904633,3.96414,0.904633,3.96414C1.21774,4.21744,1.71533,4.21744,2.02844,3.96414C2.02844,3.96414,2.36087,3.68683,2.36087,3.68683C4.95712,1.52045,9.16678,1.52045,11.7631,3.68686C13.4846,5.12112,15.8199,5.92426,18.2528,5.9187C20.686,5.92572,23.022,5.12234,24.7425,3.68683C24.7425,3.68683,24.9008,3.55478,24.9008,3.55478C25.1844,3.29712,25.1844,2.90118,24.9008,2.64352C24.9008,2.64352,24.9008,2.64352,24.9008,2.64352Z" fill="#FFFFFF" fill-opacity="1"/></g></svg>