<svg xmlns="http://www.w3.org/2000/svg" width="44.79" height="44.79" viewBox="0 0 44.79 44.79">
  <g id="组_8036" data-name="组 8036" transform="translate(-797.937 -191.325)">
    <circle id="椭圆_686" data-name="椭圆 686" cx="22.395" cy="22.395" r="22.395" transform="translate(797.937 191.325)" fill="#004098" opacity="0.1"/>
    <path id="微博" d="M62.544,133.139c0,.412-.412.618-.824.618a1.132,1.132,0,0,1-1.029-.618.626.626,0,0,1,0-.824,5.187,5.187,0,0,0-1.235-5.353,5.351,5.351,0,0,0-5.147-1.647,1.238,1.238,0,0,1-.824-.206.546.546,0,0,1-.618-.618c-.206-.618.206-1.029.824-1.235a7.316,7.316,0,0,1,7.206,2.265,7.6,7.6,0,0,1,1.647,7.618Zm-7.618-4.118a.756.756,0,0,1-.618-.206c-.206-.206-.412-.412-.412-.618-.206-.412.206-1.029.824-1.029a3.771,3.771,0,0,1,3.5,1.235,4.075,4.075,0,0,1,.824,3.706c0,.206-.206.412-.412.618s-.412.206-.824,0a1,1,0,0,1-.618-1.235,2.1,2.1,0,0,0-.412-1.853,1.761,1.761,0,0,0-1.853-.618Zm.824,5.353c1.647.412,3.5,1.853,3.5,3.912,0,3.706-5.147,8.235-12.97,8.235-5.971,0-12.147-2.882-12.147-7.618,0-2.471,1.647-5.353,4.323-8.029,3.706-3.706,7.823-5.353,9.47-3.706a3.411,3.411,0,0,1,.412,3.294c-.412.618.618.206.618.206,2.882-1.235,5.559-1.235,6.382,0a3.438,3.438,0,0,1,0,2.882c-.206.618,0,.618.412.824Zm-9.47,10.5c4.735-.412,8.441-3.5,8.029-6.588s-4.529-5.353-9.265-4.735c-4.735.412-8.235,3.294-8.029,6.382.412,3.088,4.529,5.353,9.265,4.941Zm.412-9.059a3.731,3.731,0,0,1,2.676,4.941,5.3,5.3,0,0,1-6.176,2.676,3.658,3.658,0,0,1-2.265-5.147,5.271,5.271,0,0,1,5.765-2.471Zm-1.647,5.147a1.256,1.256,0,0,0-.618-1.853,1.5,1.5,0,0,0-2.059.824,1.3,1.3,0,0,0,.412,1.853,1.8,1.8,0,0,0,2.265-.824Zm0,0" transform="translate(772.888 79.438)" fill="#004098"/>
  </g>
</svg>
