<svg xmlns="http://www.w3.org/2000/svg" xmlns:xlink="http://www.w3.org/1999/xlink" width="1760" height="219.813" viewBox="0 0 1760 219.813">
  <defs>
    <clipPath id="clip-path">
      <rect id="矩形_11033" data-name="矩形 11033" width="1760" height="219.813" fill="none"/>
    </clipPath>
    <linearGradient id="linear-gradient" x1="0.01" y1="0.735" x2="1.022" y2="0.5" gradientUnits="objectBoundingBox">
      <stop offset="0" stop-color="#a5bfe2"/>
      <stop offset="1" stop-color="#a1bde2" stop-opacity="0"/>
    </linearGradient>
  </defs>
  <g id="wrapline" transform="translate(-80 -654)">
    <g id="组_8703" data-name="组 8703" transform="translate(80 654)" opacity="0.6">
      <line id="直线_1512" data-name="直线 1512" x2="53.5" y2="0.718" transform="translate(645.332 2.495)" fill="none" stroke="#fff" stroke-linecap="round" stroke-linejoin="round" stroke-width="0.44"/>
      <g id="组_8698" data-name="组 8698" transform="translate(0 0)">
        <g id="组_8697" data-name="组 8697" clip-path="url(#clip-path)">
          <line id="直线_1513" data-name="直线 1513" x1="56.02" y1="1.078" transform="translate(950.731 0.695)" fill="none" stroke="#fff" stroke-linecap="round" stroke-linejoin="round" stroke-width="0.44"/>
        </g>
      </g>
      <line id="直线_1514" data-name="直线 1514" y2="22.31" transform="translate(698.831 3.214)" fill="none" stroke="#fff" stroke-linecap="round" stroke-linejoin="round" stroke-width="0.44"/>
      <line id="直线_1515" data-name="直线 1515" x1="53.5" transform="translate(645.332 25.526)" fill="none" stroke="#fff" stroke-linecap="round" stroke-linejoin="round" stroke-width="0.44"/>
      <line id="直线_1516" data-name="直线 1516" x2="16.913" y2="12.954" transform="translate(698.831 3.214)" fill="none" stroke="#fff" stroke-linecap="round" stroke-linejoin="round" stroke-width="0.44"/>
      <line id="直线_1517" data-name="直线 1517" y2="20.091" transform="translate(715.744 16.168)" fill="none" stroke="#fff" stroke-linecap="round" stroke-linejoin="round" stroke-width="0.44"/>
      <line id="直线_1518" data-name="直线 1518" x1="17.152" y1="11.276" transform="translate(698.832 25.526)" fill="none" stroke="#fff" stroke-linecap="round" stroke-linejoin="round" stroke-width="0.44"/>
      <line id="直线_1519" data-name="直线 1519" y2="89.715" transform="translate(698.831 37.531)" fill="none" stroke="#fff" stroke-linecap="round" stroke-linejoin="round" stroke-width="0.44"/>
      <line id="直线_1520" data-name="直线 1520" x1="53.621" transform="translate(645.211 127.245)" fill="none" stroke="#fff" stroke-linecap="round" stroke-linejoin="round" stroke-width="0.44"/>
      <line id="直线_1521" data-name="直线 1521" x1="53.5" transform="translate(645.211 37.531)" fill="none" stroke="#fff" stroke-linecap="round" stroke-linejoin="round" stroke-width="0.44"/>
      <line id="直线_1522" data-name="直线 1522" y2="88.764" transform="translate(645.332 38.481)" fill="none" stroke="#fff" stroke-linecap="round" stroke-linejoin="round" stroke-width="0.44"/>
      <line id="直线_1523" data-name="直线 1523" y1="23.031" transform="translate(645.332 2.495)" fill="none" stroke="#fff" stroke-linecap="round" stroke-linejoin="round" stroke-width="0.44"/>
      <line id="直线_1524" data-name="直线 1524" x2="16.913" y2="8.987" transform="translate(698.831 37.531)" fill="none" stroke="#fff" stroke-linecap="round" stroke-linejoin="round" stroke-width="0.44"/>
      <line id="直线_1525" data-name="直线 1525" y2="78.087" transform="translate(715.744 46.518)" fill="none" stroke="#fff" stroke-linecap="round" stroke-linejoin="round" stroke-width="0.44"/>
      <line id="直线_1526" data-name="直线 1526" x1="16.913" y2="2.641" transform="translate(698.831 124.606)" fill="none" stroke="#fff" stroke-linecap="round" stroke-linejoin="round" stroke-width="0.44"/>
      <line id="直线_1527" data-name="直线 1527" x2="0.106" y2="80.149" transform="translate(702.429 46.518)" fill="none" stroke="#fff" stroke-linecap="round" stroke-linejoin="round" stroke-width="0.44"/>
      <line id="直线_1528" data-name="直线 1528" x2="4.08" y2="1.678" transform="translate(702.429 46.518)" fill="none" stroke="#fff" stroke-linecap="round" stroke-linejoin="round" stroke-width="0.44"/>
      <line id="直线_1529" data-name="直线 1529" y2="77.854" transform="translate(706.509 48.195)" fill="none" stroke="#fff" stroke-linecap="round" stroke-linejoin="round" stroke-width="0.44"/>
      <line id="直线_1530" data-name="直线 1530" x2="0.6" y2="76.146" transform="translate(709.146 49.396)" fill="none" stroke="#fff" stroke-linecap="round" stroke-linejoin="round" stroke-width="0.44"/>
      <line id="直线_1531" data-name="直线 1531" x2="3.48" y2="1.678" transform="translate(709.146 49.396)" fill="none" stroke="#fff" stroke-linecap="round" stroke-linejoin="round" stroke-width="0.44"/>
      <line id="直线_1532" data-name="直线 1532" x2="0.157" y2="73.996" transform="translate(712.626 51.074)" fill="none" stroke="#fff" stroke-linecap="round" stroke-linejoin="round" stroke-width="0.44"/>
      <line id="直线_1533" data-name="直线 1533" y2="10.1" transform="translate(713.288 35.029)" fill="none" stroke="#fff" stroke-linecap="round" stroke-linejoin="round" stroke-width="0.44"/>
      <line id="直线_1534" data-name="直线 1534" y2="10.236" transform="translate(711.994 34.178)" fill="none" stroke="#fff" stroke-linecap="round" stroke-linejoin="round" stroke-width="0.44"/>
      <line id="直线_1535" data-name="直线 1535" y2="10.402" transform="translate(710.59 33.257)" fill="none" stroke="#fff" stroke-linecap="round" stroke-linejoin="round" stroke-width="0.44"/>
      <line id="直线_1536" data-name="直线 1536" y2="10.653" transform="translate(709.447 32.503)" fill="none" stroke="#fff" stroke-linecap="round" stroke-linejoin="round" stroke-width="0.44"/>
      <line id="直线_1537" data-name="直线 1537" y2="10.741" transform="translate(707.893 31.482)" fill="none" stroke="#fff" stroke-linecap="round" stroke-linejoin="round" stroke-width="0.44"/>
      <line id="直线_1538" data-name="直线 1538" y2="10.913" transform="translate(706.199 30.368)" fill="none" stroke="#fff" stroke-linecap="round" stroke-linejoin="round" stroke-width="0.44"/>
      <line id="直线_1539" data-name="直线 1539" y2="11.294" transform="translate(704.469 29.232)" fill="none" stroke="#fff" stroke-linecap="round" stroke-linejoin="round" stroke-width="0.44"/>
      <line id="直线_1540" data-name="直线 1540" y2="11.474" transform="translate(703.057 28.303)" fill="none" stroke="#fff" stroke-linecap="round" stroke-linejoin="round" stroke-width="0.44"/>
      <line id="直线_1541" data-name="直线 1541" y2="11.574" transform="translate(701.568 27.324)" fill="none" stroke="#fff" stroke-linecap="round" stroke-linejoin="round" stroke-width="0.44"/>
      <line id="直线_1542" data-name="直线 1542" y2="11.89" transform="translate(699.88 26.214)" fill="none" stroke="#fff" stroke-linecap="round" stroke-linejoin="round" stroke-width="0.44"/>
      <line id="直线_1543" data-name="直线 1543" y2="12.006" transform="translate(646.892 25.526)" fill="none" stroke="#fff" stroke-linecap="round" stroke-linejoin="round" stroke-width="0.44"/>
      <line id="直线_1544" data-name="直线 1544" y2="12.345" transform="translate(696.912 25.187)" fill="none" stroke="#fff" stroke-linecap="round" stroke-linejoin="round" stroke-width="0.44"/>
      <line id="直线_1545" data-name="直线 1545" y2="10.1" transform="translate(936.19 33.47)" fill="none" stroke="#fff" stroke-linecap="round" stroke-linejoin="round" stroke-width="0.44"/>
      <line id="直线_1546" data-name="直线 1546" y2="10.236" transform="translate(936.997 32.842)" fill="none" stroke="#fff" stroke-linecap="round" stroke-linejoin="round" stroke-width="0.44"/>
      <line id="直线_1547" data-name="直线 1547" y2="10.694" transform="translate(938.301 31.92)" fill="none" stroke="#fff" stroke-linecap="round" stroke-linejoin="round" stroke-width="0.44"/>
      <line id="直线_1548" data-name="直线 1548" y2="10.877" transform="translate(939.362 31.167)" fill="none" stroke="#fff" stroke-linecap="round" stroke-linejoin="round" stroke-width="0.44"/>
      <line id="直线_1549" data-name="直线 1549" y2="11.276" transform="translate(940.804 30.322)" fill="none" stroke="#fff" stroke-linecap="round" stroke-linejoin="round" stroke-width="0.44"/>
      <line id="直线_1550" data-name="直线 1550" y2="11.533" transform="translate(942.378 29.214)" fill="none" stroke="#fff" stroke-linecap="round" stroke-linejoin="round" stroke-width="0.44"/>
      <line id="直线_1551" data-name="直线 1551" y2="11.669" transform="translate(943.984 28.343)" fill="none" stroke="#fff" stroke-linecap="round" stroke-linejoin="round" stroke-width="0.44"/>
      <line id="直线_1552" data-name="直线 1552" y2="11.882" transform="translate(945.295 27.529)" fill="none" stroke="#fff" stroke-linecap="round" stroke-linejoin="round" stroke-width="0.44"/>
      <line id="直线_1553" data-name="直线 1553" y2="12.233" transform="translate(946.676 26.668)" fill="none" stroke="#fff" stroke-linecap="round" stroke-linejoin="round" stroke-width="0.44"/>
      <line id="直线_1554" data-name="直线 1554" y2="12.387" transform="translate(948.245 25.672)" fill="none" stroke="#fff" stroke-linecap="round" stroke-linejoin="round" stroke-width="0.44"/>
      <line id="直线_1555" data-name="直线 1555" x2="0.024" y2="12.617" transform="translate(949.953 24.651)" fill="none" stroke="#fff" stroke-linecap="round" stroke-linejoin="round" stroke-width="0.44"/>
      <rect id="矩形_11034" data-name="矩形 11034" width="1.321" height="85.021" transform="translate(660.685 42.224)" fill="none" stroke="#fff" stroke-linecap="round" stroke-linejoin="round" stroke-width="0.44"/>
      <rect id="矩形_11035" data-name="矩形 11035" width="1.321" height="85.021" transform="translate(678.558 42.224)" fill="none" stroke="#fff" stroke-linecap="round" stroke-linejoin="round" stroke-width="0.44"/>
      <rect id="矩形_11036" data-name="矩形 11036" width="1.32" height="85.021" transform="translate(968.065 42.044)" fill="none" stroke="#fff" stroke-linecap="round" stroke-linejoin="round" stroke-width="0.44"/>
      <rect id="矩形_11037" data-name="矩形 11037" width="1.32" height="85.021" transform="translate(986.236 42.044)" fill="none" stroke="#fff" stroke-linecap="round" stroke-linejoin="round" stroke-width="0.44"/>
      <g id="组_8700" data-name="组 8700" transform="translate(0 0)">
        <g id="组_8699" data-name="组 8699" clip-path="url(#clip-path)">
          <line id="直线_1556" data-name="直线 1556" y1="13.675" x2="15.713" transform="translate(935.019 0.694)" fill="none" stroke="#fff" stroke-linecap="round" stroke-linejoin="round" stroke-width="0.44"/>
          <line id="直线_1557" data-name="直线 1557" y2="23.45" transform="translate(950.732 0.695)" fill="none" stroke="#fff" stroke-linecap="round" stroke-linejoin="round" stroke-width="0.44"/>
        </g>
      </g>
      <line id="直线_1558" data-name="直线 1558" x1="15.713" y2="9.775" transform="translate(935.018 24.145)" fill="none" stroke="#fff" stroke-linecap="round" stroke-linejoin="round" stroke-width="0.44"/>
      <line id="直线_1559" data-name="直线 1559" y1="19.554" transform="translate(935.019 14.369)" fill="none" stroke="#fff" stroke-linecap="round" stroke-linejoin="round" stroke-width="0.44"/>
      <line id="直线_1560" data-name="直线 1560" y1="0.78" x2="56.02" transform="translate(950.732 23.365)" fill="none" stroke="#fff" stroke-linecap="round" stroke-linejoin="round" stroke-width="0.44"/>
      <line id="直线_1561" data-name="直线 1561" y1="21.592" transform="translate(1006.751 1.774)" fill="none" stroke="#fff" stroke-linecap="round" stroke-linejoin="round" stroke-width="0.44"/>
      <line id="直线_1562" data-name="直线 1562" y1="7.199" x2="15.713" transform="translate(935.019 36.919)" fill="none" stroke="#fff" stroke-linecap="round" stroke-linejoin="round" stroke-width="0.44"/>
      <line id="直线_1563" data-name="直线 1563" y2="90.146" transform="translate(950.732 36.92)" fill="none" stroke="#fff" stroke-linecap="round" stroke-linejoin="round" stroke-width="0.44"/>
      <line id="直线_1564" data-name="直线 1564" x2="56.02" transform="translate(950.732 36.92)" fill="none" stroke="#fff" stroke-linecap="round" stroke-linejoin="round" stroke-width="0.44"/>
      <line id="直线_1565" data-name="直线 1565" y2="90.146" transform="translate(1006.751 36.92)" fill="none" stroke="#fff" stroke-linecap="round" stroke-linejoin="round" stroke-width="0.44"/>
      <line id="直线_1566" data-name="直线 1566" x1="56.02" transform="translate(950.731 127.065)" fill="none" stroke="#fff" stroke-linecap="round" stroke-linejoin="round" stroke-width="0.44"/>
      <line id="直线_1567" data-name="直线 1567" y2="79.889" transform="translate(935.019 44.119)" fill="none" stroke="#fff" stroke-linecap="round" stroke-linejoin="round" stroke-width="0.44"/>
      <line id="直线_1568" data-name="直线 1568" x2="15.713" y2="3.058" transform="translate(935.019 124.006)" fill="none" stroke="#fff" stroke-linecap="round" stroke-linejoin="round" stroke-width="0.44"/>
      <line id="直线_1569" data-name="直线 1569" y2="75.414" transform="translate(937.777 49.155)" fill="none" stroke="#fff" stroke-linecap="round" stroke-linejoin="round" stroke-width="0.44"/>
      <line id="直线_1570" data-name="直线 1570" y1="1.557" x2="2.638" transform="translate(937.777 47.598)" fill="none" stroke="#fff" stroke-linecap="round" stroke-linejoin="round" stroke-width="0.44"/>
      <line id="直线_1571" data-name="直线 1571" y2="77.411" transform="translate(940.416 47.597)" fill="none" stroke="#fff" stroke-linecap="round" stroke-linejoin="round" stroke-width="0.44"/>
      <line id="直线_1572" data-name="直线 1572" y1="79.018" transform="translate(942.876 46.518)" fill="none" stroke="#fff" stroke-linecap="round" stroke-linejoin="round" stroke-width="0.44"/>
      <line id="直线_1573" data-name="直线 1573" y1="2.399" x2="4.257" transform="translate(942.876 44.119)" fill="none" stroke="#fff" stroke-linecap="round" stroke-linejoin="round" stroke-width="0.44"/>
      <line id="直线_1574" data-name="直线 1574" y2="82.123" transform="translate(947.134 44.119)" fill="none" stroke="#fff" stroke-linecap="round" stroke-linejoin="round" stroke-width="0.44"/>
      <line id="直线_1575" data-name="直线 1575" y1="0.561" x2="2.443" transform="translate(937.972 124.007)" fill="none" stroke="#fff" stroke-linecap="round" stroke-linejoin="round" stroke-width="0.44"/>
      <line id="直线_1576" data-name="直线 1576" y1="0.529" x2="4.257" transform="translate(942.876 125.007)" fill="none" stroke="#fff" stroke-linecap="round" stroke-linejoin="round" stroke-width="0.44"/>
      <g id="组_8702" data-name="组 8702" transform="translate(0 0)">
        <g id="组_8704" data-name="组 8704">
          <path id="路径_62383" data-name="路径 62383" d="M267.576,67.01l-.635-5.979,1.53-4.948,1.619-4.768,1.8-3.959,1.078-3.51a6.067,6.067,0,0,1,2.88-2.609c1.979-.809,2.608-1.078,2.608-1.078l1.979-1.442a8.248,8.248,0,0,1,2.159-1.347c.9-.269,3.329-1.258,3.329-1.258a38.365,38.365,0,0,1,6.567-1.442c3.238-.36,4.227-1.439,4.227-1.439l4.588-.9,3.421-1.078,2.969-.541s1.8-1.979,8.006,0c0,0,4.408.812,5.217,1.442a11.766,11.766,0,0,0,4.408,1.527c1.891.36,5.309,1.53,6.029,2.251s5.489,1.976,7.288,2.969,8.455,5.935,8.455,6.387.629,1.891.629,2.7a38.212,38.212,0,0,0,1.081,4.86c.5,2.068-.18,3.687,0,5.4s.718,6.611.718,6.611a3.678,3.678,0,0,1-.449,1.8l-.36.538-81.142.354Z" transform="translate(521.644 58.296)" fill="none" stroke="#fff" stroke-linecap="round" stroke-linejoin="round" stroke-width="0.44"/>
          <rect id="矩形_11039" data-name="矩形 11039" width="86.631" height="1.258" transform="translate(786.432 126.118)" fill="none" stroke="#fff" stroke-linecap="round" stroke-linejoin="round" stroke-width="0.44"/>
          <line id="直线_1577" data-name="直线 1577" y1="1.905" x2="2.889" transform="translate(786.432 124.21)" fill="none" stroke="#fff" stroke-linecap="round" stroke-linejoin="round" stroke-width="0.44"/>
          <line id="直线_1578" data-name="直线 1578" x1="1.891" y1="2.071" transform="translate(871.172 124.05)" fill="none" stroke="#fff" stroke-linecap="round" stroke-linejoin="round" stroke-width="0.44"/>
          <path id="路径_62384" data-name="路径 62384" d="M273.224,36.653s-.174.027-.222-.827a.534.534,0,0,1,.284-.467c.765-.038.975.284.975.284a3.016,3.016,0,0,0,.118.278.882.882,0,0,1-.168.549,1.506,1.506,0,0,1-.987.183" transform="translate(533.488 69.09)" fill="#fff" fill-rule="evenodd"/>
          <path id="路径_62385" data-name="路径 62385" d="M278.572,37.8c.39-.05.387.547.387.547l-.053,1.97-.059.724a7.158,7.158,0,0,0,.062,1.022,11.044,11.044,0,0,1-.009,1.167,2.411,2.411,0,0,1-.074.8c-.269-.053-.434-.263-.629-.357,0,.018,0,.015.021.035-.059.032-.112-.056-.174-.027a.633.633,0,0,0,.133.1c-.012.021-.032.03-.027.062.077.092.195.145.236.269-.05-.009-.074-.012-.1.018.041.118.168.154.219.263-.086-.038-.148-.177-.236-.154.033.16.26.168.228.357a3.432,3.432,0,0,0,.26.34s-.044.319.328.266a.747.747,0,0,0,.4-.484,9.886,9.886,0,0,0-.062-1.79,4.276,4.276,0,0,0-.038-1.634,3.243,3.243,0,0,1,.047-.606,13,13,0,0,0,.053-2.266c.236-.836-.083-.993-.083-.993a.8.8,0,0,0-.6-.009c.1-.354,1.1-1.049,1.1-1.049,1.4-.614.671-1,.671-1s-.493-.346-1.365.552c0,0-1.979,1.332-2.662,1.953a14.056,14.056,0,0,0-1.849,2.154,5.571,5.571,0,0,0-.715,1.368c-.044.225-.236.874-.393,1.383a.911.911,0,0,1-.086-.47,15.415,15.415,0,0,1,.351-2.4s.9-.517.5-1.244a.429.429,0,0,0-.162-.118,4.078,4.078,0,0,0-.73-.248c-.136-.015-.195.115-.31.192,0,0-.189.292.041,1.016l.006.024c.029.095-.266,2.422-.266,2.422-.354,2.523.759,1.9.759,1.9a2.615,2.615,0,0,0,.73-.972c.038-.558.062-1.223.089-1.323.053-.877,1.728-3.38,3.852-4.278-.529.892-1.016,1.846-1.5,2.8a1.39,1.39,0,0,0-.334.975.291.291,0,0,0,.331.18.645.645,0,0,0,.4-.511c.05-.523.213-.57.213-.57a.781.781,0,0,0,.535.691c.615.089.553-.677.553-.677a3.306,3.306,0,0,1-.086-.419,1.518,1.518,0,0,1-.047-.44c-.035-.251-.08-.136-.109-.213-.038-.1.015-.233-.027-.319-.062-.018-.053.074-.089.047-.026-.092.041-.183.021-.26a3.486,3.486,0,0,1-.23.715.44.44,0,0,0-.3.021c.142-.292.307-.514.461-.845a4.015,4.015,0,0,1,.428-.753s.041-.032-.006.1" transform="translate(533.206 68.987)" fill="#fff"/>
          <path id="路径_62386" data-name="路径 62386" d="M279.548,36.907c-.033.4-.254.5-.254.5a1.081,1.081,0,0,1-.609.065c-.041-.027-.024-.095-.08-.145a.86.86,0,0,1-.387-.354c.024-.021.027-.015.021-.03a2.528,2.528,0,0,1-.195-.422.393.393,0,0,1,.112-.431s.077-.083.428-.024a1.021,1.021,0,0,1,.192.038,3.938,3.938,0,0,1,.4.151.767.767,0,0,1,.366.65" transform="translate(543.302 70.429)" fill="#fff"/>
          <path id="路径_62387" data-name="路径 62387" d="M279.143,38.023s-.319.222-.419,1.069c-.024.257-.024.331-.044.482a1.644,1.644,0,0,0,.053.464,5.424,5.424,0,0,0,1.12-2.148c.032.2-.18.455-.035.612.009.041-.044.1.009.106-.077.047-.029.213-.118.263a.034.034,0,0,0,.024.044c-.095.136-.047.39-.121.464a.555.555,0,0,1-.021.115,3.672,3.672,0,0,1-.3,1.235c-.44.812-.691.854-.691.854a.793.793,0,0,0-.2.024s-.482-.112-.431-.86c0,0,.65-2.425.656-2.461a5.371,5.371,0,0,0,.151-.6,2.769,2.769,0,0,0-.142-.523c-.03-.095.044-.23.112-.334h.047c.029-.012.015-.056.041-.071a.706.706,0,0,1,.833.52,2.113,2.113,0,0,1-.106.4,1.587,1.587,0,0,1-.411.343" transform="translate(543.173 71.806)" fill="#fff" fill-rule="evenodd"/>
          <path id="路径_62388" data-name="路径 62388" d="M282.12,38.542s.357-.151.354-.393l-.006-.015c-.174-.677-1.5.142-1.5.142a3.69,3.69,0,0,1-.96.535s-.145-.1.62-1.3a12.008,12.008,0,0,0,.88-1.6c0-.216.127-.375-.1-.606-.511-.162-.99.842-.99.842.024,0,.035-.015.062-.018-.006.032-.062.056-.035.089.026-.035.044-.083.089-.106.092.006.115-.1.21-.068,0,0-.207.526-.343.857,0,0-1.128,1.982-.756,2.552.222.216.957-.378.957-.378s.854-.736.984-.609c.018.024-.753,1.128-.753,1.128-.337.588-.877,1.849-.877,1.849a.9.9,0,0,1-.632-.047c-.786-.059-.307.529-.307.529.224.157.561.1.771.157-.263,1.046.482,1.188.482,1.188.372.053.706-.225,1.064-.207a2.679,2.679,0,0,1-.482,1.279.234.234,0,0,0-.133-.05c-.021.038.047.092.027.133a.916.916,0,0,0,.027.786s.027.1.106.106a.664.664,0,0,0,.481-.369c.34-.712.479-1.1.479-1.1.127-.216.121-.564.248-.78a.892.892,0,0,0,.287-.151.593.593,0,0,0-.349-.629,2.381,2.381,0,0,1,.183-.783,3.241,3.241,0,0,0,.647-.151.4.4,0,0,1,.4.142.393.393,0,0,0,.487.074c.387-.978-.809-.656-.809-.656s-.567.145-.606.059a2.136,2.136,0,0,0,.118-1.273.475.475,0,0,0-.579-.165c-.419.112-.425.352-.425.352a.62.62,0,0,1,.263.157,1.245,1.245,0,0,1,0,.591,2.084,2.084,0,0,1-.275-.16s-.452-.248-.5.352c-.038.183-.047.372-.08.517-.065.092-.313.08-.44.053.668-2.411,1.708-2.842,1.708-2.842m-1.592,3.864a.318.318,0,0,1-.227-.4c.115-.035.275-.145.446-.086-.015.186-.053.349-.207.393-.012.027,0,.074-.012.095m.7-.059a4.088,4.088,0,0,1-.612.071c.041-.092.157-.106.207-.186,0,0,.068.08.272-.2a.608.608,0,0,0,.233-.139c.225-.31.269-.21.269-.21a1.78,1.78,0,0,1-.145.511s.038.154-.225.154" transform="translate(544.963 68.944)" fill="#fff"/>
          <path id="路径_62389" data-name="路径 62389" d="M289.861,36.491a.2.2,0,0,1-.133.092,1.92,1.92,0,0,1-.077.29,5.106,5.106,0,0,1,.142.585c-.018.195-.036.434-.05.629a7.558,7.558,0,0,0-.059,1.793c.068.207.222.136.36.065.018-.006,0-.053.024-.056.127-.033.18-.171.316-.207a1.21,1.21,0,0,0,.313-.874,3.985,3.985,0,0,1,.366-1.557,8.771,8.771,0,0,0-.219,1.944,2.455,2.455,0,0,1-.071.484.885.885,0,0,0-.1.431,1.43,1.43,0,0,1-.667.242c-.594.133-1.069.5-1.652.632a1.569,1.569,0,0,1-.576.1c.053-.05.077-.136.127-.186-.009-.068.05-.127.059-.2a.852.852,0,0,1-.245.133c-.115.047-.213.154-.363.148-.056.053-.056.142-.124.177a1.443,1.443,0,0,0-.1.6c.065.142.236.041.346.053a4.247,4.247,0,0,0,1.53-.408,3.526,3.526,0,0,1,.954-.417,3.446,3.446,0,0,0,1.046-.328c.384-.171.7-.278.957-.375.9-.381,1.185-.281,1.185-.281a.251.251,0,0,1,.038.313c-.145.281-.638.422-1.061.544a.732.732,0,0,1-.227.056c-.038,0-.065-.006-.092-.006a1.336,1.336,0,0,0-.679.313c-.071.044-.168.056-.239.092-.032.012-.062.05-.083.059s-.086.027-.136.047c-.074.032-.219.095-.225.168s.157.145.233.168c.121.03.26,0,.355.015a1.335,1.335,0,0,1,.269-.074,1.423,1.423,0,0,0-.21.792,1.54,1.54,0,0,1,.287.455,2.875,2.875,0,0,1,.219.349,1.2,1.2,0,0,1-.437.083,1.185,1.185,0,0,0-.319.1,2.218,2.218,0,0,0-.505.272c-.047.041-.1.071-.145.112a1.33,1.33,0,0,0-.166.142c-.024.032-.05.074-.071.1s-.068.062-.089.089a1.164,1.164,0,0,1-.065.112.617.617,0,0,0-.177.4c-.006.038-.056.065-.086.095-.021.062.065.083-.006.148.053.065.035.13.086.171a1.749,1.749,0,0,0,.154.3c.393.623.741.514.741.514a1.7,1.7,0,0,0,1.126-.461,1.9,1.9,0,0,0,.508-1.235,1.941,1.941,0,0,0,.718-.03.753.753,0,0,0,.133-.086l.077-.083c.035-.038.077-.05.095-.083.05-.086.024-.2.071-.316-.015-.071-.05-.124-.062-.2-.053,0-.08-.053-.127-.074a.654.654,0,0,0-.174-.024.683.683,0,0,1-.124-.056.874.874,0,0,1-.18-.05,1,1,0,0,1-.245.015c-.027-.012-.009.035-.035.03-.065-.044-.189.009-.26-.056-.038-.032-.059-.165-.086-.23a1.722,1.722,0,0,0-.245-.366c-.033-.053-.05-.109-.089-.168-.05-.086-.213-.263-.189-.357,0-.027.1-.092.124-.139a.408.408,0,0,1,.151-.168,2.374,2.374,0,0,1,.18-.292c.056-.038.186-.095.219-.154.077-.124.047-.375-.041-.411a1.51,1.51,0,0,0,.417-.027c.109-.027.227-.041.272-.05a.244.244,0,0,1,.186-.032c.1.13.192-.021.322.035a.8.8,0,0,0,.154-.118c.047-.041.112-.065.151-.106s.062-.121.139-.127a.617.617,0,0,0,.148-.257.346.346,0,0,0,.044-.139c0-.059.012-.233,0-.307a.542.542,0,0,0-.21-.319.706.706,0,0,0-.434-.139,7.605,7.605,0,0,0-1.755.417c.035-.089.133-.269.257-.192.024.038-.033.044-.027.089.121-.047.189-.13.319-.186.03-.056.086-.059.139-.109a.306.306,0,0,1,.044-.074c.074,0,.092-.056.165-.056l.006-.074c.027-.015.056-.006.08-.027a2.071,2.071,0,0,1,.485-.307.65.65,0,0,0,.192-.369.67.67,0,0,0-.2-.5l-.074-.074c-.027-.027-.038-.059-.062-.074-.053-.044-.118-.041-.139-.1s.065-.124.109-.168a2.07,2.07,0,0,1,.4-.39c.16-.05.375-.1.414-.4a.63.63,0,0,0-.021-.154c-.006-.027-.03-.065-.033-.092a.233.233,0,0,0-.062-.136c-.083-.071-.2-.077-.263-.13-.1-.08-.089-.26-.012-.408a1.389,1.389,0,0,0,.062-.136,2.369,2.369,0,0,0,.124-.242.379.379,0,0,0-.038-.331c-.145-.145-.478.068-.523.174-.13.165-.074.39-.121.6,0,0-.183.555-.366,1.046-.059.059-.1.121-.156.177s-.08.1-.121.151a.564.564,0,0,1-.145.121.4.4,0,0,1-.136.145l-.024.071a2.272,2.272,0,0,0-.393.7c.038-.2.095-.4.121-.623a6.354,6.354,0,0,1,.077-.668c.041-.192.118-.4.145-.579,0-.227-.08-.4-.31-.354-.139.032-.3.08-.36.195-.015-.021-.021,0-.05,0a2.179,2.179,0,0,0-.508.555c-.05-.03-.059-.1-.089-.145,0,0-.236-.431-.544-.2m2.251,1.634c.044.006.024.068.041.092.047.086.183.1.248.168a.587.587,0,0,1-.148.292,2.973,2.973,0,0,1-.617.762c-.009-.077.05-.233.035-.328.189-1.016.44-.987.44-.987m-.428,6.348c-.133.4-.558.963-1.052.866-.281-.086-.3-.213-.278-.458.044-.647.818-.871.818-.871.2.018.434,0,.526.086,0,0,.089.068-.015.378" transform="translate(561.098 68.552)" fill="#fff"/>
          <path id="路径_62390" data-name="路径 62390" d="M284.758,38.176a.323.323,0,0,0-.05-.095c-.127-.095-.1-.2-.236-.227-.009-.047.015-.109-.024-.142,0-.032.038-.027.044-.062s-.021-.062-.027-.092c.041-.1.059-.23.177-.26a.319.319,0,0,0,.216-.009,1.613,1.613,0,0,0,.2.065,11.945,11.945,0,0,1,1.09.975.787.787,0,0,1,.269.425.53.53,0,0,1-.544.665c-.068-.012-.127-.08-.2-.059,0,0-.331-.086-.919-1.185" transform="translate(555.856 72.87)" fill="#fff"/>
          <path id="路径_62391" data-name="路径 62391" d="M284.608,42.695a2.253,2.253,0,0,1-.957.417.667.667,0,0,1-.482-.062.911.911,0,0,1,.065-.086c-.03-.13.035-.281-.015-.428.027-.047.083-.059.124-.092.059.027.165.009.195.065.476.115,1.205-.877,1.205-.877a4.1,4.1,0,0,0,.685-1.663l-.219.065s-1.27.425-1.509-.074c-.012-.009.012-.059-.018-.121s-.094-.08-.1-.145a.27.27,0,0,1,.041-.115.8.8,0,0,1,.2-.284c.038-.024.074-.065.106-.08a.784.784,0,0,1,.538-.035c.012.027.018.03.006.062,0,0,1,.083,1.126-.393a8.857,8.857,0,0,0,.08-2.2c.006-.225.027-.266.024-.473,0,0,.006-.2.021-.443a.4.4,0,0,1,.325-.3c.015-.006.109-.024.109-.041.13.027.224.133.352.089.033.044-.009.065.012.1.012.009.041,0,.053.009s0,.035,0,.047.053.009.065.027.009.047.027.083.041,0,.059.056a.233.233,0,0,1,.03.106.617.617,0,0,1,.038.384l-.222.644a1.15,1.15,0,0,0-.053.384,5.835,5.835,0,0,1-.136,1.256,3.072,3.072,0,0,0,.662-.3.626.626,0,0,1,.715.139c.5.425.077.727.077.727-.059.044-.08.086-.171.086-.038.015-.038.062-.074.068-.056.009-.086-.059-.139-.05-.035.006-.047.047-.08.059,0,0-.428.065-.5-.035-.018,0-.059.009-.068.021a.894.894,0,0,0-.6.275s-.044.39-.195,1.114a3.856,3.856,0,0,1-1.412,2.027" transform="translate(553.356 69.155)" fill="#fff"/>
          <line id="直线_1579" data-name="直线 1579" y2="12.774" transform="translate(952.831 24.145)" fill="none" stroke="#fff" stroke-linecap="round" stroke-linejoin="round" stroke-width="0.44"/>
          <line id="直线_1580" data-name="直线 1580" y2="13.527" transform="translate(1005.61 23.394)" fill="none" stroke="#fff" stroke-linecap="round" stroke-linejoin="round" stroke-width="0.44"/>
          <path id="路径_62392" data-name="路径 62392" d="M380.185,15.5a6.277,6.277,0,0,0-.65.257c-2.041-3.9-7.492-8.348-17.627-7.8-11.4.617-12.313,12.18-12.313,12.18-3.634-1.956-4.112,1.719-4.112,1.719-2.446-1.734-14.936-5.956-23.1,4.733a22.194,22.194,0,0,0-1.657,2.493c-9.031,3.152-7.79,13.376-7.79,13.376-3.648-1.158-3.394,2.378-3.394,2.378-2.535-1.173-14.611-2.815-19.991,8.724-3.117,6.679-1.708,11.66.062,14.7a2.8,2.8,0,0,1-1.781,4.145,21.693,21.693,0,0,0-3.9,1.433" transform="translate(554.832 15.456)" fill="none" stroke="#fff" stroke-linecap="round" stroke-linejoin="round" stroke-width="0.44"/>
          <path id="路径_62393" data-name="路径 62393" d="M237.075,4c3.193-2.36,8.012-4.083,14.783-3.716,12.192.662,13.164,13.022,13.164,13.022,3.885-2.092,4.4,1.837,4.4,1.837,2.611-1.852,15.97-6.366,24.7,5.06a24.319,24.319,0,0,1,1.77,2.668c9.654,3.371,8.328,14.3,8.328,14.3,3.9-1.238,3.634,2.544,3.634,2.544,2.706-1.256,15.618-3.007,21.373,9.326,3.329,7.143,1.826,12.469-.068,15.719a3,3,0,0,0,1.908,4.431c16.425,4.349,18.26,23.536,18.26,23.536" transform="translate(463.281 0.459)" fill="none" stroke="#fff" stroke-linecap="round" stroke-linejoin="round" stroke-width="0.471"/>
          <path id="路径_62394" data-name="路径 62394" d="M76.8,26.009H22.245v4.3H24.2V76.646H74.838V30.311H76.8Z" transform="translate(43.471 50.826)" fill="none" stroke="#fff" stroke-linecap="round" stroke-linejoin="round" stroke-width="0.44"/>
          <path id="路径_62395" data-name="路径 62395" d="M78.992,13.359H50.739v4.3h1.956v83.706H77.034V17.66h1.959Z" transform="translate(99.152 26.104)" fill="none" stroke="#fff" stroke-linecap="round" stroke-linejoin="round" stroke-width="0.44"/>
          <rect id="矩形_11040" data-name="矩形 11040" width="9.681" height="29.287" transform="translate(73.074 98.184)" fill="none" stroke="#fff" stroke-linecap="round" stroke-linejoin="round" stroke-width="0.44"/>
          <rect id="矩形_11041" data-name="矩形 11041" width="9.681" height="29.287" transform="translate(88.152 98.184)" fill="none" stroke="#fff" stroke-linecap="round" stroke-linejoin="round" stroke-width="0.44"/>
          <rect id="矩形_11042" data-name="矩形 11042" width="9.684" height="29.287" transform="translate(103.23 98.184)" fill="none" stroke="#fff" stroke-linecap="round" stroke-linejoin="round" stroke-width="0.44"/>
          <rect id="矩形_11043" data-name="矩形 11043" width="9.681" height="50.637" transform="translate(159.176 76.835)" fill="none" stroke="#fff" stroke-linecap="round" stroke-linejoin="round" stroke-width="0.44"/>
          <rect id="矩形_11044" data-name="矩形 11044" width="12.396" height="29.459" transform="translate(209.695 97.989)" fill="none" stroke="#fff" stroke-linecap="round" stroke-linejoin="round" stroke-width="0.44"/>
          <rect id="矩形_11045" data-name="矩形 11045" width="5.731" height="29.459" transform="translate(261.549 97.989)" fill="none" stroke="#fff" stroke-linecap="round" stroke-linejoin="round" stroke-width="0.44"/>
          <rect id="矩形_11046" data-name="矩形 11046" width="5.734" height="29.459" transform="translate(306.736 97.989)" fill="none" stroke="#fff" stroke-linecap="round" stroke-linejoin="round" stroke-width="0.44"/>
          <rect id="矩形_11047" data-name="矩形 11047" width="5.867" height="29.459" transform="translate(351.793 97.989)" fill="none" stroke="#fff" stroke-linecap="round" stroke-linejoin="round" stroke-width="0.44"/>
          <rect id="矩形_11048" data-name="矩形 11048" width="12.396" height="29.459" transform="translate(396.982 97.989)" fill="none" stroke="#fff" stroke-linecap="round" stroke-linejoin="round" stroke-width="0.44"/>
          <rect id="矩形_11049" data-name="矩形 11049" width="39.456" height="37.456" transform="translate(222.093 89.992)" fill="none" stroke="#fff" stroke-linecap="round" stroke-linejoin="round" stroke-width="0.44"/>
          <rect id="矩形_11050" data-name="矩形 11050" width="39.456" height="37.456" transform="translate(267.28 89.992)" fill="none" stroke="#fff" stroke-linecap="round" stroke-linejoin="round" stroke-width="0.44"/>
          <rect id="矩形_11051" data-name="矩形 11051" width="3.725" height="24.457" transform="translate(118.311 103.014)" fill="none" stroke="#fff" stroke-linecap="round" stroke-linejoin="round" stroke-width="0.44"/>
          <rect id="矩形_11052" data-name="矩形 11052" width="3.728" height="24.457" transform="translate(122.036 103.014)" fill="none" stroke="#fff" stroke-linecap="round" stroke-linejoin="round" stroke-width="0.44"/>
          <rect id="矩形_11053" data-name="矩形 11053" width="3.725" height="24.457" transform="translate(125.764 103.014)" fill="none" stroke="#fff" stroke-linecap="round" stroke-linejoin="round" stroke-width="0.44"/>
          <rect id="矩形_11054" data-name="矩形 11054" width="3.725" height="24.457" transform="translate(129.49 103.014)" fill="none" stroke="#fff" stroke-linecap="round" stroke-linejoin="round" stroke-width="0.44"/>
          <rect id="矩形_11055" data-name="矩形 11055" width="3.725" height="24.457" transform="translate(133.218 103.014)" fill="none" stroke="#fff" stroke-linecap="round" stroke-linejoin="round" stroke-width="0.44"/>
          <rect id="矩形_11056" data-name="矩形 11056" width="3.725" height="24.457" transform="translate(136.943 103.014)" fill="none" stroke="#fff" stroke-linecap="round" stroke-linejoin="round" stroke-width="0.44"/>
          <rect id="矩形_11057" data-name="矩形 11057" width="3.725" height="24.457" transform="translate(140.668 103.014)" fill="none" stroke="#fff" stroke-linecap="round" stroke-linejoin="round" stroke-width="0.44"/>
          <rect id="矩形_11058" data-name="矩形 11058" width="3.725" height="24.457" transform="translate(144.396 103.014)" fill="none" stroke="#fff" stroke-linecap="round" stroke-linejoin="round" stroke-width="0.44"/>
          <rect id="矩形_11059" data-name="矩形 11059" width="3.725" height="24.457" transform="translate(148.121 103.014)" fill="none" stroke="#fff" stroke-linecap="round" stroke-linejoin="round" stroke-width="0.44"/>
          <rect id="矩形_11060" data-name="矩形 11060" width="3.725" height="24.457" transform="translate(176.186 103.014)" fill="none" stroke="#fff" stroke-linecap="round" stroke-linejoin="round" stroke-width="0.44"/>
          <rect id="矩形_11061" data-name="矩形 11061" width="3.725" height="24.457" transform="translate(179.914 103.014)" fill="none" stroke="#fff" stroke-linecap="round" stroke-linejoin="round" stroke-width="0.44"/>
          <rect id="矩形_11062" data-name="矩形 11062" width="3.725" height="24.457" transform="translate(183.639 103.014)" fill="none" stroke="#fff" stroke-linecap="round" stroke-linejoin="round" stroke-width="0.44"/>
          <rect id="矩形_11063" data-name="矩形 11063" width="3.725" height="24.457" transform="translate(187.364 103.014)" fill="none" stroke="#fff" stroke-linecap="round" stroke-linejoin="round" stroke-width="0.44"/>
          <rect id="矩形_11064" data-name="矩形 11064" width="3.725" height="24.457" transform="translate(191.092 103.014)" fill="none" stroke="#fff" stroke-linecap="round" stroke-linejoin="round" stroke-width="0.44"/>
          <rect id="矩形_11065" data-name="矩形 11065" width="3.728" height="24.457" transform="translate(194.815 103.014)" fill="none" stroke="#fff" stroke-linecap="round" stroke-linejoin="round" stroke-width="0.44"/>
          <rect id="矩形_11066" data-name="矩形 11066" width="3.725" height="24.457" transform="translate(198.546 103.014)" fill="none" stroke="#fff" stroke-linecap="round" stroke-linejoin="round" stroke-width="0.44"/>
          <rect id="矩形_11067" data-name="矩形 11067" width="3.725" height="24.457" transform="translate(202.271 103.014)" fill="none" stroke="#fff" stroke-linecap="round" stroke-linejoin="round" stroke-width="0.44"/>
          <rect id="矩形_11068" data-name="矩形 11068" width="3.725" height="24.457" transform="translate(205.996 103.014)" fill="none" stroke="#fff" stroke-linecap="round" stroke-linejoin="round" stroke-width="0.44"/>
          <path id="路径_62396" data-name="路径 62396" d="M168.879,26.009H223.43v4.3h-1.959V76.646H170.838V30.311h-1.959Z" transform="translate(330.016 50.826)" fill="none" stroke="#fff" stroke-linecap="round" stroke-linejoin="round" stroke-width="0.44"/>
          <path id="路径_62397" data-name="路径 62397" d="M149.288,13.359h28.253v4.3h-1.956v83.706H151.246V17.66h-1.959Z" transform="translate(291.731 26.104)" fill="none" stroke="#fff" stroke-linecap="round" stroke-linejoin="round" stroke-width="0.44"/>
          <rect id="矩形_11069" data-name="矩形 11069" width="9.681" height="29.287" transform="translate(536.41 98.184)" fill="none" stroke="#fff" stroke-linecap="round" stroke-linejoin="round" stroke-width="0.44"/>
          <rect id="矩形_11070" data-name="矩形 11070" width="9.681" height="29.287" transform="translate(521.329 98.184)" fill="none" stroke="#fff" stroke-linecap="round" stroke-linejoin="round" stroke-width="0.44"/>
          <rect id="矩形_11071" data-name="矩形 11071" width="9.681" height="29.287" transform="translate(506.251 98.184)" fill="none" stroke="#fff" stroke-linecap="round" stroke-linejoin="round" stroke-width="0.44"/>
          <rect id="矩形_11072" data-name="矩形 11072" width="9.681" height="50.637" transform="translate(450.305 76.835)" fill="none" stroke="#fff" stroke-linecap="round" stroke-linejoin="round" stroke-width="0.44"/>
          <rect id="矩形_11073" data-name="矩形 11073" width="39.323" height="37.456" transform="translate(357.657 89.992)" fill="none" stroke="#fff" stroke-linecap="round" stroke-linejoin="round" stroke-width="0.44"/>
          <rect id="矩形_11074" data-name="矩形 11074" width="39.323" height="37.456" transform="translate(312.47 89.992)" fill="none" stroke="#fff" stroke-linecap="round" stroke-linejoin="round" stroke-width="0.44"/>
          <rect id="矩形_11075" data-name="矩形 11075" width="3.725" height="24.457" transform="translate(497.128 103.014)" fill="none" stroke="#fff" stroke-linecap="round" stroke-linejoin="round" stroke-width="0.44"/>
          <rect id="矩形_11076" data-name="矩形 11076" width="3.725" height="24.457" transform="translate(493.4 103.014)" fill="none" stroke="#fff" stroke-linecap="round" stroke-linejoin="round" stroke-width="0.44"/>
          <rect id="矩形_11077" data-name="矩形 11077" width="3.728" height="24.457" transform="translate(489.675 103.014)" fill="none" stroke="#fff" stroke-linecap="round" stroke-linejoin="round" stroke-width="0.44"/>
          <rect id="矩形_11078" data-name="矩形 11078" width="3.725" height="24.457" transform="translate(485.947 103.014)" fill="none" stroke="#fff" stroke-linecap="round" stroke-linejoin="round" stroke-width="0.44"/>
          <rect id="矩形_11079" data-name="矩形 11079" width="3.725" height="24.457" transform="translate(482.222 103.014)" fill="none" stroke="#fff" stroke-linecap="round" stroke-linejoin="round" stroke-width="0.44"/>
          <rect id="矩形_11080" data-name="矩形 11080" width="3.725" height="24.457" transform="translate(478.496 103.014)" fill="none" stroke="#fff" stroke-linecap="round" stroke-linejoin="round" stroke-width="0.44"/>
          <rect id="矩形_11081" data-name="矩形 11081" width="3.725" height="24.457" transform="translate(474.768 103.014)" fill="none" stroke="#fff" stroke-linecap="round" stroke-linejoin="round" stroke-width="0.44"/>
          <rect id="矩形_11082" data-name="矩形 11082" width="3.725" height="24.457" transform="translate(471.043 103.014)" fill="none" stroke="#fff" stroke-linecap="round" stroke-linejoin="round" stroke-width="0.44"/>
          <rect id="矩形_11083" data-name="矩形 11083" width="3.725" height="24.457" transform="translate(467.318 103.014)" fill="none" stroke="#fff" stroke-linecap="round" stroke-linejoin="round" stroke-width="0.44"/>
          <rect id="矩形_11084" data-name="矩形 11084" width="3.725" height="24.457" transform="translate(439.25 103.014)" fill="none" stroke="#fff" stroke-linecap="round" stroke-linejoin="round" stroke-width="0.44"/>
          <rect id="矩形_11085" data-name="矩形 11085" width="3.725" height="24.457" transform="translate(435.525 103.014)" fill="none" stroke="#fff" stroke-linecap="round" stroke-linejoin="round" stroke-width="0.44"/>
          <rect id="矩形_11086" data-name="矩形 11086" width="3.725" height="24.457" transform="translate(431.797 103.014)" fill="none" stroke="#fff" stroke-linecap="round" stroke-linejoin="round" stroke-width="0.44"/>
          <rect id="矩形_11087" data-name="矩形 11087" width="3.725" height="24.457" transform="translate(428.072 103.014)" fill="none" stroke="#fff" stroke-linecap="round" stroke-linejoin="round" stroke-width="0.44"/>
          <rect id="矩形_11088" data-name="矩形 11088" width="3.725" height="24.457" transform="translate(424.347 103.014)" fill="none" stroke="#fff" stroke-linecap="round" stroke-linejoin="round" stroke-width="0.44"/>
          <rect id="矩形_11089" data-name="矩形 11089" width="3.725" height="24.457" transform="translate(420.621 103.014)" fill="none" stroke="#fff" stroke-linecap="round" stroke-linejoin="round" stroke-width="0.44"/>
          <rect id="矩形_11090" data-name="矩形 11090" width="3.728" height="24.457" transform="translate(416.893 103.014)" fill="none" stroke="#fff" stroke-linecap="round" stroke-linejoin="round" stroke-width="0.44"/>
          <rect id="矩形_11091" data-name="矩形 11091" width="3.725" height="24.457" transform="translate(413.165 103.014)" fill="none" stroke="#fff" stroke-linecap="round" stroke-linejoin="round" stroke-width="0.44"/>
          <rect id="矩形_11092" data-name="矩形 11092" width="3.725" height="24.457" transform="translate(409.44 103.014)" fill="none" stroke="#fff" stroke-linecap="round" stroke-linejoin="round" stroke-width="0.44"/>
          <path id="路径_62398" data-name="路径 62398" d="M1140.044,68.455h73.26a12.653,12.653,0,0,0,0-25.305H10.8" transform="translate(20.857 84.321)" fill="none" stroke="#fff" stroke-linecap="round" stroke-linejoin="round" stroke-width="0.495"/>
          <line id="直线_1584" data-name="直线 1584" x1="598.367" transform="translate(1160.901 171.719)" fill="none" stroke="#fff" stroke-linecap="round" stroke-linejoin="round" stroke-width="0.495"/>
          <path id="路径_62401" data-name="路径 62401" d="M415.549,51.716h-20.1a9.473,9.473,0,1,0,0,18.945h20.1" transform="translate(754.255 101.06)" fill="none" stroke="#fff" stroke-linecap="round" stroke-linejoin="round" stroke-width="0.495"/>
          <path id="路径_62403" data-name="路径 62403" d="M80.226,36.443s-.269.044-.346-1.276a.834.834,0,0,1,.446-.727c1.179-.062,1.5.44,1.5.44.053.16.133.281.189.428a1.385,1.385,0,0,1-.26.854,2.351,2.351,0,0,1-1.53.281" transform="translate(156.098 67.291)" fill="#fff" fill-rule="evenodd"/>
          <path id="路径_62404" data-name="路径 62404" d="M88.505,38.216c.609-.083.6.845.6.845l-.086,3.046-.089,1.128a11.155,11.155,0,0,0,.1,1.578,17.6,17.6,0,0,1-.015,1.8,3.625,3.625,0,0,1-.115,1.238c-.417-.086-.671-.408-.975-.555,0,.027,0,.021.035.053-.095.05-.18-.083-.272-.044a.946.946,0,0,0,.207.16c-.018.035-.05.044-.044.1.121.145.3.222.369.417-.077-.015-.118-.018-.16.024.068.186.266.242.343.411-.133-.056-.227-.275-.366-.236.047.248.4.254.354.549a5,5,0,0,0,.4.526s-.068.5.508.417a1.152,1.152,0,0,0,.614-.753,15.52,15.52,0,0,0-.1-2.771,6.6,6.6,0,0,0-.056-2.535,5.113,5.113,0,0,1,.071-.931,20.088,20.088,0,0,0,.086-3.507c.366-1.3-.13-1.536-.13-1.536a1.235,1.235,0,0,0-.922-.015c.151-.552,1.7-1.625,1.7-1.625,2.162-.951,1.04-1.548,1.04-1.548s-.765-.532-2.115.86c0,0-3.063,2.062-4.121,3.019a22.156,22.156,0,0,0-2.86,3.332,8.617,8.617,0,0,0-1.1,2.124c-.071.346-.369,1.344-.614,2.136a1.466,1.466,0,0,1-.127-.73,23.336,23.336,0,0,1,.547-3.716s1.38-.8.762-1.923a.634.634,0,0,0-.251-.186,6.288,6.288,0,0,0-1.128-.381c-.207-.021-.3.174-.476.3,0,0-.3.446.059,1.569l.009.035c.047.151-.414,3.749-.414,3.749-.547,3.908,1.179,2.942,1.179,2.942a3.925,3.925,0,0,0,1.128-1.5c.059-.866.1-1.885.139-2.047.08-1.356,2.673-5.232,5.964-6.623-.824,1.38-1.58,2.86-2.322,4.331a2.163,2.163,0,0,0-.517,1.51.449.449,0,0,0,.514.278.989.989,0,0,0,.617-.792c.077-.806.328-.88.328-.88a1.2,1.2,0,0,0,.827,1.066c.951.136.857-1.046.857-1.046a5.674,5.674,0,0,1-.136-.65,2.258,2.258,0,0,1-.068-.677c-.056-.4-.127-.216-.174-.331-.059-.162.027-.36-.041-.5-.089-.03-.08.115-.136.074-.041-.142.068-.284.035-.4a5.7,5.7,0,0,1-.354,1.1.678.678,0,0,0-.464.032c.219-.452.479-.792.709-1.309a6.208,6.208,0,0,1,.668-1.167s.065-.047-.012.157" transform="translate(155.662 67.129)" fill="#fff"/>
          <path id="路径_62405" data-name="路径 62405" d="M97.163,36.913c-.05.62-.39.762-.39.762a1.659,1.659,0,0,1-.945.1c-.065-.044-.033-.148-.121-.225A1.355,1.355,0,0,1,95.1,37c.038-.03.044-.024.035-.044a3.8,3.8,0,0,1-.3-.656.611.611,0,0,1,.177-.668s.115-.127.659-.035a1.777,1.777,0,0,1,.3.056c.121.03.307.115.62.236a1.188,1.188,0,0,1,.57,1" transform="translate(185.263 69.504)" fill="#fff" fill-rule="evenodd"/>
          <path id="路径_62406" data-name="路径 62406" d="M96.536,38.632s-.493.346-.65,1.657c-.035.4-.035.511-.068.741a2.52,2.52,0,0,0,.083.724,8.385,8.385,0,0,0,1.734-3.329c.047.313-.284.712-.056.948.015.065-.071.154.015.165-.121.071-.047.328-.186.4a.06.06,0,0,0,.038.071c-.145.213-.071.6-.189.721a.757.757,0,0,1-.027.174,5.727,5.727,0,0,1-.476,1.914c-.682,1.258-1.069,1.321-1.069,1.321a1.266,1.266,0,0,0-.31.035s-.744-.171-.668-1.335c0,0,1-3.752,1.016-3.808.053-.31.213-.612.233-.922a4.14,4.14,0,0,0-.222-.815.729.729,0,0,1,.174-.514h.071c.047-.021.024-.089.071-.106a1.089,1.089,0,0,1,1.288.8,3.711,3.711,0,0,1-.165.629,2.54,2.54,0,0,1-.638.526" transform="translate(185.063 71.637)" fill="#fff" fill-rule="evenodd"/>
          <path id="路径_62407" data-name="路径 62407" d="M101.144,39.436s.555-.227.547-.606l-.009-.027c-.266-1.046-2.319.225-2.319.225a5.689,5.689,0,0,1-1.483.827s-.225-.16.96-2.021a18.12,18.12,0,0,0,1.362-2.481c0-.334.2-.579-.154-.934-.789-.257-1.536,1.3-1.536,1.3.041-.006.059-.027.1-.03-.009.047-.1.086-.056.136.041-.053.068-.127.139-.165.139.015.177-.157.325-.1,0,0-.322.809-.535,1.323,0,0-1.749,3.069-1.167,3.95.343.34,1.48-.582,1.48-.582s1.323-1.14,1.521-.939c.03.035-1.161,1.746-1.161,1.746-.526.907-1.362,2.86-1.362,2.86a1.379,1.379,0,0,1-.978-.071c-1.214-.095-.476.815-.476.815.349.245.869.157,1.193.245-.4,1.616.744,1.832.744,1.832.576.089,1.093-.34,1.648-.313a4.127,4.127,0,0,1-.75,1.982.329.329,0,0,0-.207-.083c-.027.059.08.145.047.207a1.4,1.4,0,0,0,.038,1.214s.044.148.165.165c.207.027.594-.26.747-.57.526-1.1.739-1.71.739-1.71.195-.331.189-.877.384-1.205a1.428,1.428,0,0,0,.446-.23.934.934,0,0,0-.541-.981,3.457,3.457,0,0,1,.287-1.205,5.209,5.209,0,0,0,1-.236.622.622,0,0,1,.623.216.6.6,0,0,0,.75.118c.6-1.515-1.253-1.019-1.253-1.019s-.877.23-.939.1a3.281,3.281,0,0,0,.183-1.973.736.736,0,0,0-.9-.26c-.65.177-.659.547-.659.547a.927.927,0,0,1,.408.245,1.833,1.833,0,0,1,0,.913,2.929,2.929,0,0,1-.422-.245s-.706-.384-.768.544c-.062.284-.074.579-.13.8-.095.148-.482.13-.676.086,1.034-3.734,2.641-4.4,2.641-4.4M98.68,45.418a.485.485,0,0,1-.352-.617c.183-.059.422-.227.691-.139-.024.287-.083.544-.322.614-.018.035,0,.109-.018.142m1.081-.092a5.864,5.864,0,0,1-.945.106c.065-.139.242-.157.319-.287,0,0,.106.124.422-.307a.945.945,0,0,0,.36-.216c.352-.479.417-.328.417-.328a2.693,2.693,0,0,1-.222.789s.056.242-.352.242" transform="translate(187.835 67.205)" fill="#fff"/>
          <path id="路径_62408" data-name="路径 62408" d="M129.117,36.089a.309.309,0,0,1-.213.145,2.438,2.438,0,0,1-.112.446s.145.484.219.907c-.027.3-.056.671-.077.975a11.478,11.478,0,0,0-.089,2.771c.1.319.34.213.552.1.033-.012.006-.08.038-.083.2-.056.281-.269.493-.322a1.92,1.92,0,0,0,.482-1.356,6.188,6.188,0,0,1,.567-2.411,13.812,13.812,0,0,0-.34,3.013,3.654,3.654,0,0,1-.112.747,1.34,1.34,0,0,0-.148.668,2.241,2.241,0,0,1-1.034.375c-.922.2-1.651.768-2.552.978a2.483,2.483,0,0,1-.9.154c.08-.077.121-.2.2-.287-.018-.106.077-.2.086-.31a1.368,1.368,0,0,1-.378.2c-.177.077-.334.236-.564.227-.086.086-.086.222-.189.278a2.267,2.267,0,0,0-.157.928c.1.216.366.065.532.086a6.617,6.617,0,0,0,2.372-.632,5.346,5.346,0,0,1,1.474-.647,5.463,5.463,0,0,0,1.625-.511c.588-.263,1.081-.425,1.48-.576,1.4-.591,1.832-.434,1.832-.434a.39.39,0,0,1,.059.482c-.227.44-.987.653-1.642.845a1.273,1.273,0,0,1-.352.086c-.056,0-.1-.009-.145-.009a2.054,2.054,0,0,0-1.049.484,3.2,3.2,0,0,1-.372.142c-.047.021-.094.08-.124.092-.047.021-.136.044-.216.068-.109.05-.334.154-.343.266-.012.139.242.225.357.26.192.047.4-.006.552.024a1.748,1.748,0,0,1,.414-.115,2.164,2.164,0,0,0-.322,1.226,2.348,2.348,0,0,1,.44.7,3.977,3.977,0,0,1,.34.544,1.916,1.916,0,0,1-.677.124,1.933,1.933,0,0,0-.493.162,3.518,3.518,0,0,0-.783.419c-.071.065-.151.109-.225.174a2.1,2.1,0,0,0-.254.222c-.035.044-.08.112-.112.154s-.1.095-.13.136c-.044.068-.074.127-.106.174a.946.946,0,0,0-.269.62c-.015.065-.092.1-.133.145-.038.1.1.133-.012.233.083.095.053.2.13.266a2.636,2.636,0,0,0,.236.461c.611.963,1.152.795,1.152.795a2.655,2.655,0,0,0,1.746-.712,2.983,2.983,0,0,0,.78-1.914,3.11,3.11,0,0,0,1.114-.041c.044-.041.139-.068.2-.136.024-.021.089-.095.118-.124.056-.059.121-.08.154-.133.071-.13.032-.316.106-.487a2.6,2.6,0,0,1-.095-.3c-.083-.009-.127-.086-.2-.118a1.205,1.205,0,0,0-.266-.035,1.131,1.131,0,0,1-.189-.086c-.109-.038-.2-.027-.281-.08-.13,0-.263.059-.384.018-.038-.009-.015.062-.053.05-.1-.068-.29.018-.4-.089-.062-.047-.094-.254-.136-.355a2.709,2.709,0,0,0-.378-.567c-.05-.08-.083-.171-.139-.26-.074-.13-.331-.408-.292-.555.006-.038.151-.139.189-.216a.644.644,0,0,1,.236-.26,3.166,3.166,0,0,1,.284-.449c.083-.059.281-.148.331-.236.121-.195.071-.582-.062-.638a2.429,2.429,0,0,0,.647-.041c.168-.041.349-.065.419-.08a.412.412,0,0,1,.29-.05c.151.2.292-.03.5.056a1.632,1.632,0,0,0,.242-.183c.068-.065.171-.1.23-.165.074-.083.095-.186.216-.195a.981.981,0,0,0,.228-.4.533.533,0,0,0,.071-.207c0-.092.012-.363.006-.476a.864.864,0,0,0-.325-.5,1.121,1.121,0,0,0-.68-.21,11.435,11.435,0,0,0-2.715.641c.059-.139.21-.417.4-.3.032.059-.05.062-.041.136.183-.074.292-.2.49-.292.044-.083.133-.089.213-.168a.419.419,0,0,1,.074-.109c.112,0,.142-.092.254-.092a1.014,1.014,0,0,1,.012-.112c.038-.021.086-.012.121-.044a3.454,3.454,0,0,1,.75-.473,1.016,1.016,0,0,0,.3-.573,1.055,1.055,0,0,0-.3-.78c-.021-.027-.083-.077-.115-.112s-.062-.089-.1-.112c-.08-.071-.177-.065-.216-.151s.1-.192.171-.266a3.354,3.354,0,0,1,.617-.6c.251-.08.582-.154.638-.629a.629.629,0,0,0-.03-.23.9.9,0,0,1-.044-.145.358.358,0,0,0-.1-.207c-.127-.115-.307-.124-.408-.2-.165-.124-.139-.4-.021-.635a1.843,1.843,0,0,0,.1-.2c.065-.13.145-.257.189-.375a.592.592,0,0,0-.056-.517c-.227-.222-.736.109-.812.275-.2.254-.115.6-.186.931,0,0-.281.857-.567,1.622-.095.086-.154.186-.236.275-.068.071-.127.157-.195.23a.746.746,0,0,1-.222.186.628.628,0,0,1-.207.225.6.6,0,0,1-.044.109,3.48,3.48,0,0,0-.6,1.078c.056-.31.142-.623.189-.96a9.889,9.889,0,0,1,.112-1.034c.071-.3.183-.617.23-.9,0-.354-.13-.617-.482-.547-.222.047-.473.121-.558.3-.024-.03-.035.006-.077-.009a3.348,3.348,0,0,0-.786.866c-.083-.05-.1-.154-.142-.227,0,0-.363-.671-.839-.313m3.483,2.526c.071.015.038.106.065.151.077.133.287.151.387.257,0,.177-.142.316-.23.455a4.59,4.59,0,0,1-.957,1.173c-.015-.112.077-.36.056-.505.287-1.575.679-1.53.679-1.53m-.665,9.834c-.2.614-.863,1.486-1.628,1.341-.434-.139-.47-.337-.428-.712.071-1,1.264-1.35,1.264-1.35.3.027.674,0,.818.133,0,0,.136.109-.027.588" transform="translate(244.057 66.257)" fill="#fff"/>
          <path id="路径_62409" data-name="路径 62409" d="M113.1,39.059a.541.541,0,0,0-.077-.148c-.2-.145-.16-.316-.363-.349-.015-.071.021-.171-.038-.222,0-.05.059-.041.065-.092s-.027-.1-.035-.151c.059-.157.089-.352.269-.4a.517.517,0,0,0,.34-.015,2.943,2.943,0,0,0,.313.1,19.013,19.013,0,0,1,1.687,1.507,1.227,1.227,0,0,1,.419.662.825.825,0,0,1-.845,1.031c-.1-.021-.2-.13-.307-.095,0,0-.514-.133-1.427-1.835" transform="translate(220.087 73.648)" fill="#fff"/>
          <path id="路径_62410" data-name="路径 62410" d="M112.869,46.053a3.476,3.476,0,0,1-1.48.641c-.452.047-.617-.006-.744-.092a.868.868,0,0,1,.1-.13c-.05-.2.047-.437-.03-.665.041-.08.133-.095.195-.142.092.041.257.015.3.1.739.177,1.864-1.356,1.864-1.356a6.273,6.273,0,0,0,1.061-2.579l-.34.106s-1.964.659-2.337-.118c-.015-.012.021-.089-.027-.186-.03-.074-.148-.124-.151-.225a.481.481,0,0,1,.062-.183,1.248,1.248,0,0,1,.313-.431,1.978,1.978,0,0,1,.165-.13c.015-.006.549-.216.836-.05a.132.132,0,0,1,.009.1s1.542.133,1.74-.609a13.778,13.778,0,0,0,.121-3.406c.012-.352.041-.411.038-.736,0,0,.009-.316.032-.685a.613.613,0,0,1,.5-.467c.027-.012.165-.032.171-.059.2.044.343.2.541.133.053.071-.015.1.021.154.018.012.062,0,.083.012s-.009.053,0,.074.086.015.1.035.015.08.044.13.062.009.089.089a.444.444,0,0,1,.047.168.948.948,0,0,1,.062.588l-.343,1a1.752,1.752,0,0,0-.083.594,8.957,8.957,0,0,1-.213,1.944,4.814,4.814,0,0,0,1.025-.467.952.952,0,0,1,1.1.213c.774.656.121,1.123.121,1.123-.092.071-.124.136-.263.136-.059.018-.068.089-.118.1-.086.018-.13-.092-.213-.074-.053.009-.077.071-.127.092,0,0-.662.1-.774-.056a.451.451,0,0,0-.1.027,1.45,1.45,0,0,0-.928.428s-.068.606-.3,1.725a5.969,5.969,0,0,1-2.189,3.137" transform="translate(216.218 67.9)" fill="#fff"/>
          <path id="路径_62411" data-name="路径 62411" d="M797.018,24v2.151c-4.213,1.087-9.359,2.272-15.406,3.495-8.635,1.755-19.1,3.589-31.228,5.344-33.228,4.792-78.985,8.93-134.166,8.93s-100.929-4.139-134.157-8.93c-12.115-1.746-22.567-3.583-31.2-5.329-6.056-1.238-11.223-2.422-15.441-3.51V24Z" transform="translate(850.874 46.893)" fill="none" stroke="#fff" stroke-linecap="round" stroke-linejoin="round" stroke-width="0.437"/>
          <path id="路径_62412" data-name="路径 62412" d="M477.712,36.625v6.334h-9.4V36.625s.907-1.817,4.7-1.817S477.712,36.625,477.712,36.625Z" transform="translate(915.154 68.02)" fill="none" stroke="#fff" stroke-linecap="round" stroke-linejoin="round" stroke-width="0.437"/>
          <rect id="矩形_11093" data-name="矩形 11093" width="9.4" height="6.786" transform="translate(1383.466 113.245)" fill="none" stroke="#fff" stroke-linecap="round" stroke-linejoin="round" stroke-width="0.437"/>
          <rect id="矩形_11094" data-name="矩形 11094" width="9.4" height="6.792" transform="translate(1383.466 122.299)" fill="none" stroke="#fff" stroke-linecap="round" stroke-linejoin="round" stroke-width="0.437"/>
          <rect id="矩形_11095" data-name="矩形 11095" width="9.4" height="6.792" transform="translate(1383.466 131.348)" fill="none" stroke="#fff" stroke-linecap="round" stroke-linejoin="round" stroke-width="0.437"/>
          <rect id="矩形_11096" data-name="矩形 11096" width="9.4" height="6.792" transform="translate(1383.466 140.408)" fill="none" stroke="#fff" stroke-linecap="round" stroke-linejoin="round" stroke-width="0.437"/>
          <rect id="矩形_11097" data-name="矩形 11097" width="9.4" height="4.464" transform="translate(1383.466 149.46)" fill="none" stroke="#fff" stroke-linecap="round" stroke-linejoin="round" stroke-width="0.437"/>
          <rect id="矩形_11098" data-name="矩形 11098" width="7.072" height="25.618" transform="translate(1406.834 128.305)" fill="none" stroke="#fff" stroke-linecap="round" stroke-linejoin="round" stroke-width="0.437"/>
          <line id="直线_1585" data-name="直线 1585" x1="0.047" y1="0.009" transform="translate(1347.032 90.337)" fill="none" stroke="#fff" stroke-linecap="round" stroke-linejoin="round" stroke-width="0.437"/>
          <line id="直线_1586" data-name="直线 1586" x1="0.015" transform="translate(1353.412 94.168)" fill="none" stroke="#fff" stroke-linecap="round" stroke-linejoin="round" stroke-width="0.437"/>
          <line id="直线_1587" data-name="直线 1587" y2="10.989" transform="translate(1332.229 70.892)" fill="none" stroke="#fff" stroke-linecap="round" stroke-linejoin="round" stroke-width="0.437"/>
          <line id="直线_1588" data-name="直线 1588" y1="13.589" transform="translate(1352.903 70.893)" fill="none" stroke="#fff" stroke-linecap="round" stroke-linejoin="round" stroke-width="0.437"/>
          <line id="直线_1589" data-name="直线 1589" y1="17.317" transform="translate(1391.574 70.892)" fill="none" stroke="#fff" stroke-linecap="round" stroke-linejoin="round" stroke-width="0.437"/>
          <line id="直线_1590" data-name="直线 1590" y1="15.639" transform="translate(1372.044 70.892)" fill="none" stroke="#fff" stroke-linecap="round" stroke-linejoin="round" stroke-width="0.437"/>
          <line id="直线_1591" data-name="直线 1591" y1="7.241" transform="translate(1309.835 70.893)" fill="none" stroke="#fff" stroke-linecap="round" stroke-linejoin="round" stroke-width="0.437"/>
          <line id="直线_1592" data-name="直线 1592" y1="18.44" transform="translate(1410.716 70.892)" fill="none" stroke="#fff" stroke-linecap="round" stroke-linejoin="round" stroke-width="0.437"/>
          <line id="直线_1593" data-name="直线 1593" y1="19.279" transform="translate(1429.857 70.893)" fill="none" stroke="#fff" stroke-linecap="round" stroke-linejoin="round" stroke-width="0.437"/>
          <line id="直线_1594" data-name="直线 1594" y1="19.769" transform="translate(1449.128 70.893)" fill="none" stroke="#fff" stroke-linecap="round" stroke-linejoin="round" stroke-width="0.437"/>
          <path id="路径_62413" data-name="路径 62413" d="M486.805,49.387,435.418,24.726c4.221,1.084,9.388,2.272,15.441,3.507l9.057,5.332,7.134,4.192,6.472,3.808,7.834,4.614Z" transform="translate(850.874 48.318)" fill="none" stroke="#fff" stroke-linecap="round" stroke-linejoin="round" stroke-width="0.437"/>
          <path id="路径_62414" data-name="路径 62414" d="M479.138,35.62,449.7,31.245l-9.057-5.332c8.635,1.749,19.087,3.586,31.2,5.332Z" transform="translate(861.089 50.637)" fill="none" stroke="#fff" stroke-linecap="round" stroke-linejoin="round" stroke-width="0.437"/>
          <path id="路径_62415" data-name="路径 62415" d="M479.95,36.175l-29.107-4.266-7.131-4.192,29.432,4.375h.009Z" transform="translate(867.081 54.163)" fill="none" stroke="#fff" stroke-linecap="round" stroke-linejoin="round" stroke-width="0.437"/>
          <path id="路径_62416" data-name="路径 62416" d="M481.6,37.225l-29-4.281-6.47-3.808,29.1,4.266Z" transform="translate(871.8 56.936)" fill="none" stroke="#fff" stroke-linecap="round" stroke-linejoin="round" stroke-width="0.437"/>
          <path id="路径_62417" data-name="路径 62417" d="M485.04,39.333l-28.889-4.3-7.834-4.611,29,4.278.012.009Z" transform="translate(876.081 59.456)" fill="none" stroke="#fff" stroke-linecap="round" stroke-linejoin="round" stroke-width="0.437"/>
          <path id="路径_62418" data-name="路径 62418" d="M488.233,41.305c-20.375-3.134-31.816-6.109-31.816-6.109l-5.447-3.208,28.889,4.292h.006Z" transform="translate(881.263 62.509)" fill="none" stroke="#fff" stroke-linecap="round" stroke-linejoin="round" stroke-width="0.437"/>
          <path id="路径_62419" data-name="路径 62419" d="M719.53,27.718l-7.291,4.375h-.006l-6.8,4.083L699.058,40h-.006l-7.708,4.62h-.006l-8.369,5.025V41.3h-.006V41.3h-.009v-.009l-.012-.018a.06.06,0,0,0-.021-.041c-.015-.021-.026-.05-.047-.077l-.026-.027a1.462,1.462,0,0,0-.213-.239.786.786,0,0,0-.156-.157,3.08,3.08,0,0,0-.484-.363c-.062-.038-.13-.08-.207-.121a3.924,3.924,0,0,0-.484-.233c-.089-.041-.177-.074-.278-.109a5.266,5.266,0,0,0-.546-.162c-.1-.027-.207-.047-.307-.077a.226.226,0,0,1-.062-.012c-.095-.021-.192-.035-.293-.047s-.228-.035-.349-.05a11.4,11.4,0,0,0-1.2-.065c-.213,0-.423.006-.615.018a2.922,2.922,0,0,0-.369.03c-.121.006-.23.018-.34.032l-.39.062a5.59,5.59,0,0,0-.677.157c-.109.027-.21.062-.307.095-.163.056-.313.118-.455.177a.183.183,0,0,0-.068.035c-.083.035-.16.074-.228.109l-.041.021-.163.095a1.99,1.99,0,0,0-.183.124,2.655,2.655,0,0,0-.316.239c-.047.041-.089.074-.13.115a1.753,1.753,0,0,0-.366.431.151.151,0,0,0-.036.053l-.012.021h-.009v9.713c-1.48.2-3.011.4-4.567.6V50.483s-.907-1.817-4.7-1.817-4.694,1.817-4.694,1.817v2.266q-2.247.248-4.567.49v-9.35h-.009V43.88h-.006v-.006L655,43.854a.55.55,0,0,0-.094-.151,1.536,1.536,0,0,0-.213-.239,2.771,2.771,0,0,0-.23-.21,1.994,1.994,0,0,0-.266-.2c-.047-.035-.1-.068-.157-.1a4.763,4.763,0,0,0-.942-.452c-.136-.047-.281-.095-.437-.136a5.8,5.8,0,0,0-.759-.162,4.114,4.114,0,0,0-.449-.062,9.434,9.434,0,0,0-1.126-.062c-.192,0-.375.009-.552.015-.157.006-.3.021-.437.032a.07.07,0,0,0-.041.009c-.118.006-.225.018-.334.032a6.81,6.81,0,0,0-.969.2c-.159.041-.3.089-.44.136-.086.03-.168.062-.245.1s-.157.068-.23.1l-.077.035c-.08.041-.156.083-.224.121a2.173,2.173,0,0,0-.26.16,2.964,2.964,0,0,0-.4.3h-.006c-.056.056-.109.1-.15.151a2.214,2.214,0,0,0-.219.254.688.688,0,0,0-.115.171V54.155H525.105V43.889s-.9-1.817-4.694-1.817-4.706,1.817-4.706,1.817v9.35c-1.548-.162-3.078-.325-4.573-.49V50.483s-.9-1.817-4.694-1.817-4.706,1.817-4.706,1.817v1.131c-1.554-.2-3.078-.4-4.558-.6V41.3h-.006V41.3h-.009v-.009l-.012-.018a.867.867,0,0,0-.1-.145,1.3,1.3,0,0,0-.21-.239.8.8,0,0,0-.159-.157,3.506,3.506,0,0,0-.434-.334c-.077-.047-.157-.1-.245-.145s-.186-.1-.289-.151a.328.328,0,0,1-.089-.041,4.661,4.661,0,0,0-.647-.239c-.089-.024-.183-.053-.287-.08a7.407,7.407,0,0,0-.928-.177c-.2-.021-.4-.041-.614-.056s-.443-.018-.677-.018c-3.8,0-4.7,1.814-4.7,1.814V49.65L479.4,44.625h-.006L471.685,40,471.67,40,465.3,36.176l-6.8-4.083H458.5l-7.291-4.375c33.228,4.792,78.985,8.927,134.157,8.927S686.3,32.51,719.53,27.718Z" transform="translate(881.729 54.165)" fill="none" stroke="#fff" stroke-linecap="round" stroke-linejoin="round" stroke-width="0.437"/>
          <path id="路径_62420" data-name="路径 62420" d="M466.762,32.311l.006.006h-.006Z" transform="translate(912.126 63.14)" fill="none" stroke="#fff" stroke-linecap="round" stroke-linejoin="round" stroke-width="0.437"/>
          <path id="路径_62421" data-name="路径 62421" d="M520.2,33.187l.006.006H520.2Z" transform="translate(1016.548 64.852)" fill="none" stroke="#fff" stroke-linecap="round" stroke-linejoin="round" stroke-width="0.437"/>
          <path id="路径_62422" data-name="路径 62422" d="M466.54,31.9c-.281-.068-.588-.13-.928-.177A7.985,7.985,0,0,1,466.54,31.9Z" transform="translate(909.878 61.997)" fill="none" stroke="#fff" stroke-linecap="round" stroke-linejoin="round" stroke-width="0.437"/>
          <path id="路径_62423" data-name="路径 62423" d="M466.672,32.053c-.192-.083-.408-.162-.65-.239A4.351,4.351,0,0,1,466.672,32.053Z" transform="translate(910.679 62.169)" fill="none" stroke="#fff" stroke-linecap="round" stroke-linejoin="round" stroke-width="0.437"/>
          <path id="路径_62424" data-name="路径 62424" d="M466.866,32.414c-.056-.068-.124-.151-.213-.239A1.224,1.224,0,0,1,466.866,32.414Z" transform="translate(911.912 62.874)" fill="none" stroke="#fff" stroke-linecap="round" stroke-linejoin="round" stroke-width="0.437"/>
          <path id="路径_62425" data-name="路径 62425" d="M466.768,32.317v.006l-.006-.006v-.006Z" transform="translate(912.126 63.141)" fill="none" stroke="#fff" stroke-linecap="round" stroke-linejoin="round" stroke-width="0.437"/>
          <rect id="矩形_11099" data-name="矩形 11099" width="0.006" height="9.713" transform="translate(1378.896 95.464)" fill="none" stroke="#fff" stroke-linecap="round" stroke-linejoin="round" stroke-width="0.437"/>
          <path id="路径_62426" data-name="路径 62426" d="M520.3,33.287c-.056-.062-.124-.151-.213-.239A1.42,1.42,0,0,1,520.3,33.287Z" transform="translate(1016.335 64.58)" fill="none" stroke="#fff" stroke-linecap="round" stroke-linejoin="round" stroke-width="0.437"/>
          <path id="路径_62427" data-name="路径 62427" d="M520.2,33.193V33.2l-.006-.006v-.006Z" transform="translate(1016.548 64.852)" fill="none" stroke="#fff" stroke-linecap="round" stroke-linejoin="round" stroke-width="0.437"/>
          <path id="路径_62428" data-name="路径 62428" d="M520.206,33.191v9.353H520.2V33.191Z" transform="translate(1016.553 64.86)" fill="none" stroke="#fff" stroke-linecap="round" stroke-linejoin="round" stroke-width="0.437"/>
          <path id="路径_62429" data-name="路径 62429" d="M529.76,32.414c-.056-.068-.124-.151-.213-.239A1.219,1.219,0,0,1,529.76,32.414Z" transform="translate(1034.817 62.874)" fill="none" stroke="#fff" stroke-linecap="round" stroke-linejoin="round" stroke-width="0.437"/>
          <path id="路径_62430" data-name="路径 62430" d="M529.662,32.313v.006l-.006-.006Z" transform="translate(1035.03 63.144)" fill="none" stroke="#fff" stroke-linecap="round" stroke-linejoin="round" stroke-width="0.437"/>
          <rect id="矩形_11100" data-name="矩形 11100" width="0.006" height="8.348" transform="translate(1564.692 95.464)" fill="none" stroke="#fff" stroke-linecap="round" stroke-linejoin="round" stroke-width="0.437"/>
          <path id="路径_62431" data-name="路径 62431" d="M591.736,24.725l-51.269,24.6,5.338-3.149,7.834-4.614,6.473-3.808,7.131-4.192,9.087-5.344C582.378,27,587.524,25.809,591.736,24.725Z" transform="translate(1056.156 48.316)" fill="none" stroke="#fff" stroke-linecap="round" stroke-linejoin="round" stroke-width="0.437"/>
          <path id="路径_62432" data-name="路径 62432" d="M472.989,33.516v75.872h-9.406V33.516s.907-1.814,4.7-1.814c.233,0,.464.006.676.018s.417.035.615.056a7.409,7.409,0,0,1,.928.177c.1.027.2.056.287.083a4.315,4.315,0,0,1,.647.236.351.351,0,0,0,.089.044c.1.047.2.095.289.148s.168.1.245.145a3.507,3.507,0,0,1,.434.334c.056.056.112.1.159.157a1.3,1.3,0,0,1,.21.239.864.864,0,0,1,.1.145l.012.018.009.009v.006Z" transform="translate(905.913 61.95)" fill="none" stroke="#fff" stroke-linecap="round" stroke-linejoin="round" stroke-width="0.437"/>
          <path id="路径_62433" data-name="路径 62433" d="M482.44,34.393v73.284h-9.4V34.393s.91-1.817,4.7-1.817S482.44,34.393,482.44,34.393Z" transform="translate(924.394 63.658)" fill="none" stroke="#fff" stroke-linecap="round" stroke-linejoin="round" stroke-width="0.437"/>
          <path id="路径_62434" data-name="路径 62434" d="M535.878,33.516v75.872h-9.4V33.516l.014-.021a.162.162,0,0,1,.033-.053,1.856,1.856,0,0,1,.369-.431c.041-.041.083-.074.13-.115a2.631,2.631,0,0,1,.313-.239q.084-.062.186-.124l.163-.095.041-.021c.068-.032.145-.074.224-.109a.374.374,0,0,1,.068-.035c.145-.059.3-.121.458-.174a2.869,2.869,0,0,1,.307-.1c.2-.053.431-.109.677-.157.124-.021.251-.041.39-.062.109-.012.219-.027.34-.032s.239-.021.369-.03c.192-.012.4-.018.615-.018a10.621,10.621,0,0,1,1.2.068c.115.012.23.027.349.047.1.012.2.027.293.047a.226.226,0,0,0,.062.012c.1.03.2.05.307.077a5.269,5.269,0,0,1,.546.162c.1.035.189.068.278.109a3.92,3.92,0,0,1,.484.233c.077.041.145.083.207.121a3.044,3.044,0,0,1,.481.363c.056.056.112.1.159.157a1.291,1.291,0,0,1,.21.239.064.064,0,0,1,.03.027c.021.027.033.056.047.077a.077.077,0,0,1,.021.041l.012.018v.009h.009v.006Z" transform="translate(1028.82 61.95)" fill="none" stroke="#fff" stroke-linecap="round" stroke-linejoin="round" stroke-width="0.437"/>
          <path id="路径_62435" data-name="路径 62435" d="M526.421,34.393v73.284h-9.4V34.393s.035-.062.109-.171a2.007,2.007,0,0,1,.219-.251c.041-.047.1-.1.151-.151h.006a3,3,0,0,1,.4-.307,1.647,1.647,0,0,1,.257-.157c.068-.041.145-.083.228-.124l.074-.032c.074-.035.151-.068.233-.1a1.694,1.694,0,0,1,.245-.095,4.02,4.02,0,0,1,.437-.136,6.5,6.5,0,0,1,.969-.2c.109-.015.219-.03.334-.035l.041-.006c.136-.015.286-.021.437-.035.177-.006.36-.015.552-.015a9.394,9.394,0,0,1,1.125.062q.235.022.452.062a5.3,5.3,0,0,1,.756.165,4.014,4.014,0,0,1,.437.136,4.607,4.607,0,0,1,.942.449c.053.035.109.068.157.1a2.268,2.268,0,0,1,.266.2c.089.077.166.142.234.213a1.528,1.528,0,0,1,.21.239.588.588,0,0,1,.1.148l.012.021.009.009v.006Z" transform="translate(1010.339 63.658)" fill="none" stroke="#fff" stroke-linecap="round" stroke-linejoin="round" stroke-width="0.437"/>
          <path id="路径_62436" data-name="路径 62436" d="M531.15,36.625v6.334h-9.4V36.625s.9-1.817,4.7-1.817S531.15,36.625,531.15,36.625Z" transform="translate(1019.581 68.02)" fill="none" stroke="#fff" stroke-linecap="round" stroke-linejoin="round" stroke-width="0.437"/>
          <rect id="矩形_11101" data-name="矩形 11101" width="9.4" height="6.786" transform="translate(1541.331 113.245)" fill="none" stroke="#fff" stroke-linecap="round" stroke-linejoin="round" stroke-width="0.437"/>
          <rect id="矩形_11102" data-name="矩形 11102" width="9.4" height="6.792" transform="translate(1541.331 122.299)" fill="none" stroke="#fff" stroke-linecap="round" stroke-linejoin="round" stroke-width="0.437"/>
          <rect id="矩形_11103" data-name="矩形 11103" width="9.4" height="6.792" transform="translate(1541.331 131.348)" fill="none" stroke="#fff" stroke-linecap="round" stroke-linejoin="round" stroke-width="0.437"/>
          <rect id="矩形_11104" data-name="矩形 11104" width="9.4" height="6.792" transform="translate(1541.331 140.408)" fill="none" stroke="#fff" stroke-linecap="round" stroke-linejoin="round" stroke-width="0.437"/>
          <rect id="矩形_11105" data-name="矩形 11105" width="9.4" height="4.464" transform="translate(1541.331 149.46)" fill="none" stroke="#fff" stroke-linecap="round" stroke-linejoin="round" stroke-width="0.437"/>
          <rect id="矩形_11106" data-name="矩形 11106" width="120.521" height="16.458" transform="translate(1406.834 108.317)" fill="none" stroke="#fff" stroke-linecap="round" stroke-linejoin="round" stroke-width="0.437"/>
          <rect id="矩形_11107" data-name="矩形 11107" width="120.521" height="3.53" transform="translate(1406.834 124.775)" fill="none" stroke="#fff" stroke-linecap="round" stroke-linejoin="round" stroke-width="0.437"/>
          <rect id="矩形_11108" data-name="矩形 11108" width="7.072" height="25.618" transform="translate(1520.288 128.305)" fill="none" stroke="#fff" stroke-linecap="round" stroke-linejoin="round" stroke-width="0.437"/>
          <rect id="矩形_11109" data-name="矩形 11109" width="18.531" height="17.412" transform="translate(1378.902 153.923)" fill="none" stroke="#fff" stroke-linecap="round" stroke-linejoin="round" stroke-width="0.437"/>
          <rect id="矩形_11110" data-name="矩形 11110" width="12.068" height="17.412" transform="translate(1406.834 153.923)" fill="none" stroke="#fff" stroke-linecap="round" stroke-linejoin="round" stroke-width="0.437"/>
          <rect id="矩形_11111" data-name="矩形 11111" width="18.531" height="2.26" transform="translate(1378.902 147.2)" fill="none" stroke="#fff" stroke-linecap="round" stroke-linejoin="round" stroke-width="0.437"/>
          <rect id="矩形_11112" data-name="矩形 11112" width="18.531" height="2.266" transform="translate(1378.902 138.139)" fill="none" stroke="#fff" stroke-linecap="round" stroke-linejoin="round" stroke-width="0.437"/>
          <rect id="矩形_11113" data-name="矩形 11113" width="18.531" height="2.26" transform="translate(1378.902 129.088)" fill="none" stroke="#fff" stroke-linecap="round" stroke-linejoin="round" stroke-width="0.437"/>
          <rect id="矩形_11114" data-name="矩形 11114" width="18.531" height="2.266" transform="translate(1378.902 120.033)" fill="none" stroke="#fff" stroke-linecap="round" stroke-linejoin="round" stroke-width="0.437"/>
          <rect id="矩形_11115" data-name="矩形 11115" width="18.531" height="2.266" transform="translate(1378.902 110.982)" fill="none" stroke="#fff" stroke-linecap="round" stroke-linejoin="round" stroke-width="0.437"/>
          <rect id="矩形_11116" data-name="矩形 11116" width="18.54" height="17.412" transform="translate(1536.758 153.923)" fill="none" stroke="#fff" stroke-linecap="round" stroke-linejoin="round" stroke-width="0.437"/>
          <rect id="矩形_11117" data-name="矩形 11117" width="12.068" height="17.412" transform="translate(1515.293 153.923)" fill="none" stroke="#fff" stroke-linecap="round" stroke-linejoin="round" stroke-width="0.437"/>
          <rect id="矩形_11118" data-name="矩形 11118" width="18.54" height="2.26" transform="translate(1536.758 147.2)" fill="none" stroke="#fff" stroke-linecap="round" stroke-linejoin="round" stroke-width="0.437"/>
          <rect id="矩形_11119" data-name="矩形 11119" width="18.54" height="2.266" transform="translate(1536.758 138.139)" fill="none" stroke="#fff" stroke-linecap="round" stroke-linejoin="round" stroke-width="0.437"/>
          <rect id="矩形_11120" data-name="矩形 11120" width="18.54" height="2.26" transform="translate(1536.758 129.088)" fill="none" stroke="#fff" stroke-linecap="round" stroke-linejoin="round" stroke-width="0.437"/>
          <rect id="矩形_11121" data-name="矩形 11121" width="18.54" height="2.266" transform="translate(1536.758 120.033)" fill="none" stroke="#fff" stroke-linecap="round" stroke-linejoin="round" stroke-width="0.437"/>
          <rect id="矩形_11122" data-name="矩形 11122" width="18.54" height="2.266" transform="translate(1536.758 110.982)" fill="none" stroke="#fff" stroke-linecap="round" stroke-linejoin="round" stroke-width="0.437"/>
          <line id="直线_1595" data-name="直线 1595" x1="0.254" y2="0.151" transform="translate(1632.486 76.386)" fill="none" stroke="#fff" stroke-linecap="round" stroke-linejoin="round" stroke-width="0.437"/>
          <line id="直线_1596" data-name="直线 1596" x1="0.047" y2="0.009" transform="translate(1587.116 90.338)" fill="none" stroke="#fff" stroke-linecap="round" stroke-linejoin="round" stroke-width="0.437"/>
          <line id="直线_1597" data-name="直线 1597" x1="0.015" transform="translate(1580.765 94.168)" fill="none" stroke="#fff" stroke-linecap="round" stroke-linejoin="round" stroke-width="0.437"/>
          <path id="路径_62437" data-name="路径 62437" d="M566.924,31.987l-5.338,3.149-.109.059h-.006s-11.441,2.978-31.81,6.109l8.369-5.022h.006Z" transform="translate(1035.038 62.507)" fill="none" stroke="#fff" stroke-linecap="round" stroke-linejoin="round" stroke-width="0.437"/>
          <path id="路径_62438" data-name="路径 62438" d="M573.5,27.718l-7.131,4.192-29.107,4.266,6.8-4.083h.009Z" transform="translate(1049.898 54.164)" fill="none" stroke="#fff" stroke-linecap="round" stroke-linejoin="round" stroke-width="0.437"/>
          <path id="路径_62439" data-name="路径 62439" d="M578.087,25.908,569,31.252l-29.432,4.375,7.291-4.375C558.989,29.5,569.452,27.663,578.087,25.908Z" transform="translate(1054.4 50.628)" fill="none" stroke="#fff" stroke-linecap="round" stroke-linejoin="round" stroke-width="0.437"/>
          <path id="路径_62440" data-name="路径 62440" d="M570.588,29.136l-6.473,3.808-29.01,4.286,6.375-3.829Z" transform="translate(1045.681 56.936)" fill="none" stroke="#fff" stroke-linecap="round" stroke-linejoin="round" stroke-width="0.437"/>
          <path id="路径_62441" data-name="路径 62441" d="M569.219,30.426l-7.837,4.614L532.5,39.332l7.7-4.62h.009Z" transform="translate(1040.579 59.456)" fill="none" stroke="#fff" stroke-linecap="round" stroke-linejoin="round" stroke-width="0.437"/>
          <line id="直线_1598" data-name="直线 1598" y2="10.886" transform="translate(1601.964 70.892)" fill="none" stroke="#fff" stroke-linecap="round" stroke-linejoin="round" stroke-width="0.437"/>
          <line id="直线_1599" data-name="直线 1599" y1="13.648" transform="translate(1581.291 70.892)" fill="none" stroke="#fff" stroke-linecap="round" stroke-linejoin="round" stroke-width="0.437"/>
          <line id="直线_1600" data-name="直线 1600" y1="17.235" transform="translate(1542.62 70.892)" fill="none" stroke="#fff" stroke-linecap="round" stroke-linejoin="round" stroke-width="0.437"/>
          <line id="直线_1601" data-name="直线 1601" y1="15.607" transform="translate(1562.149 70.892)" fill="none" stroke="#fff" stroke-linecap="round" stroke-linejoin="round" stroke-width="0.437"/>
          <line id="直线_1602" data-name="直线 1602" y1="7.217" transform="translate(1624.359 70.891)" fill="none" stroke="#fff" stroke-linecap="round" stroke-linejoin="round" stroke-width="0.437"/>
          <line id="直线_1603" data-name="直线 1603" y1="18.44" transform="translate(1523.478 70.892)" fill="none" stroke="#fff" stroke-linecap="round" stroke-linejoin="round" stroke-width="0.437"/>
          <line id="直线_1604" data-name="直线 1604" y1="19.279" transform="translate(1504.336 70.893)" fill="none" stroke="#fff" stroke-linecap="round" stroke-linejoin="round" stroke-width="0.437"/>
          <line id="直线_1605" data-name="直线 1605" y1="19.769" transform="translate(1485.066 70.893)" fill="none" stroke="#fff" stroke-linecap="round" stroke-linejoin="round" stroke-width="0.437"/>
          <line id="直线_1606" data-name="直线 1606" y2="19.917" transform="translate(1467.094 70.893)" fill="none" stroke="#fff" stroke-linecap="round" stroke-linejoin="round" stroke-width="0.437"/>
          <path id="路径_62442" data-name="路径 62442" d="M486.1,39.116s-.18.03-.23-.854a.556.556,0,0,1,.3-.484c.789-.038,1.007.3,1.007.3.032.106.086.186.124.287a.935.935,0,0,1-.174.57,1.575,1.575,0,0,1-1.022.186" transform="translate(949.473 73.818)" fill="#fff"/>
          <path id="路径_62443" data-name="路径 62443" d="M491.635,40.3c.4-.053.4.567.4.567l-.056,2.035-.059.75a6.8,6.8,0,0,0,.065,1.055c.015.369.015.815-.009,1.205a2.51,2.51,0,0,1-.077.827c-.278-.056-.449-.272-.653-.372,0,.018,0,.018.027.038-.065.032-.121-.056-.183-.03a.585.585,0,0,0,.139.1c-.012.024-.036.032-.03.068.08.095.2.148.245.275-.05-.009-.077-.009-.106.018.044.124.177.162.23.275-.089-.038-.154-.186-.245-.157.03.162.269.168.236.366a3,3,0,0,0,.266.349s-.044.331.34.281a.779.779,0,0,0,.411-.505,10.336,10.336,0,0,0-.068-1.849,4.364,4.364,0,0,0-.038-1.69,3.266,3.266,0,0,1,.05-.623,13.34,13.34,0,0,0,.056-2.343c.242-.869-.086-1.028-.086-1.028a.82.82,0,0,0-.617-.009c.1-.369,1.134-1.084,1.134-1.084,1.447-.635.694-1.034.694-1.034s-.511-.357-1.412.57c0,0-2.047,1.38-2.753,2.021a14.566,14.566,0,0,0-1.911,2.224,5.689,5.689,0,0,0-.736,1.418c-.047.23-.245.9-.411,1.424a.98.98,0,0,1-.089-.484,15.629,15.629,0,0,1,.366-2.482s.922-.535.511-1.285a.431.431,0,0,0-.168-.124,4.071,4.071,0,0,0-.753-.254c-.139-.015-.2.115-.319.2,0,0-.195.3.041,1.049l.006.021c.033.1-.275,2.505-.275,2.505-.366,2.611.786,1.967.786,1.967a2.658,2.658,0,0,0,.753-1c.038-.579.065-1.261.095-1.371.053-.9,1.784-3.492,3.982-4.422-.549.922-1.055,1.908-1.551,2.892a1.447,1.447,0,0,0-.346,1.007.3.3,0,0,0,.343.186.661.661,0,0,0,.414-.529c.053-.541.222-.588.222-.588a.8.8,0,0,0,.549.715c.635.089.573-.7.573-.7a3.134,3.134,0,0,1-.089-.434,1.543,1.543,0,0,1-.05-.452c-.035-.263-.083-.145-.112-.219-.042-.112.015-.245-.03-.334-.062-.021-.053.077-.092.05-.027-.095.044-.189.027-.269a3.772,3.772,0,0,1-.239.736.455.455,0,0,0-.31.024c.145-.3.319-.529.476-.874a4.228,4.228,0,0,1,.446-.78s.041-.03-.009.1" transform="translate(949.183 73.71)" fill="#fff"/>
          <path id="路径_62444" data-name="路径 62444" d="M494.122,39.381c-.032.414-.263.511-.263.511a1.1,1.1,0,0,1-.629.068c-.041-.03-.024-.1-.08-.151a.889.889,0,0,1-.4-.366c.027-.021.029-.018.024-.03a2.7,2.7,0,0,1-.2-.44.407.407,0,0,1,.115-.443s.08-.086.443-.027c.029.006.124.018.2.038s.2.08.414.16a.8.8,0,0,1,.381.671" transform="translate(962.513 75.201)" fill="#fff"/>
          <path id="路径_62445" data-name="路径 62445" d="M493.7,40.532s-.328.227-.431,1.1c-.027.266-.027.343-.047.5a1.772,1.772,0,0,0,.053.482,5.591,5.591,0,0,0,1.158-2.219c.033.2-.186.47-.035.632.009.041-.047.1.009.106-.08.047-.032.219-.124.275a.037.037,0,0,0,.027.044c-.1.142-.047.4-.124.482a.469.469,0,0,1-.024.118,3.831,3.831,0,0,1-.313,1.276c-.458.842-.718.883-.718.883a.848.848,0,0,0-.2.024s-.5-.115-.446-.892c0,0,.671-2.505.679-2.544a6.3,6.3,0,0,0,.154-.617,2.72,2.72,0,0,0-.148-.544c-.03-.095.047-.236.115-.343h.05c.03-.012.015-.059.044-.071a.729.729,0,0,1,.863.535,2.386,2.386,0,0,1-.109.417,1.762,1.762,0,0,1-.428.354" transform="translate(962.38 76.626)" fill="#fff"/>
          <path id="路径_62446" data-name="路径 62446" d="M496.783,41.071s.369-.154.363-.408l-.006-.018c-.177-.7-1.548.151-1.548.151a3.843,3.843,0,0,1-.993.552s-.151-.106.641-1.347a12.361,12.361,0,0,0,.913-1.66c0-.222.13-.387-.106-.626-.526-.168-1.022.871-1.022.871.024,0,.035-.015.065-.018-.006.032-.065.056-.038.092.029-.035.044-.086.094-.109.092.006.115-.106.216-.074,0,0-.216.544-.357.886,0,0-1.167,2.05-.78,2.641.23.225.99-.393.99-.393s.883-.759,1.016-.626c.021.024-.777,1.167-.777,1.167-.349.606-.907,1.908-.907,1.908a.915.915,0,0,1-.656-.047c-.81-.059-.316.544-.316.544.233.165.579.109.795.165-.269,1.081.5,1.226.5,1.226.387.059.73-.23,1.1-.21a2.766,2.766,0,0,1-.5,1.321.258.258,0,0,0-.139-.053c-.018.038.05.1.03.139a.93.93,0,0,0,.026.809s.03.1.109.112c.139.018.4-.174.5-.381.352-.739.493-1.143.493-1.143.133-.222.124-.582.257-.8a.966.966,0,0,0,.3-.157.622.622,0,0,0-.363-.653,2.413,2.413,0,0,1,.192-.809,3.239,3.239,0,0,0,.668-.157.412.412,0,0,1,.414.145.4.4,0,0,0,.5.08c.4-1.013-.836-.679-.836-.679s-.588.154-.626.062a2.21,2.21,0,0,0,.121-1.315.489.489,0,0,0-.6-.171c-.434.115-.443.363-.443.363a.585.585,0,0,1,.272.162,1.181,1.181,0,0,1,0,.609,2.166,2.166,0,0,1-.281-.162s-.47-.26-.514.363c-.038.186-.047.387-.083.535-.065.095-.325.083-.455.053.691-2.49,1.767-2.936,1.767-2.936m-1.648,3.994a.332.332,0,0,1-.236-.417c.121-.035.287-.151.464-.092-.018.195-.056.366-.216.414-.012.024,0,.074-.012.095m.724-.062a3.947,3.947,0,0,1-.632.071c.044-.092.162-.1.213-.192,0,0,.071.083.284-.207a.584.584,0,0,0,.239-.142c.236-.319.278-.219.278-.219a1.843,1.843,0,0,1-.148.529s.038.16-.233.16" transform="translate(964.23 73.665)" fill="#fff"/>
          <path id="路径_62447" data-name="路径 62447" d="M507.97,39.011a.21.21,0,0,1-.139.1,1.7,1.7,0,0,1-.077.3s.1.325.148.609c-.018.2-.038.443-.053.647a7.937,7.937,0,0,0-.062,1.855c.071.213.23.139.375.068.018-.006,0-.056.024-.059.133-.035.186-.177.328-.213.248-.192.278-.541.325-.907a4.113,4.113,0,0,1,.375-1.607,9,9,0,0,0-.224,2.012,2.406,2.406,0,0,1-.077.5.9.9,0,0,0-.1.446,1.506,1.506,0,0,1-.691.248c-.614.139-1.1.514-1.707.653a1.551,1.551,0,0,1-.6.1c.056-.05.08-.136.136-.192-.012-.071.05-.13.056-.207a.9.9,0,0,1-.251.139c-.118.05-.222.157-.378.151-.056.056-.056.148-.127.186a1.488,1.488,0,0,0-.1.617c.068.145.245.047.357.056a4.462,4.462,0,0,0,1.583-.419,3.587,3.587,0,0,1,.984-.434,3.616,3.616,0,0,0,1.084-.34c.4-.174.721-.287.99-.384.934-.4,1.223-.292,1.223-.292a.264.264,0,0,1,.038.325c-.148.292-.659.434-1.1.561a.771.771,0,0,1-.236.059c-.038,0-.062-.009-.094-.006a1.347,1.347,0,0,0-.7.325c-.074.044-.174.056-.251.095-.03.012-.062.05-.083.059s-.089.03-.142.047c-.074.032-.225.1-.23.177s.163.148.239.171a3.367,3.367,0,0,0,.369.015,1.259,1.259,0,0,1,.275-.074,1.44,1.44,0,0,0-.213.818,1.623,1.623,0,0,1,.293.47,2.7,2.7,0,0,1,.227.363,1.273,1.273,0,0,1-.452.083,1.256,1.256,0,0,0-.328.109,2.305,2.305,0,0,0-.523.278c-.05.044-.1.077-.151.118a1.244,1.244,0,0,0-.171.148c-.024.03-.053.074-.074.1s-.071.062-.089.092-.047.083-.071.115a.626.626,0,0,0-.18.414c-.009.044-.059.068-.089.1-.024.065.065.089-.006.154.056.065.035.136.086.177a1.885,1.885,0,0,0,.159.31c.408.644.768.532.768.532a1.757,1.757,0,0,0,1.164-.479,1.978,1.978,0,0,0,.526-1.276,2.071,2.071,0,0,0,.742-.03c.029-.027.094-.044.136-.089a1.121,1.121,0,0,0,.08-.086c.036-.038.083-.053.1-.086.05-.089.024-.21.071-.328-.015-.071-.053-.127-.065-.2-.05-.006-.08-.056-.13-.077a1.112,1.112,0,0,0-.177-.027.48.48,0,0,1-.13-.056,1.032,1.032,0,0,1-.189-.05.908.908,0,0,1-.251.012c-.029-.009-.009.038-.035.033-.068-.044-.2.012-.269-.059-.044-.033-.065-.171-.092-.236a1.752,1.752,0,0,0-.251-.378c-.035-.056-.056-.115-.092-.174-.053-.092-.221-.275-.2-.372.006-.027.1-.092.127-.142a.433.433,0,0,1,.16-.174,1.81,1.81,0,0,1,.186-.3c.056-.038.189-.1.224-.157.077-.13.047-.39-.044-.428a1.646,1.646,0,0,0,.434-.027c.112-.03.233-.044.281-.053a.257.257,0,0,1,.192-.032c.1.136.2-.021.331.035a.985.985,0,0,0,.16-.121c.05-.041.115-.068.157-.109s.062-.124.142-.133a.6.6,0,0,0,.154-.266.375.375,0,0,0,.047-.139c0-.065.009-.242,0-.322a.579.579,0,0,0-.216-.331.758.758,0,0,0-.455-.142,7.786,7.786,0,0,0-1.811.431c.038-.092.139-.278.266-.2.024.038-.033.044-.03.092.127-.05.2-.136.331-.195.03-.056.089-.059.142-.112a.671.671,0,0,1,.047-.077c.077,0,.1-.059.171-.059a.545.545,0,0,1,.009-.077c.027-.012.056-.006.083-.027a2.223,2.223,0,0,1,.5-.316.6.6,0,0,0,0-.9c-.018-.021-.056-.053-.077-.077s-.041-.062-.065-.077c-.053-.044-.121-.041-.145-.1s.071-.127.112-.174a2.3,2.3,0,0,1,.414-.4c.168-.053.39-.1.428-.417a.7.7,0,0,0-.021-.16.894.894,0,0,1-.033-.095.214.214,0,0,0-.068-.139c-.083-.074-.2-.083-.269-.136-.106-.083-.092-.269-.012-.422a1.177,1.177,0,0,0,.065-.139c.041-.086.1-.171.127-.248a.413.413,0,0,0-.038-.346c-.154-.148-.5.074-.541.18-.136.171-.08.4-.127.623,0,0-.189.576-.378,1.084-.062.059-.1.124-.159.183s-.086.1-.127.154a.59.59,0,0,1-.151.124.38.38,0,0,1-.139.151.564.564,0,0,1-.027.074,2.341,2.341,0,0,0-.4.718c.038-.2.1-.414.124-.641s.032-.482.077-.691.124-.411.154-.6c0-.236-.083-.414-.322-.366-.145.032-.313.08-.372.2-.018-.021-.024,0-.053-.006a2.188,2.188,0,0,0-.523.579c-.053-.032-.065-.1-.092-.154,0,0-.245-.446-.564-.207M510.3,40.7c.047.006.027.068.044.095.047.092.192.1.257.174a.614.614,0,0,1-.154.3,3.077,3.077,0,0,1-.641.789c-.009-.08.056-.242.038-.34.2-1.052.455-1.019.455-1.019m-.443,6.564c-.136.411-.576,1-1.087.9-.289-.089-.316-.222-.287-.473.047-.668.845-.9.845-.9.2.018.449,0,.547.089,0,0,.089.071-.018.393" transform="translate(987.137 73.382)" fill="#fff"/>
          <path id="路径_62448" data-name="路径 62448" d="M500.785,40.976a.38.38,0,0,0-.05-.1c-.13-.1-.106-.21-.242-.233-.015-.047.015-.115-.027-.148,0-.032.041-.027.044-.062a.248.248,0,0,0-.027-.1c.041-.106.062-.239.183-.266a.365.365,0,0,0,.224-.009c.062.033.154.041.21.065a12.683,12.683,0,0,1,1.126,1.007.817.817,0,0,1,.281.44.551.551,0,0,1-.564.688c-.068-.015-.13-.086-.207-.062,0,0-.343-.089-.951-1.226" transform="translate(977.988 78.289)" fill="#fff"/>
          <path id="路径_62449" data-name="路径 62449" d="M500.63,45.651a2.325,2.325,0,0,1-.99.428c-.3.03-.411,0-.5-.062a1.03,1.03,0,0,1,.068-.089c-.032-.133.033-.292-.018-.443.027-.05.089-.062.13-.095.059.03.171.009.2.068.49.115,1.247-.907,1.247-.907a4.247,4.247,0,0,0,.709-1.722l-.227.068s-1.312.44-1.56-.077a.386.386,0,0,0-.018-.127c-.021-.047-.1-.083-.1-.148a.362.362,0,0,1,.038-.121.839.839,0,0,1,.21-.29.881.881,0,0,1,.112-.086c.009,0,.366-.142.556-.035a.071.071,0,0,1,.006.065s1.031.086,1.164-.4a9.193,9.193,0,0,0,.083-2.278c.006-.233.027-.275.024-.487,0,0,.006-.213.024-.461a.415.415,0,0,1,.331-.313c.021-.006.115-.021.118-.038.13.03.228.136.36.092.035.044-.009.068.015.1.012.012.041,0,.053.012s-.006.032,0,.044.056.012.068.027.006.05.027.086.041.006.059.059a.288.288,0,0,1,.032.112c.089.29.038.4.038.4l-.227.665a1.24,1.24,0,0,0-.053.4,5.965,5.965,0,0,1-.142,1.3,3.065,3.065,0,0,0,.682-.313.644.644,0,0,1,.739.142c.52.44.08.753.08.753-.059.044-.08.089-.174.089-.038.012-.041.062-.077.068-.059.012-.089-.059-.142-.05s-.053.047-.086.062c0,0-.443.065-.517-.038a.25.25,0,0,0-.071.021.948.948,0,0,0-.617.284s-.047.4-.2,1.152a3.985,3.985,0,0,1-1.462,2.1" transform="translate(975.405 74.447)" fill="#fff"/>
        </g>
      </g>
    </g>
    <path id="矩形_232" data-name="矩形 232" d="M27.5.6A26.907,26.907,0,0,0,17.029,52.286,26.731,26.731,0,0,0,27.5,54.4h1089a26.907,26.907,0,0,0,10.471-51.686A26.731,26.731,0,0,0,1116.5.6H27.5m0-.6h1089a27.5,27.5,0,0,1,0,55H27.5a27.5,27.5,0,0,1,0-55Z" transform="translate(80 781.2)" fill="url(#linear-gradient)"/>
  </g>
</svg>
