<svg xmlns="http://www.w3.org/2000/svg" width="45.91" height="45.91" viewBox="0 0 45.91 45.91">
  <g id="组_8037" data-name="组 8037" transform="translate(-725.317 -191.325)">
    <circle id="椭圆_685" data-name="椭圆 685" cx="22.955" cy="22.955" r="22.955" transform="translate(725.317 191.325)" fill="#004098" opacity="0.1"/>
    <path id="微信" d="M28.826,110.021c0-3.994-3.994-7.247-8.486-7.247-4.76,0-8.5,3.253-8.5,7.247s3.738,7.246,8.5,7.246a12.9,12.9,0,0,0,3-.5l2.743,1.5-.751-2.5C27.332,114.269,28.826,112.267,28.826,110.021Zm-11.243-1.25a1,1,0,0,1,0-1.991,1.022,1.022,0,1,1,0,1.991Zm5.5,0a1,1,0,0,1,0-1.991,1.021,1.021,0,1,1,0,1.991Zm-3.568-6.879a9.6,9.6,0,0,1,.982.056c-.88-4.114-5.275-7.163-10.294-7.163C4.6,94.784,0,98.6,0,103.461c0,2.8,1.526,5.107,4.08,6.893l-1.017,3.072,3.57-1.8a17.818,17.818,0,0,0,3.571.509,9.318,9.318,0,0,0,.95-.044,7.453,7.453,0,0,1-.316-2.136C10.837,105.507,14.668,101.891,19.515,101.891Zm-5.493-2.769a1.277,1.277,0,0,1,0,2.554,1.3,1.3,0,1,1,0-2.554Zm-7.141,2.552a1.3,1.3,0,1,1,0-2.553,1.276,1.276,0,1,1,0,2.553Z" transform="translate(735.458 107.711)" fill="#004098"/>
  </g>
</svg>
