<svg xmlns="http://www.w3.org/2000/svg" xmlns:xlink="http://www.w3.org/1999/xlink" width="329" height="132.866" viewBox="0 0 329 132.866">
  <defs>
    <clipPath id="clip-path">
      <rect id="矩形_11263" data-name="矩形 11263" width="329" height="132.866" fill="#fff"/>
    </clipPath>
  </defs>
  <g id="组_8756" data-name="组 8756" transform="translate(0 0)" opacity="0.3">
    <g id="组_8755" data-name="组 8755" transform="translate(0 0)" clip-path="url(#clip-path)">
      <path id="路径_62577" data-name="路径 62577" d="M100.728,1.37v.363c.123.06.243.122.363.181v.909c.063.363.122.726.185,1.089h-.185V5.364c.027,1.891.007,4.829,0,7.266-.058.847-.12,1.695-.18,2.541h.18c-.058.907-.12,1.818-.18,2.724h.18v.183h-.18v2.541h-.183c.062.122.123.243.183.363a8.044,8.044,0,0,1-.183,1.635h.183c-.06.243-.122.485-.183.726a.464.464,0,0,1,.183.544.5.5,0,0,0-.183.546h.183a.306.306,0,0,1-.183.363c-.05.386.183.363.183.363v2.724h.18v.181h-.18v2.726h-.183v.18h.183c-.06.181-.122.365-.183.544h.183v.726h.18v.181c-.075.127-.258.007-.18.365h.18v.181c-.058.122-.12.243-.18.365h.18v2.541h.185V37.69h.176c.035.231-.291.3-.176.726h.176v2h.183v.907h.183v.365h.544V41.5c1.016-.671,1.021-2.677,1.454-4H104V36.418h.181v-.906h.18c.123-.428-.195-.994-.18-1.092h.18V32.605c-.035-.415-.326-.7-.18-1.27h.18c-.057-.666-.12-1.334-.18-2h.18a.483.483,0,0,0-.18-.546V26.43H104c.062-.3.118-.6.181-.906H104v-.546h-.181c-.077-.42.36-.984.181-1.635h-.181q.272-1.813.543-3.631h.365c.06-.12.122-.241.181-.363.311-.092.315.17.361.181.486.062.969.122,1.457.181.433.175.7.581,1.27.726V20.8h.543v.363h.181c.06.12.123.241.183.361h.363c.24.3.486.608.726.909h.544v.181c.386.2.436.047.728.365,1.447.007.929-.13,1.633-.726-.023-1.906-.626-1.981-1.27-3.09-.516-.11-1-.4-1.454-.543h-1.089v-.181h-1.455v-.183c-1.47.015-3.039.133-3.994-.363a12.348,12.348,0,0,0-.178-1.817V14.99c.01-.052.235-.053.178-.363h-.178v-1.27h-.183c-.007-.163.4-1.234.361-1.454h-.178q.09-1.543.178-3.087l-.178-.363h.178V7.544h.183c-.062-.6-.122-1.21-.183-1.815h.183V5.184H104c-.062-.363-.122-.728-.181-1.091h-.183c-.1-.413.228-.514.183-.728h-.183v-.18h.183c.085-.468-.183-.544-.183-.544V1.551h-.178c-.31-.673-.315-1.069-1.092-1.27-.468-.438-1.587-.25-2.181-.181-.153.2.025.028-.181.181a2.349,2.349,0,0,0,.548,1.089ZM36.683,30.789h-.544v-.181h-.544v-.181q-1.726-.182-3.452-.365v-.18h-.729V29.7h-.724v-.181h-.361v-.18h-.909v-.183h-.363v-.18h-.729c-.057-.122-.118-.243-.178-.365h-.363v-.181h-.366c-.1-.067-.13-.246-.361-.363-.11-.363.025-.157-.181-.363a2.27,2.27,0,0,1,.726-1.635l.546-.181v-.546h.178c.062-.18.122-.363.183-.543h.363v-.909h.183v-.363h.181a7.147,7.147,0,0,0-.728-2c-1.407-.251-1.161.113-2.359.365a3.672,3.672,0,0,1-1.089,1.452c-.123.06-.243.122-.363.181v.363c-.185.122-.363.243-.544.363-.063.183-.123.365-.183.546h-.365v.18h-.363v.183h-.729v.18a4.428,4.428,0,0,1-2.356-.906h-.365c-.06-.122-.12-.245-.181-.365h-.363c-.258-.2-.113-.446-.544-.726V22.8h-.181v-.181H18.7c.058-.425-.093-.475-.181-.726a1.337,1.337,0,0,0,.543-.726,5.59,5.59,0,0,0,1.818-.546q.544.09,1.087.181c.181.3.366.606.543.907h.546a1.853,1.853,0,0,0,2-.181c.451-.12.3-.088.543-.361h.181V20.8h.183v-.726l.543-.363v-.363H26.7V18.8h.181v-.363h.181V17.9c.118-.062.243-.122.361-.181-.058-.12-.118-.241-.18-.363.122-.06.24-.122.363-.181V16.26h.183c.057-.24.12-.483.18-.724h.183v-.909h.178V13.9h.183v-.543h.183V12.084h.18V9.723c.062-.181.12-.361.183-.544h-.183V7.907a15.768,15.768,0,0,0-.907-1.815,6.978,6.978,0,0,0-3.994.363h-.546c-.058.12-.122.241-.181.363-.24.06-.483.122-.729.181-.057.122-.117.241-.176.365-.245.06-.485.122-.728.18v.363c-.408.058-.478.015-.726.183v.181H20.52c-.06.12-.12.243-.181.363l-.726.181c-.122.181-.24.363-.363.546H18.7Q17.8,9.9,16.89,10.449a64.83,64.83,0,0,1-.365,9.081v2.178h-.18v.909h.18V22.8h-.18v1.27h-.185V26.43h-.178c.057.183.118.365.178.544h-.178v4.359h.178c0,.253-.29.293-.178.728h.178V34.6h.185v.544h.18c.12.42-.221.5-.18.726h.18c.06.6.12,1.21.183,1.817h.181v.544h.181v.726h.18v.365h.181q.09.542.183,1.087h.18v.365h.18c.123.18.246.361.365.544a4.284,4.284,0,0,0,1.454-.365q.182-.542.365-1.089h.18v-.363l.365-.18c.06-.243.118-.486.181-.728.122-.062.24-.12.363-.183v-.361h.18c.063-.425.123-.847.183-1.27h.181c.122-.546.243-1.092.361-1.635-.654.158-1.687,1.082-2.179.726h-.361a13.5,13.5,0,0,0-.546-3.087V30.244h-.18q-.09-2-.181-4a2.445,2.445,0,0,0,.544-.724,3.16,3.16,0,0,1,1.454.543,3.709,3.709,0,0,1-.365,1.452h-.18c-.163.251-.137.316-.185.728,1.172,0,2.339.1,3.27.181v.363a3.639,3.639,0,0,1,1.27.546c.062.122.122.241.185.361h.363c.06.122.118.243.181.363h.543c.062.123.122.243.183.365.361.122.726.241,1.089.363.062.122.118.243.181.363.423.06.847.12,1.27.181v.181l1.089.363v.183h.729v.18h.539v.181l2,.183v-.183c.18.062.361.122.544.183h2s-.018-.211.365-.183a.292.292,0,0,0,.363.183c.06-.122.12-.241.18-.365.579-.251.671.125,1.091-.363h.183a2.023,2.023,0,0,0-.909-1.089M19.249,11.54h.181c.331-.509.748-.4,1.272-.726.06-.123.118-.243.181-.365h.543v-.181h.365v-.181h.361V9.9h.361V9.723h.366V9.542h.363c.06-.122.123-.243.181-.363h.365V9h.365V8.816c.3-.157,1-.027,1.267-.181V8.453c.528.13.6.195.729.726h.18a1.581,1.581,0,0,1-.18,1.454c-.3,1.1-2.031,1.086-3.09,1.452h-.723c-.122.181-.245.363-.366.546h-.544v.18h-.361v.183a4.263,4.263,0,0,1-1.817-.546h-.183c.06-.3.122-.606.183-.907m-.183,5.448c.082-.358-.095-.235-.18-.365a2.757,2.757,0,0,1,.363-1.633q1.364.09,2.722.181c.063.122.122.241.181.365.726-.123,1.454-.243,2.183-.365-.083.7-.3.751-.365,1.452H23.79v.183c-.546.06-1.091.12-1.637.181-.06.241-.118.485-.181.726-1.35.383-1.171,1.74-3.085,1.817q-.09-1.181-.181-2.361l.361-.181M148.8,12.812V12.63l-3.631-.183v.183q-1.091.087-2.179.181v.181h-.546v.18h-3.813v.183a3.752,3.752,0,0,1-2.361.181c.032-.646.06-.926.546-1.091h.544c.06-.12.12-.241.18-.363h.729c.058-.12.118-.243.18-.363.182.062.365.12.544.181v-.181c.676-.181.493-.378.907-.726v-.546h-.18a2.3,2.3,0,0,0-2.361-1.27V8.453c.546-.122,1.089-.243,1.633-.363V7.727c.778-.1.754-.421,1.27-.728a6.386,6.386,0,0,0-.907-2.359c-.243-.062-.483-.123-.726-.183V4.275c-.544-.062-1.091-.12-1.635-.181-.18-.666-.363-1.33-.543-2h-.183a1.461,1.461,0,0,1-.365-.728c-.786-.06-1.573-.122-2.359-.18a3.637,3.637,0,0,0,.546,1.815v.544h.183c.057.544.118,1.091.18,1.635.007.042.27.053.181.361l-.361.183v.363h-.366v.363l-2.361.181a3.681,3.681,0,0,1-.544.546,3.931,3.931,0,0,0,.907,2.542,4.9,4.9,0,0,0,2,.543c.063.181.12.365.183.546l-.728.544v.181h-1.089v.181h-.183c.022.694-.035.759.546.909a6.368,6.368,0,0,0,.726,1.089h-.183c-.107.361.027.155-.18.361v.183h-.726c-.062.122-.122.243-.183.363h-.724v.181h-.907v.181H130.1v.181h-.728v.181h-.726v.183H128.1v.18h-.726V15.9h-.907v.18h-.546v.181h-.363v.183q-1.631.27-3.268.544v.181h-.363v.183c-.423.058-.849.12-1.274.18v.181h-.36V17.9c-.365.06-.728.123-1.091.183v.18h-.543v.183h-.181v-.183h-.183v.183h-.363v.181h-.546c-.058.12-.12.241-.18.363h-.728c-.062.122-.123.24-.18.363h-.365c-.06.122-.122.243-.183.363-.18.062-.363.122-.546.181.057.937.388.881.729,1.452.724.062,1.452.123,2.178.181v.181h.183v-.181h.726v-.181a2.216,2.216,0,0,1,1.272,0c.057-.241.12-.483.18-.726.167-.231.674-.2.911-.363.12-.181.24-.363.363-.544l.723-.181v-.181h.728v-.183h.544v-.18h.363V18.8h.546v-.181c.485-.062.971-.122,1.452-.181.058-.122.122-.241.183-.363h1.45V17.9h.365v-.181h.546v-.181c.856-.283,2.12.137,2.724-.363a2.275,2.275,0,0,1,.907.183,2.8,2.8,0,0,1-.365,1.633h-.183v.363h-.18v.363c-.12.062-.241.122-.36.181v.726c-.122.06-.246.122-.366.183v.363h-.182v.361h-.18a6.083,6.083,0,0,0-.546,3.09h1.274c.246-.055-.077-.216.18-.183v.183h.543c.063.18.122.361.181.543h-.181v.726h-.183q-.085.907-.18,1.817h.18v.363c.548.183,1.094.363,1.637.546h.728v.18c.857.25.218.152.544.726.122.062.243.123.363.181v.546a3.615,3.615,0,0,1,.18,1.635c-.06.122-.12.241-.18.361a.517.517,0,0,1,.18.546H135c-.05.418.413,1.007.18,1.633H135v.365c-.038.058-.265.188-.363.363q-.457.09-.907.181c.043.911.268.9.546,1.454v.361h.18v.726a2.379,2.379,0,0,0,.907.909v.181a1.308,1.308,0,0,1,.724-.181,1.336,1.336,0,0,1,.366-.909h.18v-.363c.123-.06.243-.122.363-.18.063-.243.122-.486.181-.728h.183c-.06-.12-.123-.241-.183-.363.123-.06.243-.122.363-.181v-.907h-.18v-2h-.183V31.88h-.181c-.24-.834.313-2.173-.18-2.726v-.906h.18c.408-.46.5-.127.911-.365.12-.181.24-.365.363-.544.24-.062.483-.122.724-.181.12-.181.241-.363.363-.544h.365c.12-.183.241-.365.363-.546l1.091-.363V24.8h-.183c-.06-.243-.122-.483-.181-.728-.122-.06-.243-.12-.363-.181v-.363h-.183l-.18-.543c-.631-.17-.678-.473-1.454-.546,0-1.182.331-1.152.726-1.817h.365a1.5,1.5,0,0,1,.543-.907,2.6,2.6,0,0,0-.363-1.27c-.3-.062-.6-.122-.907-.183v-.18h-.18v.18H137.9a6.673,6.673,0,0,1-.366,1.817h-.363c-.253.946-1.184,1.066-1.633,1.817q-.637.09-1.269.181v.183c-.366-.063-.729-.122-1.094-.183v-.728l.548-.363v-.363c.18-.122.363-.243.546-.363v-.363c.24-.181.483-.363.724-.544.06-.123.12-.241.18-.363h.365V18.8c.27-.25.235-.093.361-.546h.365V17.9h.546a6.468,6.468,0,0,0,.361-1.272,1.652,1.652,0,0,0,.729-.363v-.181c1.024-.12,2.056-.24,3.085-.363v-.18l.544.18v-.18h.546v-.183a.3.3,0,0,1,.361.183c.4.05.365-.183.365-.183H143.9v-.181c.29-.055.876.358,1.45.181v-.181h.728c.248-.058-.075-.173.183-.181a3.277,3.277,0,0,0,1.815.181V14.99q1.089-.09,2.179-.181c.155-.2-.025-.027.181-.181a10.3,10.3,0,0,0-.361-1.27,4.853,4.853,0,0,1-1.274-.544m-14.164,11.8c.243-.063.483-.123.726-.183v-.546c.5-.138.415-.042.543-.544a2.774,2.774,0,0,1,1.272.181c.06.122.123.245.183.363h.546c.042.025.18.27.363.365.1.363-.028.155.18.365-.012,1.074-.2,1.091-.909,1.45v.181h-.724v.181c-.6.188-1.245-.137-1.637.183a2.272,2.272,0,0,1-.9-.183,15.3,15.3,0,0,1,.361-1.813M73.671,18.6c-.862-.255-1.7.385-2.18.544-.666.062-1.334.122-2,.181v.181h-.546v.183c-.18-.062-.361-.122-.544-.183a31.811,31.811,0,0,0-6.172.183,1.378,1.378,0,0,0-.548-.365,9.2,9.2,0,0,1,.911-2.724c.181-.12.365-.241.543-.363v-.544l.365-.181v-.544h.18c.122-.363.245-.728.363-1.091h.183v-.726c.122-.062.241-.122.365-.181.06-.181.117-.363.18-.544a10.088,10.088,0,0,1,1.454-.544,1.456,1.456,0,0,0-.909-1.454A3.866,3.866,0,0,1,65.5,8.794h.18V8.431h.183V7.341h.183c.01-.852-.042-1.114-.729-1.272V5.706c-.181-.122-.361-.241-.544-.361-.063-.183-.12-.365-.18-.546h-.365V4.617c-.4-.25-.248.077-.546-.363h-.723v.181c-.764.764-.206,2.07-.548,3.268-.067.246-.138-.072-.18.181V9.52h-.18c-.063.241-.125.485-.183.726l-.728.544v.363c-.122.062-.24.122-.365.183v.181c-.323.25-.265-.082-.543.363H57.689c-.122-.183-.24-.363-.363-.544-.12-.062-.241-.122-.36-.183v-.726h-.185v-.363c-.055-.092-.251-.143-.363-.363l-.728-.181V9.339c-.659-.235-1.678,0-2.176-.183-.158.206.022.03-.185.183a7.489,7.489,0,0,0,.728,2.722,2.874,2.874,0,0,1-.543,1.637c-.551.21-1.464.363-2,.543h-.726v.183h-.361c-.087.052-.155.251-.365.363.07.586.165.531.365.907h1.995a9.664,9.664,0,0,1,1.454-.363v.181h.365v.365H54.6v.543c.5.241.7.586,1.269.728.253.932.753.558,1.094,1.087v.546h.18v.909c-.115.2-.683.236-.907.363v.18l-.729.181V20.6h-.724c-.063.122-.12.243-.181.365h-.546v.18H53.33v.181h-.361V21.5l-1.272.181v.181h-.363v.183c-.363.06-.724.12-1.087.181v.181h-.911v.18h-.363v.183H47.7v.181h-.363v.181l-1.635.181V23.5h-.361v.183H44.251v.18h-.726v.181H42.8c-.062.12-.123.243-.183.363-.233.11-.083-.1-.183-.181h-.178v.181H41.71v.181h-.729v.181h-.361v.183H39.166V25.5l.546.181v.183h.544v.181c.243.06.485.122.724.183v.18c1.022.366,2.494-.671,3.087-.909q.547-.09,1.094-.181v-.18h.363v-.181l.726-.183v-.181h.544V24.41h.724v-.181h.365v-.181h.543v-.181c.185.062.366.12.546.181v-.181h.363v-.18h.728c.058-.123.122-.243.183-.365h.543V23.14h1.089v-.181q.817-.092,1.637-.181v-.183c.3.062.6.122.907.183v-.183h.363v-.18a2.76,2.76,0,0,1,1.633.363q-.544,1.633-1.089,3.268c-.122.06-.241.122-.365.183v.361c-.118.062-.243.12-.361.181-.3.363-.606.728-.906,1.089H53.33a3.333,3.333,0,0,0-.18,1.635h.18v1.454a3.964,3.964,0,0,0-.18,1.815.48.48,0,0,1,.18.546.5.5,0,0,0-.18.543h.18c-.058.122-.118.243-.18.366h.18V36.4s.273.068.185.544c-.007.033-.256.063-.185.363h.185q.087.547.183,1.091c.178.06.36.122.543.181.06.12.118.241.181.361h.363v.183c.423.06.847.12,1.27.181v.181h.911V39.3h.18c.45-.844-.668-1.177.18-2.179.062-.12.123-.241.18-.363l.911-.181V36.4h.365v-.181h.543v-.181l3.087.181V36.4h.548v.181h1.633v.181q1.269-.092,2.541-.181a5.327,5.327,0,0,1,.546-1.089h.361c.313-1.184,1.222-1.82,1.454-3.087h.363c.135-1.1,1.312-3.367.365-4.177-.639-2.458-6.094-2.256-9.446-2.179-.19-.238-.371-.27-.543-.546H60.05c.062-.12.122-.241.183-.361h.181v-.546h.361a4.374,4.374,0,0,1,.365-1.452H61.5c.058-.425.122-.847.18-1.272h.368c.108-.363-.028-.157.18-.363v-.181c.18.06.363.12.544.181l.543-.181V21.5H63.5v-.181h.361V21.5h.181v-.181h1.635v-.181h.546v-.18h2v-.183h.726V20.6a.476.476,0,0,1,.546.181h2v.183c.856.236,2.739-.108,3.268.361.656.02,1.828.143,2.179-.181.2-.206.078,0,.18-.363a2.183,2.183,0,0,1-.726-1.089q-1.361-.547-2.722-1.091M61.5,27.68a9.774,9.774,0,0,1,4-.181c.157.2-.027.028.18.181a4.445,4.445,0,0,1-.907,2.724v.361q-.544.457-1.091.909l-.18.907c-.122.062-.243.122-.365.181v.365h-.178c-.063.181-.122.363-.183.544a4.984,4.984,0,0,0-1.454.546h-.907v.18H57.872a2.172,2.172,0,0,0-.366-.365q.187-1.723.366-3.448h-.183c-.058-.363-.122-.728-.183-1.091-.118-.058-.24-.12-.36-.181v-.181h.18l-.18-.544a.7.7,0,0,0,.36-.363l1.637-.365v-.18c.346-.1.256.125.365.18.253-.038-.07-.123.18-.18Zm-1.27-11.8v.361c-.122.06-.243.122-.366.181v.363h-.18c-.18.241-.363.485-.544.728-.3-.062-.6-.122-.907-.183-.138-.371-.055-.653-.181-1.089h-.181c.06-.361.12-.726.181-1.091h-.181c.035-1.432.919-1.3,1.452-2.178h.543v-.181h.909c.157.2-.023.028.181.181a4.94,4.94,0,0,1-.724,2.907m20.338,2.746h.18c.063.12.123.241.183.363.3.06.6.122.911.18v.183c.3.06.6.122.907.181v-.181H83.3v-.183h.726v-.18h.365V18.8h.363v-.181c.18-.062.363-.122.544-.181v-.363h.726V17.9a1.542,1.542,0,0,1,1.091-.363c-.123.544-.243,1.091-.363,1.633-.123.06-.243.123-.365.183v.544H86.2v.544c-.122.06-.241.122-.365.181v.363c-.3.241-.6.486-.907.726v.365c-.12.062-.24.12-.363.183v.361L84.2,22.8q-.36.455-.724.907c-.629.629-1.936,1.437-2.179,2.361-.365.11-.157-.023-.365.181.636.022.574.25,1.091,0v-.181h.363c.058-.12.12-.241.18-.363l1.272-.18c.123-.181.243-.365.363-.546h.546V24.8h.363v-.18h.361v-.183a1.454,1.454,0,0,1,.728-.365v-.363a1.933,1.933,0,0,0,.729-.181c.057.122.118.245.18.363h.181c-.062.181-.122.365-.181.546h.181v.544h.181v.365a.292.292,0,0,0-.181.361h.181v.544h.18v.181h-.18V27.7h.18v2.359a12.982,12.982,0,0,1,0,4.724h-.361v.363a5.071,5.071,0,0,0-.726.181v-.181c-.488-.158-.668-.158-.909-.544h-.544a3.114,3.114,0,0,1,.361.909h.363c.152.569.42.656.546,1.27h.365c.06.181.12.361.183.544.639.275,1.777.626,2.358,0,.683-.461.708-1.607.729-2.724v-.909h.178V33.15c.123-.06.243-.122.363-.181.117-.381-.613-1.637-.363-2.542h.183V29.152a.482.482,0,0,1-.183-.541h.183v-.728h-.183q.092-1.089.183-2.179c-.032-.255-.117.067-.183-.18V24.252h.183V23.163h-.183a2.239,2.239,0,0,1,.363-1.818c.063-.18.12-.363.183-.543a2.587,2.587,0,0,1,1.452.363v.18h.365c.06.123.118.243.181.363H93.1c.06.123.12.243.18.365h.365v.183c.6.058,1.212.118,1.817.18v-.18c.495-.142.415-.045.543-.548.2-.206.078,0,.181-.363-.355-.311-.157-.435-.361-.726-.546-.363-1.089-.726-1.633-1.089v-.181c-.606-.123-1.214-.241-1.818-.363V18.8c-.3-.062-.606-.122-.907-.181v-.181l-.546-.363c-.053-.982-.751-2.436-.363-3.633h.183V13.9h.18c.062-.181.122-.363.183-.544a14.468,14.468,0,0,1,3.089-.544c.155-.2-.028-.028.18-.181a2.574,2.574,0,0,0-.365-1.272,7.105,7.105,0,0,0-2.541-.726q-.182-.547-.363-1.091h-.183c.062-.606.122-1.21.183-1.815h-.183a.31.31,0,0,1,.183-.363c.05-.35-.183-.365-.183-.365-.092-.47.183-.544.183-.544V5h-.183c-.108-.416.225-.509.183-.728h-.183V3.912h-.18c-.063-.18-.12-.363-.183-.546-.24-.058-.483-.12-.724-.18-.06-.122-.123-.243-.183-.363-.3-.06-.6-.122-.909-.181V2.461c-.756-.017-.956-.112-1.269.363h-.181a5.337,5.337,0,0,1,.181,1.633V5h.18V8.634c.063.122.122.241.181.363a.308.308,0,0,0-.181.365.48.48,0,0,1,.181.543h-.181v.544h-.18c-.311,1.012.15,1.933-.363,2.724l-.728.546v.361l-.546.183c-.12.181-.24.363-.363.544h-.361c-.122.181-.24.363-.363.544H84.2c-.06.122-.12.243-.181.363h-.363V15.9c-.3.06-.606.122-.906.18l-.365.544h-.543c-.063.123-.122.243-.183.365h-.728v.181a1.556,1.556,0,0,1-.726.363v.546c.12.058.243.122.363.18ZM1.45,30.97h.183c.12-.072.012-.268.365-.181a10.8,10.8,0,0,0,1.45.363V30.97c.536-.162,1.024-.085,1.454-.363v-.181a2.042,2.042,0,0,1,.909-.544c.12-.365.241-.728.361-1.091h.363c.063-.181.123-.363.183-.544H6.9v-.363c.125-.06.243-.122.365-.181v-.363c.122-.062.24-.123.361-.181v-.363h.183c.183-.243.363-.485.544-.728h.726v-.181h.183l.18.363c.241.062.486.122.724.181.063.122.123.243.183.365h.363c.06.122.123.243.181.363.243.058.486.12.726.181v.18h.365V27.7a3.771,3.771,0,0,0,2,.363c.1-.428.478-.8.363-1.27A5.55,5.55,0,0,0,11.62,24.25a3.005,3.005,0,0,0-.726-1.27v-.907h.183v-.365h.181A2.057,2.057,0,0,0,11.8,20.8h.363a3.68,3.68,0,0,1,.365-1.452c.12-.062.24-.123.363-.183q.18-.907.363-1.815l.363-.181c.251-.6-.273-1.567-.363-2l-.726-.181c-.062-.122-.122-.243-.183-.363H11.62v-.181l-1.27-.181v.181h-.183v-.181l-1.632.181v.181H8.172v.18H7.446c-.06.123-.122.243-.181.365l-.909.181c-.12.183-.241.363-.363.546H5.448c-.06.122-.12.241-.181.361H4.9a6.916,6.916,0,0,1-1.632.909v.363c-.654.176-.764.608-1.272.909.22.383.416.391.543.907l1.818.181s0-.167.365-.181c.118.06.24.122.361.181.12-.181.243-.365.363-.544H6.535V18.8h.729c.06-.122.122-.243.181-.363l1.089-.183v-.18c.3.058.608.122.907.18.125.663.193,1.707-.363,2.178-.211.739-.37.365-.726.909q-1.091.092-2.181.181v-.181q-1.906-.09-3.811-.18a2.392,2.392,0,0,1-.728.543c.092.7.221.506.365,1.091h.543v.365a7.092,7.092,0,0,1,3.087,1.27V24.8h.183c-.062.18-.12.363-.183.543H5.266v.546q-.727.637-1.452,1.272v.361c-.123.062-.241.123-.366.183-.178.243-.361.486-.544.726H2.541c-.361.425-.724.846-1.091,1.27-.436.315-.793.273-1.087.728H0v.363H1.45Zm138.269-1.454c.416.586.781.273,1.454.544v.183h.546v.181c.118.062.236.122.361.181v.363c.24.181.486.365.726.544.118.365.243.726.363,1.091q.724.634,1.452,1.27h1.454c.423-.361.844-.726,1.27-1.089v-.726c.04-.255.211.073.18-.181h-.18v-.365h-.18a1.5,1.5,0,0,1-.361-.724c-.989-.226-1.538-.962-2.364-1.274h-1.087v-.18c-1.111-.34-2.471.058-3.633.18m-13.8,2.363-1.089.181c-.345.138-.741.544-1.091.726.06.241.122.485.183.728l2.361.543v.181c.245.012.3-.3.726-.181a9.424,9.424,0,0,0,1.45.363v-.181h.185v.181c.3-.058.6-.12.907-.181v-.181a1.633,1.633,0,0,1,.729-.363v-.361c.862-.243.768-.862,1.63-1.092V31.88l.546-.183v-.181H133v-.18c.3-.063.606-.123.907-.183V30.97c.2-.2.078,0,.183-.363-.261-.223-.285-.5-.546-.726-.113-.068-.017-.281-.365-.183-.12.183-.241.363-.36.546-.546.12-1.094.243-1.633.363v.183h-.366v.18H130.1v.181h-.728v.183c-.365.058-.726.12-1.091.18v-.18H128.1c-.062.12-.118.241-.181.361h-1.27v.183H126.1v.181c-.253.05.012-.03-.181-.181m97.449-8.4c.36.23.774.063,1.269.181.055.012.055.243.365.181v-.181h.544v-.181c.261-.153.313-.123.728-.183v-.361h.178v-.181c.516-.385.461.321.729-.548a1.923,1.923,0,0,0,.907-.543V21.48c.538-.363.721-.1,1.091-.726a7.039,7.039,0,0,1,1.454.181c-.062,1.309-.391.871-1.275,1.269v.185c-.24.06-.481.122-.723.18v.183H227.9c-.062.12-.122.241-.18.363q-.547.362-1.089.726c.088.831.415.914.724,1.454q1.089.27,2.178.544c.063.181.12.363.181.544l-.543.18v.183h-.365v.181H227.9v.181h-.361v.183h-.729v.18h-.907v.185h-.546v.178h-.544v.181h-.724V28.2a1.309,1.309,0,0,1-.726.181v.907c.165.088.338.353.365.363.589.31,1.1.053,1.63,0h.911c.062-.122.122-.241.178-.363H227.9v-.181h.546v-.181h.361v-.181h.907v-.181h.546v.181c.628.636.1,1.4.365,2.361h.178v1.27h-.178c.058.544.122,1.091.178,1.633h-.178v.909h-.183v.726h-.182v.546h-.181v.724c-.218.541-.806.971-1.091,1.454l-2.18-.18v-.183h-.543v-.181c-.181-.06-.365-.12-.546-.181.063.243.122.485.181.726.746.195.708.549,1.091,1.091.181.122.363.243.546.363.057.3.118.6.181.907h.18v.546l.546.363V42h.181l.906,1.089a3.878,3.878,0,0,0,1.454-.544c.06-.363.12-.728.181-1.091l.365-.18v-.365h.181c-.06-.485-.122-.967-.181-1.452l.361-.183v-.724h.185V37.1c.248-.874-.037-2.338.18-3.45h.182c.028-.233-.268-.3-.182-.728h.182c.048-.32-.182-.361-.182-.361-.072-.431.182-.546.182-.546a.492.492,0,0,0-.182-.544V30.379h.182c.028-.206-.376-.35-.182-.728h.182v-.726c.183-.12.365-.241.544-.363V28.2c.075-.112.241-.145.363-.365h.907c.062.181.122.365.18.546h.185c.058.363.122.726.18,1.091.157.346.541.736.728,1.087a1.89,1.89,0,0,0,1.272-.544c.06-.122.118-.241.18-.363h.363v-.18c.559-.336.911-.373,1.091-1.091l.728-.181a2.53,2.53,0,0,1,.723-1.272c.123-.062.243-.122.368-.181v-.363l.361-.181V26.02h.365c.06-.122.117-.243.18-.365h.181q.092-.634.182-1.27c.122-.06.243-.122.365-.18a4.026,4.026,0,0,0,.726-2h.363q.092-.632.18-1.269h.181c-.057-.181-.12-.365-.181-.546.125-.058.241-.12.365-.18a4.1,4.1,0,0,0-.544-2.726,1.222,1.222,0,0,0-.907-.724v-.365c-.849-.188-2.318-1.179-3.633-.726v.181h-.365v.181h-.907v.181h-1.087v.181c-.673.2-1.212-.033-1.638.365-1.444.007-.927-.13-1.63-.728a3.488,3.488,0,0,1,.543-1.635c.729-.263,2.031-.043,2.544-.544.729-.2.594-.511.907-1.089h.18v-.546c.181-.058.363-.12.546-.18.12-.363.243-.728.361-1.092h.363V9.131h-.182V8.766h-.181c-.058-.178-.118-.361-.18-.543-.523-.123-.45-.321-.546-.363H235.35v.181l-.546.181V8.042a2.509,2.509,0,0,1-1.995-.544,2.331,2.331,0,0,0-.181-.907l.543-.365V6.044l.907-.181V5.681h.907V5.5c.243-.06.486-.12.728-.181V5.136q.455.092.909.181V5.136a.3.3,0,0,1,.361.181c.12-.06.243-.12.363-.181l2,.181V3.864c-.122-.06-.243-.122-.365-.18V3.32h-.18a1.461,1.461,0,0,1-.363-.726,5.417,5.417,0,0,0-2.178,0v.181c-.423.062-.849.122-1.274.181v.181a2.334,2.334,0,0,1-1.27.181V3.138c-.243-.06-.485-.12-.726-.181V2.775a1.54,1.54,0,0,0-.726-.363,2.62,2.62,0,0,0-.726-1.089h-.183c-.06-.181-.12-.365-.182-.546L229.538.233c-.155.2.025.028-.183.181a2.506,2.506,0,0,0,.911,1.817q-.092.544-.181,1.089a1.654,1.654,0,0,0-.729.365v.18l-1.087.183c-.063.122-.12.241-.181.363-.3.06-.6.122-.907.181v.18h-.365v.183l-1.089.181c-.058.122-.118.243-.182.363h-.728v.181h-.724v.181h-.546c-.062.122-.122.243-.18.363h-.546v.183c-.2.155-.027-.025-.181.181a1.381,1.381,0,0,1,.363.544c.351.067.365.18.365.18h1.091V7.5h.36v.181c.31.068.32-.171.366-.181h.907V7.314h1.27v-.18c.584-.185,1.081-.012,1.452-.361a2.241,2.241,0,0,1,1.635.541V8.766c-.12.063-.243.123-.363.185q-.275.362-.546.724h-.361c-.062.122-.12.243-.183.365l-.726.181V10.4H227.9v.181h-.544v.181c-.243.06-.485.122-.724.18-.125.183-.243.365-.365.548h-.365v.181c-.848-.062-1.7-.122-2.541-.181.18.6.365,1.21.543,1.815v.907c.123.06.243.123.365.181.058.3.122.606.183.909.118.062.24.12.36.181v.726c.123.06.243.122.366.181.06.3.12.6.178.907l1.275.365a5.75,5.75,0,0,1,3.265-1.272v-.363a2.265,2.265,0,0,1,.907.181,7.045,7.045,0,0,1-.178,1.454,7.037,7.037,0,0,0-2.544,1.089h-.543c-.06.122-.125.241-.183.361H227V19.3h-.361v.181h-.729c-.06.12-.118.243-.181.365h-.543v.18h-.548v.183c-.846.06-1.693.122-2.542.18a4.074,4.074,0,0,0-1.813,1.635c-.2.155-.027-.025-.181.18.907.185,1.815.365,2.722.548l.546.726m9.987,1.089h.18c.579-.967,1.044-.411,1.818-.907v-.181l.546-.363a2.1,2.1,0,0,0-.911-2.179c-.057-.122-.12-.243-.182-.365h-1.089v-.181h-.183c.183-1.6,1.447-1.18,2.727-1.633v-.181h.724v-.183h.728v-.18h.18v.18c.3-.06.606-.122.909-.18V18.03h2c.155.2-.025.028.183.181.06.606.117,1.21.18,1.815h-.18v.363H240.8v.546h-.181V21.3h-.183v.546c-.118.062-.241.12-.36.181-.063.3-.123.606-.186.909h-.18c-.06.181-.12.361-.18.544-.123.06-.241.12-.363.181-.063.243-.123.485-.185.726-.18.122-.36.243-.543.363v.363h-.183c-.117.183-.24.363-.363.544l-1.632-.361v-.183H235.9v-.18H234.8v-.183l-1.272.183v-.183h-.18Zm.18-14.527,1.637.181v.544a1.222,1.222,0,0,0-.544.544,7.091,7.091,0,0,1-1.454-.181c.043-.781.112-.614.361-1.089m-3.994,3.268v.181h-.544c-.06.122-.12.243-.181.363H227.9v.183l-2,.361a3.958,3.958,0,0,0-.181-.726h.181c.23-.861.668-.669,1.272-1.089.125-.181.24-.365.365-.544h.543v-.183h.365v-.18h.361c.062-.122.122-.243.181-.365h.544c.063-.122.12-.243.181-.365h.182c.221-.13.013.012.183-.18.694.02.759-.037.907.544h.181c-.062.3-.122.6-.181.907h-.183c-.19.748-.664.769-1.27,1.091M189.646,6.565a1.533,1.533,0,0,1,.363.726l.726.18v.183h.543c.063.122.123.243.183.365.425.06.849.12,1.27.181v.178a2.846,2.846,0,0,0,1.817-.36c-.122-.365-.243-.728-.363-1.092a1.992,1.992,0,0,1-.909-.543V6.2c-.178-.06-.361-.122-.544-.18q-.09-.185-.18-.365H192c-.057-.12-.118-.241-.182-.363h-.361V5.111h-.907V4.93a3.462,3.462,0,0,0-1.272.181,3.208,3.208,0,0,0,.181,1.454Zm90.923-.7v.181h.544c.06.122.122.243.182.365h1.635c.06-.546.123-1.091.18-1.637h-.18V4.41h-.181c-.06-.181-.122-.363-.185-.546H282.2V3.5c-.866-.158-2.319-.706-3.268-.181-.122.181-.243.365-.365.544l-.544.183v.181h-.363c-.058.122-.122.241-.18.363h-.544v.363a12.408,12.408,0,0,1,1.815.726c.6.06,1.21.12,1.817.181m23.735.546v.726h.181V7.5h.181V8.951h.183c-.063.363-.122.724-.183,1.089h.183v.544h.178a.306.306,0,0,1-.178.361.524.524,0,0,0,.178.548c-.06.241-.118.481-.178.724h.178v1.454h.183v.365h.183v.543h.18v.909h.18v.363c.123.062.246.12.365.181v.363h.183v.365c.065.1.25.142.363.363h.907V16.76l.546-.183c.24-.3.483-.606.726-.907h.726v-.181c.781.042.614.112,1.087.363v.363c.245.06.488.122.728.181v-.181a1.462,1.462,0,0,0,1.092-.363v-.181h.543c.183-.243.363-.483.544-.728h.181v-.363c.122-.06.245-.12.361-.181.063-.361.125-.726.187-1.089h.178v-.726h.183v-.365h.182V10.945h.181c.11-.428-.2-.486-.181-.724a.324.324,0,0,0,.181-.363h-.181V8.766h.181V8.042h-.181c.062-.243.122-.483.181-.728h-.181a2.84,2.84,0,0,1,.181-.906h-.181c.017-1.151-.012-1.4-.729-1.817h-.361c-.06-.122-.118-.241-.181-.363h-.544V4.047h-1.27l-.365.544h-.361v.18H310.3v.183l-.726.181v.181h-.544V5.5l-1.27.181v.181h-.363c-.063.122-.123.243-.185.363-.48.195-1.738-.463-2-.544h-1.27c.06.241.12.485.183.728Zm3.268,2.722a1.025,1.025,0,0,0,.907-.907c.673-.158.708-.463,1.454-.544V7.314a7.918,7.918,0,0,0,1.452-.363V6.773l1.272.361c-.06.606-.122,1.21-.18,1.817.058.18.12.363.18.543h-.18v.728h-.182V10.4h.182c.085.49-.182.543-.182.543-.063.365-.125.729-.181,1.092h.181v.18a1.9,1.9,0,0,0-.365.365l-2,.181v.181l-1.089.18v.183h-.365v.181c-.181.062-.361.122-.544.181-.138.495-.042.413-.543.544V13.125h-.185l.365-3.994M259.682,16.76v.18h.365v.183c.266.243.253.087.363.544.574.15.658.418,1.272.544v.18q.814-.182,1.633-.361v-.183h.726c.062-.12.122-.241.181-.363.183-.06.365-.12.544-.181v-.18h.546v-.183h.363v-.18h.544c.181-.245.363-.486.546-.728l1.637-.544c.13.551.278.375.36.544v.544h.183c-.063.183-.122.363-.183.546h.183v1.452h-.183a4.284,4.284,0,0,0,.183,1.635c-.063.122-.122.241-.183.361h.183c.048.393-.183.365-.183.365v2.542c-.053.251-.206-.075-.181.181.265,2.571.008,6.658,0,10.533a2.5,2.5,0,0,0-.546.726,1.616,1.616,0,0,1-.907-.18v-.183h-.361v-.181h-.728v-.181c-.363-.062-.726-.12-1.087-.183-.063-.12-.122-.241-.185-.361h-.361c-.123-.181-.243-.363-.365-.546h-.361V32.92c-.27-.25-.241-.092-.365-.544h-.183v-.363h.183v-.907h.183v-1.27c-.758.448-.986,1.24-2,1.452v.363a2.7,2.7,0,0,0-1.272.726v.183h-.365c-.057.12-.12.241-.181.361h-.361q-.092.182-.18.365h-.366c-.112.073-.137.241-.361.363v1.091c.113.231,2.206,1.367,2.905,1.087.06-.122.12-.241.181-.363h.361a15.724,15.724,0,0,0,.726-1.815h.365v-.181a3.989,3.989,0,0,0,.728.181c.06.181.122.361.181.544h.18v.546l.726.543v.363l1.272,1.089V37.1c.182.12.363.241.544.363v.363q.455.362.909.728v.361l.543.363a6.936,6.936,0,0,1,.546,1.454c.43.118.341.052.546.365a1.79,1.79,0,0,0,1.45-.546c.063-.181.123-.363.183-.544.18-.06.361-.122.544-.181.063-1.394.12-2.786.181-4.177h.182c-.057-.181-.122-.363-.182-.543h.182c-.057-.789-.122-1.575-.182-2.363h.182c-.057-.847-.122-1.695-.182-2.541-.062-2.12-.118-4.237-.181-6.357h-.183c-.055-.365.183-.363.183-.363-.058-.726-.122-1.454-.183-2.181h.183V20.21h.181c0-.15-.406-1.265-.365-1.454h.183v-.365h.181c-.062-.18-.118-.361-.181-.544h.181v-.724c-.065-.25-.226.072-.181-.183h.181v-.726h.182q.09-.907.183-1.817a1.662,1.662,0,0,0,.728-.361v-.183c.328-.183,1.114-.148,1.449-.363.125-.181.245-.365.365-.544h1.089v-.181h1.089v-.181h.729V12.4h.361v-.183c.6-.238.606.157,1.091-.363h.181c.06-.3.122-.6.181-.909h-.181V10.4h-.181c-.341-.634-.3-1.056-1.091-1.272v-.18c-.18.06-.361.122-.544.18v.183h-.363v.18h-.361v.181h-.365v.183h-.182V9.675h-.183v.183h-.543c-.06.122-.122.241-.181.363h-.365V10.4h-.726v.181c-.425.062-.846.12-1.269.181v.18c-.443-.11-.4-.19-.728-.361q-.092-.907-.183-1.818h.183V8.223h.181c.122-.608-.495-.673.181-1.272V5.862h-.181V5.681h-.181V5.5h-.365a3.608,3.608,0,0,0-2.905-.544c-.122.363-.241.726-.365,1.089-.12.062-.24.122-.36.181V6.59h-.183c-.06.183-.122.361-.181.544h.911v.18h.36c.816.49.408,3.455.183,4.54a2.733,2.733,0,0,0-1.089.728v.181l-.909.181c-.062.12-.122.241-.181.363-.243.058-.486.122-.728.181-.062.122-.12.243-.183.363h-.543v.183c-.243.058-.483.12-.726.18V14.4l-1.089.181v.183h-.729v.18h-.544v.183H261.5v.181c-.786.12-1.575.241-2.359.363v-.181h-.185q.09.544.185,1.089l.541.183m-53.693-4.021V11.285c-.18-.06-.365-.12-.544-.181v-.181c-.32-.286-.41-.208-.546-.726h-.365q-.087-.182-.18-.365l-.546.181V9.832c-.425-.1-.5.215-.724.181V9.832h-1.452v-.18l-1.275.18v-.18l-.724.18v-.18l-1.452.18a.435.435,0,0,1-.365-.18c-.31-.057-.306.167-.363.18h-2v.181L193.1,10.2v.181h-.546v.181h-.907v.183H191.1v.18l-.365-.18v.18l-1.089.181v.181h-.365v.181l-1.455.181v.181h-.36c-.063.122-.12.241-.183.365l-1.089.181v.181l-.726.181v.181h-.363V13.1h-.544v.181c-.243.06-.486.12-.729.181v.181h-.361c-.12.181-.241.363-.363.546h-.543v.18l-1.274-.18c-.12-.183-.241-.365-.363-.546h-.365c-.12-.181-.24-.363-.363-.544-.471-.281-.348.2-.726-.363h-.544v.181c-.5.5-.206,2.736-.18,4a3.463,3.463,0,0,1,.906,1.27,2.258,2.258,0,0,1,.907.181c.556-.661.882-.471,1.094-1.633h.543v-.363h.181q.819-.909,1.633-1.818l1.27-.361c.063-.122.123-.245.183-.365.3-.06.6-.12.907-.181.06-.122.122-.243.183-.363.543-.062,1.089-.12,1.633-.181V12.92c.241-.062.485-.122.724-.181v-.181l.546.181v-.181L192,12.194v-.181h1.272V11.83H194v-.181h.724v-.181h.911v-.181h.541V11.1h.728v-.181c.183.06.361.122.544.181v-.181a21.873,21.873,0,0,1,5.087.181v.181h.365c.067.042.176.258.361.363v.728c-.122.06-.243.12-.361.181v.363c-.123.06-.246.122-.365.181v.181l-.728.181c-.122.181-.241.363-.361.544l-.729.183c-.058.12-.122.241-.181.361h-.363v.183c-.759.416-1.347.346-1.813,1.087h-.183v.183c.523-.1.649-.423,1.269-.361v.178h.183v-.178h2.542v.178h.729v-.178a.515.515,0,0,1,.543.178c.241-.058.483-.12.724-.178v.178h.183c.062-.12.122-.24.18-.361,1.037.017,1.547.027,2-.544v-.365h.18a5.482,5.482,0,0,0-.546-1.815ZM311.566,10.4h-.182c-.062-.241-.118-.485-.181-.728l-.726-.181v-.18l-1.815.18c-.062.365-.122.728-.183,1.091,1.082.3,1.222,1.079,2.724,1.091.12-.423.243-.849.363-1.272M179.656,31.625h1.272v.181H182.2v.18h.728v.183h.18v-.183l.907-.18v-.181h.361v-.181l1.092-.365c.122-.181.24-.363.361-.544h.365c.062-.12.122-.241.181-.363.42-.285.784-.346,1.091-.726h.907v.181h.181c-.06.181-.122.363-.181.544h-.181v.544c-.12.062-.243.122-.366.181v.365h-.178v.363c-.122.062-.245.12-.365.181-.06.241-.122.485-.181.726h-.18c-.06.243-.12.485-.182.726-.125.062-.243.122-.365.183V33.8h-.181v.363c-.122.06-.243.12-.365.181v.544c-.24.183-.481.363-.724.544V35.8c-.183.12-.365.241-.544.361v.365l-1.272,1.089c-.181.3-.361.6-.544.909h-.363c-.122.181-.243.363-.361.544h-.363c-.063.122-.127.241-.183.361h-.365a7.227,7.227,0,0,0-1.089.911h-.365a4.693,4.693,0,0,0,2.726.18v-.18h.183v.18h.724v-.18h.726V40.16h.361v-.181c.245-.06.486-.12.729-.181.06-.122.123-.241.18-.365h.366c.12-.181.241-.361.363-.543h.361c.3-.363.6-.728.907-1.091l.726-.544v-.363l.365-.181v-.363l.726-.544c.06-.243.123-.485.182-.726l.365-.183v-.726c.253-.588.633-.475.724-1.452h.365c.062-.425.118-.849.183-1.272l.36-.181V30.9h.183q.09-.544.183-1.089c.241-.12.485-.241.724-.363.243-.338-.055-.869.183-1.27h.18c.291-.488.466-.554,1.274-.546.057-.181.12-.363.18-.544.753.012.929.073,1.091-.544a6.21,6.21,0,0,0,2.361-.365v-.181L200,25.812v-.181c.256,0-.072.142.18.181h2.363v.181h1.269v.181h.726v.185q.912.087,1.818.18c-.077-1.215-.5-.962-.728-1.817h-.363l-.18-.544a10.951,10.951,0,0,1-1.274-.546c-.947-.3-4.827.306-5.445.546v.181H198v.181c-.641.235-1.362-.047-1.818.363-.558.027-1.946.157-2.176-.181V24.36h-.183c.183-.666.363-1.332.546-2h.18v-.181h-.18c.058-.25.107.065.18-.181v-.726h.181V20.91h.183v-.726h.183v-.728h.18c-.06-.241-.12-.485-.18-.724h.18a1.677,1.677,0,0,0-.18-1.638c-.383-.561-.231-.083-.728-.36-.063-.122-.12-.243-.183-.363h-.544c-.062-.123-.122-.243-.181-.365-.45-.24-.486.092-.907-.361-.763.095-.591.256-1.091.543q.09.637.183,1.27h.178a3.274,3.274,0,0,1-.361,2c-.458-.032-.643,0-.907-.181V19.1h-.363c-.063-.123-.123-.245-.181-.363-.181-.063-.363-.123-.546-.185-.06-.18-.12-.361-.181-.543h-.546v-.181h-.361v-.181c-.523-.153-1.54.445-2,.544.113.453.092.3.365.546v.181h.361V19.1h.546c.062.12.118.241.178.361a2.777,2.777,0,0,0,1.455.544v.365c.937.1,1.022.546,1.637.907.015.823.043,1.6-.365,2-.06.18-.122.361-.183.544l-.907-.183c-.06-.12-.12-.241-.181-.361h-.546V23.09h-.361v-.181h-.365c-.06-.122-.118-.243-.183-.363-.24-.062-.48-.123-.724-.183v-.181c-.363-.063-.223.083-.361.181-.784.042-.618.113-1.089.365-.062.181-.123.363-.183.544.211.115.265.3.361.361h.365v.183h.365c.118.181.243.363.363.544h.361c.365.421.726.847,1.091,1.27V26.9a11.574,11.574,0,0,1-1.815.906v.181h-.544v.183h-.363v.18h-.546c-.062.122-.123.243-.183.365H184.2V28.9h-.546v.181h-1.27v.181h-.546v.181h-.544v.181c-.724.123-1.454.243-2.178.363v.181c-.243.183-.486.363-.726.544v.546l1.269.181Zm119.383,4.019c.24-.06.483-.12.723-.181.063-.12.122-.241.185-.361h.544v-.183a2.027,2.027,0,0,1,.907-.544c.132-.524.195-.6.726-.726a3.29,3.29,0,0,1,.907-1.272h.181v-.363c.122-.062.24-.122.365-.181v-.363h.181v-.363h.182c.163-.248.135-.318.183-.726l1.63.363c.112.363-.022.155.183.363v.363c.182.062.365.12.544.181.062.122.123.241.183.363h.365v.181h.363v.181h.363v.183h.363v.18h.544q.272.362.543.728l.907.181c.123.181.243.361.365.544.3.06.6.12.907.181.062.12.122.241.182.365h.365v.18c.24.062.486.122.726.183v.18h.726v.181h.363v.181l1.637.546v.181h.543v.181h.726v.18h.546v.181h.907V37.1h1.091v.181h.907v.181l1.091.181v-.181c.293-.05.328.176.36.181h.544v-.181c.385-.022.363.181.363.181h1.82v-.181h1.45L329,36.553c-.108-.363.027-.157-.18-.363v-.183h-.728c-.06-.12-.12-.241-.181-.363h-.361v-.181l-1.818-.181V35.1h-.543v-.183H323.55v-.18q-.724-.092-1.454-.183v-.181h-.18v.181c-.348.017-.365-.181-.365-.181l-.907.181v-.181c-.483-.062-.967-.122-1.45-.181v-.183h-.907v-.18H318.1c-.253.043.063.256-.181.18v-.18c-.485-.062-.969-.12-1.452-.181v-.181h-.546v-.181H315.2V33.1h-.361V32.92h-.543v-.181q-.549-.18-1.091-.363v-.181h-.363c-.123-.181-.243-.363-.363-.544-.182-.062-.363-.12-.546-.181v-.363l-.546-.183a5.894,5.894,0,0,1,.365-3.994c.122-.062.24-.122.365-.181v.181h.181v-.181l1.087-.363V26.2c.485-.06.971-.12,1.454-.181v-.181h.361v-.183c.306-.06.606-.12.911-.181.06-.12.12-.241.181-.363h.726v-.18h.182c.108-.363-.025-.158.18-.365-.132-1.274-.688-.809-1.452-1.272l-.182-.361c-.3-.062-.6-.122-.907-.181v.181h-.365c-.122.181-.24.361-.365.544h-.18c-.153.218-.138.758-.363.907-.341.226-.51-.082-.907.363l-1.091-.181c-.06-.361-.12-.726-.182-1.089H311.2V22.389h-.18c-.258-.991-.295-.388-.911-.728-.058-.12-.118-.243-.18-.365h-.544v-.18l-.544-.181c-.155-.2.025-.028-.181-.181v-.183h.543c.06-.12.122-.24.183-.361h.361c.063-.12.12-.243.183-.363h.724v-.183h.185v.183c.255-.01-.062-.1.182-.183h.543v-.181h.548V19.3c.24-.062.483-.12.726-.183v-.18c.788-.181,1.572-.363,2.358-.546v-.18h.365c.06-.122.122-.243.181-.365h1.091c1.269-.01,3.443.28,4-.18.18-.062.363-.122.544-.183a2.288,2.288,0,0,0,0-1.27l-1.635-.544v-.181h-1.091c-.053-.013-.052-.246-.361-.181v.181h-.546v.181h-.365v.181h-.361c-.062.12-.122.241-.181.363l-.909.181v.181l-2,.183v.18h-.544v.183h-.543v.18h-.544v.181h-.546v.183H311.2v.18h-.546v.183l-1.269.181c-.062.12-.123.241-.183.363H308.3v.181h-.363v.181h-.728v.18h-.36V19.3l-.911.181c-.06.12-.12.243-.183.365h-.543v.18h-.361v.183c-.486.06-.972.122-1.454.18v.181h-.544v.183h-.366v.181h-.541v.181h-.368v.18h-.721v.183h-.365v.181h-.544v.181c-.763.251-1.837-.25-2.364.181-.182.06-.361.122-.543.18.23.889.921.889,1.635,1.274v.181h.365v.181h.363v.181h.544v.183h.909c.057-.122.118-.243.178-.365h.543v-.181l.548-.181v-.363a5.372,5.372,0,0,0,1.272-.546v-.18h.182v.18c.181-.058.363-.12.546-.18.155.2-.025.027.18.18a9.519,9.519,0,0,1-.363,3.27h-.182V26.2l-.363.181v.363h-.183v.363h-.181c-.122.363-.241.726-.365,1.091l-.723.544v.363c-.2.35-.533.723-.729,1.091h-.36c-.243.866-.862.771-1.094,1.633l-.546.181v.363c-.176.122-.361.243-.541.363v.181h-.363c-.183.243-.365.485-.546.728-.183.062-.365.12-.544.181v.363a3.106,3.106,0,0,0-1.269.909v.18l-.546.181c-.062.181-.122.363-.181.544h-.365c-.06.122-.122.243-.183.365h-.363c-.12.181-.24.361-.361.543h-.361V37.1c-.268.25-.243.09-.365.544-.363.11-.157-.025-.363.181q1-.09,2-.181v-.181l.728-.181V37.1h.907v-.183l.726-.181v-.18c.544-.181,1.091-.363,1.633-.546.062-.12.125-.241.185-.363m6.715-8.9V26.2c.183-.12.365-.241.548-.363a3.077,3.077,0,0,0,.546-2.544c-.123-.058-.243-.12-.366-.18v-.363h-.18c-.241-.4.08-.265-.365-.548.127-.493.25-.408.365-.907a6.3,6.3,0,0,1,2.178-.543c.062.606.122,1.209.183,1.815a.315.315,0,0,0-.183.365h.183v.544h.181c.255.836-.311,2.161.181,2.724.038,1.445.195,2.754-.728,3.27a3.691,3.691,0,0,1-2.544-.365v-.181c-.118-.062-.24-.12-.36-.181v-.363h-.183a6.005,6.005,0,0,1,.543-1.635M278.024,19.3l-.18-1.27-.907-.546c-.063-.181-.12-.361-.183-.544h-.361c-.122-.18-.243-.363-.365-.544h-.546q-.092,1.271-.181,2.542h-.18V19.3h-.181v.726h-.183v.544h-.181v.365h-.182V21.3h-.183v.365c-.24.181-.48.363-.724.543v.365h-.18c-.063.243-.123.485-.185.726h-.18v.546l-.361.181v.544H272.4c.058.181.118.365.181.544,1.036-.125,1.264-.713,2.176-.906v-.365c1.1-.228,1.359-.969,2-1.637.183-.12.363-.241.546-.361q.087-.544.181-1.089l.363-.183v-.544h.18a.3.3,0,0,0-.18-.363c-.048-.3.171-.315.18-.363m-20.34,7.263v.183h.365v.181h.907v.181h.546v.183l.726.18v.185h.546v.178h.726c.172.087.253.7.724.546V28.2c.816-.05.9-.286,1.455-.543v-.185h.181v-.544h.18V26.02l-.543-.181c-.062-.122-.123-.243-.183-.365l-1.454-.18v-.183h-.9v-.18h-.729v-.183h-.907v-.181a2.013,2.013,0,0,0-1.815.365c-.5.138-.413.042-.546.543h-.183c.063.243.122.486.183.728a1.6,1.6,0,0,1,.724.361m25.245,3.089c-.181-.122-.366-.241-.548-.363q-.087-.272-.18-.544h-.363v-.181h-.726v-.181h-.544V28.2h-.546v-.183c-.421-.06-.847-.12-1.27-.181v-.178H277.3v-.185h-.363v-.18a4.324,4.324,0,0,0-2.363.18h-.365c.236.37.6.446.911.728.06.122.122.241.18.363l.728.181c.062.12.122.241.18.363a4.038,4.038,0,0,0,2,1.272v.363a4.805,4.805,0,0,1,2.361,1.817h.544c.11.361-.025.157.182.361a5.514,5.514,0,0,0,1.815.546V33.1l.546-.181c.666-1.62.163-1.422-.181-2.722h-.365c-.057-.183-.12-.363-.18-.546m-76.577,8.691-.728-.544v-.363c-.122-.06-.24-.122-.363-.181-.18-.243-.363-.485-.546-.726h-.361v-.181c-.4-.25-.246.075-.546-.363h-.543v-.365a2.982,2.982,0,0,1-1.454-.543q-.092-.182-.18-.365h-.365c-.122-.181-.243-.363-.363-.544-.3-.062-.6-.12-.907-.183-.062-.12-.12-.24-.183-.363h-.365v-.18h-.36c-.062-.122-.123-.243-.183-.365H198V32.9a5.208,5.208,0,0,0-2.724.361h-.18c.06.183.12.363.18.546a2.193,2.193,0,0,1,1.27.544c.06.12.12.243.181.363l.726.181c.243.3.486.606.728.909h.365c.118.181.24.361.361.544.183.06.363.122.543.181v.363c.881.245,1.066,1.041,2,1.27v.365c.493.125.408.246.907.363v.361h.361v.363c.128.216,1.329.558,1.635.729v.18h.361c.062.12.123.243.183.363h.363v.181c.183.06.363.122.548.181v.181c.18-.058.36-.12.543-.181.085-.393.113-.514.363-.726V38.889c-.123-.06-.241-.12-.363-.181ZM31.986,73.9v-.183H30.533v-.18a9.21,9.21,0,0,0-4,.363h-.907v.181h-.363v.181h-.729v.183H23.45v.18l-2.361.365v.18a7.055,7.055,0,0,1-2.179-.18V72.627h.365a1.509,1.509,0,0,1,.543-.909v-.726c-.18-.062-.361-.122-.543-.181a1.768,1.768,0,0,1-.365-.907c.24-.062.483-.123.728-.181.125-.5.243-.411.361-.909a1.841,1.841,0,0,0,1.091-.546h1.27c.275.162.075.578.18.911h.186a.476.476,0,0,1-.186.544c-.053.368.186.361.186.361-.125.728-.243,1.454-.366,2.18h-.18v.365H22c-.165.253-.118.316-.181.726a12.929,12.929,0,0,0,1.454-.546h.726l.181-.361h1.815a4.517,4.517,0,0,1,1.454-.365c.06-.181.12-.363.183-.544h.361c.11-.361-.025-.155.181-.363-.06-.546-.122-1.091-.181-1.633h-.18a2.114,2.114,0,0,1-.544-.911c-.556-.132-.38-.283-.544-.363h-.729v-.18a1.579,1.579,0,0,0-1.27.363c.06.485.123.969.181,1.454h.181a4.584,4.584,0,0,0-.181.724,1.433,1.433,0,0,0-.544.365c-.781-.043-.614-.113-1.089-.365a5.96,5.96,0,0,1,.907-3.087,2.1,2.1,0,0,1,1.633-.365c.04.012.062.238.365.185v-.185h.907V67h.907v-.181h.363v-.18c.18-.062.366-.122.544-.185.015-1.885-.283-1.317-.907-2.358-1-.037-2.994-.521-4.176-.183v.183H22.539v.181h-1.45v.18l-1.815.181v.181h-.546V65h-.363v.18h-.909c-.058.122-.122.241-.18.365-.546.12-1.092.241-1.635.363-.062.12-.12.243-.183.363-.546.18-1.087.365-1.633.544.33,1.6,1.126.852,2.179,1.452v.183c.338.246.418.43.907.543a4.54,4.54,0,0,1,.365,1.818,3.909,3.909,0,0,0-.728.907,6.187,6.187,0,0,1-2.359,0v-.181h-.546v-.183H13.46v.183a2.875,2.875,0,0,0-1.089.181c.09.7.223.506.365,1.089H13.1c.063.183.123.366.181.546h.181V73.9h.183c.181.241.361.483.546.726.544-.06,1.091-.122,1.633-.18L16,74.079l.544-.181v-.183l.546-.18c.157.2-.027.028.181.18-.062.3-.122.606-.181.909h-.183c-.171.661-.371.616-.907.907v.183h-.546c-.06.12-.118.24-.178.361l-1.091.181v.183h-.365v.18c-.421.062-.846.123-1.272.181v.183H11.464v.181H10.195v.181H8.741v.181H7.468v.181H6.925v.183H5.836v.178c-.443.115-.4.195-.729.366a.85.85,0,0,0,.729.543v.365c.365.122.724.243,1.089.363v.181c.543.06,1.087.12,1.633.183v.18h2.179v-.18h.546V79.89c.551-.073.36.283.544.363h.361a4.687,4.687,0,0,1,.181,2.179H12.19c-.062.241-.12.485-.18.728h-.181c-.062.361-.122.726-.183,1.087-.12.063-.243.12-.361.183-.063.181-.125.363-.181.546h-.183c-.06.3-.123.6-.181.906l-.363.181c-.062.241-.123.485-.18.728-.185.12-.366.241-.546.361v.365H9.466c-.06.3-.122.6-.178.907H9.1c-.057.181-.117.365-.18.546H8.558a3.466,3.466,0,0,1-.546,1.27c-.178.122-.361.241-.544.363v.363c-.12.062-.241.122-.36.181a3.325,3.325,0,0,0-1.091,1.635c-.649.193-.686.683-1.092,1.091-.24.181-.483.361-.726.544V94.6H3.836c-.062.18-.12.363-.18.544l-.546.183-.544.724H2.2c-.12.183-.241.365-.361.546-.518.358-1.109.381-1.454.907H.2c-.112.1.5.343.544.363v.181c.181-.062.363-.122.546-.181v.181h.546v.181c.844-.062,1.693-.122,2.541-.181.06-.122.12-.241.178-.363l2.183-.181c.058-.122.118-.243.181-.365l.543-.18v-.183a1.493,1.493,0,0,1,.728-.361v-.365c.423-.3.849-.6,1.27-.907V94.78c.183-.12.363-.241.544-.361.123-.363.241-.726.365-1.091h.363c.243-.666.483-1.332.726-2l.365-.181V90.6l.543-.363V89.7h.181v-.544h.183c.06-.425.122-.849.18-1.27.123-.062.245-.122.363-.185v-.544h.181v-.361q.275-.182.544-.365c.062-.241.125-.485.185-.726h.181a.288.288,0,0,0-.181-.363c.058-.425.122-.847.181-1.269.12-.063.24-.123.363-.183V82.068c.085-.281.509-.941.363-1.45s-.574-.9-.726-1.454h.18v-.183h.729V78.8c.241-.06.481-.122.724-.183v-.18h.726v-.183h.911v-.183H18v-.178c.125.058.243.122.366.178v-.178h.909V77.71h.543v-.181h.907v-.181H22.18v-.181H22.9c1.156-.386,2.834-.538,3.994-.909h.911v-.181h1.27V75.9h1.635v-.181h1.272v-.183h.9v-.181h.183v-.181h-.183c-.055-.952-.245-.946-.9-1.27m20.461,7.631v-.185c-.533-.218-.493.078-.907-.361a1.561,1.561,0,0,1-.181-1.633h.181c.025-.165-.193-1.124-.181-1.635h.363v-.546a4.761,4.761,0,0,1,1.269-.544,2.671,2.671,0,0,0,0-1.452,6.254,6.254,0,0,1-1.45-.728c-.1-.25-.068-.406-.181-.726h-.183V72.263c-.04-.251-.2.078-.183-.18h.183c.062-.363.122-.728.183-1.089h.181V68.814c.01-.047.243-.058.181-.363-.18-.881-1.061-1.325-1.454-2-.483.058-.971.12-1.45.18q.177,1.908.361,3.813h.181a.475.475,0,0,1-.181.546v2.361H49v.726h-.178c-.132.436.193.976.178,1.091h-.178c-.063.3-.122.6-.183.907a1.6,1.6,0,0,0-.728.365v.18h-.543v.183c-.243.058-.486.12-.729.18v.181h-.544v.18h-.363v.185h-.544v.181h-.361v.18h-.907v.181H43v.181h-.363v.181h-.548v.183h-.724V78.8c-.3.06-.6.12-.906.181v.181c-.122.062-.245.12-.365.183-.04.624-.226.671,0,1.269h.183v.546h.181c.18.241.363.483.544.726h1.086c.063-.12.125-.243.183-.361H43a7.411,7.411,0,0,1,1.272-.546v-.365l1.633-.544c.181-.243.361-.485.544-.724h.363v-.183h.361c.063-.122.123-.243.186-.363h.361v-.181a2.294,2.294,0,0,1,.909.181,4.88,4.88,0,0,1-.728,3.813v.365l-1.272,1.091-.726.906c-.579.523-1.2.534-1.452,1.45-.987.268-1.074,1.32-1.817,1.818-.108.363.025.157-.181.363v.181h.909a12.127,12.127,0,0,0,3.085-3.448h.363c.216-.739.37-.365.726-.911.378.015.966-.045,1.092.183-.063.241-.123.485-.183.728h.183v.724h.183v.181h-.183v3.27h-.183v1.272h-.18v1.087h-.183V92.6h-.181c.06.243.122.485.181.726h-.181c-.062.423-.122.847-.181,1.27-.032.062-.413.32-.548.546-.3.062-.6.123-.907.181v.181q-.45-.092-.9-.181a3.685,3.685,0,0,0,1.087,1.454c.123.06.241.12.363.18v.544c.243.183.485.363.726.546v.181h.365c.06.122.122.241.181.363h.546v.181c.994-.018,1.207-.18,1.633-.726h.18v-.546c.125-.06.245-.122.365-.18-.06-.183-.12-.365-.183-.544h.183v-.365h.18v-.544h.183V93.33h.183q-.092-1.271-.183-2.541c.01-.047.253-.055.183-.365h-.183v-.363h-.183c-.063-.308.173-.315.183-.363V86.427h.183v-.543h.181c.118-.42-.157-.48-.181-.543.03-.256.12.068.181-.183V84.43h.181v-.544H51.9v-.18c.539-.191,1.22.793,2,.365v-.185c.523-.13.6-.195.724-.726h.186v-.18h-.186c-.281-1.1-1.172-1.046-2.176-1.452m60.654-2v-.543h-.181c-.183-.243-.363-.486-.546-.728-.3-.058-.6-.12-.907-.181v-.181h-1.091v-.18a5.528,5.528,0,0,0-1.815.361q-1.633.092-3.267.181v.181l-3.815.546c-.986.023-4.422.44-4.722.181a2.859,2.859,0,0,1-1.091-.181c.06-.546.123-1.091.181-1.633h-.181q-.092-1-.183-2a19.225,19.225,0,0,0,2.905-1.092c.063-.18.123-.361.181-.543.763.062.536-.068.907.363h.185v.544c.122.062.24.122.363.18.06.183.12.366.18.548h.366v.181l.724.18V75.9h.726v.181l.726-.181a.29.29,0,0,0,.365.181V75.9h.361c.063-.122.123-.243.181-.363h.728v-.181c.3-.208.253-.113.365-.548.24-.058.483-.118.726-.18l.544-1.635h.363c.122-.543.243-1.087.361-1.635l.546-.363v-.363c.122-.058.243-.12.363-.181V69.9h.181c.465-1.4-.639-3.718-1.091-4.357h-.178l-.546-.726h-1.452v-.181h-.183v.181h-.909v-.181h-.183v.181a3.509,3.509,0,0,1-1.995-.181h-.365A5.231,5.231,0,0,1,100.207,63c-.2-.208-.075,0-.18-.365.152-.057.559-.368.906-.18v.18a1.585,1.585,0,0,0,1.272-.363c.032-1.36-.13-1.122-.907-1.632v-.183l-.543-.181V60.1l-2.183.183v.181H98.21v.183l-3.089.361v.181l-1.27.181v.181h-.724v.183a4.621,4.621,0,0,1-1.82.726V63a2.675,2.675,0,0,1,1.274.726v.181c.31.21.416,0,.728.363.663-.06,1.332-.122,1.993-.18.063-.123.127-.243.183-.365h.365v-.181c.223-.07.363.181.363.181.18-.062.366-.12.546-.181v-.181h.363v-.181c1.214.013.851.216,1.45.726V65H98.39c-.122.181-.243.363-.361.544h-.363v.18h-.544v.185h-.363v.18h-.366c-.057.122-.12.241-.18.363H94.394v-.181a1.815,1.815,0,0,0-.724-.361v-.365h-.361c-.063-.12-.125-.243-.181-.363a2.373,2.373,0,0,0-1.454,0c-.017.944.13,1.137.907,1.27-.155,1.38-1,.734-1.817,1.272v.181a2.589,2.589,0,0,1-1.272.726V69c-.571.153-.829.528-1.269.724h-.546V69.9c-.546.06-1.089.123-1.635.183-.032.385-.235.653,0,1.089.245.18.485.363.726.544v.544c.1.191.48.083.363.546H86.95v.363h-.181c.265.951,1.214,1.555,1.455,2.541h.361c.143.578.241.666.907.726v.366a1.915,1.915,0,0,0,1.091,0c.06-.243.12-.485.181-.728l.726-.181v-.183l1.091.183v-.183h.546V75.9h.181q.087.907.181,1.817h.18c-.195.734-.731,1.079-.907,1.813-.181.062-.365.122-.544.181v.183h-.366v.181H90.583v.181h-.365v.181c-.118-.06-.24-.122-.361-.181v.181h-.726v.183h-.907v.18h-.546v.183h-.546v.181h-.543v.181h-.728v.18h-.724v.183h-.729v.181c-.571.246-.485-.043-.728,0v.181h-.726c-.246.065.077.155-.181.181v-.181l-2.361.544c-.153.2.025.028-.178.181.215.739.067.213.544.546.062.12.118.241.18.363.789.118,1.575.241,2.361.365v.18c.3.053.328-.175.361-.18.443-.087.471.173.728.18.062-.122.123-.243.183-.365h1.633c.063-.12.122-.241.181-.361h1.272v-.181h.361c.062-.122.122-.243.185-.365h.361V82.8h.728v-.181h.544v-.181h1.269v-.181h.181v.181h.183a4.2,4.2,0,0,1-.544,2v.363h-.181v.365c-.181.123-.365.243-.546.363v.544h-.18c-.258.7.037.906,0,1.454V87.7h-.181a.3.3,0,0,0,.181.363c-.06.3-.122.6-.181.907h.361v.363H90.4a3.839,3.839,0,0,0,.726.543v.183h.365v.363h.361a5.065,5.065,0,0,1,.185,1.272,2.037,2.037,0,0,0-.911.543v.183h-.361c-.062.122-.122.243-.181.365h-.365c-.062.12-.118.24-.18.363h-.363c-.062.118-.122.241-.183.361l-.726.181v.183H88.4c-.058.12-.122.241-.18.363-.3.06-.608.122-.911.18V94.6c-.181.062-.363.122-.544.181.063.122.123.245.181.365.606.062,1.21.12,1.817.181v-.181h1.452c.062-.12.122-.243.181-.365h.183v.183l.724-.183v-.363c.486-.058.969-.12,1.455-.18.058-.122.122-.243.181-.363h.546c.058-.123.118-.243.18-.365h.907V93.15a2.247,2.247,0,0,0,1.272-.546c.818.228.824.8,1.817.907v.365l.544.18v.183h.361v.18H99.3c.062.122.12.243.18.363.306.062.608.122.907.183.063.12.125.243.186.363.3.06.6.122.907.181.06.122.117.241.181.363l.726.18c.425.546.846,1.091,1.269,1.637a2.774,2.774,0,0,0,1.638-.363,7.446,7.446,0,0,0-.183-2.544h-.183c-.335-.448-.739-.653-.907-1.27a1.536,1.536,0,0,1-.729-.361v-.185l-.724-.178V92.6h-.544c-.06-.122-.122-.241-.18-.365h-.363v-.18h-.365v-.183h-.361V91.7h-.368c-.057-.122-.12-.243-.18-.363-.241-.06-.485-.123-.728-.183-.06-.181-.118-.361-.18-.544-.243-.12-.485-.24-.728-.363a3.8,3.8,0,0,1,.181-1.452h.366v-.544h.36c.221-.811.809-1.076.907-2h.368c.2-.951.781-2.644-.181-3.268a3.388,3.388,0,0,1,.181-1.27,32.555,32.555,0,0,1,8.169-.363h.365v-.181c.122.06.243.12.363.181v-.181h.183v.181h.181v-.181h.361v.181c.258,0-.07-.127.183-.181h.724v-.181c.258-.012-.07.135.183.181h.724v.181c.423-.122.851-.245,1.272-.363-.06-.485-.122-.969-.18-1.455ZM101.843,67.544l1.087-.183v-.181h.907v.181h.183v-.181a1.6,1.6,0,0,1,1.274.365c-.063.423-.123.846-.183,1.269h-.183v.365h-.18c-.06.3-.123.606-.181.909h-.183v.361c-.181.123-.363.243-.546.365-.057.243-.12.485-.181.726l-.543.181c-.3.363-.608.726-.909,1.091h-.361c-.315-.867-.17-1.695-.911-2.181.013-.854.438-2.8.911-3.085m-6.176,2.178h.181a2.294,2.294,0,0,1,.181-.909c.4-.067.346-.173.361-.18H97.3v-.181c.273.173.308.353.543.546-.118.922-.709,1-1.087,1.632h-.728v-.181h-.181V69.9c-.053-.251-.241.07-.181-.181M93.49,71.538v.181h-.363q-.275.362-.546.726a6.722,6.722,0,0,1-2.363.907c-.2-.2,0-.077-.361-.18-.06-.3-.122-.606-.181-.909-.122-.062-.243-.12-.363-.181a.272.272,0,0,1,.18-.363c-.06-.241-.12-.485-.18-.728A7.013,7.013,0,0,1,91.852,69.9V69.54l1.818-.181v.728h.181v1.269l-.361.183m4.356,13.255h-.18v.548h-.183c-.3.36-.6.724-.9,1.089h-.366c-.127.493-.246.41-.363.907-.3.06-.6.122-.911.181-.118.183-.24.363-.361.546h-.543v.181c-.3-.062-.608-.123-.907-.181a2.807,2.807,0,0,1,.181-1.272c.118-.062.24-.12.361-.181V85.7h.181v-.36h.183v-.548h.181v-.723h.178v-.365c.123-.062.246-.122.365-.181v-.546c.132-.2.48-.148.726-.544h.728v.181h.18v-.181h.729v.181l1.089.181a4.014,4.014,0,0,1-.365,2M71.88,82.071c-.345-.055-.884.385-1.457.181v-.181c-.24-.062-.481-.122-.724-.181v-.181c-.426-.062-.847-.123-1.27-.18v-.185l-.728-.18v-.181c-.361-.062-.728-.123-1.089-.181-.06-.123-.12-.241-.183-.365-.421-.06-.847-.12-1.269-.181-.063-.12-.122-.241-.181-.363h-.548c-.06-.122-.117-.243-.178-.365-.243-.058-.485-.118-.729-.178l-.18-.365h-.366V78.8h-.543v-.181c-.181-.12-.365-.241-.544-.365.063-.363.123-.724.18-1.089.183-.12.365-.241.546-.361v-.363c.183-.122.361-.243.544-.365.063-.3.12-.6.183-.907h.18v-.546c.123-.062.245-.12.363-.181.06-.241.123-.483.181-.726.123-.062.246-.122.363-.183V72.99h.183c.3-.361.6-.728.907-1.087h.365c.167-.633.473-.681.543-1.455.276-.37-.148-1.012-.365-1.452a3.371,3.371,0,0,0-1.633-.181V69c-.178-.06-.363-.12-.544-.181V69H63.16c-.057-.12-.12-.241-.183-.363-.178-.122-.361-.243-.543-.365v-.361c-.181-.123-.365-.243-.544-.365-.063-.18-.12-.363-.18-.543h-.365c-.2-.2,0-.078-.363-.181a3.087,3.087,0,0,1-1.089,1.089v.544h-.365a1.986,1.986,0,0,1-.546.907H58.8v.363h-.183v.365c-.117.06-.24.118-.358.181v.363c-.122.06-.241.122-.366.181v.363h-.18v.363h-.181V71.9h-.181v.36h-.18c-.06.185-.123.366-.183.548-.123.06-.245.12-.363.18-.062.241-.125.486-.18.728-.185.12-.368.243-.546.363v.363a4,4,0,0,1-.729,1.091c.108.361-.022.157.183.363v.181c.526-.19.581-.45,1.272-.544v-.363a1.435,1.435,0,0,0,.726-.365v-.181h.363v-.181h.361c.122-.18.243-.363.365-.544H58.8v-.181c.268-.248.245-.092.365-.544.578-.143.666-.24.728-.911h.365V71.9c.548-.148.621-.34.724-.909h.363v-.546c.3-.058.608-.118.907-.18v-.181c.363.06.724.118,1.091.181v.363h.18q-.27,1.086-.546,2.179H62.8v.363h-.183c-.06.3-.12.6-.181.907-.181.122-.365.241-.544.363-.063.243-.12.485-.18.728-.183.118-.365.241-.544.363v.544h-.183c-.166.235-.135.353-.363.544a4.669,4.669,0,0,1-3.448.544v-.181c-.365.062-.726.122-1.094.181.165.589.588.7,1.094.907v.363c.18.063.361.122.543.183-.063.606-.122,1.209-.181,1.815-.122.062-.243.123-.361.181v.365h-.183v.361c-.123.062-.245.123-.363.185v.361c-.125.06-.243.12-.365.181v.363c-.122.06-.24.12-.361.181v.365h-.181a1.273,1.273,0,0,0-.365.906c.753-.1.633-.378,1.272-.543V82.98c.363-.122.726-.245,1.089-.365v-.363a1.726,1.726,0,0,0,.9-.363c.065-.181.125-.361.183-.546h.365c.06-.12.12-.243.181-.361.3-.062.6-.123.911-.181v-.183a2.821,2.821,0,0,1,1.269.183c.06.12.122.241.183.363h.543l.181.365c.243.057.486.118.726.18.063.12.12.241.183.363h.724c.06.122.123.241.185.363H64.8v.181h.363V82.8H65.7c.06.122.12.243.181.363h.361v.183c.3.057.608.12.907.181.06.118.123.241.185.361h.726c.06.122.12.243.183.365a7.819,7.819,0,0,0,2.174.546v-.183h.183V84.8q.547-.092,1.091-.183V84.43h.363c.06-.12.122-.24.183-.36a3.621,3.621,0,0,1,1.27-.546c.21-.738.366-.365.726-.909H74.6v-.363H71.88Zm68.407-10.714s-.035-.195.361-.181v.181h.183v-.181c1.3-.26,1.943.365,2.724.544l.909-.181V69.722a3.986,3.986,0,0,1-.729-.909l-.907-.18v-.181c-.543.06-1.089.12-1.633.181-.06.12-.12.243-.181.363H140.1v.181h-.363v.181h-.907v.181a3.76,3.76,0,0,1-2.176-.363c-.063-.181-.125-.365-.181-.544h.181q.087-1.361.178-2.722h-.178v-.365h-.181c-.125-.181-.243-.363-.366-.544-.847-.122-1.695-.245-2.542-.363v-.183a3.7,3.7,0,0,0-1.452.183c.113,1.3.29.491.726,1.087v.365h.183c.057.241.118.485.181.728h.181c.118.966.241,1.935.361,2.9h-.181q-.092.544-.18,1.089l-.546.183v.181l-.907.181c-.123.181-.243.363-.363.546h-.544v.18h-.365v.18h-.544v.183h-.363c-.06.122-.122.243-.181.365h-.543v.18h-.366v.183l-.543.361c-.06-.181-.123-.361-.181-.544-.546.183-1.092.363-1.637.544h-1.087q-.095.182-.18.365l-.911.181c.148,1.184,1.528,1.255,2.178,2a8.657,8.657,0,0,0,3.452-.726c.06-.123.122-.243.183-.365a3.955,3.955,0,0,1,1.45-.544c.06-.18.122-.363.183-.544.393-.087.513-.117.724-.365l1.092.183q.087,2.088.18,4.176h.181c-.06.243-.12.486-.181.728h.181v2.722h.183v2.363c.012.048.23.058.181.365h-.181v1.995h.181c.05.313-.181.366-.181.366.06.3.118.6.181.9h-.181V89.7h-.183v.18a.5.5,0,0,1,.183.546s-.195-.008-.183.365c.062.12.122.241.183.361h-.183v.726h-.181c-.21.721.23,1.707-.18,2.179-.23.882-.483.519-1.092.907-.058.122-.118.245-.18.365l-1.272.363c.383.644,1.032.664,1.637,1.091v.18c.241.181.483.365.726.544v.183c.341-.155.891-.023,1.269-.183.063-.122.122-.241.182-.363h.365a5.286,5.286,0,0,1,.361-2.179h.183v-.544h.182V93.33h.181v-.907h.181V91.332h.183v-2h.183c-.062-.6-.125-1.212-.183-1.817h.183c-.062-.183-.125-.365-.183-.546a.5.5,0,0,0,.183-.541h-.183V85.158h.183V83.706h-.183c.058-.3.122-.606.183-.909h-.183c.058-.6.122-1.212.183-1.815h-.183v-.728h-.183c.06-.666.123-1.33.183-2h-.183c.06-.3.123-.606.183-.906h.183q.085-1.364.181-2.726h-.729v-.181h-.181v-.18c.631-.1.338-.186.911,0,.063-.358.178-.365.178-.365V72.81h.183q.362-.457.724-.907a11.226,11.226,0,0,0,1.455-.546Zm7.264-4.177c.058-.241.122-.483.18-.726a1.389,1.389,0,0,1-.361-.543c-.668-.153-2.652-1.3-3.452-.546h-.363c.3.619.754.879.909,1.635.181.058.361.12.544.18v.183h.363v.181c.718.268,1.685-.261,2.179-.365m-7.811,12.712V80.8h-.18v.728h-.183c-.058.3-.12.6-.18.907h-.181a1.315,1.315,0,0,0-.366.909,23.121,23.121,0,0,0,2.544-1.454v-.363h.365v-.363h.361v-.181a2.46,2.46,0,0,0,1.091-1.455,10.376,10.376,0,0,0,.365-1.633h-.183v-.365c-.122-.058-.243-.122-.365-.178-.118-.365-.24-.728-.363-1.092-.428-.117-.338-.05-.544-.361h-.726c-.06.12-.12.24-.181.361-.122.063-.243.122-.365.183v.365h-.178v.361h-.183v.546H140.1v.907h-.18v.728h-.183a.308.308,0,0,0,.183.363v.18Zm-15.616,1.091h.544c.123.181.243.361.366.544.413.4.951.583,1.267,1.089h.544V82.8l1.635-.544a3.879,3.879,0,0,0,.365-1.817c-.365-.12-.726-.241-1.091-.363v-.181c-.363-.062-.724-.122-1.089-.18v-.185h-3.452c.058.976.261.919.909,1.272ZM67.339,86.973c-.125-.18-.241-.361-.366-.546h-.361v-.18c-.488-.233-.488.09-.907-.363l-1.637.181v.181h-.361v.18H63.16c-.057.125-.12.245-.183.366H61.89v.18h-.363v.181l-1.452.183v.181h-.363V87.7h-.729v.18h-.365v.181c-.178.06-.358.122-.543.181a1.216,1.216,0,0,0-.9-.726c-.143-.609-.408-.7-.546-1.272h-.907c-.11.363.022.158-.186.365a14.816,14.816,0,0,0,.914,2.724c.055,1.089.118,2.179.18,3.268h.181v1.272h.181v.544h.183v.726h.18v.363h.181c.06.181.118.363.181.543.306.125.932.566,1.452.365.06-.12.12-.24.181-.365.3-.058.6-.118.911-.18v-.181l.724-.181v-.181h.363v-.181c.181.062.365.123.544.181.375.013.363-.181.363-.181.668.062,1.332.123,2,.181v.181c.3.06.6.122.907.181.058.12.118.243.181.361.24.063.483.125.723.185V96.6a2.334,2.334,0,0,0,1.455-.361,2.629,2.629,0,0,0-.907-2.361c.243-.726.486-1.455.728-2.179.24-.181.483-.365.726-.546v-.361h.183c.057-.425.12-.849.18-1.272h.18c0-1.588-.5-1.8-1.269-2.544m-3.272,2.181V89.7h-.181v1.091c-.118.06-.24.118-.363.18v.363c-.12.063-.243.122-.363.183v.361h-.183v.363c-.178.123-.361.243-.543.365v.181H61.89c-.12.181-.241.365-.363.544-.376.17-.491-.152-.544-.18H60.8v.18h-.544v.181c-1.162.015-1.314-.306-1.457-1.272H58.44a3.789,3.789,0,0,1,.178-.724c-.117-.062-.24-.12-.358-.183-.2-.526.117-1.1.18-1.452.659-.065.774-.143.907-.726.3-.062.6-.123.911-.181.058-.122.118-.241.181-.365.3-.06.6-.12.906-.181v-.181h.544v-.181h.726v-.181H62.8v.181h.178v-.181c.671-.211.594-.045,1.275,0,.133.907.115.486-.185,1.272m63.688-1.818v.183h-.363c-.3.363-.6.728-.907,1.089h-.363v.365c-.183.058-.363.12-.544.181-.123.181-.243.363-.363.544-.485.363-.971.726-1.454,1.091v.543c.123.06.24.122.363.183V91.7h.363l.548.726.9.181v.181a3.715,3.715,0,0,0,1.454-.181c.06-.241.12-.485.183-.728a.475.475,0,0,1-.183-.544h.183v-.543h.18v-.546h.183c.058-.241.122-.485.181-.726h.182v-.363c.12-.062.241-.123.361-.181v-.726h.183c.06-.243.12-.485.183-.728h.18q.09-.634.18-1.272h.183v-.363c-.6.291-.811.746-1.452.909-.127.451-.095.295-.365.543m19.068,2v-.181h-.361c-.062-.123-.12-.243-.183-.363h-.363v-.183h-.363v-.181h-.728v-.18h-.361v-.183h-.729v-.181h-.36V87.7l-1.637-.366c-.038.008-.058.255-.361.183v-.183q-1-.09-2-.181v.181h-.544v.183h-.183c.38.564.266.078.728.363.241.3.486.606.726.909.366.12.728.24,1.091.363q.275.362.544.724h.363v.183h.363c.063.122.123.243.181.363.365.122.729.241,1.089.365.125.18.246.361.365.543h.546v.183h.543l1.635.543c.221-.26.5-.283.728-.543h.18v-.546h.182c-.008-1.254-.318-1.175-1.089-1.633M202.611,63.7v.183H200.8v.181c-1.016.288-3.4-.276-3.631-.726v-.544h-.183a4.288,4.288,0,0,1,.544-1.454c.206-.3.11-.253.543-.363v-.363c.183-.06.365-.12.546-.181.2-.46.753-1.757.361-2.178-.21-.741-.07-.216-.543-.548-.062-.122-.118-.241-.182-.361a13.527,13.527,0,0,0-4.178-.181,3.482,3.482,0,0,1-1.633.181v-.181h-.181a3.754,3.754,0,0,0-2.541.543,2.221,2.221,0,0,0,0,1.272l.543.183v.181h.361c.063.12.123.241.183.363q1.816.365,3.631.726c-.06.181-.12.363-.181.544-.3.06-.6.123-.906.183,0,0-.052-.235-.366-.183v.183h-1.815v.18c-.181.058-.363.122-.546.181.175.326.261.281.365.728.791.1.486.273,1.272.361.127.495.246.411.361.911.443.11.4.19.729.361-.018.894-.113.861-.544,1.27-.063.122-.122.243-.185.365l-.907.181v.18h-.361v.183h-.365c-.062.12-.118.24-.182.363-.544.122-1.087.241-1.633.361v.185l-.907-.185v-.18c-.486-.06-.969-.12-1.454-.181v-.18a2.668,2.668,0,0,0-1.452-.366,1.319,1.319,0,0,0,.361.907h.183v.366h.18v.363h.183v.544h.18V68.6h.181v.726h.183v.907h.18v1.454h.18c.118.415-.2.8-.18.909h.18v.724h.186c-.062.122-.123.243-.186.365h.186v.365h.178v1.087h.181c.062.3.122.606.183.907h.181c.06.183.123.363.183.546.811.068,1.479.273,2.176-.183l.546-.724h.365c.06-.122.122-.243.181-.363a.459.459,0,0,1,.543.18c.243-.06.486-.122.729-.18v.18h.178v.544h.183c-.183.668-.361,1.334-.546,2-.18.062-.361.123-.544.181v.183h-.363l-.18.361-2.722.365v.181h-.366V79.5H187.9v.18c-.24.062-.483.12-.729.181v.181l-1.087.181v.183h-2.361v.18c-.48.215-.836.36-1.27.544-.06.365-.12.728-.183,1.091a7.34,7.34,0,0,1,2,.546c.649.191,1.194-.215,1.635-.183.233.017.623.34,1.087.183v-.183l1.091-.363v-.181c.306-.07.321.173.363.181h.909c-.306,1.332-1.528,1.946-1.818,3.089h-.544c-.211.791-.9,1-1.27,1.633h-.361v.361c-.122.063-.243.122-.365.185v.181h-.365q-.45.542-.907,1.089h-.361c-.062.12-.122.241-.181.365-.243.057-.483.12-.728.18-.183.241-.363.483-.544.726a5.3,5.3,0,0,1-2.363,1.27c-.158.589-.583.7-1.087.909v.363c.4-.155.838-.042,1.27-.183v-.18h.728v-.183h.363v-.18h.546c.06-.123.118-.243.181-.363h1.087v.181c.275-.05.333-.355.363-.365l1.091.183V91.3h.363v-.18H185c.062-.123.122-.241.181-.365h.544v-.181h.363V90.4h.544c.063-.122.122-.241.183-.363a2.446,2.446,0,0,1,1.27-.726c.261-.924.653-.488.907-.909v-.363c.921-.243.448-.529.909-.907.3-.246.273.08.543-.363h.365V86.22c.243-.183.485-.365.728-.544.12-.183.24-.363.361-.546h.181v-.365c.123-.058.243-.118.365-.18v-.18l.365-.185v-.363h.178a1.418,1.418,0,0,0,.366-.724h.363v-.546h.361v-.363h.363c.06-.976.366-.914.544-1.635h.365c.137-.513.326-.521.544-.907.485-.062.967-.122,1.455-.18v-.183h1.087V79.5H199.7v-.183h.185c.6.183,1.209.363,1.817.544.133.544.788,1.184.543,2h-.18v.544h-.183v.365c-.18.12-.363.241-.543.363v.544l-.365.18v.548h-.18c-.123.36-.243.724-.366,1.087h-.181v.363h-.18v.365h-.182v.544l-.365.181v.361c-.12.063-.243.122-.363.185v.361c-.12.06-.24.122-.365.181-.058.243-.118.485-.18.728h-.181c-.062.241-.118.485-.182.726h-.183v.726l-.361.181v.363c-.122.062-.241.123-.361.18V91.3h-.181v.365c-.183.12-.365.24-.546.361-.784,1.112-1.337,2.4-2.905,2.724-.127.137-.9,0-1.272-.181v-.18H191.9c-.062-.122-.122-.243-.181-.365a3.085,3.085,0,0,0-1.272-.726v1.091h.181v.18a.267.267,0,0,0-.181.363c.125.062.245.123.365.183v.544c.23.481.578.569.728,1.27h.361v.546h.365v.543c.181.062.361.125.546.181v.183h.544v.181c.3-.06.6-.123.906-.181.062-.122.122-.24.181-.365h.544v-.178c.243-.063.486-.125.726-.183v-.181a1.5,1.5,0,0,1,.728-.363v-.363h.365c.127-.922.52-.674.726-1.454.824-.255.243-.112.543-.728h.183v-.363h.182v-.363c.181-.12.361-.243.543-.363.385-.393.631-.962,1.092-1.27v-.544h.544c.19-.813.721-1.046.907-1.818,1.037-.295.338-.513.726-1.087h.181V88.58h.543a4.29,4.29,0,0,1,.546-1.452c.123-.062.245-.12.365-.181.06-.365.123-.726.18-1.091.123-.06.243-.12.363-.18.063-.486.123-.971.183-1.455h.183c.057-.24.122-.483.181-.726h.181c.143-.42-.195-.486-.181-.724h.181c.062-.425.118-.849.182-1.272h-.182c-.161-.651.258-1.22.182-1.635h-.182c-.063-.361-.122-.726-.181-1.091-.125-.06-.243-.12-.365-.18-.06-.181-.12-.365-.183-.546h-.363v-.18a1.332,1.332,0,0,0-.724-.365v-.181h-.909v-.18H199.7v.18h-.18v-.18h-.728v.18a7.984,7.984,0,0,1-2.359,0v-.18c-.2-.208-.077,0-.181-.365.365-.12.728-.243,1.092-.365v.183h.906c.12-.183.243-.363.363-.546h.361c.125-.181.243-.361.365-.544a3.352,3.352,0,0,1,1.272-.544c.225-.808.7-.649.907-1.452h.546q.817-1.546,1.633-3.087l.546-.365c.058-.3.122-.6.178-.907l.366-.183v-.724c.122-.062.241-.123.363-.181v-.728h.182c.06-.6.123-1.21.183-1.815a3.5,3.5,0,0,1-.911-1.272,6.494,6.494,0,0,0-2-.546m-9.627,5.087c-.766.226-1.5,1.682-2.361,1.089-.186.02-.373.366-.724.181v-.181h-.363c.042-.1.15-.673.183-.726.18-.122.361-.243.543-.363v-.363h.18c.125-.181.245-.363.365-.546a1.009,1.009,0,0,0,.728-.361,4.924,4.924,0,0,1,1.633.18q-.09.547-.183,1.091m8.536-.909h-.18v.546q-.912,1.271-1.818,2.544h-.363c-.183.24-.365.483-.544.724q-.544.09-1.089.183v.18a2.5,2.5,0,0,1-1.272-.544,2.362,2.362,0,0,1,.181-.907,6.432,6.432,0,0,0,2.18-.546c.18-.12.361-.241.544-.361a6.77,6.77,0,0,0-.544-1.454h-.181V68.06h-.907v-.183h-.361V67.7h-.729v-.18c-.644-.42-.45-.676-.181-1.27.673-.278,2.927-1.059,3.994-.728V65.7c.365.062.728.122,1.092.18.058.183.12.366.18.546h.183v.361h.18c-.118.366-.241.729-.363,1.091m108.848.365h.181V68.06c.493-.14.411-.045.544-.544h.363a6.319,6.319,0,0,0,.726-1.454h.361a1.441,1.441,0,0,1,.365-.726h.183v-.363c.12-.062.24-.123.363-.181v-.365h.181c.182-.24.361-.483.543-.728h.546v-.178l.728-.183a2.79,2.79,0,0,0-.183-1.27h-.181a1.517,1.517,0,0,1-.363-.728h-.363a3.163,3.163,0,0,1,0-1.27c-.43-.273-.3-.539-.544-.726-.5-.378-.673-.025-1.089-.728-.608-.062-1.21-.12-1.815-.181a.73.73,0,0,1-.365.363c-.062.365-.125.726-.181,1.089.12.063.243.122.363.183v.907h.183v.363h.18c.225.683-.291,1.192-.363,1.815-.181.062-.363.123-.546.183v.183h-.361c-.06.12-.12.24-.183.361-.06.028-1.558.17-1.635.181.238.944,1.319,1.317,2.18,1.635.125.506.714,1.442.183,2Zm-40.08,2.884a4.026,4.026,0,0,1-.728-.911,9.147,9.147,0,0,0-2.359-.36c-.062-.185-.122-.365-.182-.546a4.17,4.17,0,0,1,0-2h.182V66.042h-.182q.09-.639.182-1.274a3.53,3.53,0,0,1-.909-1.272c-1.1-.445-.758-.24-1.817,0,.022,1.747.44,3.683,0,5.266-.3,1.084.291,2.249-.361,2.907-.236.887-1.032.952-1.454,1.633H262.3v.363c-1.126.241-1.643.748-3.085.726-.158.206.022.028-.183.183a3.557,3.557,0,0,0,2,1.633v.181c.421-.12.846-.24,1.269-.361v-.181h.909c.06.181.118.361.181.543h.18q-.27,1.454-.541,2.905c-.123.062-.246.122-.366.183a3.658,3.658,0,0,0-.544,1.272c-.7.193-.571.543-1.272.724v.365c-.495.125-.408.245-.907.363-.218.738-.11.23-.543.543-.063.123-.122.243-.181.366h-.365c-.062.12-.122.241-.182.361H258.3c-.06.181-.12.363-.183.544-.361.3-.728.606-1.087.909v.543h-.183v.183a3.952,3.952,0,0,1,.726,1.089l1.818.181c.423-.3.846-.606,1.269-.907v-.363c.122-.062.243-.123.366-.183v-.363h.178v-.363h.182V84.38c.125-.058.243-.12.365-.18v-.546h.181v-.181h.546a12.66,12.66,0,0,0,.365,3.268c.153.586-.185.847-.185,1.272.06.606.12,1.21.185,1.817h-.185v.726h-.18V91.1H262.3v.728c-.063.138-.231.007-.363.544-.833.181-.594.446-1.454.181h-.726v-.181a1.675,1.675,0,0,0-.726-.363c-.211-.719-.053-.23-.546-.546v-.18h-.363c-.12-.183-.241-.361-.361-.544-.479-.286-.335.185-.726-.365h-.183c.278.994,1.215,1.087,1.454,2.179.524.132.6.2.726.728h.365c.24.3.48.6.726.907h.18v.363c.181.12.363.243.544.363v.181h.363c.063.181.123.363.182.544.23.276.445.093.728.544.773-.09.818-.385,1.452-.544a1.58,1.58,0,0,1,.363-.726h.183c.06-.363.122-.726.181-1.091h.18V93.28h.181V92.191h.185c.058-.426.12-.849.18-1.27-.06-.183-.122-.365-.18-.548h.18v-.724h.183v-.365h.181q.09-3.087.181-6.172h-.181V81.657h.181v-.726h-.181c.06-.18.122-.361.181-.544a.5.5,0,0,1-.181-.544s.2,0,.181-.363c-.06-.122-.122-.241-.181-.363h.181c-.06-.3-.122-.6-.181-.907h.181v-.726h.18q.182-1.726.365-3.452h.361v-.365a1.022,1.022,0,0,0,.909-.907,4.226,4.226,0,0,0,2.724-1.274c.2-.2.078,0,.181-.36m-38.137-3.089c.423-.123.5.22.729.181v-.181h.544v-.18l1.089-.365v-.181h.365c.058-.122.12-.241.18-.363q.452.092.907.181c.391-.022.363-.181.363-.181h1.091V65.857c-.181-.062-.363-.12-.544-.18-.062-.122-.123-.243-.183-.365h-.363v-.181c-.18-.122-.363-.241-.544-.363v-.181h-.363a2.972,2.972,0,0,0-2-.181c-.06.12-.123.243-.185.363h-.36v.181l-.729.181v.181l-1.995.365c-.06.118-.122.24-.183.365h-.544v.178h-.363V66.4h-.546c-.06.18-.118.363-.181.544-.183.122-.363.241-.543.363a1.9,1.9,0,0,0,.18.726,12.049,12.049,0,0,1,1.27.546c.248.072.005-.06.183-.181h.181v.181c.45.113.754-.2.909-.181v.181c.6.1,1.242-.43,1.632-.546m51.577-.544h-.363v.181h-.544v.183h-.366v.18c-.361.062-.726.122-1.089.181-.062.123-.118.241-.182.365h-.909v.18h-.723v.181h-.546v.183h-1.454v.181c-.426.062-.847.12-1.272.181v-.181h-.18v.181a1.278,1.278,0,0,1-1.092-.728h-.723v.181c-.746.206-.218.077-.546.546l-.365.18v.544h-.181v.365c-.12.062-.24.122-.365.181-.1.226-.087,1.347-.181,1.635h.181c.063.181.125.363.183.544.684.468,1.337-.208,2-.363v-.544a2.689,2.689,0,0,0,1.092-.728v-.18h.361l.365-.546h.361V70.4h.365c.06-.122.122-.241.182-.363.24-.06.486-.122.726-.18.06-.122.12-.245.183-.365h.544v-.181h.365v-.181l1.087-.183v-.181c.485-.058.967-.12,1.454-.18V68.4h1.272v-.183l1.813-.181v.181l.544.183a3.182,3.182,0,0,1-1.45,2.542v.361a8.729,8.729,0,0,1,3.631,0c.251-.3.927-.518,1.089-.726v-.365c.122-.058.243-.12.361-.18V69.49h.183c-.092-1.518-2.153-3.125-4.177-2.542v.181c-.544.06-1.087.12-1.632.181Zm-37.046,4.359c-.122-.181-.243-.366-.365-.546l-.726-.18v-.181h-.363v-.183q-1.546.09-3.087.183v.181h-.365v.18h-.726v.18h-.544v.185H239.6v.181h-.363v.181c-.3-.062-.608-.12-.911-.181v.181H237.6v.181c-1.578.453-2.692-1.032-3.816-1.27-.11-.441-.191-.4-.361-.729-.241-.058-.485-.12-.728-.18v-.18a4.961,4.961,0,0,0-2,0v.724h.183v.365c.365.241.724.485,1.089.726v.363c.18.06.361.122.546.181v.544h-.185c-.06.181-.118.363-.181.544h-.544v.183h-.36v.18H230.7v.181h-.363c-.06.122-.123.241-.18.363h-.546c-.062.122-.122.243-.181.365-.24.06-.483.12-.726.183-.062.12-.122.24-.183.361h-.365V75.3h-.36v.181h-.544v.18h-.363v.185h-.548c-.06.118-.122.241-.178.361h-.548v.181h-.363v.181h-.544v.181h-.363c-.06.122-.12.243-.183.365h-.543c-.122.181-.243.365-.365.544-.3.062-.6.12-.907.181v.181c-.361.122-.726.241-1.089.365v.181h-.907v.18l-.726.181v.183c-.365.06-.726.122-1.091.18v.183h-.361c-.095.053-.145.251-.365.363.125.493.245.411.365.909l.544.18v.181h.543V81.3c.246-.062.486-.122.726-.183,0,0,.118.26.544.183v-.183h.183a.479.479,0,0,0,.544.183c.06-.122.12-.243.182-.365h.907c.063-.12.122-.241.181-.361q.455-.092.909-.183v-.363c.181.062.363.12.543.181.063-.12.122-.243.181-.363h.365c.062-.122.122-.243.181-.363h.544c.06-.122.123-.241.183-.363.24-.062.485-.122.728-.183.523-.29.629-.643,1.45-.724v-.365a2.161,2.161,0,0,0,.907-.361c.062-.123.122-.245.183-.365l1.817-.181c.06-.183.12-.365.18-.546a3.584,3.584,0,0,1,2-.181v.909h.183V78.39H232.7a.475.475,0,0,0,.183.543c-.063.608-.123,1.212-.183,1.818q.09,1,.183,1.995H232.7v.909h.183v1.452H232.7v3.089h-.18v.543h-.185c-.122.428.2.488.185.728h-.185q-.177,1-.361,2h-.182c-.06.365-.123.729-.183,1.091l-.36.183c-.062.241-.123.483-.183.726-1.091.216-2.1.211-2.726-.544a1.948,1.948,0,0,0-.726.18v.546q.544.455,1.091.907c.06.243.12.485.182.726.421.363.847.728,1.272,1.091v.181h.363a1.078,1.078,0,0,1,.544.544,4.354,4.354,0,0,0,2.176-.544c.062-.241.125-.485.185-.726h-.185v-.183c.246-.181.488-.363.728-.544q.092-.452.183-.907h.183v-.365h.18c.06-.543.123-1.087.183-1.632-.012-.047-.255-.057-.183-.365h.183q.087-.727.181-1.454h.18V89.83h.183c-.062-.241-.123-.485-.183-.728h.183V86.378h.18v-.726h.18c-.117-.546-.241-1.089-.36-1.635h.18c.063-.3.12-.6.18-.906h-.18v-.729h-.18V82.2h.18v-.546h.18c-.06-.664-.117-1.332-.18-2h.18v-.543h.183c.038-.21-.25-.318-.183-.726h.183v-.181H235.6v-.546h-.18l.363-.544H235.6c.01-.231.323-.463.183-.909H235.6v-.361h-.18a3.124,3.124,0,0,0,.18-.728c.137-.057.636-.132.728-.181.063-.122.123-.243.18-.363h.366v-.183h.363v-.181h.728l.18-.363h.548v-.181h1.267v-.18h.183c.127.09.112.3.543.18v-.18a12.27,12.27,0,0,1,3.268-.365V73.3h.548v.183h.543c.06.12.123.241.183.361h.546v.183c.181.058.363.12.543.18.062.122.122.243.181.365a3.406,3.406,0,0,0,1.633,0c.155-.206-.022-.028.183-.183-.138-1.365-.884-1.81-1.633-2.541m79.665-1.976c-.168-.621-.619-.926-.907-1.452-3.591.107-8.227.236-11.442,1.272h-1.454v.18h-.906v.181h-.724v.181h-.729v.183h-.544V70.6H309.1v.181h-1.091v.183h-.361v.178H307.1v.183q-1.633.365-3.27.726v.183h-.36v.18c-.365.123-.726.243-1.091.363v.183h-.728v.181c-.514-.048-.659-.077-.909-.365h-.181v-.543c-.3-.063-.6-.123-.906-.183-.063.12-.123.243-.181.363h-.363V72.6l-.546.18c-.06.243-.12.486-.18.728H298.2v1.27h-.182v1.27h.182v.183c-.06.18-.12.363-.182.544h.182c.228.7.378.669.544,1.27h1.089v-.18h.363c.063-.181.12-.365.185-.546.178-.122.36-.241.539-.361v-.365c.125-.062.246-.12.366-.183v-1.27h.183c.058-.241.122-.483.18-.726.3-.243.608-.485.911-.726.057-.122.12-.243.181-.365h.361v-.18h.365v-.181h.9c.123-.183.246-.363.363-.546.323-.133.291.15.366.183h.181v-.183h.546c.058-.12.12-.243.18-.363h.363v-.18h.365v-.183c.7-.28.892.118,1.269-.181a2.755,2.755,0,0,1,1.635.365,1.981,1.981,0,0,1-.544,1.45l-.363.183v.726c-.12.062-.243.122-.363.181v.363h-.183v.363h-.182v.546h-.181q-.092.362-.18.724h-.181c.06.122.122.245.181.365h-.181v.544h-.183v.365H307.1v2h.365c.07.365.181.363.181.363v.909h.18v2.9h.181c.062.3.122.606.182.907.183.063.363.122.546.181v.183h.181v-.183c.4,0,.363.183.363.183h.907a3.882,3.882,0,0,0,.183.726h-.183v1.452h.183v.728h.181v2.542h.181c-.028.256-.143-.072-.181.181v3.268h-.181v2.179h-.183v.365H310c-.122.181-.24.361-.363.544a10.36,10.36,0,0,1-2.724,0c.215.739.132.188.546.544v.183h.181v.36c.118.062.24.122.361.183v.363c.122.062.243.122.365.181.355.524.331.759.907,1.089v.183c.122-.062.24-.123.363-.183.183.06.363.122.544.183.062-.123.122-.241.183-.363h.363v-.183a1.488,1.488,0,0,1,.726-.363v-.544c.181-.06.365-.12.544-.181a6.383,6.383,0,0,1,.543-1.635V94.572h.185c.093-.433-.142-.47-.185-.726V92.029h.185c.048-.3-.172-.32-.185-.361a4.335,4.335,0,0,1,.185-1.818V88.58h.18a3.809,3.809,0,0,0-1.27-3.45v-.544h.183v-.18l.907-.185v-.363l.726-.18c.108-.363-.025-.158.181-.365v-.18a2.337,2.337,0,0,1,1.633,0c.06.12.122.241.183.361h.363v.183c.513-.05.663-.075.907-.365a2.1,2.1,0,0,0,.363-1.633H316.9c-.043-.2.385-.353.183-.726H316.9v-.728l-1.45-.907c-1.141.027-1.457.345-2.544.363-.155.2.028.03-.18.181.161.589.584.7,1.089.907a1.6,1.6,0,0,1-.363,1.272l-1.272.181v-.181l-1.089-.181c-.155-.2.022-.028-.18-.181a3.065,3.065,0,0,1,.18-1.27c.38-.539.739.113.907-1.091a1.387,1.387,0,0,0,.907-.363v-.183h.546v-.18h.363c.058-.122.122-.243.18-.365h.365v-.181c.363-.06.726-.118,1.091-.18.12-.181.241-.365.363-.546h.361v-.18c.122-.062.243-.122.365-.181.206-.291,0-.418.361-.728V75.5h-.18c-.256-.894-1.444-1.021-2-1.635l-2,.185q-.637,1.086-1.272,2.178h-.363v.544a1.221,1.221,0,0,0-.544.544h-.726V77.5c-.363-.06-.728-.12-1.091-.181,0-.663.017-.976.363-1.272.266-.867.158-.2.728-.544.122-.18.24-.363.361-.544h.365a2.76,2.76,0,0,0,.907-.906H312c.063-.306.12-.608.181-.909H312v-1.27h.181c.594-.814.273-.213,1.089-.546v-.183h.365v-.178q1.179-.092,2.359-.183V70.6h.907v-.181c.921-.273,2.091.167,2.726-.365a7.056,7.056,0,0,1,2.18.181,1.447,1.447,0,0,1-.365.729h-.181v.361c-.118.06-.24.122-.365.181v.365h-.18v.18q2-.362,4-.726v.181a7.858,7.858,0,0,0,2.361-.181,4.315,4.315,0,0,0-.365-1.454ZM276.1,72.94v2h-.181V75.3h-.183c-.06.241-.12.485-.18.728a4.153,4.153,0,0,0-.909,2.179c1.039-.13,1.292-.676,2.359-.726v-.365c.5-.125.411-.248.907-.365V76.39c.123-.06.243-.12.363-.181.481-1.146-.961-2.739-1.27-3.268Zm8.535,3.813V76.39H285c.108-.361-.025-.157.18-.361v-.546H285c-.275-1.1-.733-.639-1.454-1.091-.06-.12-.123-.241-.18-.361a4.041,4.041,0,0,0-2.544-.728c0,1.339.7,3.723,1.633,4v.183c.728-.245,1.454-.486,2.181-.729m-.183,4.177v.181c.638.118.684-.246,1.454,0V81.3c1.2.348,2.409-.195,2.905.18.781-.04.614-.112,1.089-.363.013-.753.073-.929-.546-1.089v-.365l-1.811-.543c-1.275.06-2.544.122-3.815.18v.183a.307.307,0,0,1-.363-.183l-1.091.183V79.3c-.606-.058-1.21-.12-1.817-.18v-.365l-.728-.18c-.06-.122-.12-.243-.178-.363h-.365v-.183l-.544-.181v.181c-1.059.148-.736.668-1.637.907.063.183.12.363.181.546h.365v.18a4.175,4.175,0,0,1,.724-.18c.062.18.125.363.183.544a.744.744,0,0,0-.365.363l-1.089.183v.181l-2.359.18v.181h-.907c-.122.183-.243.363-.365.544-.4.253-.961.183-1.45.365V82.2h-1.091v.18c-.363.06-.728.122-1.091.183-.037.018-.178.271-.366.361.316.531.751.623,1.457.728v.363q.544.182,1.091.363v.183c.25.057-.028-.043.18-.183l.907.183V84.38c.485-.058.967-.12,1.454-.18.06-.183.12-.365.182-.546.406-.058.475-.013.728-.181v-.181h.361c.06-.122.12-.243.183-.365h.543c.122-.181.243-.361.365-.544h.543c.123-.18.243-.361.365-.543h1.272a21.177,21.177,0,0,1-.183,5.809V89.83h-.18V91.1h-.183v.909h-.183v.363H278.1c-.058.181-.122.365-.182.546a7.576,7.576,0,0,1-2.539.726v.365c.3.058.6.118.906.18v.363c.624.176.809.576,1.272.907v.181c.471.246,1.344.02,2,0a3.982,3.982,0,0,1,.906-.726v-1.27h.363c.06-.6.123-1.21.18-1.817h.183c-.06-.241-.12-.485-.183-.728,0,0,.243-.115.183-.543H281v-.183h.183q-.09-2.268-.183-4.539h-.18c-.255-.916.14-2.882-.363-3.452V81.84h.182c.215-.295.1.245.361,0,.063-.183.123-.365.183-.544.46-.255,1.211.07,1.454,0v-.183h.544v-.181a.3.3,0,0,1,.363.181c.435.07.475-.188.728-.181Zm5.631,9.625c-.3-.243-.606-.486-.911-.726v-.365a9.421,9.421,0,0,0-1.087-.728h-.361c-.063-.118-.125-.241-.181-.361H287a5.666,5.666,0,0,0-3.089-.907,1.284,1.284,0,0,0,.365.907h.18c.063.181.12.361.183.544H285c.06.12.12.245.18.363h.181v.365h.183v.363c.12.058.241.12.363.18.346.618-.273.641.726.907.133.524.195.6.728.728.058.181.12.365.183.544l1.63.546c.586-.157.643-.466,1.092-.726a2.311,2.311,0,0,1,.181-.909c-.553-.391-.078-.251-.363-.726M273.92,89.284c.06-.118.122-.243.181-.363h-1.272c-.446.408-1.38.117-1.815.363v.181c-.18.062-.361.123-.543.183-.108.36.022.155-.183.363v1.815h.183c.181.241.363.485.543.726.569.032,1.75.218,2.18-.181.181-.06.365-.122.546-.18q.27-.819.546-1.635a2.322,2.322,0,0,0-.185-1.272ZM320.9,91.3v-.18c-.423-.063-.844-.123-1.269-.185v-.18l-2.183-.363v.181h-.36q.455.542.907,1.091h.363v.181h.183c.358.421-.2.341.543.543.128.495.248.411.368.909a2.731,2.731,0,0,1,1.087.726v.181a4.656,4.656,0,0,0,2.541.363v-.363h.363V93.12l-.363-.181A6.359,6.359,0,0,0,320.9,91.3m-15.8-.18h-.546v.18h-.544v.183h-2.18v.181h-.361c-.085.048-.152.253-.366.361v.363c.306.426.608.849.911,1.274h.363c.058.122.12.241.183.361h.543v.181h1.269v-.181c.526-.13.6-.195.729-.726h.181V91.487h.181v-.363c-.122-.063-.243-.123-.363-.185Z" transform="translate(0 0)" fill="#fff"/>
      <line id="直线_1607" data-name="直线 1607" x2="22.326" transform="translate(245.496 125.994)" fill="none" stroke="#003288" stroke-miterlimit="10" stroke-width="1"/>
    </g>
  </g>
</svg>
