<svg xmlns="http://www.w3.org/2000/svg" width="212.513" height="212.518" viewBox="0 0 212.513 212.518">
  <path id="xiaoqingbg" d="M48.379,16.817C43.369,28.9,28.929,43.332,16.843,48.332a27.27,27.27,0,0,0-14.749,35.6c4.995,12.084,4.989,32.5-.021,44.586a27.3,27.3,0,0,0,14.746,35.622c12.086,5.005,26.523,19.447,31.512,31.541a27.286,27.286,0,0,0,35.6,14.751c12.091-5,32.516-5,44.594.013A27.287,27.287,0,0,0,164.138,195.7c5-12.078,19.452-26.512,31.539-31.512a27.307,27.307,0,0,0,14.751-35.622c-5-12.078-5-32.5.008-44.581a27.305,27.305,0,0,0-14.735-35.6c-12.078-5.005-26.51-19.455-31.518-31.544a27.289,27.289,0,0,0-35.6-14.756c-12.081,5.008-32.505,5-44.592-.011A27.285,27.285,0,0,0,48.379,16.817" transform="translate(0 0)" fill="#9b1e14" opacity="0.25"/>
</svg>
