<?xml version="1.0" encoding="UTF-8" standalone="no"?>
<!DOCTYPE svg PUBLIC "-//W3C//DTD SVG 1.1//EN"
 "http://www.w3.org/Graphics/SVG/1.1/DTD/svg11.dtd">
<!-- Generated by graphviz version 12.2.1 (20241206.2353)
 -->
<!-- Title: RAG Pages: 1 -->
<svg width="541pt" height="1099pt"
 viewBox="0.00 0.00 541.19 1099.05" xmlns="http://www.w3.org/2000/svg" xmlns:xlink="http://www.w3.org/1999/xlink">
<g id="graph0" class="graph" transform="scale(1 1) rotate(0) translate(25.2 1073.85)">
<title>RAG</title>
<polygon fill="#f6f3ec" stroke="none" points="-25.2,25.2 -25.2,-1073.85 515.99,-1073.85 515.99,25.2 -25.2,25.2"/>
<text text-anchor="middle" x="245.39" y="-1023.75" font-family="Microsoft YaHei" font-size="22.00" fill="#12394d">校园问答助手 &#45; RAG 问答流程</text>
<!-- q -->
<g id="node1" class="node">
<title>q</title>
<path fill="#dcecf2" stroke="#9bb5c3" d="M401.91,-1010.65C401.91,-1010.65 345.12,-1010.65 345.12,-1010.65 339.12,-1010.65 333.12,-1004.65 333.12,-998.65 333.12,-998.65 333.12,-986.65 333.12,-986.65 333.12,-980.65 339.12,-974.65 345.12,-974.65 345.12,-974.65 401.91,-974.65 401.91,-974.65 407.91,-974.65 413.91,-980.65 413.91,-986.65 413.91,-986.65 413.91,-998.65 413.91,-998.65 413.91,-1004.65 407.91,-1010.65 401.91,-1010.65"/>
<text text-anchor="middle" x="373.52" y="-989.7" font-family="Microsoft YaHei" font-size="11.00" fill="#173645">1. 用户提问</text>
</g>
<!-- valid -->
<g id="node2" class="node">
<title>valid</title>
<path fill="#fff4d6" stroke="#9bb5c3" d="M362.38,-929.18C362.38,-929.18 311.37,-908.72 311.37,-908.72 305.8,-906.48 305.8,-902.02 311.37,-899.78 311.37,-899.78 362.38,-879.32 362.38,-879.32 367.95,-877.08 379.09,-877.08 384.66,-879.32 384.66,-879.32 435.67,-899.78 435.67,-899.78 441.24,-902.02 441.24,-906.48 435.67,-908.72 435.67,-908.72 384.66,-929.18 384.66,-929.18 379.09,-931.42 367.95,-931.42 362.38,-929.18"/>
<text text-anchor="middle" x="373.52" y="-901.3" font-family="Microsoft YaHei" font-size="11.00" fill="#173645">问题有效?</text>
</g>
<!-- q&#45;&gt;valid -->
<g id="edge1" class="edge">
<title>q&#45;&gt;valid</title>
<path fill="none" stroke="#5d8498" d="M373.52,-974.17C373.52,-965.15 373.52,-953.79 373.52,-942.9"/>
<polygon fill="#5d8498" stroke="#5d8498" points="376.15,-942.95 373.52,-935.45 370.9,-942.95 376.15,-942.95"/>
</g>
<!-- embed -->
<g id="node3" class="node">
<title>embed</title>
<path fill="#ffffff" stroke="#9bb5c3" d="M361.66,-822.1C361.66,-822.1 243.38,-822.1 243.38,-822.1 237.38,-822.1 231.38,-816.1 231.38,-810.1 231.38,-810.1 231.38,-789.7 231.38,-789.7 231.38,-783.7 237.38,-777.7 243.38,-777.7 243.38,-777.7 361.66,-777.7 361.66,-777.7 367.66,-777.7 373.66,-783.7 373.66,-789.7 373.66,-789.7 373.66,-810.1 373.66,-810.1 373.66,-816.1 367.66,-822.1 361.66,-822.1"/>
<text text-anchor="middle" x="302.52" y="-804.45" font-family="Microsoft YaHei" font-size="11.00" fill="#173645">2. 查询向量化</text>
<text text-anchor="middle" x="302.52" y="-789.45" font-family="Microsoft YaHei" font-size="11.00" fill="#173645">DashScope Embedding</text>
</g>
<!-- valid&#45;&gt;embed -->
<g id="edge2" class="edge">
<title>valid&#45;&gt;embed</title>
<path fill="none" stroke="#5d8498" d="M357.94,-880.79C347.46,-865.68 333.56,-845.65 322.3,-829.42"/>
<polygon fill="#5d8498" stroke="#5d8498" points="324.63,-828.17 318.2,-823.5 320.32,-831.16 324.63,-828.17"/>
<text text-anchor="middle" x="342.52" y="-846.3" font-family="Microsoft YaHei" font-size="9.00" fill="#456a7d">是</text>
</g>
<!-- bad -->
<g id="node12" class="node">
<title>bad</title>
<path fill="#f7e2df" stroke="#9bb5c3" d="M478.79,-817.9C478.79,-817.9 412.25,-817.9 412.25,-817.9 406.25,-817.9 400.25,-811.9 400.25,-805.9 400.25,-805.9 400.25,-793.9 400.25,-793.9 400.25,-787.9 406.25,-781.9 412.25,-781.9 412.25,-781.9 478.79,-781.9 478.79,-781.9 484.79,-781.9 490.79,-787.9 490.79,-793.9 490.79,-793.9 490.79,-805.9 490.79,-805.9 490.79,-811.9 484.79,-817.9 478.79,-817.9"/>
<text text-anchor="middle" x="445.52" y="-796.95" font-family="Microsoft YaHei" font-size="11.00" fill="#173645">返回参数错误</text>
</g>
<!-- valid&#45;&gt;bad -->
<g id="edge3" class="edge">
<title>valid&#45;&gt;bad</title>
<path fill="none" stroke="#5d8498" d="M389.32,-880.79C400.81,-864.46 416.35,-842.36 428.18,-825.55"/>
<polygon fill="#5d8498" stroke="#5d8498" points="430.29,-827.12 432.46,-819.47 425.99,-824.1 430.29,-827.12"/>
<text text-anchor="middle" x="420.47" y="-846.3" font-family="Microsoft YaHei" font-size="9.00" fill="#456a7d">否</text>
</g>
<!-- search -->
<g id="node4" class="node">
<title>search</title>
<path fill="#ffffff" stroke="#9bb5c3" d="M297.54,-736.7C297.54,-736.7 211.5,-736.7 211.5,-736.7 205.5,-736.7 199.5,-730.7 199.5,-724.7 199.5,-724.7 199.5,-704.3 199.5,-704.3 199.5,-698.3 205.5,-692.3 211.5,-692.3 211.5,-692.3 297.54,-692.3 297.54,-692.3 303.54,-692.3 309.54,-698.3 309.54,-704.3 309.54,-704.3 309.54,-724.7 309.54,-724.7 309.54,-730.7 303.54,-736.7 297.54,-736.7"/>
<text text-anchor="middle" x="254.52" y="-719.05" font-family="Microsoft YaHei" font-size="11.00" fill="#173645">3. TopK 向量检索</text>
<text text-anchor="middle" x="254.52" y="-704.05" font-family="Microsoft YaHei" font-size="11.00" fill="#173645">FAISS</text>
</g>
<!-- embed&#45;&gt;search -->
<g id="edge4" class="edge">
<title>embed&#45;&gt;search</title>
<path fill="none" stroke="#5d8498" d="M290.16,-777.42C284.44,-767.48 277.55,-755.51 271.36,-744.76"/>
<polygon fill="#5d8498" stroke="#5d8498" points="273.78,-743.7 267.76,-738.51 269.23,-746.32 273.78,-743.7"/>
</g>
<!-- error -->
<g id="node14" class="node">
<title>error</title>
<path fill="#f7e2df" stroke="#9bb5c3" d="M321.41,-198.4C321.41,-198.4 243.62,-198.4 243.62,-198.4 237.62,-198.4 231.62,-192.4 231.62,-186.4 231.62,-186.4 231.62,-166 231.62,-166 231.62,-160 237.62,-154 243.62,-154 243.62,-154 321.41,-154 321.41,-154 327.41,-154 333.41,-160 333.41,-166 333.41,-166 333.41,-186.4 333.41,-186.4 333.41,-192.4 327.41,-198.4 321.41,-198.4"/>
<text text-anchor="middle" x="282.52" y="-180.75" font-family="Microsoft YaHei" font-size="11.00" fill="#173645">记录异常并返回</text>
<text text-anchor="middle" x="282.52" y="-165.75" font-family="Microsoft YaHei" font-size="11.00" fill="#173645">友好错误信息</text>
</g>
<!-- embed&#45;&gt;error -->
<g id="edge14" class="edge">
<title>embed&#45;&gt;error</title>
<path fill="none" stroke="#5d8498" stroke-dasharray="5,2" d="M323.15,-777.45C336.16,-761.64 350.52,-738.89 350.52,-715.5 350.52,-715.5 350.52,-715.5 350.52,-272.35 350.52,-246.13 333.22,-222.15 316.07,-204.82"/>
<polygon fill="#5d8498" stroke="#5d8498" points="318.09,-203.13 310.87,-199.8 314.44,-206.9 318.09,-203.13"/>
<text text-anchor="middle" x="368.52" y="-485.37" font-family="Microsoft YaHei" font-size="9.00" fill="#456a7d">模型异常</text>
</g>
<!-- found -->
<g id="node5" class="node">
<title>found</title>
<path fill="#fff4d6" stroke="#9bb5c3" d="M155.26,-645.08C155.26,-645.08 102.49,-613.12 102.49,-613.12 97.36,-610.01 97.36,-603.79 102.49,-600.68 102.49,-600.68 155.26,-568.72 155.26,-568.72 160.39,-565.61 170.65,-565.61 175.78,-568.72 175.78,-568.72 228.55,-600.68 228.55,-600.68 233.68,-603.79 233.68,-610.01 228.55,-613.12 228.55,-613.12 175.78,-645.08 175.78,-645.08 170.65,-648.19 160.39,-648.19 155.26,-645.08"/>
<text text-anchor="middle" x="165.52" y="-611.45" font-family="Microsoft YaHei" font-size="11.00" fill="#173645">检索到</text>
<text text-anchor="middle" x="165.52" y="-596.45" font-family="Microsoft YaHei" font-size="11.00" fill="#173645">相关片段?</text>
</g>
<!-- search&#45;&gt;found -->
<g id="edge5" class="edge">
<title>search&#45;&gt;found</title>
<path fill="none" stroke="#5d8498" d="M236.29,-691.88C224.55,-677.94 208.99,-659.48 195.46,-643.42"/>
<polygon fill="#5d8498" stroke="#5d8498" points="197.62,-641.91 190.77,-637.87 193.6,-645.29 197.62,-641.91"/>
</g>
<!-- search&#45;&gt;error -->
<g id="edge15" class="edge">
<title>search&#45;&gt;error</title>
<path fill="none" stroke="#5d8498" stroke-dasharray="5,2" d="M263.69,-692.1C271.85,-671.07 282.52,-637.87 282.52,-607.9 282.52,-607.9 282.52,-607.9 282.52,-272.35 282.52,-250.73 282.52,-226.34 282.52,-207.67"/>
<polygon fill="#5d8498" stroke="#5d8498" points="285.15,-207.75 282.52,-200.25 279.9,-207.75 285.15,-207.75"/>
<text text-anchor="middle" x="300.52" y="-420.97" font-family="Microsoft YaHei" font-size="9.00" fill="#456a7d">检索异常</text>
</g>
<!-- context -->
<g id="node6" class="node">
<title>context</title>
<path fill="#ffffff" stroke="#9bb5c3" d="M213.04,-509.75C213.04,-509.75 118,-509.75 118,-509.75 112,-509.75 106,-503.75 106,-497.75 106,-497.75 106,-477.35 106,-477.35 106,-471.35 112,-465.35 118,-465.35 118,-465.35 213.04,-465.35 213.04,-465.35 219.04,-465.35 225.04,-471.35 225.04,-477.35 225.04,-477.35 225.04,-497.75 225.04,-497.75 225.04,-503.75 219.04,-509.75 213.04,-509.75"/>
<text text-anchor="middle" x="165.52" y="-492.1" font-family="Microsoft YaHei" font-size="11.00" fill="#173645">4. 构建上下文</text>
<text text-anchor="middle" x="165.52" y="-477.1" font-family="Microsoft YaHei" font-size="11.00" fill="#173645">片段 + 标题 + 来源</text>
</g>
<!-- found&#45;&gt;context -->
<g id="edge6" class="edge">
<title>found&#45;&gt;context</title>
<path fill="none" stroke="#5d8498" d="M165.52,-562.2C165.52,-547.8 165.52,-532.11 165.52,-518.93"/>
<polygon fill="#5d8498" stroke="#5d8498" points="168.15,-519.26 165.52,-511.76 162.9,-519.26 168.15,-519.26"/>
<text text-anchor="middle" x="170.02" y="-533.95" font-family="Microsoft YaHei" font-size="9.00" fill="#456a7d">是</text>
</g>
<!-- fallback -->
<g id="node13" class="node">
<title>fallback</title>
<path fill="#f7e2df" stroke="#9bb5c3" d="M101.04,-445.35C101.04,-445.35 12,-445.35 12,-445.35 6,-445.35 0,-439.35 0,-433.35 0,-433.35 0,-412.95 0,-412.95 0,-406.95 6,-400.95 12,-400.95 12,-400.95 101.04,-400.95 101.04,-400.95 107.04,-400.95 113.04,-406.95 113.04,-412.95 113.04,-412.95 113.04,-433.35 113.04,-433.35 113.04,-439.35 107.04,-445.35 101.04,-445.35"/>
<text text-anchor="middle" x="56.52" y="-427.7" font-family="Microsoft YaHei" font-size="11.00" fill="#173645">说明暂无可靠依据</text>
<text text-anchor="middle" x="56.52" y="-412.7" font-family="Microsoft YaHei" font-size="11.00" fill="#173645">避免无依据回答</text>
</g>
<!-- found&#45;&gt;fallback -->
<g id="edge7" class="edge">
<title>found&#45;&gt;fallback</title>
<path fill="none" stroke="#5d8498" d="M140.81,-577.36C125.62,-558.9 106.46,-533.89 92.52,-509.75 82.29,-492.04 73.36,-470.85 66.95,-453.99"/>
<polygon fill="#5d8498" stroke="#5d8498" points="69.43,-453.14 64.36,-447.03 64.51,-454.97 69.43,-453.14"/>
<text text-anchor="middle" x="117.67" y="-533.95" font-family="Microsoft YaHei" font-size="9.00" fill="#456a7d">否</text>
</g>
<!-- prompt -->
<g id="node7" class="node">
<title>prompt</title>
<path fill="#ffffff" stroke="#9bb5c3" d="M229.91,-380.95C229.91,-380.95 101.12,-380.95 101.12,-380.95 95.12,-380.95 89.12,-374.95 89.12,-368.95 89.12,-368.95 89.12,-348.55 89.12,-348.55 89.12,-342.55 95.12,-336.55 101.12,-336.55 101.12,-336.55 229.91,-336.55 229.91,-336.55 235.91,-336.55 241.91,-342.55 241.91,-348.55 241.91,-348.55 241.91,-368.95 241.91,-368.95 241.91,-374.95 235.91,-380.95 229.91,-380.95"/>
<text text-anchor="middle" x="165.52" y="-363.3" font-family="Microsoft YaHei" font-size="11.00" fill="#173645">5. 拼接 Prompt</text>
<text text-anchor="middle" x="165.52" y="-348.3" font-family="Microsoft YaHei" font-size="11.00" fill="#173645">系统指令 + 上下文 + 问题</text>
</g>
<!-- context&#45;&gt;prompt -->
<g id="edge8" class="edge">
<title>context&#45;&gt;prompt</title>
<path fill="none" stroke="#5d8498" d="M165.52,-465.04C165.52,-444.46 165.52,-413.21 165.52,-390.1"/>
<polygon fill="#5d8498" stroke="#5d8498" points="168.15,-390.38 165.52,-382.88 162.9,-390.38 168.15,-390.38"/>
</g>
<!-- llm -->
<g id="node8" class="node">
<title>llm</title>
<path fill="#ffffff" stroke="#9bb5c3" d="M206.66,-295.55C206.66,-295.55 124.37,-295.55 124.37,-295.55 118.37,-295.55 112.37,-289.55 112.37,-283.55 112.37,-283.55 112.37,-263.15 112.37,-263.15 112.37,-257.15 118.37,-251.15 124.37,-251.15 124.37,-251.15 206.66,-251.15 206.66,-251.15 212.66,-251.15 218.66,-257.15 218.66,-263.15 218.66,-263.15 218.66,-283.55 218.66,-283.55 218.66,-289.55 212.66,-295.55 206.66,-295.55"/>
<text text-anchor="middle" x="165.52" y="-277.9" font-family="Microsoft YaHei" font-size="11.00" fill="#173645">6. LLM 生成回答</text>
<text text-anchor="middle" x="165.52" y="-262.9" font-family="Microsoft YaHei" font-size="11.00" fill="#173645">通义千问</text>
</g>
<!-- prompt&#45;&gt;llm -->
<g id="edge9" class="edge">
<title>prompt&#45;&gt;llm</title>
<path fill="none" stroke="#5d8498" d="M165.52,-336.27C165.52,-326.72 165.52,-315.29 165.52,-304.87"/>
<polygon fill="#5d8498" stroke="#5d8498" points="168.15,-305.06 165.52,-297.56 162.9,-305.06 168.15,-305.06"/>
</g>
<!-- stream -->
<g id="node9" class="node">
<title>stream</title>
<path fill="#e7f2ec" stroke="#9bb5c3" d="M187.91,-198.4C187.91,-198.4 107.12,-198.4 107.12,-198.4 101.12,-198.4 95.12,-192.4 95.12,-186.4 95.12,-186.4 95.12,-166 95.12,-166 95.12,-160 101.12,-154 107.12,-154 107.12,-154 187.91,-154 187.91,-154 193.91,-154 199.91,-160 199.91,-166 199.91,-166 199.91,-186.4 199.91,-186.4 199.91,-192.4 193.91,-198.4 187.91,-198.4"/>
<text text-anchor="middle" x="147.52" y="-180.75" font-family="Microsoft YaHei" font-size="11.00" fill="#173645">SSE 流式返回</text>
<text text-anchor="middle" x="147.52" y="-165.75" font-family="Microsoft YaHei" font-size="11.00" fill="#173645">答案 + 引用来源</text>
</g>
<!-- llm&#45;&gt;stream -->
<g id="edge10" class="edge">
<title>llm&#45;&gt;stream</title>
<path fill="none" stroke="#5d8498" d="M161.44,-250.76C159.02,-237.99 155.92,-221.61 153.26,-207.55"/>
<polygon fill="#5d8498" stroke="#5d8498" points="155.84,-207.07 151.87,-200.19 150.68,-208.05 155.84,-207.07"/>
</g>
<!-- llm&#45;&gt;error -->
<g id="edge16" class="edge">
<title>llm&#45;&gt;error</title>
<path fill="none" stroke="#5d8498" stroke-dasharray="5,2" d="M188.85,-250.84C200.04,-240.75 213.76,-228.7 226.52,-218.4 232.39,-213.66 238.74,-208.78 244.97,-204.1"/>
<polygon fill="#5d8498" stroke="#5d8498" points="246.53,-206.21 250.99,-199.64 243.41,-202 246.53,-206.21"/>
<text text-anchor="middle" x="244.52" y="-222.6" font-family="Microsoft YaHei" font-size="9.00" fill="#456a7d">生成异常</text>
</g>
<!-- save -->
<g id="node10" class="node">
<title>save</title>
<path fill="#ffffff" stroke="#9bb5c3" d="M103.41,-113C103.41,-113 25.62,-113 25.62,-113 19.62,-113 13.62,-107 13.62,-101 13.62,-101 13.62,-89 13.62,-89 13.62,-83 19.62,-77 25.62,-77 25.62,-77 103.41,-77 103.41,-77 109.41,-77 115.41,-83 115.41,-89 115.41,-89 115.41,-101 115.41,-101 115.41,-107 109.41,-113 103.41,-113"/>
<text text-anchor="middle" x="64.52" y="-92.05" font-family="Microsoft YaHei" font-size="11.00" fill="#173645">保存会话与消息</text>
</g>
<!-- stream&#45;&gt;save -->
<g id="edge11" class="edge">
<title>stream&#45;&gt;save</title>
<path fill="none" stroke="#5d8498" d="M124.84,-153.56C113.77,-142.99 100.42,-130.26 89.11,-119.46"/>
<polygon fill="#5d8498" stroke="#5d8498" points="91.04,-117.68 83.8,-114.4 87.42,-121.48 91.04,-117.68"/>
</g>
<!-- show -->
<g id="node11" class="node">
<title>show</title>
<path fill="#dcecf2" stroke="#9bb5c3" d="M97.79,-36C97.79,-36 31.25,-36 31.25,-36 25.25,-36 19.25,-30 19.25,-24 19.25,-24 19.25,-12 19.25,-12 19.25,-6 25.25,0 31.25,0 31.25,0 97.79,0 97.79,0 103.79,0 109.79,-6 109.79,-12 109.79,-12 109.79,-24 109.79,-24 109.79,-30 103.79,-36 97.79,-36"/>
<text text-anchor="middle" x="64.52" y="-15.05" font-family="Microsoft YaHei" font-size="11.00" fill="#173645">前端展示结果</text>
</g>
<!-- save&#45;&gt;show -->
<g id="edge12" class="edge">
<title>save&#45;&gt;show</title>
<path fill="none" stroke="#5d8498" d="M64.52,-76.6C64.52,-67.23 64.52,-55.48 64.52,-45.04"/>
<polygon fill="#5d8498" stroke="#5d8498" points="67.15,-45.31 64.52,-37.81 61.9,-45.31 67.15,-45.31"/>
</g>
<!-- fallback&#45;&gt;save -->
<g id="edge13" class="edge">
<title>fallback&#45;&gt;save</title>
<path fill="none" stroke="#5d8498" d="M53.94,-400.75C51.61,-379.44 48.52,-345.78 48.52,-316.55 48.52,-316.55 48.52,-316.55 48.52,-175.2 48.52,-157.14 52.57,-137.22 56.59,-121.87"/>
<polygon fill="#5d8498" stroke="#5d8498" points="59.06,-122.8 58.52,-114.87 53.99,-121.4 59.06,-122.8"/>
</g>
</g>
</svg>
