<?xml version="1.0" encoding="UTF-8" standalone="no"?>
<!DOCTYPE svg PUBLIC "-//W3C//DTD SVG 1.1//EN"
 "http://www.w3.org/Graphics/SVG/1.1/DTD/svg11.dtd">
<!-- Generated by graphviz version 12.2.1 (20241206.2353)
 -->
<!-- Title: CampusQA Pages: 1 -->
<svg width="558pt" height="1124pt"
 viewBox="0.00 0.00 557.59 1124.36" xmlns="http://www.w3.org/2000/svg" xmlns:xlink="http://www.w3.org/1999/xlink">
<g id="graph0" class="graph" transform="scale(1 1) rotate(0) translate(25.2 1099.16)">
<title>CampusQA</title>
<polygon fill="#f6f3ec" stroke="none" points="-25.2,25.2 -25.2,-1099.16 532.38,-1099.16 532.38,25.2 -25.2,25.2"/>
<text text-anchor="middle" x="253.59" y="-1049.06" font-family="Microsoft YaHei" font-size="22.00" fill="#12394d">校园问答助手 &#45; 系统整体流程</text>
<!-- start -->
<g id="node1" class="node">
<title>start</title>
<ellipse fill="#dcecf2" stroke="#9bb5c3" cx="79.29" cy="-1015.17" rx="32.2" ry="20.79"/>
<text text-anchor="middle" x="79.29" y="-1012.22" font-family="Microsoft YaHei" font-size="11.00" fill="#173645">开始</text>
</g>
<!-- auth -->
<g id="node2" class="node">
<title>auth</title>
<path fill="#ffffff" stroke="#9bb5c3" d="M119.69,-953.38C119.69,-953.38 38.89,-953.38 38.89,-953.38 32.89,-953.38 26.89,-947.38 26.89,-941.38 26.89,-941.38 26.89,-920.98 26.89,-920.98 26.89,-914.98 32.89,-908.98 38.89,-908.98 38.89,-908.98 119.69,-908.98 119.69,-908.98 125.69,-908.98 131.69,-914.98 131.69,-920.98 131.69,-920.98 131.69,-941.38 131.69,-941.38 131.69,-947.38 125.69,-953.38 119.69,-953.38"/>
<text text-anchor="middle" x="79.29" y="-935.73" font-family="Microsoft YaHei" font-size="11.00" fill="#173645">注册 / 登录</text>
<text text-anchor="middle" x="79.29" y="-920.73" font-family="Microsoft YaHei" font-size="11.00" fill="#173645">密码哈希 + JWT</text>
</g>
<!-- start&#45;&gt;auth -->
<g id="edge1" class="edge">
<title>start&#45;&gt;auth</title>
<path fill="none" stroke="#5d8498" d="M79.29,-993.9C79.29,-984.44 79.29,-972.98 79.29,-962.51"/>
<polygon fill="#5d8498" stroke="#5d8498" points="81.92,-962.66 79.29,-955.16 76.67,-962.66 81.92,-962.66"/>
</g>
<!-- check -->
<g id="node3" class="node">
<title>check</title>
<path fill="#fff4d6" stroke="#9bb5c3" d="M68.82,-850.36C68.82,-850.36 10.47,-817.69 10.47,-817.69 5.24,-814.76 5.24,-808.9 10.47,-805.96 10.47,-805.96 68.82,-773.29 68.82,-773.29 74.05,-770.36 84.53,-770.36 89.76,-773.29 89.76,-773.29 148.11,-805.96 148.11,-805.96 153.34,-808.9 153.34,-814.76 148.11,-817.69 148.11,-817.69 89.76,-850.36 89.76,-850.36 84.53,-853.3 74.05,-853.3 68.82,-850.36"/>
<text text-anchor="middle" x="79.29" y="-816.38" font-family="Microsoft YaHei" font-size="11.00" fill="#173645">身份与角色</text>
<text text-anchor="middle" x="79.29" y="-801.38" font-family="Microsoft YaHei" font-size="11.00" fill="#173645">校验</text>
</g>
<!-- auth&#45;&gt;check -->
<g id="edge2" class="edge">
<title>auth&#45;&gt;check</title>
<path fill="none" stroke="#5d8498" d="M76.2,-908.84C75.42,-902.46 74.68,-895.45 74.29,-888.98 73.78,-880.54 73.83,-871.57 74.2,-862.87"/>
<polygon fill="#5d8498" stroke="#5d8498" points="76.82,-863.07 74.61,-855.44 71.58,-862.78 76.82,-863.07"/>
</g>
<!-- check&#45;&gt;auth -->
<g id="edge4" class="edge">
<title>check&#45;&gt;auth</title>
<path fill="none" stroke="#5d8498" d="M79.29,-856.58C79.29,-871.02 79.29,-886.76 79.29,-899.97"/>
<polygon fill="#5d8498" stroke="#5d8498" points="76.67,-899.64 79.29,-907.14 81.92,-899.64 76.67,-899.64"/>
<text text-anchor="middle" x="120.54" y="-880.43" font-family="Microsoft YaHei" font-size="9.00" fill="#456a7d">未认证 / Token 失效</text>
</g>
<!-- home -->
<g id="node4" class="node">
<title>home</title>
<path fill="#ffffff" stroke="#9bb5c3" d="M167.81,-203.98C167.81,-203.98 78.77,-203.98 78.77,-203.98 72.77,-203.98 66.77,-197.98 66.77,-191.98 66.77,-191.98 66.77,-179.98 66.77,-179.98 66.77,-173.98 72.77,-167.98 78.77,-167.98 78.77,-167.98 167.81,-167.98 167.81,-167.98 173.81,-167.98 179.81,-173.98 179.81,-179.98 179.81,-179.98 179.81,-191.98 179.81,-191.98 179.81,-197.98 173.81,-203.98 167.81,-203.98"/>
<text text-anchor="middle" x="123.29" y="-183.03" font-family="Microsoft YaHei" font-size="11.00" fill="#173645">进入校园问答平台</text>
</g>
<!-- check&#45;&gt;home -->
<g id="edge3" class="edge">
<title>check&#45;&gt;home</title>
<path fill="none" stroke="#5d8498" d="M67.79,-773.5C62.04,-751.62 56.29,-723.34 56.29,-697.68 56.29,-697.68 56.29,-697.68 56.29,-266.18 56.29,-243.28 72.81,-223.6 89.45,-209.58"/>
<polygon fill="#5d8498" stroke="#5d8498" points="90.64,-211.98 94.86,-205.25 87.36,-207.88 90.64,-211.98"/>
<text text-anchor="middle" x="83.66" y="-487.73" font-family="Microsoft YaHei" font-size="9.00" fill="#456a7d">学生 / 管理员</text>
</g>
<!-- admin -->
<g id="node8" class="node">
<title>admin</title>
<path fill="#ffffff" stroke="#9bb5c3" d="M343.56,-714.68C343.56,-714.68 277.02,-714.68 277.02,-714.68 271.02,-714.68 265.02,-708.68 265.02,-702.68 265.02,-702.68 265.02,-690.68 265.02,-690.68 265.02,-684.68 271.02,-678.68 277.02,-678.68 277.02,-678.68 343.56,-678.68 343.56,-678.68 349.56,-678.68 355.56,-684.68 355.56,-690.68 355.56,-690.68 355.56,-702.68 355.56,-702.68 355.56,-708.68 349.56,-714.68 343.56,-714.68"/>
<text text-anchor="middle" x="310.29" y="-693.73" font-family="Microsoft YaHei" font-size="11.00" fill="#173645">管理员工作台</text>
</g>
<!-- check&#45;&gt;admin -->
<g id="edge11" class="edge">
<title>check&#45;&gt;admin</title>
<path fill="none" stroke="#5d8498" d="M121.12,-790.34C162.32,-770.16 224.98,-739.46 266.76,-719"/>
<polygon fill="#5d8498" stroke="#5d8498" points="267.88,-721.37 273.46,-715.72 265.57,-716.66 267.88,-721.37"/>
<text text-anchor="middle" x="245.1" y="-738.88" font-family="Microsoft YaHei" font-size="9.00" fill="#456a7d">ADMIN</text>
</g>
<!-- question -->
<g id="node5" class="node">
<title>question</title>
<path fill="#ffffff" stroke="#9bb5c3" d="M261.56,-122.78C261.56,-122.78 195.02,-122.78 195.02,-122.78 189.02,-122.78 183.02,-116.78 183.02,-110.78 183.02,-110.78 183.02,-98.78 183.02,-98.78 183.02,-92.78 189.02,-86.78 195.02,-86.78 195.02,-86.78 261.56,-86.78 261.56,-86.78 267.56,-86.78 273.56,-92.78 273.56,-98.78 273.56,-98.78 273.56,-110.78 273.56,-110.78 273.56,-116.78 267.56,-122.78 261.56,-122.78"/>
<text text-anchor="middle" x="228.29" y="-101.83" font-family="Microsoft YaHei" font-size="11.00" fill="#173645">发起校园问题</text>
</g>
<!-- home&#45;&gt;question -->
<g id="edge5" class="edge">
<title>home&#45;&gt;question</title>
<path fill="none" stroke="#5d8498" d="M146.33,-167.6C161.65,-156.04 181.92,-140.76 198.46,-128.28"/>
<polygon fill="#5d8498" stroke="#5d8498" points="199.69,-130.64 204.09,-124.03 196.52,-126.45 199.69,-130.64"/>
</g>
<!-- logout -->
<g id="node13" class="node">
<title>logout</title>
<path fill="#ffffff" stroke="#9bb5c3" d="M143.56,-126.98C143.56,-126.98 65.02,-126.98 65.02,-126.98 59.02,-126.98 53.02,-120.98 53.02,-114.98 53.02,-114.98 53.02,-94.58 53.02,-94.58 53.02,-88.58 59.02,-82.58 65.02,-82.58 65.02,-82.58 143.56,-82.58 143.56,-82.58 149.56,-82.58 155.56,-88.58 155.56,-94.58 155.56,-94.58 155.56,-114.98 155.56,-114.98 155.56,-120.98 149.56,-126.98 143.56,-126.98"/>
<text text-anchor="middle" x="104.29" y="-109.33" font-family="Microsoft YaHei" font-size="11.00" fill="#173645">退出登录</text>
<text text-anchor="middle" x="104.29" y="-94.33" font-family="Microsoft YaHei" font-size="11.00" fill="#173645">清除本地 Token</text>
</g>
<!-- home&#45;&gt;logout -->
<g id="edge9" class="edge">
<title>home&#45;&gt;logout</title>
<path fill="none" stroke="#5d8498" d="M119.17,-167.79C116.95,-158.55 114.15,-146.88 111.58,-136.17"/>
<polygon fill="#5d8498" stroke="#5d8498" points="114.15,-135.61 109.85,-128.93 109.04,-136.84 114.15,-135.61"/>
</g>
<!-- rag -->
<g id="node6" class="node">
<title>rag</title>
<path fill="#e7f2ec" stroke="#9bb5c3" d="M276.94,-374.78C276.94,-374.78 173.64,-374.78 173.64,-374.78 167.64,-374.78 161.64,-368.78 161.64,-362.78 161.64,-362.78 161.64,-342.38 161.64,-342.38 161.64,-336.38 167.64,-330.38 173.64,-330.38 173.64,-330.38 276.94,-330.38 276.94,-330.38 282.94,-330.38 288.94,-336.38 288.94,-342.38 288.94,-342.38 288.94,-362.78 288.94,-362.78 288.94,-368.78 282.94,-374.78 276.94,-374.78"/>
<text text-anchor="middle" x="225.29" y="-357.13" font-family="Microsoft YaHei" font-size="11.00" fill="#173645">RAG 检索与生成</text>
<text text-anchor="middle" x="225.29" y="-342.13" font-family="Microsoft YaHei" font-size="11.00" fill="#173645">返回答案 + 引用来源</text>
</g>
<!-- question&#45;&gt;rag -->
<g id="edge6" class="edge">
<title>question&#45;&gt;rag</title>
<path fill="none" stroke="#5d8498" d="M228.08,-123.25C227.57,-164.72 226.29,-269.5 225.66,-321.44"/>
<polygon fill="#5d8498" stroke="#5d8498" points="223.04,-321.15 225.57,-328.68 228.29,-321.21 223.04,-321.15"/>
</g>
<!-- history -->
<g id="node7" class="node">
<title>history</title>
<path fill="#ffffff" stroke="#9bb5c3" d="M175.56,-289.38C175.56,-289.38 109.02,-289.38 109.02,-289.38 103.02,-289.38 97.02,-283.38 97.02,-277.38 97.02,-277.38 97.02,-256.98 97.02,-256.98 97.02,-250.98 103.02,-244.98 109.02,-244.98 109.02,-244.98 175.56,-244.98 175.56,-244.98 181.56,-244.98 187.56,-250.98 187.56,-256.98 187.56,-256.98 187.56,-277.38 187.56,-277.38 187.56,-283.38 181.56,-289.38 175.56,-289.38"/>
<text text-anchor="middle" x="142.29" y="-271.73" font-family="Microsoft YaHei" font-size="11.00" fill="#173645">保存并展示</text>
<text text-anchor="middle" x="142.29" y="-256.73" font-family="Microsoft YaHei" font-size="11.00" fill="#173645">个人问答历史</text>
</g>
<!-- rag&#45;&gt;history -->
<g id="edge7" class="edge">
<title>rag&#45;&gt;history</title>
<path fill="none" stroke="#5d8498" d="M203.92,-330.1C193.64,-319.77 181.18,-307.26 170.17,-296.19"/>
<polygon fill="#5d8498" stroke="#5d8498" points="172.1,-294.41 164.95,-290.95 168.38,-298.11 172.1,-294.41"/>
</g>
<!-- history&#45;&gt;home -->
<g id="edge8" class="edge">
<title>history&#45;&gt;home</title>
<path fill="none" stroke="#5d8498" d="M137.1,-244.54C134.75,-234.76 131.96,-223.13 129.51,-212.89"/>
<polygon fill="#5d8498" stroke="#5d8498" points="132.11,-212.49 127.81,-205.81 127,-213.71 132.11,-212.49"/>
</g>
<!-- users -->
<g id="node9" class="node">
<title>users</title>
<path fill="#ffffff" stroke="#9bb5c3" d="M495.18,-637.68C495.18,-637.68 363.39,-637.68 363.39,-637.68 357.39,-637.68 351.39,-631.68 351.39,-625.68 351.39,-625.68 351.39,-605.28 351.39,-605.28 351.39,-599.28 357.39,-593.28 363.39,-593.28 363.39,-593.28 495.18,-593.28 495.18,-593.28 501.18,-593.28 507.18,-599.28 507.18,-605.28 507.18,-605.28 507.18,-625.68 507.18,-625.68 507.18,-631.68 501.18,-637.68 495.18,-637.68"/>
<text text-anchor="middle" x="429.29" y="-620.03" font-family="Microsoft YaHei" font-size="11.00" fill="#173645">用户 CRUD</text>
<text text-anchor="middle" x="429.29" y="-605.03" font-family="Microsoft YaHei" font-size="11.00" fill="#173645">新增 / 查询 / 编辑 / 软删除</text>
</g>
<!-- admin&#45;&gt;users -->
<g id="edge12" class="edge">
<title>admin&#45;&gt;users</title>
<path fill="none" stroke="#5d8498" d="M327.86,-678.3C341.9,-667.85 361.84,-654.34 380.42,-642.62"/>
<polygon fill="#5d8498" stroke="#5d8498" points="381.48,-645.06 386.45,-638.86 378.7,-640.6 381.48,-645.06"/>
</g>
<!-- upload -->
<g id="node10" class="node">
<title>upload</title>
<path fill="#ffffff" stroke="#9bb5c3" d="M257.06,-633.48C257.06,-633.48 109.52,-633.48 109.52,-633.48 103.52,-633.48 97.52,-627.48 97.52,-621.48 97.52,-621.48 97.52,-609.48 97.52,-609.48 97.52,-603.48 103.52,-597.48 109.52,-597.48 109.52,-597.48 257.06,-597.48 257.06,-597.48 263.06,-597.48 269.06,-603.48 269.06,-609.48 269.06,-609.48 269.06,-621.48 269.06,-621.48 269.06,-627.48 263.06,-633.48 257.06,-633.48"/>
<text text-anchor="middle" x="183.29" y="-612.53" font-family="Microsoft YaHei" font-size="11.00" fill="#173645">上传 TXT / MD / PDF / DOCX</text>
</g>
<!-- admin&#45;&gt;upload -->
<g id="edge14" class="edge">
<title>admin&#45;&gt;upload</title>
<path fill="none" stroke="#5d8498" d="M282.42,-678.3C263.64,-666.59 238.72,-651.05 218.57,-638.48"/>
<polygon fill="#5d8498" stroke="#5d8498" points="220.13,-636.36 212.38,-634.62 217.35,-640.82 220.13,-636.36"/>
</g>
<!-- users&#45;&gt;admin -->
<g id="edge13" class="edge">
<title>users&#45;&gt;admin</title>
<path fill="none" stroke="#5d8498" d="M405.99,-638.06C390.68,-649.12 370.5,-662.57 352.51,-673.69"/>
<polygon fill="#5d8498" stroke="#5d8498" points="351.28,-671.36 346.25,-677.51 354.02,-675.84 351.28,-671.36"/>
</g>
<!-- process -->
<g id="node11" class="node">
<title>process</title>
<path fill="#ffffff" stroke="#9bb5c3" d="M246.69,-552.28C246.69,-552.28 147.89,-552.28 147.89,-552.28 141.89,-552.28 135.89,-546.28 135.89,-540.28 135.89,-540.28 135.89,-528.28 135.89,-528.28 135.89,-522.28 141.89,-516.28 147.89,-516.28 147.89,-516.28 246.69,-516.28 246.69,-516.28 252.69,-516.28 258.69,-522.28 258.69,-528.28 258.69,-528.28 258.69,-540.28 258.69,-540.28 258.69,-546.28 252.69,-552.28 246.69,-552.28"/>
<text text-anchor="middle" x="197.29" y="-531.33" font-family="Microsoft YaHei" font-size="11.00" fill="#173645">解析 &#45; 切分 &#45; 向量化</text>
</g>
<!-- upload&#45;&gt;process -->
<g id="edge15" class="edge">
<title>upload&#45;&gt;process</title>
<path fill="none" stroke="#5d8498" d="M186.33,-597.29C188.19,-586.78 190.6,-573.12 192.69,-561.3"/>
<polygon fill="#5d8498" stroke="#5d8498" points="195.23,-562.04 193.95,-554.19 190.06,-561.12 195.23,-562.04"/>
</g>
<!-- index -->
<g id="node12" class="node">
<title>index</title>
<path fill="#e7f2ec" stroke="#9bb5c3" d="M275.44,-463.53C275.44,-463.53 175.14,-463.53 175.14,-463.53 169.14,-463.53 163.14,-457.53 163.14,-451.53 163.14,-451.53 163.14,-439.53 163.14,-439.53 163.14,-433.53 169.14,-427.53 175.14,-427.53 175.14,-427.53 275.44,-427.53 275.44,-427.53 281.44,-427.53 287.44,-433.53 287.44,-439.53 287.44,-439.53 287.44,-451.53 287.44,-451.53 287.44,-457.53 281.44,-463.53 275.44,-463.53"/>
<text text-anchor="middle" x="225.29" y="-442.58" font-family="Microsoft YaHei" font-size="11.00" fill="#173645">写入 FAISS 向量索引</text>
</g>
<!-- process&#45;&gt;index -->
<g id="edge16" class="edge">
<title>process&#45;&gt;index</title>
<path fill="none" stroke="#5d8498" d="M202.82,-516.14C206.86,-503.63 212.41,-486.45 216.98,-472.29"/>
<polygon fill="#5d8498" stroke="#5d8498" points="219.4,-473.31 219.21,-465.37 214.41,-471.7 219.4,-473.31"/>
</g>
<!-- index&#45;&gt;rag -->
<g id="edge18" class="edge">
<title>index&#45;&gt;rag</title>
<path fill="none" stroke="#5d8498" stroke-dasharray="5,2" d="M225.29,-427.42C225.29,-415.15 225.29,-398.29 225.29,-383.77"/>
<polygon fill="#5d8498" stroke="#5d8498" points="227.92,-384.12 225.29,-376.62 222.67,-384.12 227.92,-384.12"/>
<text text-anchor="middle" x="252.29" y="-398.98" font-family="Microsoft YaHei" font-size="9.00" fill="#456a7d">提供检索数据</text>
</g>
<!-- index&#45;&gt;admin -->
<g id="edge17" class="edge">
<title>index&#45;&gt;admin</title>
<path fill="none" stroke="#5d8498" d="M239.7,-463.78C250.24,-477.27 264.09,-496.92 272.29,-516.28 294.18,-567.94 303.94,-633.5 307.9,-669.34"/>
<polygon fill="#5d8498" stroke="#5d8498" points="305.28,-669.51 308.67,-676.69 310.5,-668.96 305.28,-669.51"/>
</g>
<!-- end -->
<g id="node14" class="node">
<title>end</title>
<ellipse fill="#dcecf2" stroke="#9bb5c3" cx="104.29" cy="-20.79" rx="32.2" ry="20.79"/>
<text text-anchor="middle" x="104.29" y="-17.84" font-family="Microsoft YaHei" font-size="11.00" fill="#173645">结束</text>
</g>
<!-- logout&#45;&gt;end -->
<g id="edge10" class="edge">
<title>logout&#45;&gt;end</title>
<path fill="none" stroke="#5d8498" d="M104.29,-82.24C104.29,-72.62 104.29,-61.15 104.29,-50.8"/>
<polygon fill="#5d8498" stroke="#5d8498" points="106.92,-51.07 104.29,-43.57 101.67,-51.07 106.92,-51.07"/>
</g>
</g>
</svg>
